<svg width="98" height="14" viewBox="0 0 98 14" fill="none" xmlns="http://www.w3.org/2000/svg">
<path d="M1.65057 11H0.357955L4.09659 0.818182H5.36932L9.10795 11H7.81534L4.77273 2.42898H4.69318L1.65057 11ZM2.12784 7.02273H7.33807V8.11648H2.12784V7.02273ZM10.3948 11V3.36364H11.5283V4.55682H11.6278C11.7868 4.14915 12.0437 3.83262 12.3984 3.60724C12.753 3.37855 13.1789 3.2642 13.6761 3.2642C14.1798 3.2642 14.5991 3.37855 14.9339 3.60724C15.2719 3.83262 15.5354 4.14915 15.7243 4.55682H15.8039C15.9994 4.16241 16.2928 3.84919 16.6839 3.61719C17.075 3.38187 17.5439 3.2642 18.0908 3.2642C18.7736 3.2642 19.3321 3.47798 19.7662 3.90554C20.2004 4.32978 20.4175 4.991 20.4175 5.8892V11H19.2442V5.8892C19.2442 5.32576 19.0901 4.92306 18.7819 4.68111C18.4736 4.43916 18.1107 4.31818 17.6931 4.31818C17.1562 4.31818 16.7402 4.48059 16.4452 4.8054C16.1502 5.12689 16.0028 5.53456 16.0028 6.02841V11H14.8096V5.76989C14.8096 5.3357 14.6687 4.98603 14.387 4.72088C14.1053 4.45241 13.7423 4.31818 13.2982 4.31818C12.9933 4.31818 12.7082 4.39938 12.4431 4.56179C12.1813 4.72419 11.9691 4.94957 11.8067 5.23793C11.6476 5.52296 11.5681 5.85275 11.5681 6.22727V11H10.3948ZM25.525 11.1591C24.8356 11.1591 24.2308 10.995 23.7104 10.6669C23.1934 10.3388 22.789 9.87973 22.4973 9.28977C22.209 8.69981 22.0648 8.01042 22.0648 7.22159C22.0648 6.42614 22.209 5.73177 22.4973 5.13849C22.789 4.54522 23.1934 4.08452 23.7104 3.75639C24.2308 3.42827 24.8356 3.2642 25.525 3.2642C26.2144 3.2642 26.8177 3.42827 27.3347 3.75639C27.8551 4.08452 28.2594 4.54522 28.5478 5.13849C28.8394 5.73177 28.9853 6.42614 28.9853 7.22159C28.9853 8.01042 28.8394 8.69981 28.5478 9.28977C28.2594 9.87973 27.8551 10.3388 27.3347 10.6669C26.8177 10.995 26.2144 11.1591 25.525 11.1591ZM25.525 10.1051C26.0487 10.1051 26.4796 9.97088 26.8177 9.70241C27.1557 9.43395 27.406 9.08097 27.5684 8.64347C27.7308 8.20597 27.812 7.73201 27.812 7.22159C27.812 6.71117 27.7308 6.23556 27.5684 5.79474C27.406 5.35393 27.1557 4.99763 26.8177 4.72585C26.4796 4.45407 26.0487 4.31818 25.525 4.31818C25.0014 4.31818 24.5705 4.45407 24.2324 4.72585C23.8944 4.99763 23.6441 5.35393 23.4817 5.79474C23.3193 6.23556 23.2381 6.71117 23.2381 7.22159C23.2381 7.73201 23.3193 8.20597 23.4817 8.64347C23.6441 9.08097 23.8944 9.43395 24.2324 9.70241C24.5705 9.97088 25.0014 10.1051 25.525 10.1051ZM35.4488 7.87784V3.36364H36.6221V11H35.4488V9.70739H35.3692C35.1903 10.0952 34.9119 10.425 34.534 10.6967C34.1562 10.9652 33.6789 11.0994 33.1022 11.0994C32.6249 11.0994 32.2007 10.995 31.8295 10.7862C31.4583 10.5741 31.1666 10.2559 30.9545 9.83168C30.7423 9.40412 30.6363 8.86553 30.6363 8.21591V3.36364H31.8096V8.13636C31.8096 8.69318 31.9654 9.13731 32.2769 9.46875C32.5918 9.80019 32.9928 9.96591 33.48 9.96591C33.7717 9.96591 34.0683 9.89134 34.37 9.74219C34.6749 9.59304 34.9301 9.36435 35.1356 9.05611C35.3444 8.74787 35.4488 8.35511 35.4488 7.87784ZM39.8043 6.40625V11H38.631V3.36364H39.7646V4.55682H39.864C40.043 4.16903 40.3148 3.85748 40.6793 3.62216C41.0439 3.38352 41.5146 3.2642 42.0913 3.2642C42.6083 3.2642 43.0607 3.37027 43.4485 3.58239C43.8363 3.79119 44.1379 4.10938 44.3534 4.53693C44.5688 4.96117 44.6765 5.49811 44.6765 6.14773V11H43.5032V6.22727C43.5032 5.62737 43.3474 5.16004 43.0359 4.82528C42.7243 4.48722 42.2968 4.31818 41.7532 4.31818C41.3787 4.31818 41.0439 4.39938 40.7489 4.56179C40.4573 4.72419 40.2269 4.96117 40.0579 5.27273C39.8889 5.58428 39.8043 5.96212 39.8043 6.40625ZM50.0015 3.36364V4.35795H46.0441V3.36364H50.0015ZM47.1975 1.53409H48.3708V8.8125C48.3708 9.14394 48.4189 9.39252 48.515 9.55824C48.6145 9.72064 48.7404 9.83002 48.8929 9.88636C49.0486 9.93939 49.2127 9.96591 49.385 9.96591C49.5143 9.96591 49.6204 9.95928 49.7032 9.94602C49.7861 9.92945 49.8524 9.91619 49.9021 9.90625L50.1407 10.9602C50.0612 10.9901 49.9502 11.0199 49.8076 11.0497C49.6651 11.0829 49.4845 11.0994 49.2657 11.0994C48.9343 11.0994 48.6095 11.0282 48.2913 10.8857C47.9764 10.7431 47.7146 10.526 47.5058 10.2344C47.3003 9.94271 47.1975 9.57481 47.1975 9.13068V1.53409ZM52.4816 11.0795C52.2363 11.0795 52.0258 10.9917 51.8502 10.8161C51.6745 10.6404 51.5867 10.4299 51.5867 10.1847C51.5867 9.93939 51.6745 9.72893 51.8502 9.55327C52.0258 9.3776 52.2363 9.28977 52.4816 9.28977C52.7268 9.28977 52.9373 9.3776 53.1129 9.55327C53.2886 9.72893 53.3764 9.93939 53.3764 10.1847C53.3764 10.3471 53.335 10.4962 53.2522 10.6321C53.1726 10.768 53.0649 10.8774 52.929 10.9602C52.7964 11.0398 52.6473 11.0795 52.4816 11.0795ZM52.4816 5.41193C52.2363 5.41193 52.0258 5.3241 51.8502 5.14844C51.6745 4.97277 51.5867 4.76231 51.5867 4.51705C51.5867 4.27178 51.6745 4.06132 51.8502 3.88565C52.0258 3.70999 52.2363 3.62216 52.4816 3.62216C52.7268 3.62216 52.9373 3.70999 53.1129 3.88565C53.2886 4.06132 53.3764 4.27178 53.3764 4.51705C53.3764 4.67945 53.335 4.8286 53.2522 4.96449C53.1726 5.10038 53.0649 5.20975 52.929 5.29261C52.7964 5.37216 52.6473 5.41193 52.4816 5.41193ZM96.9941 9.60795L96.9146 10.1449C96.8582 10.5227 96.772 10.9271 96.656 11.358C96.5433 11.7888 96.4257 12.1948 96.303 12.576C96.1804 12.9571 96.0793 13.2604 95.9998 13.4858H95.1049C95.148 13.2737 95.2043 12.9936 95.2739 12.6456C95.3435 12.2976 95.4131 11.9081 95.4827 11.4773C95.5557 11.0497 95.6153 10.6122 95.6617 10.1648L95.7214 9.60795H96.9941ZM96.2782 5.41193C96.0329 5.41193 95.8225 5.3241 95.6468 5.14844C95.4711 4.97277 95.3833 4.76231 95.3833 4.51705C95.3833 4.27178 95.4711 4.06132 95.6468 3.88565C95.8225 3.70999 96.0329 3.62216 96.2782 3.62216C96.5235 3.62216 96.7339 3.70999 96.9096 3.88565C97.0852 4.06132 97.1731 4.27178 97.1731 4.51705C97.1731 4.67945 97.1316 4.8286 97.0488 4.96449C96.9692 5.10038 96.8615 5.20975 96.7256 5.29261C96.5931 5.37216 96.4439 5.41193 96.2782 5.41193Z" fill="#000E1F"/>
<path d="M62.9079 0.818182V11H61.3667V2.35938H61.307L58.8709 3.95028V2.47869L61.4114 0.818182H62.9079ZM66.8881 9.60795L66.8135 10.1499C66.7638 10.5476 66.6793 10.9619 66.56 11.3928C66.444 11.8269 66.323 12.2296 66.197 12.6009C66.0744 12.9721 65.9733 13.267 65.8938 13.4858H64.8398C64.8829 13.2803 64.9425 13.0019 65.0188 12.6506C65.095 12.3026 65.1696 11.9131 65.2425 11.4822C65.3154 11.0514 65.3701 10.6122 65.4066 10.1648L65.4563 9.60795H66.8881ZM72.0031 11.169C71.2175 11.1657 70.5464 10.9586 69.9896 10.5476C69.4327 10.1366 69.0068 9.53835 68.7119 8.75284C68.4169 7.96733 68.2694 7.02107 68.2694 5.91406C68.2694 4.81037 68.4169 3.86742 68.7119 3.08523C69.0102 2.30303 69.4377 1.70644 69.9945 1.29545C70.5547 0.884469 71.2242 0.678977 72.0031 0.678977C72.7819 0.678977 73.4498 0.886126 74.0066 1.30043C74.5634 1.71141 74.9893 2.308 75.2843 3.0902C75.5826 3.86908 75.7317 4.81037 75.7317 5.91406C75.7317 7.02438 75.5843 7.9723 75.2893 8.75781C74.9943 9.54001 74.5684 10.1383 74.0116 10.5526C73.4548 10.9635 72.7852 11.169 72.0031 11.169ZM72.0031 9.84162C72.6924 9.84162 73.231 9.50521 73.6188 8.83239C74.0099 8.15956 74.2055 7.18679 74.2055 5.91406C74.2055 5.06889 74.116 4.35464 73.937 3.77131C73.7613 3.18466 73.5078 2.74053 73.1763 2.43892C72.8482 2.134 72.4571 1.98153 72.0031 1.98153C71.317 1.98153 70.7784 2.3196 70.3873 2.99574C69.9962 3.67187 69.799 4.64465 69.7957 5.91406C69.7957 6.76255 69.8835 7.48011 70.0592 8.06676C70.2381 8.65009 70.4917 9.09257 70.8198 9.39418C71.1479 9.69247 71.5424 9.84162 72.0031 9.84162ZM80.9002 11.169C80.1147 11.1657 79.4435 10.9586 78.8867 10.5476C78.3298 10.1366 77.904 9.53835 77.609 8.75284C77.314 7.96733 77.1665 7.02107 77.1665 5.91406C77.1665 4.81037 77.314 3.86742 77.609 3.08523C77.9073 2.30303 78.3348 1.70644 78.8916 1.29545C79.4518 0.884469 80.1213 0.678977 80.9002 0.678977C81.679 0.678977 82.3469 0.886126 82.9037 1.30043C83.4605 1.71141 83.8864 2.308 84.1814 3.0902C84.4797 3.86908 84.6289 4.81037 84.6289 5.91406C84.6289 7.02438 84.4814 7.9723 84.1864 8.75781C83.8914 9.54001 83.4655 10.1383 82.9087 10.5526C82.3519 10.9635 81.6824 11.169 80.9002 11.169ZM80.9002 9.84162C81.5896 9.84162 82.1281 9.50521 82.5159 8.83239C82.907 8.15956 83.1026 7.18679 83.1026 5.91406C83.1026 5.06889 83.0131 4.35464 82.8341 3.77131C82.6584 3.18466 82.4049 2.74053 82.0735 2.43892C81.7453 2.134 81.3542 1.98153 80.9002 1.98153C80.2141 1.98153 79.6755 2.3196 79.2844 2.99574C78.8933 3.67187 78.6961 4.64465 78.6928 5.91406C78.6928 6.76255 78.7806 7.48011 78.9563 8.06676C79.1352 8.65009 79.3888 9.09257 79.7169 9.39418C80.045 9.69247 80.4395 9.84162 80.9002 9.84162ZM89.7973 11.169C89.0118 11.1657 88.3406 10.9586 87.7838 10.5476C87.227 10.1366 86.8011 9.53835 86.5061 8.75284C86.2111 7.96733 86.0636 7.02107 86.0636 5.91406C86.0636 4.81037 86.2111 3.86742 86.5061 3.08523C86.8044 2.30303 87.2319 1.70644 87.7887 1.29545C88.3489 0.884469 89.0184 0.678977 89.7973 0.678977C90.5762 0.678977 91.244 0.886126 91.8008 1.30043C92.3576 1.71141 92.7835 2.308 93.0785 3.0902C93.3768 3.86908 93.526 4.81037 93.526 5.91406C93.526 7.02438 93.3785 7.9723 93.0835 8.75781C92.7885 9.54001 92.3626 10.1383 91.8058 10.5526C91.249 10.9635 90.5795 11.169 89.7973 11.169ZM89.7973 9.84162C90.4867 9.84162 91.0253 9.50521 91.413 8.83239C91.8041 8.15956 91.9997 7.18679 91.9997 5.91406C91.9997 5.06889 91.9102 4.35464 91.7312 3.77131C91.5556 3.18466 91.302 2.74053 90.9706 2.43892C90.6424 2.134 90.2513 1.98153 89.7973 1.98153C89.1112 1.98153 88.5726 2.3196 88.1815 2.99574C87.7904 3.67187 87.5932 4.64465 87.5899 5.91406C87.5899 6.76255 87.6777 7.48011 87.8534 8.06676C88.0324 8.65009 88.2859 9.09257 88.614 9.39418C88.9422 9.69247 89.3366 9.84162 89.7973 9.84162Z" fill="#588AEF"/>
</svg>
