<svg width="47" height="47" viewBox="0 0 47 47" fill="none" xmlns="http://www.w3.org/2000/svg">
<path d="M15.1288 32.0989C14.9413 31.9113 14.8359 31.657 14.8359 31.3918C14.8359 31.1266 14.9413 30.8722 15.1288 30.6847L28.9784 16.8351L18.6643 16.836C18.5329 16.836 18.4028 16.8101 18.2814 16.7598C18.1601 16.7095 18.0498 16.6358 17.9568 16.5429C17.8639 16.45 17.7902 16.3397 17.7399 16.2183C17.6897 16.0969 17.6638 15.9668 17.6638 15.8354C17.6638 15.704 17.6897 15.5739 17.7399 15.4525C17.7902 15.3311 17.8639 15.2208 17.9568 15.1279C18.0498 15.035 18.1601 14.9613 18.2814 14.911C18.4028 14.8607 18.5329 14.8349 18.6643 14.8349L31.3923 14.8349C31.5237 14.8348 31.6538 14.8606 31.7752 14.9109C31.8967 14.9611 32.007 15.0348 32.0999 15.1278C32.1929 15.2207 32.2665 15.331 32.3168 15.4524C32.3671 15.5739 32.3929 15.704 32.3928 15.8354L32.3928 28.5633C32.3928 28.8287 32.2874 29.0832 32.0998 29.2708C31.9121 29.4585 31.6576 29.5639 31.3923 29.5639C31.1269 29.5639 30.8724 29.4585 30.6848 29.2708C30.4971 29.0832 30.3917 28.8287 30.3917 28.5633L30.3926 18.2493L16.543 32.0989C16.3555 32.2864 16.1011 32.3918 15.8359 32.3918C15.5707 32.3918 15.3163 32.2864 15.1288 32.0989Z" fill="#299E9E"/>
</svg>
