<svg width="24" height="24" viewBox="0 0 24 24" fill="none" xmlns="http://www.w3.org/2000/svg">
<g clip-path="url(#clip0_165_47129)">
<g clip-path="url(#clip1_165_47129)">
<path d="M20.944 10.6874L5.1471 1.84673C4.88389 1.69324 4.5808 1.62194 4.27677 1.64198C3.97273 1.66203 3.68163 1.77251 3.44085 1.95923C3.19495 2.15324 3.01641 2.41979 2.93059 2.72102C2.84476 3.02226 2.85601 3.34287 2.96273 3.63735L5.5971 10.9967C5.62375 11.0701 5.67211 11.1336 5.73575 11.1788C5.79939 11.2241 5.87529 11.2488 5.95335 11.2499H12.7221C12.9167 11.2468 13.1053 11.3176 13.2497 11.4481C13.3941 11.5786 13.4836 11.759 13.5002 11.953C13.5066 12.0553 13.492 12.1579 13.4572 12.2544C13.4224 12.3509 13.3681 12.4392 13.2978 12.5139C13.2276 12.5886 13.1427 12.648 13.0485 12.6886C12.9543 12.7292 12.8528 12.7501 12.7502 12.7499H5.95335C5.87529 12.7509 5.79939 12.7756 5.73575 12.8209C5.67211 12.8661 5.62375 12.9296 5.5971 13.003L2.96273 20.3624C2.88368 20.5891 2.85986 20.8314 2.89325 21.0691C2.92664 21.3069 3.01627 21.5333 3.15469 21.7295C3.29312 21.9256 3.47635 22.086 3.68917 22.1971C3.90199 22.3083 4.13826 22.3671 4.37835 22.3686C4.63385 22.3675 4.88508 22.303 5.1096 22.1811L20.944 13.3124C21.176 13.1806 21.3689 12.9897 21.5031 12.7592C21.6373 12.5286 21.708 12.2666 21.708 11.9999C21.708 11.7331 21.6373 11.4711 21.5031 11.2405C21.3689 11.01 21.176 10.8191 20.944 10.6874Z" fill="white"/>
</g>
</g>
<defs>
<clipPath id="clip0_165_47129">
<rect width="24" height="24" fill="white"/>
</clipPath>
<clipPath id="clip1_165_47129">
<rect width="24" height="24" fill="white"/>
</clipPath>
</defs>
</svg>
