<svg width="151" height="27" viewBox="0 0 151 27" fill="none" xmlns="http://www.w3.org/2000/svg">
<path d="M99.7949 21.7792C100.96 21.5141 103.667 20.9708 106.619 20.2163C107.364 20.0323 108.13 19.8458 108.905 19.6581C109.68 19.4705 110.422 19.2535 111.176 19.0537C112.662 18.6419 114.154 18.2774 115.385 17.9006C127.016 14.6081 137.47 10.4206 145.108 5.73913C146.244 4.99663 148.308 3.76294 146.449 3.49551C144.509 3.21951 142.136 3.80315 140.224 4.97748C135.381 7.79542 129.693 10.5581 122.912 12.7927C117.961 14.4105 112.902 15.9601 107.58 17.3165C102.268 18.6752 96.7776 19.8821 91.1587 20.8531C86.1063 21.725 80.9904 22.4049 75.8786 22.9549C70.7632 23.4757 65.6707 23.7755 60.6679 23.9126C58.3441 23.9241 55.9955 23.9794 53.7504 23.9C52.6184 23.8651 51.4709 23.8654 50.3658 23.8051L47.0516 23.6349C42.6953 23.3486 38.4288 22.9809 34.4005 22.4397C30.8656 22.0155 27.4955 21.4712 24.171 20.8917L21.7758 20.4016C20.9866 20.2322 20.1504 20.0869 19.4175 19.8884C17.9235 19.5058 16.3535 19.1548 15.0007 18.7032C14.3469 18.4986 13.7061 18.2369 13.0648 17.9716C12.461 17.6869 11.8756 17.3889 11.2168 17.1443C10.062 16.7608 8.50969 15.9859 7.36426 15.5975C6.85523 15.4344 6.41195 15.2373 6.10491 15.0123C4.7699 13.974 3.59778 13.9366 1.92435 14.9374C1.56241 15.1594 0.757884 15.273 0.849997 15.6168C0.851786 15.6314 0.855362 15.6605 0.857152 15.6751C0.828197 16.252 1.32094 16.6873 1.98641 17.068C2.71891 17.4256 3.62412 17.7288 4.3669 18.0889C11.868 21.5552 22.1675 23.9972 33.9252 25.3132C41.1778 26.1058 49.0196 26.4156 57.0823 26.4096C58.1888 26.3995 59.2632 26.4525 60.3974 26.4242C61.5226 26.4045 62.6563 26.3725 63.8236 26.2884L63.7837 26.2896C64.9689 26.2699 66.1783 26.2028 67.388 26.1393C68.5972 26.0722 69.8082 26.0197 71.0237 25.9223C80.2513 25.1629 89.9865 23.8233 98.5078 22.026C98.8282 21.9534 99.2989 21.8845 99.7949 21.7792Z" fill="#061818"/>
<path d="M143.094 7.12913C142.982 7.43514 142.566 8.52197 142.054 9.22486C140.916 10.8516 139.416 12.4525 138.063 14.1059C137.845 14.3656 137.308 14.7868 139.24 14.9972C141.243 15.2173 142.837 15.0327 143.365 14.5388C144.625 13.3409 145.375 12.1389 146.739 10.9691C148.782 9.24217 149.474 7.48146 150.091 5.75955C150.243 5.37097 150.325 4.98353 150.398 4.60097L150.477 4.02528C150.501 3.81516 150.495 3.60138 150.458 3.38392C150.384 2.94902 150.219 2.49943 149.654 2.03621C149.387 1.81737 148.916 1.55344 148.335 1.37687C147.754 1.19665 147.05 1.0686 146.264 1.0097C145.529 0.952047 144.72 0.951404 143.89 1.01272C143.029 1.074 142.293 1.17912 141.628 1.28671C140.298 1.51283 139.223 1.77807 138.256 2.02998L136.943 2.38723L135.717 2.7264C134.907 2.95535 134.097 3.18798 133.309 3.43274C130.588 4.27363 128.135 5.26655 125.501 6.15974C124.878 6.3694 123.915 6.49135 123.224 6.71675C122.658 6.90459 121.687 7.20507 121.206 7.43427C120.999 7.53371 120.783 7.64528 120.51 7.69366C119.211 7.93074 119.29 8.24661 120.861 8.84907C121.206 8.98051 121.455 9.21632 121.907 9.24217C121.927 9.2434 121.968 9.24587 121.978 9.2483C123.527 9.43169 124.03 8.97417 124.897 8.7234C129.148 7.49863 133.333 6.22649 137.54 4.97375L139.464 4.39334C140.109 4.19949 140.763 3.99352 141.303 3.84211C141.853 3.68584 142.376 3.56238 142.796 3.48861C143.002 3.45597 143.188 3.42939 143.308 3.42583C143.397 3.4259 143.428 3.43315 143.48 3.44533C143.522 3.46237 143.537 3.50125 143.52 3.53282C143.514 3.56318 143.495 3.57292 143.592 3.54627C143.585 3.57299 143.525 3.57294 143.553 3.63613C143.569 3.68594 143.588 3.76128 143.647 3.83542C143.746 3.98611 143.791 4.19503 143.78 4.42945C143.777 4.64444 143.688 4.97725 143.652 5.25173C143.513 5.82737 143.373 6.39936 143.25 6.94343C143.238 7.00416 143.116 7.0672 143.094 7.12913Z" fill="#061818"/>
</svg>
