<svg width="151" height="21" viewBox="0 0 151 21" fill="none" xmlns="http://www.w3.org/2000/svg">
<path d="M97.8972 1.49397C99.0858 1.61513 101.839 1.8244 104.86 2.2136C105.623 2.30539 106.406 2.39718 107.198 2.48898C107.99 2.58077 108.753 2.70565 109.526 2.81213C111.051 3.03978 112.576 3.21968 113.844 3.44365C125.79 5.29418 136.676 8.17645 144.827 11.8922C146.046 12.4907 148.245 13.4636 146.432 13.9556C144.54 14.466 142.113 14.1759 140.073 13.2433C134.922 11.0367 128.94 8.98782 121.937 7.59625C116.826 6.59388 111.616 5.67233 106.168 4.97471C100.73 4.27342 95.1336 3.74466 89.4382 3.46561C84.3172 3.21594 79.1566 3.16458 74.0159 3.24169C68.8751 3.34817 63.7841 3.67126 58.8018 4.14491C56.4939 4.41661 54.1561 4.64796 51.9374 5.00044C50.8181 5.17301 49.6791 5.31249 48.5896 5.50709L45.3209 6.07989C41.0319 6.895 36.8421 7.77985 32.9097 8.80792C29.4529 9.65975 26.1742 10.6107 22.9452 11.5911L20.6275 12.3694C19.8648 12.6338 19.0526 12.8799 18.3493 13.1663C16.9131 13.728 15.3975 14.2677 14.1099 14.8809C13.4859 15.1636 12.8818 15.5015 12.2776 15.8429C11.713 16.1991 11.1682 16.5662 10.5442 16.8893C9.44473 17.4107 7.99842 18.369 6.90886 18.894C6.42351 19.118 6.00756 19.3677 5.73021 19.6284C4.5317 20.8216 3.37287 21.0016 1.58995 20.2122C1.20365 20.0359 0.391281 20.0213 0.440807 19.6688C0.440807 19.6541 0.440807 19.6248 0.440807 19.6101C0.341756 19.041 0.777783 18.5489 1.3919 18.0899C2.07535 17.6457 2.93686 17.2344 3.63022 16.7865C10.6529 12.4319 20.5781 8.7529 32.0878 6.01383C39.1897 4.34321 46.9353 3.0801 54.9387 2.10343C56.0381 1.9786 57.098 1.79505 58.2272 1.6849C59.3465 1.56741 60.4756 1.46092 61.6444 1.40218L61.6048 1.40585C62.7835 1.28101 63.992 1.20022 65.2004 1.11577C66.4089 1.035 67.6172 0.939489 68.8355 0.888084C78.0869 0.517246 87.9128 0.6605 96.5896 1.40585C96.9165 1.43889 97.392 1.44991 97.8972 1.49397Z" fill="#061818"/>
<path d="M142.659 10.758C142.51 10.468 141.965 9.43989 141.371 8.80469C140.044 7.32868 138.36 5.92247 136.815 4.44645C136.567 4.21514 135.982 3.86264 137.874 3.41837C139.836 2.95573 141.44 2.94467 142.025 3.37059C143.421 4.406 144.313 5.50752 145.808 6.50254C148.047 7.96754 148.948 9.6308 149.77 11.2647C149.968 11.6319 150.097 12.0064 150.216 12.3772L150.365 12.939C150.414 13.1446 150.434 13.3576 150.424 13.5779C150.404 14.0185 150.295 14.4848 149.79 15.0136C149.552 15.2632 149.117 15.5827 148.562 15.8287C148.007 16.0783 147.324 16.2913 146.551 16.4455C145.828 16.5923 145.026 16.6915 144.194 16.7319C143.332 16.7759 142.589 16.7613 141.916 16.7356C140.569 16.6731 139.469 16.5409 138.479 16.4087L137.131 16.2142L135.874 16.0269C135.041 15.8984 134.209 15.7662 133.397 15.6194C130.594 15.1163 128.039 14.4297 125.315 13.8643C124.671 13.7321 123.7 13.7284 122.987 13.5889C122.403 13.4714 121.402 13.2915 120.897 13.1226C120.679 13.0492 120.451 12.9647 120.174 12.95C118.857 12.8729 118.896 12.5498 120.382 11.7604C120.709 11.5878 120.927 11.3235 121.373 11.2427C121.392 11.2391 121.432 11.2317 121.442 11.228C122.957 10.8572 123.512 11.25 124.404 11.3932C128.772 12.0909 133.08 12.8435 137.409 13.5742L139.39 13.9157C140.054 14.0296 140.727 14.1543 141.282 14.2388C141.846 14.3269 142.381 14.3856 142.807 14.4077C143.015 14.415 143.203 14.4187 143.322 14.4077C143.411 14.3967 143.441 14.3857 143.491 14.3673C143.53 14.3453 143.54 14.3049 143.52 14.2755C143.511 14.2462 143.491 14.2388 143.59 14.2535C143.58 14.2278 143.52 14.2351 143.54 14.1691C143.55 14.1177 143.56 14.0405 143.609 13.9597C143.689 13.7982 143.709 13.5853 143.669 13.354C143.639 13.141 143.51 12.8215 143.441 12.5535C143.233 11.999 143.025 11.4483 142.837 10.9233C142.817 10.8645 142.688 10.8168 142.659 10.758Z" fill="#061818"/>
</svg>
