<svg width="16" height="16" viewBox="0 0 16 16" fill="none" xmlns="http://www.w3.org/2000/svg">
<g clip-path="url(#clip0_165_47163)">
<g clip-path="url(#clip1_165_47163)">
<path d="M13.9625 7.12621L3.43124 1.23246C3.25576 1.13013 3.05371 1.08259 2.85102 1.09596C2.64833 1.10932 2.45426 1.18297 2.29374 1.30746C2.1298 1.4368 2.01078 1.61449 1.95356 1.81532C1.89634 2.01614 1.90384 2.22988 1.97499 2.42621L3.73124 7.33246C3.74901 7.38137 3.78125 7.42372 3.82367 7.45387C3.8661 7.48401 3.9167 7.50052 3.96874 7.50121H8.48124C8.61098 7.49915 8.73668 7.54639 8.83296 7.63339C8.92924 7.72039 8.98893 7.84067 8.99999 7.96996C9.00426 8.0382 8.99449 8.10659 8.97129 8.17091C8.94808 8.23522 8.91193 8.2941 8.86507 8.34389C8.8182 8.39368 8.76163 8.43333 8.69883 8.46039C8.63604 8.48745 8.56836 8.50134 8.49999 8.50121H3.96874C3.9167 8.50189 3.8661 8.5184 3.82367 8.54854C3.78125 8.57869 3.74901 8.62104 3.73124 8.66996L1.97499 13.5762C1.92229 13.7274 1.90641 13.8889 1.92867 14.0474C1.95093 14.2059 2.01068 14.3568 2.10297 14.4876C2.19525 14.6184 2.3174 14.7253 2.45928 14.7994C2.60116 14.8735 2.75867 14.9127 2.91874 14.9137C3.08907 14.9129 3.25656 14.87 3.40624 14.7887L13.9625 8.87621C14.1171 8.78838 14.2458 8.66114 14.3352 8.50743C14.4247 8.35373 14.4718 8.17906 14.4718 8.00121C14.4718 7.82336 14.4247 7.64868 14.3352 7.49498C14.2458 7.34128 14.1171 7.21403 13.9625 7.12621Z" fill="#000E1F"/>
</g>
</g>
<defs>
<clipPath id="clip0_165_47163">
<rect width="16" height="16" fill="white"/>
</clipPath>
<clipPath id="clip1_165_47163">
<rect width="16" height="16" fill="white"/>
</clipPath>
</defs>
</svg>
