<svg width="93" height="93" viewBox="0 0 93 93" fill="none" xmlns="http://www.w3.org/2000/svg">
<g clip-path="url(#clip0_165_47139)">
<g clip-path="url(#clip1_165_47139)">
<rect x="26" y="38" width="27" height="16" fill="#1F3C76"/>
<path d="M81.1567 41.4133L19.9439 7.15583C18.9239 6.56106 17.7495 6.28476 16.5713 6.36244C15.3932 6.44012 14.2652 6.86823 13.3321 7.59177C12.3793 8.34357 11.6874 9.37643 11.3549 10.5437C11.0223 11.711 11.0659 12.9534 11.4794 14.0945L21.6876 42.6121C21.7909 42.8964 21.9783 43.1426 22.2249 43.3178C22.4715 43.493 22.7656 43.589 23.0681 43.5929H49.297C50.0511 43.581 50.7817 43.8556 51.3413 44.3613C51.901 44.8669 52.2479 45.5661 52.3122 46.3176C52.3371 46.7142 52.2803 47.1117 52.1454 47.4856C52.0105 47.8594 51.8004 48.2016 51.528 48.491C51.2556 48.7804 50.9267 49.0109 50.5618 49.1682C50.1968 49.3255 49.8034 49.4062 49.406 49.4054H23.0681C22.7656 49.4094 22.4715 49.5054 22.2249 49.6806C21.9783 49.8558 21.7909 50.102 21.6876 50.3863L11.4794 78.9039C11.1731 79.7824 11.0808 80.7213 11.2102 81.6427C11.3396 82.564 11.6869 83.4412 12.2233 84.2014C12.7597 84.9616 13.4697 85.5829 14.2944 86.0136C15.119 86.4444 16.0346 86.6722 16.965 86.6781C17.955 86.6737 18.9285 86.424 19.7985 85.9515L81.1567 51.5851C82.0557 51.0746 82.8032 50.335 83.3233 49.4416C83.8433 48.5482 84.1173 47.5329 84.1173 46.4992C84.1173 45.4654 83.8433 44.4502 83.3233 43.5568C82.8032 42.6634 82.0557 41.9237 81.1567 41.4133Z" fill="#1F3C76"/>
</g>
</g>
<defs>
<clipPath id="clip0_165_47139">
<rect width="93" height="93" fill="white"/>
</clipPath>
<clipPath id="clip1_165_47139">
<rect width="93" height="93" fill="white"/>
</clipPath>
</defs>
</svg>
