<svg width="354" height="302" viewBox="0 0 354 302" fill="none" xmlns="http://www.w3.org/2000/svg">
<path d="M24.732 208.532C22.884 208.532 21.2973 208.205 19.972 207.552C18.6467 206.899 17.564 206.049 16.724 205.004C15.9027 203.959 15.296 202.82 14.904 201.588C14.512 200.356 14.316 199.171 14.316 198.032V197.416C14.316 196.147 14.512 194.896 14.904 193.664C15.3147 192.432 15.94 191.312 16.78 190.304C17.62 189.296 18.684 188.493 19.972 187.896C21.2787 187.28 22.8187 186.972 24.592 186.972C26.44 186.972 28.0453 187.308 29.408 187.98C30.7893 188.633 31.8907 189.567 32.712 190.78C33.5333 191.975 34.028 193.375 34.196 194.98H30.192C30.0427 194.047 29.7067 193.263 29.184 192.628C28.68 191.975 28.036 191.489 27.252 191.172C26.468 190.836 25.5813 190.668 24.592 190.668C23.584 190.668 22.688 190.845 21.904 191.2C21.12 191.536 20.4667 192.021 19.944 192.656C19.4213 193.291 19.02 194.037 18.74 194.896C18.4787 195.755 18.348 196.707 18.348 197.752C18.348 198.76 18.4787 199.693 18.74 200.552C19.02 201.411 19.4307 202.167 19.972 202.82C20.5133 203.455 21.176 203.949 21.96 204.304C22.7627 204.659 23.6867 204.836 24.732 204.836C26.2627 204.836 27.5507 204.463 28.596 203.716C29.66 202.951 30.304 201.887 30.528 200.524H34.532C34.3453 201.98 33.8507 203.315 33.048 204.528C32.2453 205.741 31.144 206.712 29.744 207.44C28.344 208.168 26.6733 208.532 24.732 208.532ZM42.4792 208.476C40.7245 208.476 39.3619 207.897 38.3912 206.74C37.4392 205.583 36.9632 203.865 36.9632 201.588V192.768H40.8552V201.924C40.8552 202.857 41.1165 203.604 41.6392 204.164C42.1619 204.705 42.8712 204.976 43.7672 204.976C44.6632 204.976 45.3912 204.687 45.9512 204.108C46.5299 203.529 46.8192 202.745 46.8192 201.756V192.768H50.7112V208H47.6312V201.532H47.9392C47.9392 203.063 47.7432 204.341 47.3512 205.368C46.9592 206.395 46.3712 207.169 45.5872 207.692C44.8032 208.215 43.8232 208.476 42.6472 208.476H42.4792ZM60.418 208.476C58.3273 208.476 56.6847 208.037 55.49 207.16C54.314 206.264 53.698 205.032 53.642 203.464H57.142C57.198 203.987 57.4873 204.463 58.01 204.892C58.5327 205.321 59.354 205.536 60.474 205.536C61.4073 205.536 62.1447 205.368 62.686 205.032C63.246 204.696 63.526 204.239 63.526 203.66C63.526 203.156 63.3113 202.755 62.882 202.456C62.4713 202.157 61.762 201.961 60.754 201.868L59.41 201.728C57.7113 201.541 56.4047 201.056 55.49 200.272C54.5753 199.488 54.118 198.443 54.118 197.136C54.118 196.091 54.3793 195.213 54.902 194.504C55.4247 193.795 56.1433 193.263 57.058 192.908C57.9913 192.535 59.0553 192.348 60.25 192.348C62.1167 192.348 63.6287 192.759 64.786 193.58C65.9433 194.401 66.55 195.605 66.606 197.192H63.106C63.0687 196.669 62.8073 196.221 62.322 195.848C61.8367 195.475 61.1367 195.288 60.222 195.288C59.4007 195.288 58.766 195.447 58.318 195.764C57.87 196.081 57.646 196.492 57.646 196.996C57.646 197.481 57.8233 197.855 58.178 198.116C58.5513 198.377 59.1487 198.555 59.97 198.648L61.314 198.788C63.106 198.975 64.506 199.469 65.514 200.272C66.5407 201.075 67.054 202.157 67.054 203.52C67.054 204.528 66.774 205.405 66.214 206.152C65.6727 206.88 64.9073 207.449 63.918 207.86C62.9287 208.271 61.762 208.476 60.418 208.476ZM76.5972 208.196C75.1972 208.196 74.0399 208.019 73.1252 207.664C72.2292 207.291 71.5572 206.675 71.1092 205.816C70.6612 204.939 70.4372 203.763 70.4372 202.288L70.4652 188.512H74.1052L74.0772 202.54C74.0772 203.287 74.2732 203.865 74.6652 204.276C75.0759 204.668 75.6545 204.864 76.4012 204.864H78.7812V208.196H76.5972ZM68.0292 195.652V192.796H78.7812V195.652H68.0292ZM88.9937 208.532C87.6497 208.532 86.4644 208.317 85.4377 207.888C84.4111 207.459 83.5431 206.88 82.8337 206.152C82.1244 205.405 81.5831 204.565 81.2097 203.632C80.8551 202.699 80.6777 201.728 80.6777 200.72V200.132C80.6777 199.087 80.8644 198.097 81.2377 197.164C81.6297 196.212 82.1804 195.372 82.8897 194.644C83.6177 193.897 84.4951 193.319 85.5217 192.908C86.5484 192.479 87.7057 192.264 88.9937 192.264C90.2817 192.264 91.4391 192.479 92.4657 192.908C93.4924 193.319 94.3604 193.897 95.0697 194.644C95.7977 195.372 96.3484 196.212 96.7217 197.164C97.0951 198.097 97.2817 199.087 97.2817 200.132V200.72C97.2817 201.728 97.0951 202.699 96.7217 203.632C96.3671 204.565 95.8351 205.405 95.1257 206.152C94.4164 206.88 93.5484 207.459 92.5217 207.888C91.4951 208.317 90.3191 208.532 88.9937 208.532ZM88.9937 205.2C89.9457 205.2 90.7484 204.995 91.4017 204.584C92.0551 204.155 92.5497 203.585 92.8857 202.876C93.2217 202.148 93.3897 201.327 93.3897 200.412C93.3897 199.479 93.2124 198.657 92.8577 197.948C92.5217 197.22 92.0177 196.651 91.3457 196.24C90.6924 195.811 89.9084 195.596 88.9937 195.596C88.0791 195.596 87.2857 195.811 86.6137 196.24C85.9604 196.651 85.4564 197.22 85.1017 197.948C84.7471 198.657 84.5697 199.479 84.5697 200.412C84.5697 201.327 84.7377 202.148 85.0737 202.876C85.4284 203.585 85.9324 204.155 86.5857 204.584C87.2391 204.995 88.0417 205.2 88.9937 205.2ZM100.41 208V192.796H103.49V199.32H103.21C103.21 197.789 103.406 196.511 103.798 195.484C104.19 194.439 104.768 193.655 105.534 193.132C106.318 192.591 107.288 192.32 108.446 192.32H108.614C109.79 192.32 110.76 192.591 111.526 193.132C112.31 193.655 112.888 194.439 113.262 195.484C113.654 196.511 113.85 197.789 113.85 199.32H112.87C112.87 197.789 113.066 196.511 113.458 195.484C113.868 194.439 114.456 193.655 115.222 193.132C116.006 192.591 116.976 192.32 118.134 192.32H118.302C119.478 192.32 120.458 192.591 121.242 193.132C122.026 193.655 122.614 194.439 123.006 195.484C123.416 196.511 123.622 197.789 123.622 199.32V208H119.73V198.956C119.73 198.004 119.487 197.248 119.002 196.688C118.516 196.109 117.826 195.82 116.93 195.82C116.034 195.82 115.315 196.119 114.774 196.716C114.232 197.295 113.962 198.079 113.962 199.068V208H110.07V198.956C110.07 198.004 109.827 197.248 109.342 196.688C108.856 196.109 108.166 195.82 107.27 195.82C106.374 195.82 105.655 196.119 105.114 196.716C104.572 197.295 104.302 198.079 104.302 199.068V208H100.41ZM128.229 208V192.796H132.121V208H128.229ZM126.101 195.708V192.796H132.121V195.708H126.101ZM129.657 190.976C128.891 190.976 128.322 190.78 127.949 190.388C127.594 189.977 127.417 189.473 127.417 188.876C127.417 188.241 127.594 187.728 127.949 187.336C128.322 186.944 128.891 186.748 129.657 186.748C130.422 186.748 130.982 186.944 131.337 187.336C131.691 187.728 131.869 188.241 131.869 188.876C131.869 189.473 131.691 189.977 131.337 190.388C130.982 190.78 130.422 190.976 129.657 190.976ZM141.842 208.476C139.752 208.476 138.109 208.037 136.914 207.16C135.738 206.264 135.122 205.032 135.066 203.464H138.566C138.622 203.987 138.912 204.463 139.434 204.892C139.957 205.321 140.778 205.536 141.898 205.536C142.832 205.536 143.569 205.368 144.11 205.032C144.67 204.696 144.95 204.239 144.95 203.66C144.95 203.156 144.736 202.755 144.306 202.456C143.896 202.157 143.186 201.961 142.178 201.868L140.834 201.728C139.136 201.541 137.829 201.056 136.914 200.272C136 199.488 135.542 198.443 135.542 197.136C135.542 196.091 135.804 195.213 136.326 194.504C136.849 193.795 137.568 193.263 138.482 192.908C139.416 192.535 140.48 192.348 141.674 192.348C143.541 192.348 145.053 192.759 146.21 193.58C147.368 194.401 147.974 195.605 148.03 197.192H144.53C144.493 196.669 144.232 196.221 143.746 195.848C143.261 195.475 142.561 195.288 141.646 195.288C140.825 195.288 140.19 195.447 139.742 195.764C139.294 196.081 139.07 196.492 139.07 196.996C139.07 197.481 139.248 197.855 139.602 198.116C139.976 198.377 140.573 198.555 141.394 198.648L142.738 198.788C144.53 198.975 145.93 199.469 146.938 200.272C147.965 201.075 148.478 202.157 148.478 203.52C148.478 204.528 148.198 205.405 147.638 206.152C147.097 206.88 146.332 207.449 145.342 207.86C144.353 208.271 143.186 208.476 141.842 208.476ZM158.217 208.532C156.911 208.532 155.763 208.308 154.773 207.86C153.803 207.412 152.991 206.815 152.337 206.068C151.703 205.303 151.217 204.453 150.881 203.52C150.564 202.587 150.405 201.635 150.405 200.664V200.132C150.405 199.124 150.564 198.153 150.881 197.22C151.217 196.268 151.703 195.428 152.337 194.7C152.991 193.953 153.793 193.365 154.745 192.936C155.697 192.488 156.799 192.264 158.049 192.264C159.692 192.264 161.064 192.628 162.165 193.356C163.285 194.065 164.125 195.008 164.685 196.184C165.245 197.341 165.525 198.592 165.525 199.936V201.336H152.057V198.956H163.089L161.885 200.132C161.885 199.161 161.745 198.331 161.465 197.64C161.185 196.949 160.756 196.417 160.177 196.044C159.617 195.671 158.908 195.484 158.049 195.484C157.191 195.484 156.463 195.68 155.865 196.072C155.268 196.464 154.811 197.033 154.493 197.78C154.195 198.508 154.045 199.385 154.045 200.412C154.045 201.364 154.195 202.213 154.493 202.96C154.792 203.688 155.249 204.267 155.865 204.696C156.481 205.107 157.265 205.312 158.217 205.312C159.169 205.312 159.944 205.125 160.541 204.752C161.139 204.36 161.521 203.884 161.689 203.324H165.273C165.049 204.369 164.62 205.284 163.985 206.068C163.351 206.852 162.539 207.459 161.549 207.888C160.579 208.317 159.468 208.532 158.217 208.532ZM180.56 208.504C179.496 208.504 178.516 208.308 177.62 207.916C176.724 207.524 175.949 206.973 175.296 206.264C174.642 205.555 174.138 204.733 173.784 203.8C173.429 202.848 173.252 201.821 173.252 200.72V200.132C173.252 199.049 173.42 198.032 173.756 197.08C174.11 196.128 174.596 195.297 175.212 194.588C175.846 193.879 176.602 193.328 177.48 192.936C178.376 192.525 179.365 192.32 180.448 192.32C181.642 192.32 182.688 192.581 183.584 193.104C184.498 193.608 185.226 194.373 185.768 195.4C186.309 196.427 186.608 197.715 186.664 199.264L185.516 197.92V187.56H189.408V208H186.328V201.532H187C186.944 203.081 186.626 204.379 186.048 205.424C185.469 206.451 184.704 207.225 183.752 207.748C182.818 208.252 181.754 208.504 180.56 208.504ZM181.428 205.228C182.193 205.228 182.893 205.06 183.528 204.724C184.162 204.369 184.666 203.865 185.04 203.212C185.432 202.54 185.628 201.756 185.628 200.86V199.74C185.628 198.844 185.432 198.097 185.04 197.5C184.648 196.884 184.134 196.417 183.5 196.1C182.865 195.764 182.174 195.596 181.428 195.596C180.588 195.596 179.841 195.801 179.188 196.212C178.553 196.604 178.049 197.164 177.676 197.892C177.321 198.62 177.144 199.469 177.144 200.44C177.144 201.411 177.33 202.26 177.704 202.988C178.077 203.697 178.581 204.248 179.216 204.64C179.869 205.032 180.606 205.228 181.428 205.228ZM194.286 208V192.796H198.178V208H194.286ZM192.158 195.708V192.796H198.178V195.708H192.158ZM195.714 190.976C194.948 190.976 194.379 190.78 194.006 190.388C193.651 189.977 193.474 189.473 193.474 188.876C193.474 188.241 193.651 187.728 194.006 187.336C194.379 186.944 194.948 186.748 195.714 186.748C196.479 186.748 197.039 186.944 197.394 187.336C197.748 187.728 197.926 188.241 197.926 188.876C197.926 189.473 197.748 189.977 197.394 190.388C197.039 190.78 196.479 190.976 195.714 190.976ZM208.319 213.992C207.591 213.992 206.845 213.964 206.079 213.908C205.333 213.852 204.633 213.777 203.979 213.684V210.436C204.651 210.511 205.37 210.576 206.135 210.632C206.901 210.707 207.619 210.744 208.291 210.744C209.542 210.744 210.55 210.595 211.315 210.296C212.099 209.997 212.669 209.521 213.023 208.868C213.397 208.233 213.583 207.421 213.583 206.432V203.436L214.423 201.532C214.367 202.932 214.078 204.127 213.555 205.116C213.033 206.087 212.323 206.833 211.427 207.356C210.531 207.86 209.495 208.112 208.319 208.112C207.274 208.112 206.322 207.916 205.463 207.524C204.623 207.132 203.895 206.591 203.279 205.9C202.682 205.209 202.215 204.397 201.879 203.464C201.543 202.531 201.375 201.532 201.375 200.468V199.88C201.375 198.816 201.543 197.827 201.879 196.912C202.234 195.979 202.729 195.167 203.363 194.476C203.998 193.785 204.754 193.253 205.631 192.88C206.509 192.507 207.479 192.32 208.543 192.32C209.794 192.32 210.877 192.591 211.791 193.132C212.725 193.673 213.453 194.457 213.975 195.484C214.498 196.511 214.787 197.771 214.843 199.264L214.171 199.376V192.796H217.251V206.208C217.251 208.056 216.934 209.549 216.299 210.688C215.665 211.827 214.685 212.657 213.359 213.18C212.053 213.721 210.373 213.992 208.319 213.992ZM209.439 204.78C210.186 204.78 210.867 204.612 211.483 204.276C212.099 203.94 212.594 203.455 212.967 202.82C213.341 202.185 213.527 201.42 213.527 200.524V199.544C213.527 198.685 213.331 197.957 212.939 197.36C212.566 196.763 212.071 196.315 211.455 196.016C210.839 195.699 210.167 195.54 209.439 195.54C208.618 195.54 207.89 195.736 207.255 196.128C206.639 196.501 206.154 197.033 205.799 197.724C205.445 198.415 205.267 199.236 205.267 200.188C205.267 201.121 205.445 201.933 205.799 202.624C206.154 203.315 206.639 203.847 207.255 204.22C207.89 204.593 208.618 204.78 209.439 204.78ZM221.945 208V192.796H225.837V208H221.945ZM219.817 195.708V192.796H225.837V195.708H219.817ZM223.373 190.976C222.607 190.976 222.038 190.78 221.665 190.388C221.31 189.977 221.133 189.473 221.133 188.876C221.133 188.241 221.31 187.728 221.665 187.336C222.038 186.944 222.607 186.748 223.373 186.748C224.138 186.748 224.698 186.944 225.053 187.336C225.407 187.728 225.585 188.241 225.585 188.876C225.585 189.473 225.407 189.977 225.053 190.388C224.698 190.78 224.138 190.976 223.373 190.976ZM236.65 208.196C235.25 208.196 234.093 208.019 233.178 207.664C232.282 207.291 231.61 206.675 231.162 205.816C230.714 204.939 230.49 203.763 230.49 202.288L230.518 188.512H234.158L234.13 202.54C234.13 203.287 234.326 203.865 234.718 204.276C235.129 204.668 235.707 204.864 236.454 204.864H238.834V208.196H236.65ZM228.082 195.652V192.796H238.834V195.652H228.082ZM250.978 208V203.492H250.334V198.48C250.334 197.603 250.119 196.949 249.69 196.52C249.261 196.091 248.598 195.876 247.702 195.876C247.235 195.876 246.675 195.885 246.022 195.904C245.369 195.923 244.706 195.951 244.034 195.988C243.381 196.007 242.793 196.035 242.27 196.072V192.768C242.699 192.731 243.185 192.693 243.726 192.656C244.267 192.619 244.818 192.6 245.378 192.6C245.957 192.581 246.498 192.572 247.002 192.572C248.57 192.572 249.867 192.777 250.894 193.188C251.939 193.599 252.723 194.243 253.246 195.12C253.787 195.997 254.058 197.145 254.058 198.564V208H250.978ZM246.078 208.392C244.977 208.392 244.006 208.196 243.166 207.804C242.345 207.412 241.701 206.852 241.234 206.124C240.786 205.396 240.562 204.519 240.562 203.492C240.562 202.372 240.833 201.457 241.374 200.748C241.934 200.039 242.709 199.507 243.698 199.152C244.706 198.797 245.882 198.62 247.226 198.62H250.754V200.944H247.17C246.274 200.944 245.583 201.168 245.098 201.616C244.631 202.045 244.398 202.605 244.398 203.296C244.398 203.987 244.631 204.547 245.098 204.976C245.583 205.405 246.274 205.62 247.17 205.62C247.711 205.62 248.206 205.527 248.654 205.34C249.121 205.135 249.503 204.799 249.802 204.332C250.119 203.847 250.297 203.193 250.334 202.372L251.286 203.464C251.193 204.528 250.931 205.424 250.502 206.152C250.091 206.88 249.513 207.44 248.766 207.832C248.038 208.205 247.142 208.392 246.078 208.392ZM258.143 208V187.56H262.035V208H258.143ZM256.239 190.472V187.56H262.035V190.472H256.239ZM284.472 208.532C283.147 208.532 281.999 208.308 281.028 207.86C280.076 207.412 279.273 206.815 278.62 206.068C277.985 205.321 277.509 204.481 277.192 203.548C276.875 202.615 276.716 201.663 276.716 200.692V200.16C276.716 199.133 276.875 198.153 277.192 197.22C277.528 196.268 278.023 195.428 278.676 194.7C279.329 193.953 280.132 193.365 281.084 192.936C282.055 192.488 283.175 192.264 284.444 192.264C285.769 192.264 286.955 192.525 288 193.048C289.045 193.552 289.876 194.261 290.492 195.176C291.127 196.091 291.481 197.155 291.556 198.368H287.776C287.683 197.584 287.347 196.931 286.768 196.408C286.208 195.885 285.433 195.624 284.444 195.624C283.585 195.624 282.867 195.829 282.288 196.24C281.728 196.651 281.308 197.22 281.028 197.948C280.748 198.657 280.608 199.479 280.608 200.412C280.608 201.308 280.739 202.12 281 202.848C281.28 203.576 281.7 204.145 282.26 204.556C282.839 204.967 283.576 205.172 284.472 205.172C285.144 205.172 285.723 205.051 286.208 204.808C286.693 204.565 287.076 204.229 287.356 203.8C287.655 203.371 287.841 202.885 287.916 202.344H291.696C291.621 203.576 291.257 204.659 290.604 205.592C289.969 206.507 289.12 207.225 288.056 207.748C287.011 208.271 285.816 208.532 284.472 208.532ZM303.746 208V203.492H303.102V198.48C303.102 197.603 302.887 196.949 302.458 196.52C302.029 196.091 301.366 195.876 300.47 195.876C300.003 195.876 299.443 195.885 298.79 195.904C298.137 195.923 297.474 195.951 296.802 195.988C296.149 196.007 295.561 196.035 295.038 196.072V192.768C295.467 192.731 295.953 192.693 296.494 192.656C297.035 192.619 297.586 192.6 298.146 192.6C298.725 192.581 299.266 192.572 299.77 192.572C301.338 192.572 302.635 192.777 303.662 193.188C304.707 193.599 305.491 194.243 306.014 195.12C306.555 195.997 306.826 197.145 306.826 198.564V208H303.746ZM298.846 208.392C297.745 208.392 296.774 208.196 295.934 207.804C295.113 207.412 294.469 206.852 294.002 206.124C293.554 205.396 293.33 204.519 293.33 203.492C293.33 202.372 293.601 201.457 294.142 200.748C294.702 200.039 295.477 199.507 296.466 199.152C297.474 198.797 298.65 198.62 299.994 198.62H303.522V200.944H299.938C299.042 200.944 298.351 201.168 297.866 201.616C297.399 202.045 297.166 202.605 297.166 203.296C297.166 203.987 297.399 204.547 297.866 204.976C298.351 205.405 299.042 205.62 299.938 205.62C300.479 205.62 300.974 205.527 301.422 205.34C301.889 205.135 302.271 204.799 302.57 204.332C302.887 203.847 303.065 203.193 303.102 202.372L304.054 203.464C303.961 204.528 303.699 205.424 303.27 206.152C302.859 206.88 302.281 207.44 301.534 207.832C300.806 208.205 299.91 208.392 298.846 208.392ZM310.715 208V192.796H313.795V199.236H313.711C313.711 197.052 314.177 195.4 315.111 194.28C316.044 193.16 317.416 192.6 319.227 192.6H319.787V195.988H318.723C317.416 195.988 316.399 196.343 315.671 197.052C314.961 197.743 314.607 198.751 314.607 200.076V208H310.715ZM328.301 208.504C327.237 208.504 326.257 208.308 325.361 207.916C324.465 207.524 323.691 206.973 323.037 206.264C322.384 205.555 321.88 204.733 321.525 203.8C321.171 202.848 320.993 201.821 320.993 200.72V200.132C320.993 199.049 321.161 198.032 321.497 197.08C321.852 196.128 322.337 195.297 322.953 194.588C323.588 193.879 324.344 193.328 325.221 192.936C326.117 192.525 327.107 192.32 328.189 192.32C329.384 192.32 330.429 192.581 331.325 193.104C332.24 193.608 332.968 194.373 333.509 195.4C334.051 196.427 334.349 197.715 334.405 199.264L333.257 197.92V187.56H337.149V208H334.069V201.532H334.741C334.685 203.081 334.368 204.379 333.789 205.424C333.211 206.451 332.445 207.225 331.493 207.748C330.56 208.252 329.496 208.504 328.301 208.504ZM329.169 205.228C329.935 205.228 330.635 205.06 331.269 204.724C331.904 204.369 332.408 203.865 332.781 203.212C333.173 202.54 333.369 201.756 333.369 200.86V199.74C333.369 198.844 333.173 198.097 332.781 197.5C332.389 196.884 331.876 196.417 331.241 196.1C330.607 195.764 329.916 195.596 329.169 195.596C328.329 195.596 327.583 195.801 326.929 196.212C326.295 196.604 325.791 197.164 325.417 197.892C325.063 198.62 324.885 199.469 324.885 200.44C324.885 201.411 325.072 202.26 325.445 202.988C325.819 203.697 326.323 204.248 326.957 204.64C327.611 205.032 328.348 205.228 329.169 205.228Z" fill="#000E1F"/>
<path d="M7.01895 247.719V246H19.019V247.719H13.9877V262H12.0502V247.719H7.01895ZM23.4376 262.281C22.6772 262.281 21.9871 262.138 21.3673 261.852C20.7475 261.56 20.2553 261.141 19.8907 260.594C19.5262 260.042 19.3439 259.375 19.3439 258.594C19.3439 257.906 19.4793 257.349 19.7501 256.922C20.021 256.49 20.3829 256.151 20.8361 255.906C21.2892 255.661 21.7892 255.479 22.3361 255.359C22.8881 255.234 23.4428 255.135 24.0001 255.063C24.7293 254.969 25.3204 254.898 25.7736 254.852C26.2319 254.799 26.5652 254.714 26.7736 254.594C26.9871 254.474 27.0939 254.266 27.0939 253.969V253.906C27.0939 253.135 26.8829 252.536 26.4611 252.109C26.0444 251.682 25.4116 251.469 24.5626 251.469C23.6824 251.469 22.9923 251.661 22.4923 252.047C21.9923 252.432 21.6407 252.844 21.4376 253.281L19.6876 252.656C20.0001 251.927 20.4168 251.359 20.9376 250.953C21.4637 250.542 22.0366 250.255 22.6564 250.094C23.2814 249.927 23.896 249.844 24.5001 249.844C24.8855 249.844 25.3282 249.891 25.8282 249.984C26.3335 250.073 26.8204 250.258 27.2892 250.539C27.7631 250.82 28.1564 251.245 28.4689 251.812C28.7814 252.38 28.9376 253.141 28.9376 254.094V262H27.0939V260.375H27.0001C26.8751 260.635 26.6668 260.914 26.3751 261.211C26.0835 261.508 25.6954 261.76 25.2111 261.969C24.7267 262.177 24.1355 262.281 23.4376 262.281ZM23.7189 260.625C24.448 260.625 25.0626 260.482 25.5626 260.195C26.0678 259.909 26.448 259.539 26.7032 259.086C26.9637 258.633 27.0939 258.156 27.0939 257.656V255.969C27.0157 256.062 26.8439 256.148 26.5782 256.227C26.3178 256.299 26.0157 256.365 25.672 256.422C25.3335 256.474 25.0027 256.521 24.6798 256.562C24.3621 256.599 24.1043 256.63 23.9064 256.656C23.4272 256.719 22.9793 256.82 22.5626 256.961C22.1512 257.096 21.8178 257.302 21.5626 257.578C21.3126 257.849 21.1876 258.219 21.1876 258.687C21.1876 259.328 21.4246 259.812 21.8986 260.141C22.3777 260.464 22.9845 260.625 23.7189 260.625ZM32.0829 266.5V250H33.8641V251.906H34.0829C34.2183 251.698 34.4058 251.432 34.6454 251.109C34.8901 250.781 35.2391 250.49 35.6922 250.234C36.1506 249.974 36.7704 249.844 37.5516 249.844C38.562 249.844 39.4526 250.096 40.2235 250.602C40.9943 251.107 41.5959 251.823 42.0282 252.75C42.4605 253.677 42.6766 254.771 42.6766 256.031C42.6766 257.302 42.4605 258.404 42.0282 259.336C41.5959 260.263 40.9969 260.982 40.2313 261.492C39.4657 261.997 38.5829 262.25 37.5829 262.25C36.812 262.25 36.1948 262.122 35.7313 261.867C35.2678 261.607 34.911 261.312 34.661 260.984C34.411 260.651 34.2183 260.375 34.0829 260.156H33.9266V266.5H32.0829ZM33.8954 256C33.8954 256.906 34.0282 257.706 34.2938 258.398C34.5594 259.086 34.9474 259.625 35.4579 260.016C35.9683 260.401 36.5933 260.594 37.3329 260.594C38.1037 260.594 38.7469 260.391 39.2625 259.984C39.7834 259.573 40.174 259.021 40.4344 258.328C40.7 257.63 40.8329 256.854 40.8329 256C40.8329 255.156 40.7026 254.396 40.4422 253.719C40.187 253.036 39.799 252.497 39.2782 252.102C38.7625 251.701 38.1141 251.5 37.3329 251.5C36.5829 251.5 35.9526 251.69 35.4422 252.07C34.9318 252.445 34.5464 252.971 34.286 253.648C34.0256 254.32 33.8954 255.104 33.8954 256ZM51.2366 262V250H53.0804V262H51.2366ZM52.1741 248C51.8147 248 51.5048 247.878 51.2444 247.633C50.9892 247.388 50.8616 247.094 50.8616 246.75C50.8616 246.406 50.9892 246.112 51.2444 245.867C51.5048 245.622 51.8147 245.5 52.1741 245.5C52.5335 245.5 52.8408 245.622 53.096 245.867C53.3564 246.112 53.4866 246.406 53.4866 246.75C53.4866 247.094 53.3564 247.388 53.096 247.633C52.8408 247.878 52.5335 248 52.1741 248ZM58.0811 254.781V262H56.2373V250H58.0186V251.875H58.1748C58.4561 251.266 58.8831 250.776 59.4561 250.406C60.029 250.031 60.7686 249.844 61.6748 249.844C62.4873 249.844 63.1983 250.01 63.8076 250.344C64.417 250.672 64.891 251.172 65.2295 251.844C65.568 252.51 65.7373 253.354 65.7373 254.375V262H63.8936V254.5C63.8936 253.557 63.6488 252.823 63.1592 252.297C62.6696 251.766 61.9977 251.5 61.1436 251.5C60.555 251.5 60.029 251.628 59.5654 251.883C59.1071 252.138 58.7451 252.51 58.4795 253C58.2139 253.49 58.0811 254.083 58.0811 254.781ZM74.1052 250V251.562H67.8865V250H74.1052ZM69.699 247.125H71.5427V258.562C71.5427 259.083 71.6182 259.474 71.7693 259.734C71.9255 259.99 72.1234 260.161 72.363 260.25C72.6078 260.333 72.8656 260.375 73.1365 260.375C73.3396 260.375 73.5062 260.365 73.6365 260.344C73.7667 260.318 73.8708 260.297 73.949 260.281L74.324 261.937C74.199 261.984 74.0245 262.031 73.8005 262.078C73.5766 262.13 73.2927 262.156 72.949 262.156C72.4281 262.156 71.9177 262.044 71.4177 261.82C70.9229 261.596 70.5115 261.255 70.1833 260.797C69.8604 260.339 69.699 259.76 69.699 259.062V247.125ZM81.4047 262.25C80.3214 262.25 79.3709 261.992 78.5532 261.477C77.7407 260.961 77.1053 260.24 76.6469 259.312C76.1938 258.385 75.9672 257.302 75.9672 256.062C75.9672 254.812 76.1938 253.721 76.6469 252.789C77.1053 251.857 77.7407 251.133 78.5532 250.617C79.3709 250.102 80.3214 249.844 81.4047 249.844C82.4881 249.844 83.436 250.102 84.2485 250.617C85.0662 251.133 85.7016 251.857 86.1547 252.789C86.6131 253.721 86.8422 254.812 86.8422 256.062C86.8422 257.302 86.6131 258.385 86.1547 259.312C85.7016 260.24 85.0662 260.961 84.2485 261.477C83.436 261.992 82.4881 262.25 81.4047 262.25ZM81.4047 260.594C82.2276 260.594 82.9047 260.383 83.436 259.961C83.9672 259.539 84.3605 258.984 84.6157 258.297C84.8709 257.609 84.9985 256.865 84.9985 256.062C84.9985 255.26 84.8709 254.513 84.6157 253.82C84.3605 253.128 83.9672 252.568 83.436 252.141C82.9047 251.714 82.2276 251.5 81.4047 251.5C80.5818 251.5 79.9047 251.714 79.3735 252.141C78.8422 252.568 78.449 253.128 78.1938 253.82C77.9386 254.513 77.811 255.26 77.811 256.062C77.811 256.865 77.9386 257.609 78.1938 258.297C78.449 258.984 78.8422 259.539 79.3735 259.961C79.9047 260.383 80.5818 260.594 81.4047 260.594ZM100.623 250V251.562H94.4042V250H100.623ZM96.2167 247.125H98.0604V258.562C98.0604 259.083 98.136 259.474 98.287 259.734C98.4432 259.99 98.6412 260.161 98.8807 260.25C99.1255 260.333 99.3833 260.375 99.6542 260.375C99.8573 260.375 100.024 260.365 100.154 260.344C100.284 260.318 100.389 260.297 100.467 260.281L100.842 261.937C100.717 261.984 100.542 262.031 100.318 262.078C100.094 262.13 99.8104 262.156 99.4667 262.156C98.9458 262.156 98.4354 262.044 97.9354 261.82C97.4406 261.596 97.0292 261.255 96.7011 260.797C96.3781 260.339 96.2167 259.76 96.2167 259.062V247.125ZM105.278 254.781V262H103.434V246H105.278V251.875H105.434C105.715 251.255 106.137 250.763 106.7 250.398C107.268 250.029 108.023 249.844 108.965 249.844C109.783 249.844 110.499 250.008 111.114 250.336C111.728 250.659 112.205 251.156 112.544 251.828C112.887 252.495 113.059 253.344 113.059 254.375V262H111.215V254.5C111.215 253.547 110.968 252.81 110.473 252.289C109.984 251.763 109.304 251.5 108.434 251.5C107.83 251.5 107.288 251.628 106.809 251.883C106.335 252.138 105.96 252.51 105.684 253C105.413 253.49 105.278 254.083 105.278 254.781ZM121.243 262.25C120.087 262.25 119.09 261.995 118.251 261.484C117.418 260.969 116.775 260.25 116.322 259.328C115.874 258.401 115.65 257.323 115.65 256.094C115.65 254.865 115.874 253.781 116.322 252.844C116.775 251.901 117.405 251.167 118.212 250.641C119.025 250.109 119.973 249.844 121.056 249.844C121.681 249.844 122.298 249.948 122.908 250.156C123.517 250.365 124.072 250.703 124.572 251.172C125.072 251.635 125.47 252.25 125.767 253.016C126.064 253.781 126.212 254.724 126.212 255.844V256.625H116.962V255.031H124.337C124.337 254.354 124.202 253.75 123.931 253.219C123.665 252.687 123.285 252.268 122.79 251.961C122.301 251.654 121.723 251.5 121.056 251.5C120.322 251.5 119.686 251.682 119.15 252.047C118.618 252.406 118.21 252.875 117.923 253.453C117.637 254.031 117.493 254.651 117.493 255.312V256.375C117.493 257.281 117.65 258.049 117.962 258.68C118.28 259.305 118.72 259.781 119.283 260.109C119.845 260.432 120.499 260.594 121.243 260.594C121.728 260.594 122.165 260.526 122.556 260.391C122.952 260.25 123.293 260.042 123.579 259.766C123.866 259.484 124.087 259.135 124.243 258.719L126.025 259.219C125.837 259.823 125.522 260.354 125.079 260.812C124.637 261.266 124.09 261.62 123.439 261.875C122.788 262.125 122.056 262.25 121.243 262.25ZM139.608 266.75C138.718 266.75 137.952 266.635 137.311 266.406C136.671 266.182 136.137 265.885 135.71 265.516C135.288 265.151 134.952 264.76 134.702 264.344L136.171 263.313C136.337 263.531 136.548 263.781 136.803 264.062C137.059 264.349 137.408 264.596 137.85 264.805C138.298 265.018 138.884 265.125 139.608 265.125C140.577 265.125 141.376 264.891 142.007 264.422C142.637 263.953 142.952 263.219 142.952 262.219V259.781H142.796C142.66 260 142.468 260.271 142.218 260.594C141.973 260.911 141.619 261.195 141.155 261.445C140.697 261.69 140.077 261.812 139.296 261.812C138.327 261.812 137.457 261.583 136.686 261.125C135.921 260.667 135.314 260 134.866 259.125C134.423 258.25 134.202 257.187 134.202 255.937C134.202 254.708 134.418 253.638 134.85 252.727C135.283 251.81 135.884 251.102 136.655 250.602C137.426 250.096 138.317 249.844 139.327 249.844C140.108 249.844 140.728 249.974 141.186 250.234C141.65 250.49 142.004 250.781 142.249 251.109C142.499 251.432 142.692 251.698 142.827 251.906H143.014V250H144.796V262.344C144.796 263.375 144.561 264.214 144.093 264.859C143.629 265.51 143.004 265.987 142.218 266.289C141.436 266.596 140.567 266.75 139.608 266.75ZM139.546 260.156C140.285 260.156 140.91 259.987 141.421 259.648C141.931 259.31 142.319 258.823 142.585 258.188C142.85 257.552 142.983 256.792 142.983 255.906C142.983 255.042 142.853 254.279 142.593 253.617C142.332 252.956 141.947 252.437 141.436 252.062C140.926 251.687 140.296 251.5 139.546 251.5C138.764 251.5 138.113 251.698 137.593 252.094C137.077 252.49 136.689 253.021 136.428 253.688C136.173 254.354 136.046 255.094 136.046 255.906C136.046 256.74 136.176 257.477 136.436 258.117C136.702 258.753 137.093 259.253 137.608 259.617C138.129 259.977 138.775 260.156 139.546 260.156ZM147.951 262V250H149.794V262H147.951ZM148.888 248C148.529 248 148.219 247.878 147.958 247.633C147.703 247.388 147.576 247.094 147.576 246.75C147.576 246.406 147.703 246.112 147.958 245.867C148.219 245.622 148.529 245.5 148.888 245.5C149.248 245.5 149.555 245.622 149.81 245.867C150.07 246.112 150.201 246.406 150.201 246.75C150.201 247.094 150.07 247.388 149.81 247.633C149.555 247.878 149.248 248 148.888 248ZM158.295 250V251.562H151.826V250H158.295ZM153.764 262V248.344C153.764 247.656 153.925 247.083 154.248 246.625C154.571 246.167 154.99 245.823 155.506 245.594C156.022 245.365 156.566 245.25 157.139 245.25C157.592 245.25 157.962 245.286 158.248 245.359C158.535 245.432 158.748 245.5 158.889 245.562L158.358 247.156C158.264 247.125 158.134 247.086 157.967 247.039C157.806 246.992 157.592 246.969 157.326 246.969C156.717 246.969 156.277 247.122 156.006 247.43C155.74 247.737 155.608 248.187 155.608 248.781V262H153.764ZM165.878 250V251.562H159.659V250H165.878ZM161.472 247.125H163.315V258.562C163.315 259.083 163.391 259.474 163.542 259.734C163.698 259.99 163.896 260.161 164.136 260.25C164.38 260.333 164.638 260.375 164.909 260.375C165.112 260.375 165.279 260.365 165.409 260.344C165.539 260.318 165.643 260.297 165.722 260.281L166.097 261.937C165.972 261.984 165.797 262.031 165.573 262.078C165.349 262.13 165.065 262.156 164.722 262.156C164.201 262.156 163.69 262.044 163.19 261.82C162.696 261.596 162.284 261.255 161.956 260.797C161.633 260.339 161.472 259.76 161.472 259.062V247.125ZM174.649 262V246H176.493V251.906H176.649C176.784 251.698 176.972 251.432 177.211 251.109C177.456 250.781 177.805 250.49 178.258 250.234C178.716 249.974 179.336 249.844 180.118 249.844C181.128 249.844 182.019 250.096 182.789 250.602C183.56 251.107 184.162 251.823 184.594 252.75C185.026 253.677 185.243 254.771 185.243 256.031C185.243 257.302 185.026 258.404 184.594 259.336C184.162 260.263 183.563 260.982 182.797 261.492C182.032 261.997 181.149 262.25 180.149 262.25C179.378 262.25 178.761 262.122 178.297 261.867C177.834 261.607 177.477 261.312 177.227 260.984C176.977 260.651 176.784 260.375 176.649 260.156H176.43V262H174.649ZM176.461 256C176.461 256.906 176.594 257.706 176.86 258.398C177.125 259.086 177.513 259.625 178.024 260.016C178.534 260.401 179.159 260.594 179.899 260.594C180.67 260.594 181.313 260.391 181.828 259.984C182.349 259.573 182.74 259.021 183 258.328C183.266 257.63 183.399 256.854 183.399 256C183.399 255.156 183.269 254.396 183.008 253.719C182.753 253.036 182.365 252.497 181.844 252.102C181.328 251.701 180.68 251.5 179.899 251.5C179.149 251.5 178.519 251.69 178.008 252.07C177.498 252.445 177.112 252.971 176.852 253.648C176.591 254.32 176.461 255.104 176.461 256ZM191.374 262.281C190.614 262.281 189.924 262.138 189.304 261.852C188.684 261.56 188.192 261.141 187.827 260.594C187.463 260.042 187.28 259.375 187.28 258.594C187.28 257.906 187.416 257.349 187.687 256.922C187.957 256.49 188.319 256.151 188.773 255.906C189.226 255.661 189.726 255.479 190.273 255.359C190.825 255.234 191.379 255.135 191.937 255.063C192.666 254.969 193.257 254.898 193.71 254.852C194.168 254.799 194.502 254.714 194.71 254.594C194.924 254.474 195.03 254.266 195.03 253.969V253.906C195.03 253.135 194.819 252.536 194.398 252.109C193.981 251.682 193.348 251.469 192.499 251.469C191.619 251.469 190.929 251.661 190.429 252.047C189.929 252.432 189.577 252.844 189.374 253.281L187.624 252.656C187.937 251.927 188.353 251.359 188.874 250.953C189.4 250.542 189.973 250.255 190.593 250.094C191.218 249.927 191.832 249.844 192.437 249.844C192.822 249.844 193.265 249.891 193.765 249.984C194.27 250.073 194.757 250.258 195.226 250.539C195.7 250.82 196.093 251.245 196.405 251.812C196.718 252.38 196.874 253.141 196.874 254.094V262H195.03V260.375H194.937C194.812 260.635 194.603 260.914 194.312 261.211C194.02 261.508 193.632 261.76 193.148 261.969C192.663 262.177 192.072 262.281 191.374 262.281ZM191.655 260.625C192.385 260.625 192.999 260.482 193.499 260.195C194.004 259.909 194.385 259.539 194.64 259.086C194.9 258.633 195.03 258.156 195.03 257.656V255.969C194.952 256.062 194.78 256.148 194.515 256.227C194.254 256.299 193.952 256.365 193.608 256.422C193.27 256.474 192.939 256.521 192.616 256.562C192.299 256.599 192.041 256.63 191.843 256.656C191.364 256.719 190.916 256.82 190.499 256.961C190.088 257.096 189.754 257.302 189.499 257.578C189.249 257.849 189.124 258.219 189.124 258.687C189.124 259.328 189.361 259.812 189.835 260.141C190.314 260.464 190.921 260.625 191.655 260.625ZM204.863 266.75C203.972 266.75 203.207 266.635 202.566 266.406C201.926 266.182 201.392 265.885 200.965 265.516C200.543 265.151 200.207 264.76 199.957 264.344L201.426 263.313C201.592 263.531 201.803 263.781 202.058 264.062C202.314 264.349 202.663 264.596 203.105 264.805C203.553 265.018 204.139 265.125 204.863 265.125C205.832 265.125 206.631 264.891 207.262 264.422C207.892 263.953 208.207 263.219 208.207 262.219V259.781H208.051C207.915 260 207.722 260.271 207.472 260.594C207.228 260.911 206.874 261.195 206.41 261.445C205.952 261.69 205.332 261.812 204.551 261.812C203.582 261.812 202.712 261.583 201.941 261.125C201.176 260.667 200.569 260 200.121 259.125C199.678 258.25 199.457 257.187 199.457 255.937C199.457 254.708 199.673 253.638 200.105 252.727C200.538 251.81 201.139 251.102 201.91 250.602C202.681 250.096 203.571 249.844 204.582 249.844C205.363 249.844 205.983 249.974 206.441 250.234C206.905 250.49 207.259 250.781 207.504 251.109C207.754 251.432 207.946 251.698 208.082 251.906H208.269V250H210.051V262.344C210.051 263.375 209.816 264.214 209.347 264.859C208.884 265.51 208.259 265.987 207.472 266.289C206.691 266.596 205.821 266.75 204.863 266.75ZM204.801 260.156C205.54 260.156 206.165 259.987 206.676 259.648C207.186 259.31 207.574 258.823 207.84 258.188C208.105 257.552 208.238 256.792 208.238 255.906C208.238 255.042 208.108 254.279 207.847 253.617C207.587 252.956 207.202 252.437 206.691 252.062C206.181 251.687 205.551 251.5 204.801 251.5C204.019 251.5 203.368 251.698 202.847 252.094C202.332 252.49 201.944 253.021 201.683 253.688C201.428 254.354 201.301 255.094 201.301 255.906C201.301 256.74 201.431 257.477 201.691 258.117C201.957 258.753 202.347 259.253 202.863 259.617C203.384 259.977 204.03 260.156 204.801 260.156ZM224.392 250V251.562H218.173V250H224.392ZM219.986 247.125H221.829V258.562C221.829 259.083 221.905 259.474 222.056 259.734C222.212 259.99 222.41 260.161 222.65 260.25C222.894 260.333 223.152 260.375 223.423 260.375C223.626 260.375 223.793 260.365 223.923 260.344C224.053 260.318 224.157 260.297 224.236 260.281L224.611 261.937C224.486 261.984 224.311 262.031 224.087 262.078C223.863 262.13 223.579 262.156 223.236 262.156C222.715 262.156 222.204 262.044 221.704 261.82C221.21 261.596 220.798 261.255 220.47 260.797C220.147 260.339 219.986 259.76 219.986 259.062V247.125ZM231.691 262.25C230.608 262.25 229.658 261.992 228.84 261.477C228.027 260.961 227.392 260.24 226.934 259.312C226.48 258.385 226.254 257.302 226.254 256.062C226.254 254.812 226.48 253.721 226.934 252.789C227.392 251.857 228.027 251.133 228.84 250.617C229.658 250.102 230.608 249.844 231.691 249.844C232.775 249.844 233.723 250.102 234.535 250.617C235.353 251.133 235.988 251.857 236.441 252.789C236.9 253.721 237.129 254.812 237.129 256.062C237.129 257.302 236.9 258.385 236.441 259.312C235.988 260.24 235.353 260.961 234.535 261.477C233.723 261.992 232.775 262.25 231.691 262.25ZM231.691 260.594C232.514 260.594 233.191 260.383 233.723 259.961C234.254 259.539 234.647 258.984 234.902 258.297C235.158 257.609 235.285 256.865 235.285 256.062C235.285 255.26 235.158 254.513 234.902 253.82C234.647 253.128 234.254 252.568 233.723 252.141C233.191 251.714 232.514 251.5 231.691 251.5C230.868 251.5 230.191 251.714 229.66 252.141C229.129 252.568 228.736 253.128 228.48 253.82C228.225 254.513 228.098 255.26 228.098 256.062C228.098 256.865 228.225 257.609 228.48 258.297C228.736 258.984 229.129 259.539 229.66 259.961C230.191 260.383 230.868 260.594 231.691 260.594ZM254.191 252.687L252.535 253.156C252.43 252.88 252.277 252.612 252.074 252.352C251.876 252.086 251.605 251.867 251.261 251.695C250.917 251.523 250.477 251.437 249.941 251.437C249.206 251.437 248.594 251.607 248.105 251.945C247.621 252.279 247.378 252.703 247.378 253.219C247.378 253.677 247.545 254.039 247.878 254.305C248.212 254.57 248.732 254.792 249.441 254.969L251.222 255.406C252.295 255.667 253.094 256.065 253.621 256.602C254.147 257.133 254.41 257.818 254.41 258.656C254.41 259.344 254.212 259.958 253.816 260.5C253.425 261.042 252.878 261.469 252.175 261.781C251.472 262.094 250.654 262.25 249.722 262.25C248.498 262.25 247.485 261.984 246.683 261.453C245.881 260.922 245.373 260.146 245.16 259.125L246.91 258.687C247.076 259.333 247.391 259.818 247.855 260.141C248.324 260.464 248.936 260.625 249.691 260.625C250.55 260.625 251.232 260.443 251.738 260.078C252.248 259.708 252.503 259.266 252.503 258.75C252.503 258.333 252.357 257.984 252.066 257.703C251.774 257.417 251.326 257.203 250.722 257.062L248.722 256.594C247.623 256.333 246.816 255.93 246.3 255.383C245.79 254.831 245.535 254.141 245.535 253.312C245.535 252.635 245.725 252.036 246.105 251.516C246.49 250.995 247.014 250.586 247.675 250.289C248.342 249.992 249.097 249.844 249.941 249.844C251.128 249.844 252.061 250.104 252.738 250.625C253.42 251.146 253.904 251.833 254.191 252.687ZM258.809 254.781V262H256.965V246H258.809V251.875H258.965C259.246 251.255 259.668 250.763 260.231 250.398C260.798 250.029 261.554 249.844 262.496 249.844C263.314 249.844 264.03 250.008 264.645 250.336C265.259 250.659 265.736 251.156 266.074 251.828C266.418 252.495 266.59 253.344 266.59 254.375V262H264.746V254.5C264.746 253.547 264.499 252.81 264.004 252.289C263.514 251.763 262.835 251.5 261.965 251.5C261.361 251.5 260.819 251.628 260.34 251.883C259.866 252.138 259.491 252.51 259.215 253C258.944 253.49 258.809 254.083 258.809 254.781ZM273.274 262.281C272.514 262.281 271.824 262.138 271.204 261.852C270.584 261.56 270.092 261.141 269.727 260.594C269.363 260.042 269.181 259.375 269.181 258.594C269.181 257.906 269.316 257.349 269.587 256.922C269.858 256.49 270.22 256.151 270.673 255.906C271.126 255.661 271.626 255.479 272.173 255.359C272.725 255.234 273.279 255.135 273.837 255.063C274.566 254.969 275.157 254.898 275.61 254.852C276.069 254.799 276.402 254.714 276.61 254.594C276.824 254.474 276.931 254.266 276.931 253.969V253.906C276.931 253.135 276.72 252.536 276.298 252.109C275.881 251.682 275.248 251.469 274.399 251.469C273.519 251.469 272.829 251.661 272.329 252.047C271.829 252.432 271.477 252.844 271.274 253.281L269.524 252.656C269.837 251.927 270.253 251.359 270.774 250.953C271.3 250.542 271.873 250.255 272.493 250.094C273.118 249.927 273.733 249.844 274.337 249.844C274.722 249.844 275.165 249.891 275.665 249.984C276.17 250.073 276.657 250.258 277.126 250.539C277.6 250.82 277.993 251.245 278.306 251.812C278.618 252.38 278.774 253.141 278.774 254.094V262H276.931V260.375H276.837C276.712 260.635 276.503 260.914 276.212 261.211C275.92 261.508 275.532 261.76 275.048 261.969C274.563 262.177 273.972 262.281 273.274 262.281ZM273.556 260.625C274.285 260.625 274.899 260.482 275.399 260.195C275.904 259.909 276.285 259.539 276.54 259.086C276.8 258.633 276.931 258.156 276.931 257.656V255.969C276.852 256.062 276.681 256.148 276.415 256.227C276.154 256.299 275.852 256.365 275.509 256.422C275.17 256.474 274.839 256.521 274.516 256.562C274.199 256.599 273.941 256.63 273.743 256.656C273.264 256.719 272.816 256.82 272.399 256.961C271.988 257.096 271.654 257.302 271.399 257.578C271.149 257.849 271.024 258.219 271.024 258.687C271.024 259.328 271.261 259.812 271.735 260.141C272.214 260.464 272.821 260.625 273.556 260.625ZM281.919 262V250H283.701V251.812H283.826C284.044 251.219 284.44 250.737 285.013 250.367C285.586 249.997 286.232 249.812 286.951 249.812C287.086 249.812 287.255 249.815 287.459 249.82C287.662 249.826 287.815 249.833 287.919 249.844V251.719C287.857 251.703 287.714 251.68 287.49 251.648C287.271 251.612 287.039 251.594 286.794 251.594C286.211 251.594 285.69 251.716 285.232 251.961C284.779 252.201 284.419 252.534 284.154 252.961C283.893 253.383 283.763 253.865 283.763 254.406V262H281.919ZM294.551 262.25C293.395 262.25 292.397 261.995 291.559 261.484C290.726 260.969 290.082 260.25 289.629 259.328C289.181 258.401 288.957 257.323 288.957 256.094C288.957 254.865 289.181 253.781 289.629 252.844C290.082 251.901 290.713 251.167 291.52 250.641C292.332 250.109 293.28 249.844 294.364 249.844C294.989 249.844 295.606 249.948 296.215 250.156C296.824 250.365 297.379 250.703 297.879 251.172C298.379 251.635 298.778 252.25 299.074 253.016C299.371 253.781 299.52 254.724 299.52 255.844V256.625H290.27V255.031H297.645C297.645 254.354 297.509 253.75 297.239 253.219C296.973 252.687 296.593 252.268 296.098 251.961C295.608 251.654 295.03 251.5 294.364 251.5C293.629 251.5 292.994 251.682 292.457 252.047C291.926 252.406 291.517 252.875 291.231 253.453C290.944 254.031 290.801 254.651 290.801 255.312V256.375C290.801 257.281 290.957 258.049 291.27 258.68C291.588 259.305 292.028 259.781 292.59 260.109C293.153 260.432 293.806 260.594 294.551 260.594C295.035 260.594 295.473 260.526 295.864 260.391C296.259 260.25 296.601 260.042 296.887 259.766C297.173 259.484 297.395 259.135 297.551 258.719L299.332 259.219C299.145 259.823 298.83 260.354 298.387 260.812C297.944 261.266 297.397 261.62 296.746 261.875C296.095 262.125 295.364 262.25 294.551 262.25ZM309.916 246V262H308.072V246H309.916ZM317.948 262.25C316.864 262.25 315.914 261.992 315.096 261.477C314.284 260.961 313.648 260.24 313.19 259.312C312.737 258.385 312.51 257.302 312.51 256.062C312.51 254.812 312.737 253.721 313.19 252.789C313.648 251.857 314.284 251.133 315.096 250.617C315.914 250.102 316.864 249.844 317.948 249.844C319.031 249.844 319.979 250.102 320.791 250.617C321.609 251.133 322.245 251.857 322.698 252.789C323.156 253.721 323.385 254.812 323.385 256.062C323.385 257.302 323.156 258.385 322.698 259.312C322.245 260.24 321.609 260.961 320.791 261.477C319.979 261.992 319.031 262.25 317.948 262.25ZM317.948 260.594C318.771 260.594 319.448 260.383 319.979 259.961C320.51 259.539 320.903 258.984 321.159 258.297C321.414 257.609 321.541 256.865 321.541 256.062C321.541 255.26 321.414 254.513 321.159 253.82C320.903 253.128 320.51 252.568 319.979 252.141C319.448 251.714 318.771 251.5 317.948 251.5C317.125 251.5 316.448 251.714 315.916 252.141C315.385 252.568 314.992 253.128 314.737 253.82C314.482 254.513 314.354 255.26 314.354 256.062C314.354 256.865 314.482 257.609 314.737 258.297C314.992 258.984 315.385 259.539 315.916 259.961C316.448 260.383 317.125 260.594 317.948 260.594ZM335.362 250L330.925 262H329.05L324.612 250H326.612L329.925 259.562H330.05L333.362 250H335.362ZM342.178 262.25C341.021 262.25 340.024 261.995 339.185 261.484C338.352 260.969 337.709 260.25 337.256 259.328C336.808 258.401 336.584 257.323 336.584 256.094C336.584 254.865 336.808 253.781 337.256 252.844C337.709 251.901 338.339 251.167 339.146 250.641C339.959 250.109 340.907 249.844 341.99 249.844C342.615 249.844 343.232 249.948 343.842 250.156C344.451 250.365 345.006 250.703 345.506 251.172C346.006 251.635 346.404 252.25 346.701 253.016C346.998 253.781 347.146 254.724 347.146 255.844V256.625H337.896V255.031H345.271C345.271 254.354 345.136 253.75 344.865 253.219C344.599 252.687 344.219 252.268 343.724 251.961C343.235 251.654 342.657 251.5 341.99 251.5C341.256 251.5 340.62 251.682 340.084 252.047C339.553 252.406 339.144 252.875 338.857 253.453C338.571 254.031 338.428 254.651 338.428 255.312V256.375C338.428 257.281 338.584 258.049 338.896 258.68C339.214 259.305 339.654 259.781 340.217 260.109C340.779 260.432 341.433 260.594 342.178 260.594C342.662 260.594 343.099 260.526 343.49 260.391C343.886 260.25 344.227 260.042 344.514 259.766C344.8 259.484 345.021 259.135 345.178 258.719L346.959 259.219C346.771 259.823 346.456 260.354 346.014 260.812C345.571 261.266 345.024 261.62 344.373 261.875C343.722 262.125 342.99 262.25 342.178 262.25ZM49.5505 294V282H51.3943V294H49.5505ZM50.488 280C50.1286 280 49.8187 279.878 49.5583 279.633C49.3031 279.388 49.1755 279.094 49.1755 278.75C49.1755 278.406 49.3031 278.112 49.5583 277.867C49.8187 277.622 50.1286 277.5 50.488 277.5C50.8474 277.5 51.1547 277.622 51.4099 277.867C51.6703 278.112 51.8005 278.406 51.8005 278.75C51.8005 279.094 51.6703 279.388 51.4099 279.633C51.1547 279.878 50.8474 280 50.488 280ZM56.395 286.781V294H54.5512V282H56.3325V283.875H56.4887C56.77 283.266 57.197 282.776 57.77 282.406C58.3429 282.031 59.0825 281.844 59.9887 281.844C60.8012 281.844 61.5121 282.01 62.1215 282.344C62.7309 282.672 63.2049 283.172 63.5434 283.844C63.8819 284.51 64.0512 285.354 64.0512 286.375V294H62.2075V286.5C62.2075 285.557 61.9627 284.823 61.4731 284.297C60.9835 283.766 60.3116 283.5 59.4575 283.5C58.8689 283.5 58.3429 283.628 57.8793 283.883C57.421 284.138 57.059 284.51 56.7934 285C56.5278 285.49 56.395 286.083 56.395 286.781ZM78.3866 282V283.562H72.1678V282H78.3866ZM73.9803 279.125H75.8241V290.562C75.8241 291.083 75.8996 291.474 76.0507 291.734C76.2069 291.99 76.4048 292.161 76.6444 292.25C76.8892 292.333 77.147 292.375 77.4178 292.375C77.621 292.375 77.7876 292.365 77.9178 292.344C78.0481 292.318 78.1522 292.297 78.2303 292.281L78.6053 293.937C78.4803 293.984 78.3059 294.031 78.0819 294.078C77.858 294.13 77.5741 294.156 77.2303 294.156C76.7095 294.156 76.1991 294.044 75.6991 293.82C75.2043 293.596 74.7928 293.255 74.4647 292.797C74.1418 292.339 73.9803 291.76 73.9803 291.062V279.125ZM83.0416 286.781V294H81.1979V278H83.0416V283.875H83.1979C83.4791 283.255 83.901 282.763 84.4635 282.398C85.0312 282.029 85.7864 281.844 86.7291 281.844C87.5468 281.844 88.263 282.008 88.8775 282.336C89.4921 282.659 89.9687 283.156 90.3072 283.828C90.651 284.495 90.8229 285.344 90.8229 286.375V294H88.9791V286.5C88.9791 285.547 88.7317 284.81 88.2369 284.289C87.7473 283.763 87.0676 283.5 86.1979 283.5C85.5937 283.5 85.052 283.628 84.5729 283.883C84.0989 284.138 83.7239 284.51 83.4479 285C83.177 285.49 83.0416 286.083 83.0416 286.781ZM99.0071 294.25C97.8509 294.25 96.8535 293.995 96.015 293.484C95.1816 292.969 94.5384 292.25 94.0853 291.328C93.6374 290.401 93.4134 289.323 93.4134 288.094C93.4134 286.865 93.6374 285.781 94.0853 284.844C94.5384 283.901 95.1686 283.167 95.9759 282.641C96.7884 282.109 97.7363 281.844 98.8196 281.844C99.4446 281.844 100.062 281.948 100.671 282.156C101.281 282.365 101.835 282.703 102.335 283.172C102.835 283.635 103.234 284.25 103.531 285.016C103.827 285.781 103.976 286.724 103.976 287.844V288.625H94.7259V287.031H102.101C102.101 286.354 101.965 285.75 101.695 285.219C101.429 284.687 101.049 284.268 100.554 283.961C100.064 283.654 99.4863 283.5 98.8196 283.5C98.0853 283.5 97.4499 283.682 96.9134 284.047C96.3821 284.406 95.9733 284.875 95.6868 285.453C95.4004 286.031 95.2571 286.651 95.2571 287.312V288.375C95.2571 289.281 95.4134 290.049 95.7259 290.68C96.0436 291.305 96.4837 291.781 97.0462 292.109C97.6087 292.432 98.2624 292.594 99.0071 292.594C99.4915 292.594 99.929 292.526 100.32 292.391C100.715 292.25 101.057 292.042 101.343 291.766C101.63 291.484 101.851 291.135 102.007 290.719L103.788 291.219C103.601 291.823 103.286 292.354 102.843 292.812C102.4 293.266 101.854 293.62 101.202 293.875C100.551 294.125 99.8196 294.25 99.0071 294.25ZM112.528 294V282H114.309V283.875H114.466C114.716 283.234 115.119 282.737 115.677 282.383C116.234 282.023 116.903 281.844 117.684 281.844C118.476 281.844 119.135 282.023 119.661 282.383C120.192 282.737 120.606 283.234 120.903 283.875H121.028C121.335 283.255 121.796 282.763 122.411 282.398C123.025 282.029 123.762 281.844 124.622 281.844C125.695 281.844 126.572 282.18 127.255 282.852C127.937 283.518 128.278 284.557 128.278 285.969V294H126.434V285.969C126.434 285.083 126.192 284.451 125.708 284.07C125.223 283.69 124.653 283.5 123.997 283.5C123.153 283.5 122.499 283.755 122.036 284.266C121.572 284.771 121.341 285.411 121.341 286.187V294H119.466V285.781C119.466 285.099 119.244 284.549 118.802 284.133C118.359 283.711 117.789 283.5 117.091 283.5C116.611 283.5 116.164 283.628 115.747 283.883C115.335 284.138 115.002 284.492 114.747 284.945C114.497 285.393 114.372 285.911 114.372 286.5V294H112.528ZM136.304 294.25C135.221 294.25 134.27 293.992 133.453 293.477C132.64 292.961 132.005 292.24 131.546 291.312C131.093 290.385 130.867 289.302 130.867 288.062C130.867 286.812 131.093 285.721 131.546 284.789C132.005 283.857 132.64 283.133 133.453 282.617C134.27 282.102 135.221 281.844 136.304 281.844C137.388 281.844 138.335 282.102 139.148 282.617C139.966 283.133 140.601 283.857 141.054 284.789C141.513 285.721 141.742 286.812 141.742 288.062C141.742 289.302 141.513 290.385 141.054 291.312C140.601 292.24 139.966 292.961 139.148 293.477C138.335 293.992 137.388 294.25 136.304 294.25ZM136.304 292.594C137.127 292.594 137.804 292.383 138.335 291.961C138.867 291.539 139.26 290.984 139.515 290.297C139.77 289.609 139.898 288.865 139.898 288.062C139.898 287.26 139.77 286.513 139.515 285.82C139.26 285.128 138.867 284.568 138.335 284.141C137.804 283.714 137.127 283.5 136.304 283.5C135.481 283.5 134.804 283.714 134.273 284.141C133.742 284.568 133.348 285.128 133.093 285.82C132.838 286.513 132.71 287.26 132.71 288.062C132.71 288.865 132.838 289.609 133.093 290.297C133.348 290.984 133.742 291.539 134.273 291.961C134.804 292.383 135.481 292.594 136.304 292.594ZM152.836 284.687L151.18 285.156C151.076 284.88 150.922 284.612 150.719 284.352C150.521 284.086 150.25 283.867 149.906 283.695C149.563 283.523 149.123 283.437 148.586 283.437C147.852 283.437 147.24 283.607 146.75 283.945C146.266 284.279 146.024 284.703 146.024 285.219C146.024 285.677 146.19 286.039 146.524 286.305C146.857 286.57 147.378 286.792 148.086 286.969L149.867 287.406C150.94 287.667 151.74 288.065 152.266 288.602C152.792 289.133 153.055 289.818 153.055 290.656C153.055 291.344 152.857 291.958 152.461 292.5C152.07 293.042 151.524 293.469 150.82 293.781C150.117 294.094 149.3 294.25 148.367 294.25C147.143 294.25 146.13 293.984 145.328 293.453C144.526 292.922 144.018 292.146 143.805 291.125L145.555 290.687C145.722 291.333 146.037 291.818 146.5 292.141C146.969 292.464 147.581 292.625 148.336 292.625C149.195 292.625 149.878 292.443 150.383 292.078C150.893 291.708 151.149 291.266 151.149 290.75C151.149 290.333 151.003 289.984 150.711 289.703C150.419 289.417 149.972 289.203 149.367 289.062L147.367 288.594C146.268 288.333 145.461 287.93 144.945 287.383C144.435 286.831 144.18 286.141 144.18 285.312C144.18 284.635 144.37 284.036 144.75 283.516C145.136 282.995 145.659 282.586 146.32 282.289C146.987 281.992 147.742 281.844 148.586 281.844C149.774 281.844 150.706 282.104 151.383 282.625C152.065 283.146 152.55 283.833 152.836 284.687ZM160.829 282V283.562H154.61V282H160.829ZM156.423 279.125H158.267V290.562C158.267 291.083 158.342 291.474 158.493 291.734C158.649 291.99 158.847 292.161 159.087 292.25C159.332 292.333 159.589 292.375 159.86 292.375C160.063 292.375 160.23 292.365 160.36 292.344C160.49 292.318 160.595 292.297 160.673 292.281L161.048 293.937C160.923 293.984 160.748 294.031 160.524 294.078C160.3 294.13 160.017 294.156 159.673 294.156C159.152 294.156 158.642 294.044 158.142 293.82C157.647 293.596 157.235 293.255 156.907 292.797C156.584 292.339 156.423 291.76 156.423 291.062V279.125ZM172.881 294.281C172.121 294.281 171.431 294.138 170.811 293.852C170.191 293.56 169.699 293.141 169.334 292.594C168.97 292.042 168.787 291.375 168.787 290.594C168.787 289.906 168.923 289.349 169.194 288.922C169.465 288.49 169.827 288.151 170.28 287.906C170.733 287.661 171.233 287.479 171.78 287.359C172.332 287.234 172.886 287.135 173.444 287.063C174.173 286.969 174.764 286.898 175.217 286.852C175.675 286.799 176.009 286.714 176.217 286.594C176.431 286.474 176.537 286.266 176.537 285.969V285.906C176.537 285.135 176.327 284.536 175.905 284.109C175.488 283.682 174.855 283.469 174.006 283.469C173.126 283.469 172.436 283.661 171.936 284.047C171.436 284.432 171.084 284.844 170.881 285.281L169.131 284.656C169.444 283.927 169.86 283.359 170.381 282.953C170.907 282.542 171.48 282.255 172.1 282.094C172.725 281.927 173.34 281.844 173.944 281.844C174.329 281.844 174.772 281.891 175.272 281.984C175.777 282.073 176.264 282.258 176.733 282.539C177.207 282.82 177.6 283.245 177.912 283.812C178.225 284.38 178.381 285.141 178.381 286.094V294H176.537V292.375H176.444C176.319 292.635 176.11 292.914 175.819 293.211C175.527 293.508 175.139 293.76 174.655 293.969C174.17 294.177 173.579 294.281 172.881 294.281ZM173.162 292.625C173.892 292.625 174.506 292.482 175.006 292.195C175.511 291.909 175.892 291.539 176.147 291.086C176.407 290.633 176.537 290.156 176.537 289.656V287.969C176.459 288.062 176.287 288.148 176.022 288.227C175.761 288.299 175.459 288.365 175.116 288.422C174.777 288.474 174.446 288.521 174.123 288.562C173.806 288.599 173.548 288.63 173.35 288.656C172.871 288.719 172.423 288.82 172.006 288.961C171.595 289.096 171.261 289.302 171.006 289.578C170.756 289.849 170.631 290.219 170.631 290.687C170.631 291.328 170.868 291.812 171.342 292.141C171.821 292.464 172.428 292.625 173.162 292.625ZM181.526 294V282H183.308V283.875H183.464C183.714 283.234 184.118 282.737 184.675 282.383C185.232 282.023 185.901 281.844 186.683 281.844C187.474 281.844 188.133 282.023 188.659 282.383C189.191 282.737 189.605 283.234 189.901 283.875H190.026C190.334 283.255 190.795 282.763 191.409 282.398C192.024 282.029 192.761 281.844 193.62 281.844C194.693 281.844 195.571 282.18 196.253 282.852C196.935 283.518 197.276 284.557 197.276 285.969V294H195.433V285.969C195.433 285.083 195.191 284.451 194.706 284.07C194.222 283.69 193.651 283.5 192.995 283.5C192.151 283.5 191.498 283.755 191.034 284.266C190.571 284.771 190.339 285.411 190.339 286.187V294H188.464V285.781C188.464 285.099 188.243 284.549 187.8 284.133C187.357 283.711 186.787 283.5 186.089 283.5C185.61 283.5 185.162 283.628 184.745 283.883C184.334 284.138 184 284.492 183.745 284.945C183.495 285.393 183.37 285.911 183.37 286.5V294H181.526ZM203.959 294.281C203.198 294.281 202.508 294.138 201.888 293.852C201.269 293.56 200.776 293.141 200.412 292.594C200.047 292.042 199.865 291.375 199.865 290.594C199.865 289.906 200 289.349 200.271 288.922C200.542 288.49 200.904 288.151 201.357 287.906C201.81 287.661 202.31 287.479 202.857 287.359C203.409 287.234 203.964 287.135 204.521 287.063C205.25 286.969 205.842 286.898 206.295 286.852C206.753 286.799 207.086 286.714 207.295 286.594C207.508 286.474 207.615 286.266 207.615 285.969V285.906C207.615 285.135 207.404 284.536 206.982 284.109C206.566 283.682 205.933 283.469 205.084 283.469C204.204 283.469 203.513 283.661 203.013 284.047C202.513 284.432 202.162 284.844 201.959 285.281L200.209 284.656C200.521 283.927 200.938 283.359 201.459 282.953C201.985 282.542 202.558 282.255 203.178 282.094C203.803 281.927 204.417 281.844 205.021 281.844C205.407 281.844 205.849 281.891 206.349 281.984C206.855 282.073 207.342 282.258 207.81 282.539C208.284 282.82 208.678 283.245 208.99 283.812C209.303 284.38 209.459 285.141 209.459 286.094V294H207.615V292.375H207.521C207.396 292.635 207.188 292.914 206.896 293.211C206.605 293.508 206.217 293.76 205.732 293.969C205.248 294.177 204.657 294.281 203.959 294.281ZM204.24 292.625C204.969 292.625 205.584 292.482 206.084 292.195C206.589 291.909 206.969 291.539 207.224 291.086C207.485 290.633 207.615 290.156 207.615 289.656V287.969C207.537 288.062 207.365 288.148 207.099 288.227C206.839 288.299 206.537 288.365 206.193 288.422C205.855 288.474 205.524 288.521 205.201 288.562C204.883 288.599 204.625 288.63 204.428 288.656C203.948 288.719 203.5 288.82 203.084 288.961C202.672 289.096 202.339 289.302 202.084 289.578C201.834 289.849 201.709 290.219 201.709 290.687C201.709 291.328 201.946 291.812 202.42 292.141C202.899 292.464 203.506 292.625 204.24 292.625ZM212.26 294V292.594L219.073 283.844V283.719H212.479V282H221.448V283.469L214.823 292.156V292.281H221.667V294H212.26ZM224.286 294V282H226.13V294H224.286ZM225.224 280C224.864 280 224.555 279.878 224.294 279.633C224.039 279.388 223.911 279.094 223.911 278.75C223.911 278.406 224.039 278.112 224.294 277.867C224.555 277.622 224.864 277.5 225.224 277.5C225.583 277.5 225.891 277.622 226.146 277.867C226.406 278.112 226.536 278.406 226.536 278.75C226.536 279.094 226.406 279.388 226.146 279.633C225.891 279.878 225.583 280 225.224 280ZM231.131 286.781V294H229.287V282H231.068V283.875H231.225C231.506 283.266 231.933 282.776 232.506 282.406C233.079 282.031 233.818 281.844 234.725 281.844C235.537 281.844 236.248 282.01 236.857 282.344C237.467 282.672 237.941 283.172 238.279 283.844C238.618 284.51 238.787 285.354 238.787 286.375V294H236.943V286.5C236.943 285.557 236.699 284.823 236.209 284.297C235.719 283.766 235.047 283.5 234.193 283.5C233.605 283.5 233.079 283.628 232.615 283.883C232.157 284.138 231.795 284.51 231.529 285C231.264 285.49 231.131 286.083 231.131 286.781ZM246.78 298.75C245.889 298.75 245.124 298.635 244.483 298.406C243.842 298.182 243.309 297.885 242.882 297.516C242.46 297.151 242.124 296.76 241.874 296.344L243.342 295.313C243.509 295.531 243.72 295.781 243.975 296.062C244.23 296.349 244.579 296.596 245.022 296.805C245.47 297.018 246.056 297.125 246.78 297.125C247.749 297.125 248.548 296.891 249.178 296.422C249.809 295.953 250.124 295.219 250.124 294.219V291.781H249.967C249.832 292 249.639 292.271 249.389 292.594C249.145 292.911 248.79 293.195 248.327 293.445C247.868 293.69 247.249 293.812 246.467 293.812C245.499 293.812 244.629 293.583 243.858 293.125C243.092 292.667 242.486 292 242.038 291.125C241.595 290.25 241.374 289.187 241.374 287.937C241.374 286.708 241.59 285.638 242.022 284.727C242.454 283.81 243.056 283.102 243.827 282.602C244.598 282.096 245.488 281.844 246.499 281.844C247.28 281.844 247.9 281.974 248.358 282.234C248.822 282.49 249.176 282.781 249.421 283.109C249.671 283.432 249.863 283.698 249.999 283.906H250.186V282H251.967V294.344C251.967 295.375 251.733 296.214 251.264 296.859C250.801 297.51 250.176 297.987 249.389 298.289C248.608 298.596 247.738 298.75 246.78 298.75ZM246.717 292.156C247.457 292.156 248.082 291.987 248.592 291.648C249.103 291.31 249.491 290.823 249.757 290.188C250.022 289.552 250.155 288.792 250.155 287.906C250.155 287.042 250.025 286.279 249.764 285.617C249.504 284.956 249.118 284.437 248.608 284.062C248.098 283.687 247.467 283.5 246.717 283.5C245.936 283.5 245.285 283.698 244.764 284.094C244.249 284.49 243.861 285.021 243.6 285.688C243.345 286.354 243.217 287.094 243.217 287.906C243.217 288.74 243.348 289.477 243.608 290.117C243.874 290.753 244.264 291.253 244.78 291.617C245.301 291.977 245.947 292.156 246.717 292.156ZM263.809 294L260.152 282H262.09L264.684 291.188H264.809L267.371 282H269.34L271.871 291.156H271.996L274.59 282H276.527L272.871 294H271.059L268.434 284.781H268.246L265.621 294H263.809ZM282.276 294.281C281.516 294.281 280.826 294.138 280.206 293.852C279.586 293.56 279.094 293.141 278.729 292.594C278.365 292.042 278.182 291.375 278.182 290.594C278.182 289.906 278.318 289.349 278.589 288.922C278.86 288.49 279.222 288.151 279.675 287.906C280.128 287.661 280.628 287.479 281.175 287.359C281.727 287.234 282.281 287.135 282.839 287.063C283.568 286.969 284.159 286.898 284.612 286.852C285.07 286.799 285.404 286.714 285.612 286.594C285.826 286.474 285.932 286.266 285.932 285.969V285.906C285.932 285.135 285.722 284.536 285.3 284.109C284.883 283.682 284.25 283.469 283.401 283.469C282.521 283.469 281.831 283.661 281.331 284.047C280.831 284.432 280.479 284.844 280.276 285.281L278.526 284.656C278.839 283.927 279.255 283.359 279.776 282.953C280.302 282.542 280.875 282.255 281.495 282.094C282.12 281.927 282.735 281.844 283.339 281.844C283.724 281.844 284.167 281.891 284.667 281.984C285.172 282.073 285.659 282.258 286.128 282.539C286.602 282.82 286.995 283.245 287.307 283.812C287.62 284.38 287.776 285.141 287.776 286.094V294H285.932V292.375H285.839C285.714 292.635 285.505 292.914 285.214 293.211C284.922 293.508 284.534 293.76 284.05 293.969C283.565 294.177 282.974 294.281 282.276 294.281ZM282.557 292.625C283.287 292.625 283.901 292.482 284.401 292.195C284.906 291.909 285.287 291.539 285.542 291.086C285.802 290.633 285.932 290.156 285.932 289.656V287.969C285.854 288.062 285.682 288.148 285.417 288.227C285.156 288.299 284.854 288.365 284.511 288.422C284.172 288.474 283.841 288.521 283.518 288.562C283.201 288.599 282.943 288.63 282.745 288.656C282.266 288.719 281.818 288.82 281.401 288.961C280.99 289.096 280.656 289.302 280.401 289.578C280.151 289.849 280.026 290.219 280.026 290.687C280.026 291.328 280.263 291.812 280.737 292.141C281.216 292.464 281.823 292.625 282.557 292.625ZM291.679 298.5C291.367 298.5 291.088 298.474 290.843 298.422C290.599 298.375 290.429 298.328 290.336 298.281L290.804 296.656C291.252 296.771 291.648 296.813 291.992 296.781C292.336 296.75 292.64 296.596 292.906 296.32C293.177 296.049 293.424 295.609 293.648 295L293.992 294.063L289.554 282H291.554L294.867 291.562H294.992L298.304 282H300.304L295.211 295.75C294.981 296.37 294.697 296.883 294.359 297.289C294.02 297.701 293.627 298.005 293.179 298.203C292.737 298.401 292.237 298.5 291.679 298.5ZM303.11 294.125C302.724 294.125 302.394 293.987 302.117 293.711C301.841 293.435 301.703 293.104 301.703 292.719C301.703 292.333 301.841 292.003 302.117 291.727C302.394 291.451 302.724 291.312 303.11 291.312C303.495 291.312 303.826 291.451 304.102 291.727C304.378 292.003 304.516 292.333 304.516 292.719C304.516 292.974 304.451 293.208 304.321 293.422C304.196 293.635 304.026 293.807 303.813 293.937C303.604 294.063 303.37 294.125 303.11 294.125Z" fill="#6B6B6B"/>
<path d="M192.391 70.625C192.391 71.0933 192.205 71.5424 191.873 71.8735C191.542 72.2046 191.093 72.3906 190.625 72.3906H162.375C161.907 72.3906 161.458 72.2046 161.127 71.8735C160.795 71.5424 160.609 71.0933 160.609 70.625C160.609 70.1567 160.795 69.7076 161.127 69.3765C161.458 69.0454 161.907 68.8594 162.375 68.8594H190.625C191.093 68.8594 191.542 69.0454 191.873 69.3765C192.205 69.7076 192.391 70.1567 192.391 70.625ZM190.625 54.7344L162.375 54.7344C161.907 54.7344 161.458 54.9204 161.127 55.2515C160.795 55.5826 160.609 56.0317 160.609 56.5C160.609 56.9683 160.795 57.4174 161.127 57.7485C161.458 58.0796 161.907 58.2656 162.375 58.2656L190.625 58.2656C191.093 58.2656 191.542 58.0796 191.873 57.7485C192.205 57.4174 192.391 56.9683 192.391 56.5C192.391 56.0317 192.205 55.5826 191.873 55.2515C191.542 54.9204 191.093 54.7344 190.625 54.7344ZM176.5 44.1406L190.625 44.1406C191.093 44.1406 191.542 43.9546 191.873 43.6235C192.205 43.2924 192.391 42.8433 192.391 42.375C192.391 41.9067 192.205 41.4576 191.873 41.1265C191.542 40.7954 191.093 40.6094 190.625 40.6094L176.5 40.6094C176.032 40.6094 175.583 40.7954 175.252 41.1265C174.92 41.4576 174.734 41.9067 174.734 42.375C174.734 42.8433 174.92 43.2924 175.252 43.6235C175.583 43.9546 176.032 44.1406 176.5 44.1406ZM135.891 91.8125V43.8361C135.889 43.1403 136.025 42.4512 136.292 41.8086C136.559 41.166 136.95 40.5829 137.444 40.0929L160.093 17.44C160.584 16.9474 161.167 16.5569 161.81 16.2909C162.452 16.025 163.141 15.889 163.836 15.8906H211.813C213.217 15.8906 214.565 16.4487 215.558 17.442C216.551 18.4354 217.109 19.7827 217.109 21.1875V91.8125C217.109 93.2173 216.551 94.5646 215.558 95.558C214.565 96.5513 213.217 97.1094 211.813 97.1094L141.188 97.1094C139.783 97.1094 138.435 96.5513 137.442 95.558C136.449 94.5646 135.891 93.2173 135.891 91.8125ZM211.813 19.4219H164.141V42.375C164.141 42.8433 163.955 43.2924 163.623 43.6235C163.292 43.9546 162.843 44.1406 162.375 44.1406H139.422V91.8125C139.422 92.2808 139.608 92.7299 139.939 93.061C140.27 93.3921 140.719 93.5781 141.188 93.5781L211.813 93.5781C212.281 93.5781 212.73 93.3921 213.061 93.061C213.392 92.7299 213.578 92.2808 213.578 91.8125V21.1875C213.578 20.7192 213.392 20.2701 213.061 19.939C212.73 19.6079 212.281 19.4219 211.813 19.4219ZM141.916 40.6094H160.609V21.9158L141.916 40.6094Z" fill="#061818"/>
<rect x="125" y="78.7773" width="103.689" height="34.0889" rx="6.73333" fill="white" stroke="#061818" stroke-width="2"/>
<path d="M147.987 104.223H140.692V91.3413H147.987V93.1211H142.806V96.619H147.661V98.3899H142.806V102.434H147.987V104.223ZM153.657 104.399C152.494 104.399 151.56 103.976 150.855 103.13C150.156 102.278 149.807 101.024 149.807 99.3679C149.807 97.6939 150.162 96.4281 150.873 95.5705C151.589 94.7129 152.532 94.2841 153.701 94.2841C154.194 94.2841 154.626 94.3517 154.996 94.4868C155.366 94.616 155.683 94.7922 155.948 95.0154C156.218 95.2386 156.447 95.4883 156.635 95.7643H156.732C156.702 95.5822 156.667 95.3208 156.626 94.9802C156.591 94.6336 156.573 94.3135 156.573 94.0198V90.5131H158.653V104.223H157.031L156.661 102.892H156.573C156.397 103.174 156.174 103.43 155.904 103.659C155.639 103.882 155.322 104.061 154.952 104.196C154.588 104.331 154.156 104.399 153.657 104.399ZM154.238 102.716C155.125 102.716 155.751 102.461 156.115 101.949C156.479 101.438 156.667 100.672 156.679 99.6499V99.3767C156.679 98.2842 156.503 97.4472 156.15 96.8657C155.798 96.2783 155.155 95.9846 154.221 95.9846C153.475 95.9846 152.905 96.2871 152.511 96.8921C152.124 97.4912 151.93 98.3283 151.93 99.4032C151.93 100.478 152.124 101.3 152.511 101.87C152.905 102.434 153.481 102.716 154.238 102.716ZM163.512 94.4691V104.223H161.441V94.4691H163.512ZM162.49 90.7334C162.807 90.7334 163.08 90.8185 163.309 90.9889C163.544 91.1592 163.662 91.4529 163.662 91.87C163.662 92.2811 163.544 92.5748 163.309 92.751C163.08 92.9214 162.807 93.0066 162.49 93.0066C162.161 93.0066 161.882 92.9214 161.653 92.751C161.43 92.5748 161.318 92.2811 161.318 91.87C161.318 91.4529 161.43 91.1592 161.653 90.9889C161.882 90.8185 162.161 90.7334 162.49 90.7334ZM169.931 102.725C170.201 102.725 170.468 102.701 170.732 102.654C170.997 102.601 171.238 102.54 171.455 102.469V104.038C171.226 104.137 170.929 104.223 170.565 104.293C170.201 104.364 169.822 104.399 169.429 104.399C168.876 104.399 168.38 104.308 167.939 104.126C167.499 103.938 167.149 103.618 166.891 103.165C166.633 102.713 166.503 102.088 166.503 101.289V96.0463H165.173V95.1211L166.6 94.3898L167.279 92.3017H168.583V94.4691H171.376V96.0463H168.583V101.262C168.583 101.756 168.706 102.123 168.953 102.364C169.199 102.604 169.525 102.725 169.931 102.725ZM182.442 104.223H180.319V93.1387H176.548V91.3413H186.205V93.1387H182.442V104.223ZM191.672 94.2841C192.541 94.2841 193.287 94.4633 193.91 94.8216C194.532 95.1799 195.011 95.688 195.346 96.3458C195.681 97.0037 195.848 97.7908 195.848 98.7071V99.8173H189.337C189.36 100.763 189.613 101.491 190.095 102.002C190.582 102.513 191.264 102.769 192.139 102.769C192.761 102.769 193.319 102.71 193.813 102.593C194.312 102.469 194.826 102.29 195.355 102.055V103.738C194.867 103.967 194.371 104.135 193.866 104.24C193.361 104.346 192.756 104.399 192.051 104.399C191.093 104.399 190.25 104.214 189.522 103.844C188.799 103.468 188.233 102.91 187.822 102.17C187.416 101.43 187.214 100.51 187.214 99.412C187.214 98.3194 187.399 97.3914 187.769 96.6278C188.139 95.8642 188.659 95.2827 189.328 94.8832C189.998 94.4838 190.779 94.2841 191.672 94.2841ZM191.672 95.8436C191.02 95.8436 190.491 96.0551 190.086 96.478C189.686 96.9009 189.451 97.5206 189.381 98.3371H193.822C193.816 97.8495 193.734 97.4178 193.575 97.0419C193.422 96.666 193.187 96.3723 192.87 96.1608C192.559 95.9493 192.159 95.8436 191.672 95.8436ZM200.161 99.2358L196.901 94.4691H199.262L201.492 97.8965L203.73 94.4691H206.082L202.804 99.2358L206.249 104.223H203.879L201.492 100.566L199.095 104.223H196.743L200.161 99.2358ZM211.391 102.725C211.661 102.725 211.928 102.701 212.192 102.654C212.457 102.601 212.698 102.54 212.915 102.469V104.038C212.686 104.137 212.389 104.223 212.025 104.293C211.661 104.364 211.282 104.399 210.888 104.399C210.336 104.399 209.84 104.308 209.399 104.126C208.959 103.938 208.609 103.618 208.351 103.165C208.092 102.713 207.963 102.088 207.963 101.289V96.0463H206.633V95.1211L208.06 94.3898L208.739 92.3017H210.043V94.4691H212.836V96.0463H210.043V101.262C210.043 101.756 210.166 102.123 210.413 102.364C210.659 102.604 210.985 102.725 211.391 102.725Z" fill="#061818"/>
</svg>
