<svg width="354" height="284" viewBox="0 0 354 284" fill="none" xmlns="http://www.w3.org/2000/svg">
<path d="M82.492 190.532C80.6813 190.532 79.1507 190.243 77.9 189.664C76.668 189.085 75.7253 188.292 75.072 187.284C74.4187 186.257 74.092 185.1 74.092 183.812H77.984C77.984 184.353 78.1333 184.885 78.432 185.408C78.7307 185.912 79.2067 186.323 79.86 186.64C80.532 186.957 81.4093 187.116 82.492 187.116C83.4627 187.116 84.2747 186.976 84.928 186.696C85.5813 186.416 86.0667 186.052 86.384 185.604C86.7013 185.137 86.86 184.615 86.86 184.036C86.86 183.308 86.552 182.729 85.936 182.3C85.32 181.852 84.368 181.572 83.08 181.46L81.288 181.32C79.328 181.152 77.76 180.545 76.584 179.5C75.4267 178.436 74.848 177.036 74.848 175.3C74.848 173.993 75.156 172.873 75.772 171.94C76.388 170.988 77.2467 170.26 78.348 169.756C79.468 169.233 80.7747 168.972 82.268 168.972C83.8173 168.972 85.152 169.243 86.272 169.784C87.392 170.325 88.26 171.091 88.876 172.08C89.492 173.051 89.8 174.199 89.8 175.524H85.908C85.908 174.964 85.768 174.451 85.488 173.984C85.2267 173.499 84.8253 173.116 84.284 172.836C83.7613 172.537 83.0893 172.388 82.268 172.388C81.484 172.388 80.8307 172.519 80.308 172.78C79.7853 173.041 79.3933 173.396 79.132 173.844C78.8707 174.292 78.74 174.777 78.74 175.3C78.74 175.935 78.9733 176.495 79.44 176.98C79.9067 177.447 80.644 177.717 81.652 177.792L83.444 177.96C84.9 178.072 86.1787 178.38 87.28 178.884C88.3813 179.388 89.2307 180.069 89.828 180.928C90.444 181.787 90.752 182.823 90.752 184.036C90.752 185.324 90.416 186.463 89.744 187.452C89.072 188.423 88.1107 189.179 86.86 189.72C85.628 190.261 84.172 190.532 82.492 190.532ZM93.7992 190V169.56H97.6912V181.488H97.0192C97.0192 179.957 97.2152 178.66 97.6072 177.596C97.9992 176.532 98.5779 175.72 99.3432 175.16C100.127 174.6 101.117 174.32 102.311 174.32H102.479C104.215 174.32 105.531 174.917 106.427 176.112C107.323 177.307 107.771 179.043 107.771 181.32V190H103.879V180.956C103.879 179.985 103.599 179.22 103.039 178.66C102.498 178.1 101.779 177.82 100.883 177.82C99.9312 177.82 99.1565 178.137 98.5592 178.772C97.9805 179.388 97.6912 180.2 97.6912 181.208V190H93.7992ZM120.887 190V185.492H120.243V180.48C120.243 179.603 120.029 178.949 119.599 178.52C119.17 178.091 118.507 177.876 117.611 177.876C117.145 177.876 116.585 177.885 115.931 177.904C115.278 177.923 114.615 177.951 113.943 177.988C113.29 178.007 112.702 178.035 112.179 178.072V174.768C112.609 174.731 113.094 174.693 113.635 174.656C114.177 174.619 114.727 174.6 115.287 174.6C115.866 174.581 116.407 174.572 116.911 174.572C118.479 174.572 119.777 174.777 120.803 175.188C121.849 175.599 122.633 176.243 123.155 177.12C123.697 177.997 123.967 179.145 123.967 180.564V190H120.887ZM115.987 190.392C114.886 190.392 113.915 190.196 113.075 189.804C112.254 189.412 111.61 188.852 111.143 188.124C110.695 187.396 110.471 186.519 110.471 185.492C110.471 184.372 110.742 183.457 111.283 182.748C111.843 182.039 112.618 181.507 113.607 181.152C114.615 180.797 115.791 180.62 117.135 180.62H120.663V182.944H117.079C116.183 182.944 115.493 183.168 115.007 183.616C114.541 184.045 114.307 184.605 114.307 185.296C114.307 185.987 114.541 186.547 115.007 186.976C115.493 187.405 116.183 187.62 117.079 187.62C117.621 187.62 118.115 187.527 118.563 187.34C119.03 187.135 119.413 186.799 119.711 186.332C120.029 185.847 120.206 185.193 120.243 184.372L121.195 185.464C121.102 186.528 120.841 187.424 120.411 188.152C120.001 188.88 119.422 189.44 118.675 189.832C117.947 190.205 117.051 190.392 115.987 190.392ZM127.856 190V174.796H130.936V181.236H130.852C130.852 179.052 131.319 177.4 132.252 176.28C133.186 175.16 134.558 174.6 136.368 174.6H136.928V177.988H135.864C134.558 177.988 133.54 178.343 132.812 179.052C132.103 179.743 131.748 180.751 131.748 182.076V190H127.856ZM145.947 190.532C144.64 190.532 143.492 190.308 142.503 189.86C141.532 189.412 140.72 188.815 140.067 188.068C139.432 187.303 138.947 186.453 138.611 185.52C138.293 184.587 138.135 183.635 138.135 182.664V182.132C138.135 181.124 138.293 180.153 138.611 179.22C138.947 178.268 139.432 177.428 140.067 176.7C140.72 175.953 141.523 175.365 142.475 174.936C143.427 174.488 144.528 174.264 145.779 174.264C147.421 174.264 148.793 174.628 149.895 175.356C151.015 176.065 151.855 177.008 152.415 178.184C152.975 179.341 153.255 180.592 153.255 181.936V183.336H139.787V180.956H150.819L149.615 182.132C149.615 181.161 149.475 180.331 149.195 179.64C148.915 178.949 148.485 178.417 147.907 178.044C147.347 177.671 146.637 177.484 145.779 177.484C144.92 177.484 144.192 177.68 143.595 178.072C142.997 178.464 142.54 179.033 142.223 179.78C141.924 180.508 141.775 181.385 141.775 182.412C141.775 183.364 141.924 184.213 142.223 184.96C142.521 185.688 142.979 186.267 143.595 186.696C144.211 187.107 144.995 187.312 145.947 187.312C146.899 187.312 147.673 187.125 148.271 186.752C148.868 186.36 149.251 185.884 149.419 185.324H153.003C152.779 186.369 152.349 187.284 151.715 188.068C151.08 188.852 150.268 189.459 149.279 189.888C148.308 190.317 147.197 190.532 145.947 190.532ZM167.925 195.992C167.197 195.992 166.45 195.964 165.685 195.908C164.938 195.852 164.238 195.777 163.585 195.684V192.436C164.257 192.511 164.976 192.576 165.741 192.632C166.506 192.707 167.225 192.744 167.897 192.744C169.148 192.744 170.156 192.595 170.921 192.296C171.705 191.997 172.274 191.521 172.629 190.868C173.002 190.233 173.189 189.421 173.189 188.432V185.436L174.029 183.532C173.973 184.932 173.684 186.127 173.161 187.116C172.638 188.087 171.929 188.833 171.033 189.356C170.137 189.86 169.101 190.112 167.925 190.112C166.88 190.112 165.928 189.916 165.069 189.524C164.229 189.132 163.501 188.591 162.885 187.9C162.288 187.209 161.821 186.397 161.485 185.464C161.149 184.531 160.981 183.532 160.981 182.468V181.88C160.981 180.816 161.149 179.827 161.485 178.912C161.84 177.979 162.334 177.167 162.969 176.476C163.604 175.785 164.36 175.253 165.237 174.88C166.114 174.507 167.085 174.32 168.149 174.32C169.4 174.32 170.482 174.591 171.397 175.132C172.33 175.673 173.058 176.457 173.581 177.484C174.104 178.511 174.393 179.771 174.449 181.264L173.777 181.376V174.796H176.857V188.208C176.857 190.056 176.54 191.549 175.905 192.688C175.27 193.827 174.29 194.657 172.965 195.18C171.658 195.721 169.978 195.992 167.925 195.992ZM169.045 186.78C169.792 186.78 170.473 186.612 171.089 186.276C171.705 185.94 172.2 185.455 172.573 184.82C172.946 184.185 173.133 183.42 173.133 182.524V181.544C173.133 180.685 172.937 179.957 172.545 179.36C172.172 178.763 171.677 178.315 171.061 178.016C170.445 177.699 169.773 177.54 169.045 177.54C168.224 177.54 167.496 177.736 166.861 178.128C166.245 178.501 165.76 179.033 165.405 179.724C165.05 180.415 164.873 181.236 164.873 182.188C164.873 183.121 165.05 183.933 165.405 184.624C165.76 185.315 166.245 185.847 166.861 186.22C167.496 186.593 168.224 186.78 169.045 186.78ZM181.55 190V174.796H185.442V190H181.55ZM179.422 177.708V174.796H185.442V177.708H179.422ZM182.978 172.976C182.213 172.976 181.644 172.78 181.27 172.388C180.916 171.977 180.738 171.473 180.738 170.876C180.738 170.241 180.916 169.728 181.27 169.336C181.644 168.944 182.213 168.748 182.978 168.748C183.744 168.748 184.304 168.944 184.658 169.336C185.013 169.728 185.19 170.241 185.19 170.876C185.19 171.473 185.013 171.977 184.658 172.388C184.304 172.78 183.744 172.976 182.978 172.976ZM190.012 190V174.432C190.012 172.696 190.488 171.417 191.44 170.596C192.41 169.756 193.838 169.336 195.724 169.336H197.628V172.332H195.444C194.865 172.332 194.417 172.491 194.1 172.808C193.801 173.107 193.652 173.536 193.652 174.096V190H190.012ZM188.108 177.904V175.048H197.88V177.904H188.108ZM206.913 190.196C205.513 190.196 204.356 190.019 203.441 189.664C202.545 189.291 201.873 188.675 201.425 187.816C200.977 186.939 200.753 185.763 200.753 184.288L200.781 170.512H204.421L204.393 184.54C204.393 185.287 204.589 185.865 204.981 186.276C205.392 186.668 205.971 186.864 206.717 186.864H209.097V190.196H206.913ZM198.345 177.652V174.796H209.097V177.652H198.345ZM224.595 190.532C223.27 190.532 222.122 190.308 221.151 189.86C220.199 189.412 219.396 188.815 218.743 188.068C218.108 187.321 217.632 186.481 217.315 185.548C216.998 184.615 216.839 183.663 216.839 182.692V182.16C216.839 181.133 216.998 180.153 217.315 179.22C217.651 178.268 218.146 177.428 218.799 176.7C219.452 175.953 220.255 175.365 221.207 174.936C222.178 174.488 223.298 174.264 224.567 174.264C225.892 174.264 227.078 174.525 228.123 175.048C229.168 175.552 229.999 176.261 230.615 177.176C231.25 178.091 231.604 179.155 231.679 180.368H227.899C227.806 179.584 227.47 178.931 226.891 178.408C226.331 177.885 225.556 177.624 224.567 177.624C223.708 177.624 222.99 177.829 222.411 178.24C221.851 178.651 221.431 179.22 221.151 179.948C220.871 180.657 220.731 181.479 220.731 182.412C220.731 183.308 220.862 184.12 221.123 184.848C221.403 185.576 221.823 186.145 222.383 186.556C222.962 186.967 223.699 187.172 224.595 187.172C225.267 187.172 225.846 187.051 226.331 186.808C226.816 186.565 227.199 186.229 227.479 185.8C227.778 185.371 227.964 184.885 228.039 184.344H231.819C231.744 185.576 231.38 186.659 230.727 187.592C230.092 188.507 229.243 189.225 228.179 189.748C227.134 190.271 225.939 190.532 224.595 190.532ZM243.869 190V185.492H243.225V180.48C243.225 179.603 243.01 178.949 242.581 178.52C242.151 178.091 241.489 177.876 240.593 177.876C240.126 177.876 239.566 177.885 238.913 177.904C238.259 177.923 237.597 177.951 236.925 177.988C236.271 178.007 235.683 178.035 235.161 178.072V174.768C235.59 174.731 236.075 174.693 236.617 174.656C237.158 174.619 237.709 174.6 238.269 174.6C238.847 174.581 239.389 174.572 239.893 174.572C241.461 174.572 242.758 174.777 243.785 175.188C244.83 175.599 245.614 176.243 246.137 177.12C246.678 177.997 246.949 179.145 246.949 180.564V190H243.869ZM238.969 190.392C237.867 190.392 236.897 190.196 236.057 189.804C235.235 189.412 234.591 188.852 234.125 188.124C233.677 187.396 233.453 186.519 233.453 185.492C233.453 184.372 233.723 183.457 234.265 182.748C234.825 182.039 235.599 181.507 236.589 181.152C237.597 180.797 238.773 180.62 240.117 180.62H243.645V182.944H240.061C239.165 182.944 238.474 183.168 237.989 183.616C237.522 184.045 237.289 184.605 237.289 185.296C237.289 185.987 237.522 186.547 237.989 186.976C238.474 187.405 239.165 187.62 240.061 187.62C240.602 187.62 241.097 187.527 241.545 187.34C242.011 187.135 242.394 186.799 242.693 186.332C243.01 185.847 243.187 185.193 243.225 184.372L244.177 185.464C244.083 186.528 243.822 187.424 243.393 188.152C242.982 188.88 242.403 189.44 241.657 189.832C240.929 190.205 240.033 190.392 238.969 190.392ZM250.838 190V174.796H253.918V181.236H253.834C253.834 179.052 254.3 177.4 255.234 176.28C256.167 175.16 257.539 174.6 259.35 174.6H259.91V177.988H258.846C257.539 177.988 256.522 178.343 255.794 179.052C255.084 179.743 254.73 180.751 254.73 182.076V190H250.838ZM268.424 190.504C267.36 190.504 266.38 190.308 265.484 189.916C264.588 189.524 263.813 188.973 263.16 188.264C262.507 187.555 262.003 186.733 261.648 185.8C261.293 184.848 261.116 183.821 261.116 182.72V182.132C261.116 181.049 261.284 180.032 261.62 179.08C261.975 178.128 262.46 177.297 263.076 176.588C263.711 175.879 264.467 175.328 265.344 174.936C266.24 174.525 267.229 174.32 268.312 174.32C269.507 174.32 270.552 174.581 271.448 175.104C272.363 175.608 273.091 176.373 273.632 177.4C274.173 178.427 274.472 179.715 274.528 181.264L273.38 179.92V169.56H277.272V190H274.192V183.532H274.864C274.808 185.081 274.491 186.379 273.912 187.424C273.333 188.451 272.568 189.225 271.616 189.748C270.683 190.252 269.619 190.504 268.424 190.504ZM269.292 187.228C270.057 187.228 270.757 187.06 271.392 186.724C272.027 186.369 272.531 185.865 272.904 185.212C273.296 184.54 273.492 183.756 273.492 182.86V181.74C273.492 180.844 273.296 180.097 272.904 179.5C272.512 178.884 271.999 178.417 271.364 178.1C270.729 177.764 270.039 177.596 269.292 177.596C268.452 177.596 267.705 177.801 267.052 178.212C266.417 178.604 265.913 179.164 265.54 179.892C265.185 180.62 265.008 181.469 265.008 182.44C265.008 183.411 265.195 184.26 265.568 184.988C265.941 185.697 266.445 186.248 267.08 186.64C267.733 187.032 268.471 187.228 269.292 187.228Z" fill="#000E1F"/>
<path d="M7.01895 229.719V228H19.019V229.719H13.9877V244H12.0502V229.719H7.01895ZM23.4376 244.281C22.6772 244.281 21.9871 244.138 21.3673 243.852C20.7475 243.56 20.2553 243.141 19.8907 242.594C19.5262 242.042 19.3439 241.375 19.3439 240.594C19.3439 239.906 19.4793 239.349 19.7501 238.922C20.021 238.49 20.3829 238.151 20.8361 237.906C21.2892 237.661 21.7892 237.479 22.3361 237.359C22.8881 237.234 23.4428 237.135 24.0001 237.063C24.7293 236.969 25.3204 236.898 25.7736 236.852C26.2319 236.799 26.5652 236.714 26.7736 236.594C26.9871 236.474 27.0939 236.266 27.0939 235.969V235.906C27.0939 235.135 26.8829 234.536 26.4611 234.109C26.0444 233.682 25.4116 233.469 24.5626 233.469C23.6824 233.469 22.9923 233.661 22.4923 234.047C21.9923 234.432 21.6407 234.844 21.4376 235.281L19.6876 234.656C20.0001 233.927 20.4168 233.359 20.9376 232.953C21.4637 232.542 22.0366 232.255 22.6564 232.094C23.2814 231.927 23.896 231.844 24.5001 231.844C24.8855 231.844 25.3282 231.891 25.8282 231.984C26.3335 232.073 26.8204 232.258 27.2892 232.539C27.7631 232.82 28.1564 233.245 28.4689 233.812C28.7814 234.38 28.9376 235.141 28.9376 236.094V244H27.0939V242.375H27.0001C26.8751 242.635 26.6668 242.914 26.3751 243.211C26.0835 243.508 25.6954 243.76 25.2111 243.969C24.7267 244.177 24.1355 244.281 23.4376 244.281ZM23.7189 242.625C24.448 242.625 25.0626 242.482 25.5626 242.195C26.0678 241.909 26.448 241.539 26.7032 241.086C26.9637 240.633 27.0939 240.156 27.0939 239.656V237.969C27.0157 238.062 26.8439 238.148 26.5782 238.227C26.3178 238.299 26.0157 238.365 25.672 238.422C25.3335 238.474 25.0027 238.521 24.6798 238.562C24.3621 238.599 24.1043 238.63 23.9064 238.656C23.4272 238.719 22.9793 238.82 22.5626 238.961C22.1512 239.096 21.8178 239.302 21.5626 239.578C21.3126 239.849 21.1876 240.219 21.1876 240.687C21.1876 241.328 21.4246 241.812 21.8986 242.141C22.3777 242.464 22.9845 242.625 23.7189 242.625ZM32.0829 248.5V232H33.8641V233.906H34.0829C34.2183 233.698 34.4058 233.432 34.6454 233.109C34.8901 232.781 35.2391 232.49 35.6922 232.234C36.1506 231.974 36.7704 231.844 37.5516 231.844C38.562 231.844 39.4526 232.096 40.2235 232.602C40.9943 233.107 41.5959 233.823 42.0282 234.75C42.4605 235.677 42.6766 236.771 42.6766 238.031C42.6766 239.302 42.4605 240.404 42.0282 241.336C41.5959 242.263 40.9969 242.982 40.2313 243.492C39.4657 243.997 38.5829 244.25 37.5829 244.25C36.812 244.25 36.1948 244.122 35.7313 243.867C35.2678 243.607 34.911 243.312 34.661 242.984C34.411 242.651 34.2183 242.375 34.0829 242.156H33.9266V248.5H32.0829ZM33.8954 238C33.8954 238.906 34.0282 239.706 34.2938 240.398C34.5594 241.086 34.9474 241.625 35.4579 242.016C35.9683 242.401 36.5933 242.594 37.3329 242.594C38.1037 242.594 38.7469 242.391 39.2625 241.984C39.7834 241.573 40.174 241.021 40.4344 240.328C40.7 239.63 40.8329 238.854 40.8329 238C40.8329 237.156 40.7026 236.396 40.4422 235.719C40.187 235.036 39.799 234.497 39.2782 234.102C38.7625 233.701 38.1141 233.5 37.3329 233.5C36.5829 233.5 35.9526 233.69 35.4422 234.07C34.9318 234.445 34.5464 234.971 34.286 235.648C34.0256 236.32 33.8954 237.104 33.8954 238ZM51.2366 244V232H53.0804V244H51.2366ZM52.1741 230C51.8147 230 51.5048 229.878 51.2444 229.633C50.9892 229.388 50.8616 229.094 50.8616 228.75C50.8616 228.406 50.9892 228.112 51.2444 227.867C51.5048 227.622 51.8147 227.5 52.1741 227.5C52.5335 227.5 52.8408 227.622 53.096 227.867C53.3564 228.112 53.4866 228.406 53.4866 228.75C53.4866 229.094 53.3564 229.388 53.096 229.633C52.8408 229.878 52.5335 230 52.1741 230ZM58.0811 236.781V244H56.2373V232H58.0186V233.875H58.1748C58.4561 233.266 58.8831 232.776 59.4561 232.406C60.029 232.031 60.7686 231.844 61.6748 231.844C62.4873 231.844 63.1983 232.01 63.8076 232.344C64.417 232.672 64.891 233.172 65.2295 233.844C65.568 234.51 65.7373 235.354 65.7373 236.375V244H63.8936V236.5C63.8936 235.557 63.6488 234.823 63.1592 234.297C62.6696 233.766 61.9977 233.5 61.1436 233.5C60.555 233.5 60.029 233.628 59.5654 233.883C59.1071 234.138 58.7451 234.51 58.4795 235C58.2139 235.49 58.0811 236.083 58.0811 236.781ZM74.1052 232V233.562H67.8865V232H74.1052ZM69.699 229.125H71.5427V240.562C71.5427 241.083 71.6182 241.474 71.7693 241.734C71.9255 241.99 72.1234 242.161 72.363 242.25C72.6078 242.333 72.8656 242.375 73.1365 242.375C73.3396 242.375 73.5062 242.365 73.6365 242.344C73.7667 242.318 73.8708 242.297 73.949 242.281L74.324 243.937C74.199 243.984 74.0245 244.031 73.8005 244.078C73.5766 244.13 73.2927 244.156 72.949 244.156C72.4281 244.156 71.9177 244.044 71.4177 243.82C70.9229 243.596 70.5115 243.255 70.1833 242.797C69.8604 242.339 69.699 241.76 69.699 241.062V229.125ZM81.4047 244.25C80.3214 244.25 79.3709 243.992 78.5532 243.477C77.7407 242.961 77.1053 242.24 76.6469 241.312C76.1938 240.385 75.9672 239.302 75.9672 238.062C75.9672 236.812 76.1938 235.721 76.6469 234.789C77.1053 233.857 77.7407 233.133 78.5532 232.617C79.3709 232.102 80.3214 231.844 81.4047 231.844C82.4881 231.844 83.436 232.102 84.2485 232.617C85.0662 233.133 85.7016 233.857 86.1547 234.789C86.6131 235.721 86.8422 236.812 86.8422 238.062C86.8422 239.302 86.6131 240.385 86.1547 241.312C85.7016 242.24 85.0662 242.961 84.2485 243.477C83.436 243.992 82.4881 244.25 81.4047 244.25ZM81.4047 242.594C82.2276 242.594 82.9047 242.383 83.436 241.961C83.9672 241.539 84.3605 240.984 84.6157 240.297C84.8709 239.609 84.9985 238.865 84.9985 238.062C84.9985 237.26 84.8709 236.513 84.6157 235.82C84.3605 235.128 83.9672 234.568 83.436 234.141C82.9047 233.714 82.2276 233.5 81.4047 233.5C80.5818 233.5 79.9047 233.714 79.3735 234.141C78.8422 234.568 78.449 235.128 78.1938 235.82C77.9386 236.513 77.811 237.26 77.811 238.062C77.811 238.865 77.9386 239.609 78.1938 240.297C78.449 240.984 78.8422 241.539 79.3735 241.961C79.9047 242.383 80.5818 242.594 81.4047 242.594ZM100.623 232V233.562H94.4042V232H100.623ZM96.2167 229.125H98.0604V240.562C98.0604 241.083 98.136 241.474 98.287 241.734C98.4432 241.99 98.6412 242.161 98.8807 242.25C99.1255 242.333 99.3833 242.375 99.6542 242.375C99.8573 242.375 100.024 242.365 100.154 242.344C100.284 242.318 100.389 242.297 100.467 242.281L100.842 243.937C100.717 243.984 100.542 244.031 100.318 244.078C100.094 244.13 99.8104 244.156 99.4667 244.156C98.9458 244.156 98.4354 244.044 97.9354 243.82C97.4406 243.596 97.0292 243.255 96.7011 242.797C96.3781 242.339 96.2167 241.76 96.2167 241.062V229.125ZM105.278 236.781V244H103.434V228H105.278V233.875H105.434C105.715 233.255 106.137 232.763 106.7 232.398C107.268 232.029 108.023 231.844 108.965 231.844C109.783 231.844 110.499 232.008 111.114 232.336C111.728 232.659 112.205 233.156 112.544 233.828C112.887 234.495 113.059 235.344 113.059 236.375V244H111.215V236.5C111.215 235.547 110.968 234.81 110.473 234.289C109.984 233.763 109.304 233.5 108.434 233.5C107.83 233.5 107.288 233.628 106.809 233.883C106.335 234.138 105.96 234.51 105.684 235C105.413 235.49 105.278 236.083 105.278 236.781ZM121.243 244.25C120.087 244.25 119.09 243.995 118.251 243.484C117.418 242.969 116.775 242.25 116.322 241.328C115.874 240.401 115.65 239.323 115.65 238.094C115.65 236.865 115.874 235.781 116.322 234.844C116.775 233.901 117.405 233.167 118.212 232.641C119.025 232.109 119.973 231.844 121.056 231.844C121.681 231.844 122.298 231.948 122.908 232.156C123.517 232.365 124.072 232.703 124.572 233.172C125.072 233.635 125.47 234.25 125.767 235.016C126.064 235.781 126.212 236.724 126.212 237.844V238.625H116.962V237.031H124.337C124.337 236.354 124.202 235.75 123.931 235.219C123.665 234.687 123.285 234.268 122.79 233.961C122.301 233.654 121.723 233.5 121.056 233.5C120.322 233.5 119.686 233.682 119.15 234.047C118.618 234.406 118.21 234.875 117.923 235.453C117.637 236.031 117.493 236.651 117.493 237.312V238.375C117.493 239.281 117.65 240.049 117.962 240.68C118.28 241.305 118.72 241.781 119.283 242.109C119.845 242.432 120.499 242.594 121.243 242.594C121.728 242.594 122.165 242.526 122.556 242.391C122.952 242.25 123.293 242.042 123.579 241.766C123.866 241.484 124.087 241.135 124.243 240.719L126.025 241.219C125.837 241.823 125.522 242.354 125.079 242.812C124.637 243.266 124.09 243.62 123.439 243.875C122.788 244.125 122.056 244.25 121.243 244.25ZM139.608 248.75C138.718 248.75 137.952 248.635 137.311 248.406C136.671 248.182 136.137 247.885 135.71 247.516C135.288 247.151 134.952 246.76 134.702 246.344L136.171 245.313C136.337 245.531 136.548 245.781 136.803 246.062C137.059 246.349 137.408 246.596 137.85 246.805C138.298 247.018 138.884 247.125 139.608 247.125C140.577 247.125 141.376 246.891 142.007 246.422C142.637 245.953 142.952 245.219 142.952 244.219V241.781H142.796C142.66 242 142.468 242.271 142.218 242.594C141.973 242.911 141.619 243.195 141.155 243.445C140.697 243.69 140.077 243.812 139.296 243.812C138.327 243.812 137.457 243.583 136.686 243.125C135.921 242.667 135.314 242 134.866 241.125C134.423 240.25 134.202 239.187 134.202 237.937C134.202 236.708 134.418 235.638 134.85 234.727C135.283 233.81 135.884 233.102 136.655 232.602C137.426 232.096 138.317 231.844 139.327 231.844C140.108 231.844 140.728 231.974 141.186 232.234C141.65 232.49 142.004 232.781 142.249 233.109C142.499 233.432 142.692 233.698 142.827 233.906H143.014V232H144.796V244.344C144.796 245.375 144.561 246.214 144.093 246.859C143.629 247.51 143.004 247.987 142.218 248.289C141.436 248.596 140.567 248.75 139.608 248.75ZM139.546 242.156C140.285 242.156 140.91 241.987 141.421 241.648C141.931 241.31 142.319 240.823 142.585 240.188C142.85 239.552 142.983 238.792 142.983 237.906C142.983 237.042 142.853 236.279 142.593 235.617C142.332 234.956 141.947 234.437 141.436 234.062C140.926 233.687 140.296 233.5 139.546 233.5C138.764 233.5 138.113 233.698 137.593 234.094C137.077 234.49 136.689 235.021 136.428 235.688C136.173 236.354 136.046 237.094 136.046 237.906C136.046 238.74 136.176 239.477 136.436 240.117C136.702 240.753 137.093 241.253 137.608 241.617C138.129 241.977 138.775 242.156 139.546 242.156ZM147.951 244V232H149.794V244H147.951ZM148.888 230C148.529 230 148.219 229.878 147.958 229.633C147.703 229.388 147.576 229.094 147.576 228.75C147.576 228.406 147.703 228.112 147.958 227.867C148.219 227.622 148.529 227.5 148.888 227.5C149.248 227.5 149.555 227.622 149.81 227.867C150.07 228.112 150.201 228.406 150.201 228.75C150.201 229.094 150.07 229.388 149.81 229.633C149.555 229.878 149.248 230 148.888 230ZM158.295 232V233.562H151.826V232H158.295ZM153.764 244V230.344C153.764 229.656 153.925 229.083 154.248 228.625C154.571 228.167 154.99 227.823 155.506 227.594C156.022 227.365 156.566 227.25 157.139 227.25C157.592 227.25 157.962 227.286 158.248 227.359C158.535 227.432 158.748 227.5 158.889 227.562L158.358 229.156C158.264 229.125 158.134 229.086 157.967 229.039C157.806 228.992 157.592 228.969 157.326 228.969C156.717 228.969 156.277 229.122 156.006 229.43C155.74 229.737 155.608 230.187 155.608 230.781V244H153.764ZM165.878 232V233.562H159.659V232H165.878ZM161.472 229.125H163.315V240.562C163.315 241.083 163.391 241.474 163.542 241.734C163.698 241.99 163.896 242.161 164.136 242.25C164.38 242.333 164.638 242.375 164.909 242.375C165.112 242.375 165.279 242.365 165.409 242.344C165.539 242.318 165.643 242.297 165.722 242.281L166.097 243.937C165.972 243.984 165.797 244.031 165.573 244.078C165.349 244.13 165.065 244.156 164.722 244.156C164.201 244.156 163.69 244.044 163.19 243.82C162.696 243.596 162.284 243.255 161.956 242.797C161.633 242.339 161.472 241.76 161.472 241.062V229.125ZM174.649 244V228H176.493V233.906H176.649C176.784 233.698 176.972 233.432 177.211 233.109C177.456 232.781 177.805 232.49 178.258 232.234C178.716 231.974 179.336 231.844 180.118 231.844C181.128 231.844 182.019 232.096 182.789 232.602C183.56 233.107 184.162 233.823 184.594 234.75C185.026 235.677 185.243 236.771 185.243 238.031C185.243 239.302 185.026 240.404 184.594 241.336C184.162 242.263 183.563 242.982 182.797 243.492C182.032 243.997 181.149 244.25 180.149 244.25C179.378 244.25 178.761 244.122 178.297 243.867C177.834 243.607 177.477 243.312 177.227 242.984C176.977 242.651 176.784 242.375 176.649 242.156H176.43V244H174.649ZM176.461 238C176.461 238.906 176.594 239.706 176.86 240.398C177.125 241.086 177.513 241.625 178.024 242.016C178.534 242.401 179.159 242.594 179.899 242.594C180.67 242.594 181.313 242.391 181.828 241.984C182.349 241.573 182.74 241.021 183 240.328C183.266 239.63 183.399 238.854 183.399 238C183.399 237.156 183.269 236.396 183.008 235.719C182.753 235.036 182.365 234.497 181.844 234.102C181.328 233.701 180.68 233.5 179.899 233.5C179.149 233.5 178.519 233.69 178.008 234.07C177.498 234.445 177.112 234.971 176.852 235.648C176.591 236.32 176.461 237.104 176.461 238ZM191.374 244.281C190.614 244.281 189.924 244.138 189.304 243.852C188.684 243.56 188.192 243.141 187.827 242.594C187.463 242.042 187.28 241.375 187.28 240.594C187.28 239.906 187.416 239.349 187.687 238.922C187.957 238.49 188.319 238.151 188.773 237.906C189.226 237.661 189.726 237.479 190.273 237.359C190.825 237.234 191.379 237.135 191.937 237.063C192.666 236.969 193.257 236.898 193.71 236.852C194.168 236.799 194.502 236.714 194.71 236.594C194.924 236.474 195.03 236.266 195.03 235.969V235.906C195.03 235.135 194.819 234.536 194.398 234.109C193.981 233.682 193.348 233.469 192.499 233.469C191.619 233.469 190.929 233.661 190.429 234.047C189.929 234.432 189.577 234.844 189.374 235.281L187.624 234.656C187.937 233.927 188.353 233.359 188.874 232.953C189.4 232.542 189.973 232.255 190.593 232.094C191.218 231.927 191.832 231.844 192.437 231.844C192.822 231.844 193.265 231.891 193.765 231.984C194.27 232.073 194.757 232.258 195.226 232.539C195.7 232.82 196.093 233.245 196.405 233.812C196.718 234.38 196.874 235.141 196.874 236.094V244H195.03V242.375H194.937C194.812 242.635 194.603 242.914 194.312 243.211C194.02 243.508 193.632 243.76 193.148 243.969C192.663 244.177 192.072 244.281 191.374 244.281ZM191.655 242.625C192.385 242.625 192.999 242.482 193.499 242.195C194.004 241.909 194.385 241.539 194.64 241.086C194.9 240.633 195.03 240.156 195.03 239.656V237.969C194.952 238.062 194.78 238.148 194.515 238.227C194.254 238.299 193.952 238.365 193.608 238.422C193.27 238.474 192.939 238.521 192.616 238.562C192.299 238.599 192.041 238.63 191.843 238.656C191.364 238.719 190.916 238.82 190.499 238.961C190.088 239.096 189.754 239.302 189.499 239.578C189.249 239.849 189.124 240.219 189.124 240.687C189.124 241.328 189.361 241.812 189.835 242.141C190.314 242.464 190.921 242.625 191.655 242.625ZM204.863 248.75C203.972 248.75 203.207 248.635 202.566 248.406C201.926 248.182 201.392 247.885 200.965 247.516C200.543 247.151 200.207 246.76 199.957 246.344L201.426 245.313C201.592 245.531 201.803 245.781 202.058 246.062C202.314 246.349 202.663 246.596 203.105 246.805C203.553 247.018 204.139 247.125 204.863 247.125C205.832 247.125 206.631 246.891 207.262 246.422C207.892 245.953 208.207 245.219 208.207 244.219V241.781H208.051C207.915 242 207.722 242.271 207.472 242.594C207.228 242.911 206.874 243.195 206.41 243.445C205.952 243.69 205.332 243.812 204.551 243.812C203.582 243.812 202.712 243.583 201.941 243.125C201.176 242.667 200.569 242 200.121 241.125C199.678 240.25 199.457 239.187 199.457 237.937C199.457 236.708 199.673 235.638 200.105 234.727C200.538 233.81 201.139 233.102 201.91 232.602C202.681 232.096 203.571 231.844 204.582 231.844C205.363 231.844 205.983 231.974 206.441 232.234C206.905 232.49 207.259 232.781 207.504 233.109C207.754 233.432 207.946 233.698 208.082 233.906H208.269V232H210.051V244.344C210.051 245.375 209.816 246.214 209.347 246.859C208.884 247.51 208.259 247.987 207.472 248.289C206.691 248.596 205.821 248.75 204.863 248.75ZM204.801 242.156C205.54 242.156 206.165 241.987 206.676 241.648C207.186 241.31 207.574 240.823 207.84 240.188C208.105 239.552 208.238 238.792 208.238 237.906C208.238 237.042 208.108 236.279 207.847 235.617C207.587 234.956 207.202 234.437 206.691 234.062C206.181 233.687 205.551 233.5 204.801 233.5C204.019 233.5 203.368 233.698 202.847 234.094C202.332 234.49 201.944 235.021 201.683 235.688C201.428 236.354 201.301 237.094 201.301 237.906C201.301 238.74 201.431 239.477 201.691 240.117C201.957 240.753 202.347 241.253 202.863 241.617C203.384 241.977 204.03 242.156 204.801 242.156ZM224.392 232V233.562H218.173V232H224.392ZM219.986 229.125H221.829V240.562C221.829 241.083 221.905 241.474 222.056 241.734C222.212 241.99 222.41 242.161 222.65 242.25C222.894 242.333 223.152 242.375 223.423 242.375C223.626 242.375 223.793 242.365 223.923 242.344C224.053 242.318 224.157 242.297 224.236 242.281L224.611 243.937C224.486 243.984 224.311 244.031 224.087 244.078C223.863 244.13 223.579 244.156 223.236 244.156C222.715 244.156 222.204 244.044 221.704 243.82C221.21 243.596 220.798 243.255 220.47 242.797C220.147 242.339 219.986 241.76 219.986 241.062V229.125ZM231.691 244.25C230.608 244.25 229.658 243.992 228.84 243.477C228.027 242.961 227.392 242.24 226.934 241.312C226.48 240.385 226.254 239.302 226.254 238.062C226.254 236.812 226.48 235.721 226.934 234.789C227.392 233.857 228.027 233.133 228.84 232.617C229.658 232.102 230.608 231.844 231.691 231.844C232.775 231.844 233.723 232.102 234.535 232.617C235.353 233.133 235.988 233.857 236.441 234.789C236.9 235.721 237.129 236.812 237.129 238.062C237.129 239.302 236.9 240.385 236.441 241.312C235.988 242.24 235.353 242.961 234.535 243.477C233.723 243.992 232.775 244.25 231.691 244.25ZM231.691 242.594C232.514 242.594 233.191 242.383 233.723 241.961C234.254 241.539 234.647 240.984 234.902 240.297C235.158 239.609 235.285 238.865 235.285 238.062C235.285 237.26 235.158 236.513 234.902 235.82C234.647 235.128 234.254 234.568 233.723 234.141C233.191 233.714 232.514 233.5 231.691 233.5C230.868 233.5 230.191 233.714 229.66 234.141C229.129 234.568 228.736 235.128 228.48 235.82C228.225 236.513 228.098 237.26 228.098 238.062C228.098 238.865 228.225 239.609 228.48 240.297C228.736 240.984 229.129 241.539 229.66 241.961C230.191 242.383 230.868 242.594 231.691 242.594ZM254.191 234.687L252.535 235.156C252.43 234.88 252.277 234.612 252.074 234.352C251.876 234.086 251.605 233.867 251.261 233.695C250.917 233.523 250.477 233.437 249.941 233.437C249.206 233.437 248.594 233.607 248.105 233.945C247.621 234.279 247.378 234.703 247.378 235.219C247.378 235.677 247.545 236.039 247.878 236.305C248.212 236.57 248.732 236.792 249.441 236.969L251.222 237.406C252.295 237.667 253.094 238.065 253.621 238.602C254.147 239.133 254.41 239.818 254.41 240.656C254.41 241.344 254.212 241.958 253.816 242.5C253.425 243.042 252.878 243.469 252.175 243.781C251.472 244.094 250.654 244.25 249.722 244.25C248.498 244.25 247.485 243.984 246.683 243.453C245.881 242.922 245.373 242.146 245.16 241.125L246.91 240.687C247.076 241.333 247.391 241.818 247.855 242.141C248.324 242.464 248.936 242.625 249.691 242.625C250.55 242.625 251.232 242.443 251.738 242.078C252.248 241.708 252.503 241.266 252.503 240.75C252.503 240.333 252.357 239.984 252.066 239.703C251.774 239.417 251.326 239.203 250.722 239.062L248.722 238.594C247.623 238.333 246.816 237.93 246.3 237.383C245.79 236.831 245.535 236.141 245.535 235.312C245.535 234.635 245.725 234.036 246.105 233.516C246.49 232.995 247.014 232.586 247.675 232.289C248.342 231.992 249.097 231.844 249.941 231.844C251.128 231.844 252.061 232.104 252.738 232.625C253.42 233.146 253.904 233.833 254.191 234.687ZM258.809 236.781V244H256.965V228H258.809V233.875H258.965C259.246 233.255 259.668 232.763 260.231 232.398C260.798 232.029 261.554 231.844 262.496 231.844C263.314 231.844 264.03 232.008 264.645 232.336C265.259 232.659 265.736 233.156 266.074 233.828C266.418 234.495 266.59 235.344 266.59 236.375V244H264.746V236.5C264.746 235.547 264.499 234.81 264.004 234.289C263.514 233.763 262.835 233.5 261.965 233.5C261.361 233.5 260.819 233.628 260.34 233.883C259.866 234.138 259.491 234.51 259.215 235C258.944 235.49 258.809 236.083 258.809 236.781ZM273.274 244.281C272.514 244.281 271.824 244.138 271.204 243.852C270.584 243.56 270.092 243.141 269.727 242.594C269.363 242.042 269.181 241.375 269.181 240.594C269.181 239.906 269.316 239.349 269.587 238.922C269.858 238.49 270.22 238.151 270.673 237.906C271.126 237.661 271.626 237.479 272.173 237.359C272.725 237.234 273.279 237.135 273.837 237.063C274.566 236.969 275.157 236.898 275.61 236.852C276.069 236.799 276.402 236.714 276.61 236.594C276.824 236.474 276.931 236.266 276.931 235.969V235.906C276.931 235.135 276.72 234.536 276.298 234.109C275.881 233.682 275.248 233.469 274.399 233.469C273.519 233.469 272.829 233.661 272.329 234.047C271.829 234.432 271.477 234.844 271.274 235.281L269.524 234.656C269.837 233.927 270.253 233.359 270.774 232.953C271.3 232.542 271.873 232.255 272.493 232.094C273.118 231.927 273.733 231.844 274.337 231.844C274.722 231.844 275.165 231.891 275.665 231.984C276.17 232.073 276.657 232.258 277.126 232.539C277.6 232.82 277.993 233.245 278.306 233.812C278.618 234.38 278.774 235.141 278.774 236.094V244H276.931V242.375H276.837C276.712 242.635 276.503 242.914 276.212 243.211C275.92 243.508 275.532 243.76 275.048 243.969C274.563 244.177 273.972 244.281 273.274 244.281ZM273.556 242.625C274.285 242.625 274.899 242.482 275.399 242.195C275.904 241.909 276.285 241.539 276.54 241.086C276.8 240.633 276.931 240.156 276.931 239.656V237.969C276.852 238.062 276.681 238.148 276.415 238.227C276.154 238.299 275.852 238.365 275.509 238.422C275.17 238.474 274.839 238.521 274.516 238.562C274.199 238.599 273.941 238.63 273.743 238.656C273.264 238.719 272.816 238.82 272.399 238.961C271.988 239.096 271.654 239.302 271.399 239.578C271.149 239.849 271.024 240.219 271.024 240.687C271.024 241.328 271.261 241.812 271.735 242.141C272.214 242.464 272.821 242.625 273.556 242.625ZM281.919 244V232H283.701V233.812H283.826C284.044 233.219 284.44 232.737 285.013 232.367C285.586 231.997 286.232 231.812 286.951 231.812C287.086 231.812 287.255 231.815 287.459 231.82C287.662 231.826 287.815 231.833 287.919 231.844V233.719C287.857 233.703 287.714 233.68 287.49 233.648C287.271 233.612 287.039 233.594 286.794 233.594C286.211 233.594 285.69 233.716 285.232 233.961C284.779 234.201 284.419 234.534 284.154 234.961C283.893 235.383 283.763 235.865 283.763 236.406V244H281.919ZM294.551 244.25C293.395 244.25 292.397 243.995 291.559 243.484C290.726 242.969 290.082 242.25 289.629 241.328C289.181 240.401 288.957 239.323 288.957 238.094C288.957 236.865 289.181 235.781 289.629 234.844C290.082 233.901 290.713 233.167 291.52 232.641C292.332 232.109 293.28 231.844 294.364 231.844C294.989 231.844 295.606 231.948 296.215 232.156C296.824 232.365 297.379 232.703 297.879 233.172C298.379 233.635 298.778 234.25 299.074 235.016C299.371 235.781 299.52 236.724 299.52 237.844V238.625H290.27V237.031H297.645C297.645 236.354 297.509 235.75 297.239 235.219C296.973 234.687 296.593 234.268 296.098 233.961C295.608 233.654 295.03 233.5 294.364 233.5C293.629 233.5 292.994 233.682 292.457 234.047C291.926 234.406 291.517 234.875 291.231 235.453C290.944 236.031 290.801 236.651 290.801 237.312V238.375C290.801 239.281 290.957 240.049 291.27 240.68C291.588 241.305 292.028 241.781 292.59 242.109C293.153 242.432 293.806 242.594 294.551 242.594C295.035 242.594 295.473 242.526 295.864 242.391C296.259 242.25 296.601 242.042 296.887 241.766C297.173 241.484 297.395 241.135 297.551 240.719L299.332 241.219C299.145 241.823 298.83 242.354 298.387 242.812C297.944 243.266 297.397 243.62 296.746 243.875C296.095 244.125 295.364 244.25 294.551 244.25ZM309.916 228V244H308.072V228H309.916ZM317.948 244.25C316.864 244.25 315.914 243.992 315.096 243.477C314.284 242.961 313.648 242.24 313.19 241.312C312.737 240.385 312.51 239.302 312.51 238.062C312.51 236.812 312.737 235.721 313.19 234.789C313.648 233.857 314.284 233.133 315.096 232.617C315.914 232.102 316.864 231.844 317.948 231.844C319.031 231.844 319.979 232.102 320.791 232.617C321.609 233.133 322.245 233.857 322.698 234.789C323.156 235.721 323.385 236.812 323.385 238.062C323.385 239.302 323.156 240.385 322.698 241.312C322.245 242.24 321.609 242.961 320.791 243.477C319.979 243.992 319.031 244.25 317.948 244.25ZM317.948 242.594C318.771 242.594 319.448 242.383 319.979 241.961C320.51 241.539 320.903 240.984 321.159 240.297C321.414 239.609 321.541 238.865 321.541 238.062C321.541 237.26 321.414 236.513 321.159 235.82C320.903 235.128 320.51 234.568 319.979 234.141C319.448 233.714 318.771 233.5 317.948 233.5C317.125 233.5 316.448 233.714 315.916 234.141C315.385 234.568 314.992 235.128 314.737 235.82C314.482 236.513 314.354 237.26 314.354 238.062C314.354 238.865 314.482 239.609 314.737 240.297C314.992 240.984 315.385 241.539 315.916 241.961C316.448 242.383 317.125 242.594 317.948 242.594ZM335.362 232L330.925 244H329.05L324.612 232H326.612L329.925 241.562H330.05L333.362 232H335.362ZM342.178 244.25C341.021 244.25 340.024 243.995 339.185 243.484C338.352 242.969 337.709 242.25 337.256 241.328C336.808 240.401 336.584 239.323 336.584 238.094C336.584 236.865 336.808 235.781 337.256 234.844C337.709 233.901 338.339 233.167 339.146 232.641C339.959 232.109 340.907 231.844 341.99 231.844C342.615 231.844 343.232 231.948 343.842 232.156C344.451 232.365 345.006 232.703 345.506 233.172C346.006 233.635 346.404 234.25 346.701 235.016C346.998 235.781 347.146 236.724 347.146 237.844V238.625H337.896V237.031H345.271C345.271 236.354 345.136 235.75 344.865 235.219C344.599 234.687 344.219 234.268 343.724 233.961C343.235 233.654 342.657 233.5 341.99 233.5C341.256 233.5 340.62 233.682 340.084 234.047C339.553 234.406 339.144 234.875 338.857 235.453C338.571 236.031 338.428 236.651 338.428 237.312V238.375C338.428 239.281 338.584 240.049 338.896 240.68C339.214 241.305 339.654 241.781 340.217 242.109C340.779 242.432 341.433 242.594 342.178 242.594C342.662 242.594 343.099 242.526 343.49 242.391C343.886 242.25 344.227 242.042 344.514 241.766C344.8 241.484 345.021 241.135 345.178 240.719L346.959 241.219C346.771 241.823 346.456 242.354 346.014 242.812C345.571 243.266 345.024 243.62 344.373 243.875C343.722 244.125 342.99 244.25 342.178 244.25ZM49.5505 276V264H51.3943V276H49.5505ZM50.488 262C50.1286 262 49.8187 261.878 49.5583 261.633C49.3031 261.388 49.1755 261.094 49.1755 260.75C49.1755 260.406 49.3031 260.112 49.5583 259.867C49.8187 259.622 50.1286 259.5 50.488 259.5C50.8474 259.5 51.1547 259.622 51.4099 259.867C51.6703 260.112 51.8005 260.406 51.8005 260.75C51.8005 261.094 51.6703 261.388 51.4099 261.633C51.1547 261.878 50.8474 262 50.488 262ZM56.395 268.781V276H54.5512V264H56.3325V265.875H56.4887C56.77 265.266 57.197 264.776 57.77 264.406C58.3429 264.031 59.0825 263.844 59.9887 263.844C60.8012 263.844 61.5121 264.01 62.1215 264.344C62.7309 264.672 63.2049 265.172 63.5434 265.844C63.8819 266.51 64.0512 267.354 64.0512 268.375V276H62.2075V268.5C62.2075 267.557 61.9627 266.823 61.4731 266.297C60.9835 265.766 60.3116 265.5 59.4575 265.5C58.8689 265.5 58.3429 265.628 57.8793 265.883C57.421 266.138 57.059 266.51 56.7934 267C56.5278 267.49 56.395 268.083 56.395 268.781ZM78.3866 264V265.562H72.1678V264H78.3866ZM73.9803 261.125H75.8241V272.562C75.8241 273.083 75.8996 273.474 76.0507 273.734C76.2069 273.99 76.4048 274.161 76.6444 274.25C76.8892 274.333 77.147 274.375 77.4178 274.375C77.621 274.375 77.7876 274.365 77.9178 274.344C78.0481 274.318 78.1522 274.297 78.2303 274.281L78.6053 275.937C78.4803 275.984 78.3059 276.031 78.0819 276.078C77.858 276.13 77.5741 276.156 77.2303 276.156C76.7095 276.156 76.1991 276.044 75.6991 275.82C75.2043 275.596 74.7928 275.255 74.4647 274.797C74.1418 274.339 73.9803 273.76 73.9803 273.062V261.125ZM83.0416 268.781V276H81.1979V260H83.0416V265.875H83.1979C83.4791 265.255 83.901 264.763 84.4635 264.398C85.0312 264.029 85.7864 263.844 86.7291 263.844C87.5468 263.844 88.263 264.008 88.8775 264.336C89.4921 264.659 89.9687 265.156 90.3072 265.828C90.651 266.495 90.8229 267.344 90.8229 268.375V276H88.9791V268.5C88.9791 267.547 88.7317 266.81 88.2369 266.289C87.7473 265.763 87.0676 265.5 86.1979 265.5C85.5937 265.5 85.052 265.628 84.5729 265.883C84.0989 266.138 83.7239 266.51 83.4479 267C83.177 267.49 83.0416 268.083 83.0416 268.781ZM99.0071 276.25C97.8509 276.25 96.8535 275.995 96.015 275.484C95.1816 274.969 94.5384 274.25 94.0853 273.328C93.6374 272.401 93.4134 271.323 93.4134 270.094C93.4134 268.865 93.6374 267.781 94.0853 266.844C94.5384 265.901 95.1686 265.167 95.9759 264.641C96.7884 264.109 97.7363 263.844 98.8196 263.844C99.4446 263.844 100.062 263.948 100.671 264.156C101.281 264.365 101.835 264.703 102.335 265.172C102.835 265.635 103.234 266.25 103.531 267.016C103.827 267.781 103.976 268.724 103.976 269.844V270.625H94.7259V269.031H102.101C102.101 268.354 101.965 267.75 101.695 267.219C101.429 266.687 101.049 266.268 100.554 265.961C100.064 265.654 99.4863 265.5 98.8196 265.5C98.0853 265.5 97.4499 265.682 96.9134 266.047C96.3821 266.406 95.9733 266.875 95.6868 267.453C95.4004 268.031 95.2571 268.651 95.2571 269.312V270.375C95.2571 271.281 95.4134 272.049 95.7259 272.68C96.0436 273.305 96.4837 273.781 97.0462 274.109C97.6087 274.432 98.2624 274.594 99.0071 274.594C99.4915 274.594 99.929 274.526 100.32 274.391C100.715 274.25 101.057 274.042 101.343 273.766C101.63 273.484 101.851 273.135 102.007 272.719L103.788 273.219C103.601 273.823 103.286 274.354 102.843 274.812C102.4 275.266 101.854 275.62 101.202 275.875C100.551 276.125 99.8196 276.25 99.0071 276.25ZM112.528 276V264H114.309V265.875H114.466C114.716 265.234 115.119 264.737 115.677 264.383C116.234 264.023 116.903 263.844 117.684 263.844C118.476 263.844 119.135 264.023 119.661 264.383C120.192 264.737 120.606 265.234 120.903 265.875H121.028C121.335 265.255 121.796 264.763 122.411 264.398C123.025 264.029 123.762 263.844 124.622 263.844C125.695 263.844 126.572 264.18 127.255 264.852C127.937 265.518 128.278 266.557 128.278 267.969V276H126.434V267.969C126.434 267.083 126.192 266.451 125.708 266.07C125.223 265.69 124.653 265.5 123.997 265.5C123.153 265.5 122.499 265.755 122.036 266.266C121.572 266.771 121.341 267.411 121.341 268.187V276H119.466V267.781C119.466 267.099 119.244 266.549 118.802 266.133C118.359 265.711 117.789 265.5 117.091 265.5C116.611 265.5 116.164 265.628 115.747 265.883C115.335 266.138 115.002 266.492 114.747 266.945C114.497 267.393 114.372 267.911 114.372 268.5V276H112.528ZM136.304 276.25C135.221 276.25 134.27 275.992 133.453 275.477C132.64 274.961 132.005 274.24 131.546 273.312C131.093 272.385 130.867 271.302 130.867 270.062C130.867 268.812 131.093 267.721 131.546 266.789C132.005 265.857 132.64 265.133 133.453 264.617C134.27 264.102 135.221 263.844 136.304 263.844C137.388 263.844 138.335 264.102 139.148 264.617C139.966 265.133 140.601 265.857 141.054 266.789C141.513 267.721 141.742 268.812 141.742 270.062C141.742 271.302 141.513 272.385 141.054 273.312C140.601 274.24 139.966 274.961 139.148 275.477C138.335 275.992 137.388 276.25 136.304 276.25ZM136.304 274.594C137.127 274.594 137.804 274.383 138.335 273.961C138.867 273.539 139.26 272.984 139.515 272.297C139.77 271.609 139.898 270.865 139.898 270.062C139.898 269.26 139.77 268.513 139.515 267.82C139.26 267.128 138.867 266.568 138.335 266.141C137.804 265.714 137.127 265.5 136.304 265.5C135.481 265.5 134.804 265.714 134.273 266.141C133.742 266.568 133.348 267.128 133.093 267.82C132.838 268.513 132.71 269.26 132.71 270.062C132.71 270.865 132.838 271.609 133.093 272.297C133.348 272.984 133.742 273.539 134.273 273.961C134.804 274.383 135.481 274.594 136.304 274.594ZM152.836 266.687L151.18 267.156C151.076 266.88 150.922 266.612 150.719 266.352C150.521 266.086 150.25 265.867 149.906 265.695C149.563 265.523 149.123 265.437 148.586 265.437C147.852 265.437 147.24 265.607 146.75 265.945C146.266 266.279 146.024 266.703 146.024 267.219C146.024 267.677 146.19 268.039 146.524 268.305C146.857 268.57 147.378 268.792 148.086 268.969L149.867 269.406C150.94 269.667 151.74 270.065 152.266 270.602C152.792 271.133 153.055 271.818 153.055 272.656C153.055 273.344 152.857 273.958 152.461 274.5C152.07 275.042 151.524 275.469 150.82 275.781C150.117 276.094 149.3 276.25 148.367 276.25C147.143 276.25 146.13 275.984 145.328 275.453C144.526 274.922 144.018 274.146 143.805 273.125L145.555 272.687C145.722 273.333 146.037 273.818 146.5 274.141C146.969 274.464 147.581 274.625 148.336 274.625C149.195 274.625 149.878 274.443 150.383 274.078C150.893 273.708 151.149 273.266 151.149 272.75C151.149 272.333 151.003 271.984 150.711 271.703C150.419 271.417 149.972 271.203 149.367 271.062L147.367 270.594C146.268 270.333 145.461 269.93 144.945 269.383C144.435 268.831 144.18 268.141 144.18 267.312C144.18 266.635 144.37 266.036 144.75 265.516C145.136 264.995 145.659 264.586 146.32 264.289C146.987 263.992 147.742 263.844 148.586 263.844C149.774 263.844 150.706 264.104 151.383 264.625C152.065 265.146 152.55 265.833 152.836 266.687ZM160.829 264V265.562H154.61V264H160.829ZM156.423 261.125H158.267V272.562C158.267 273.083 158.342 273.474 158.493 273.734C158.649 273.99 158.847 274.161 159.087 274.25C159.332 274.333 159.589 274.375 159.86 274.375C160.063 274.375 160.23 274.365 160.36 274.344C160.49 274.318 160.595 274.297 160.673 274.281L161.048 275.937C160.923 275.984 160.748 276.031 160.524 276.078C160.3 276.13 160.017 276.156 159.673 276.156C159.152 276.156 158.642 276.044 158.142 275.82C157.647 275.596 157.235 275.255 156.907 274.797C156.584 274.339 156.423 273.76 156.423 273.062V261.125ZM172.881 276.281C172.121 276.281 171.431 276.138 170.811 275.852C170.191 275.56 169.699 275.141 169.334 274.594C168.97 274.042 168.787 273.375 168.787 272.594C168.787 271.906 168.923 271.349 169.194 270.922C169.465 270.49 169.827 270.151 170.28 269.906C170.733 269.661 171.233 269.479 171.78 269.359C172.332 269.234 172.886 269.135 173.444 269.063C174.173 268.969 174.764 268.898 175.217 268.852C175.675 268.799 176.009 268.714 176.217 268.594C176.431 268.474 176.537 268.266 176.537 267.969V267.906C176.537 267.135 176.327 266.536 175.905 266.109C175.488 265.682 174.855 265.469 174.006 265.469C173.126 265.469 172.436 265.661 171.936 266.047C171.436 266.432 171.084 266.844 170.881 267.281L169.131 266.656C169.444 265.927 169.86 265.359 170.381 264.953C170.907 264.542 171.48 264.255 172.1 264.094C172.725 263.927 173.34 263.844 173.944 263.844C174.329 263.844 174.772 263.891 175.272 263.984C175.777 264.073 176.264 264.258 176.733 264.539C177.207 264.82 177.6 265.245 177.912 265.812C178.225 266.38 178.381 267.141 178.381 268.094V276H176.537V274.375H176.444C176.319 274.635 176.11 274.914 175.819 275.211C175.527 275.508 175.139 275.76 174.655 275.969C174.17 276.177 173.579 276.281 172.881 276.281ZM173.162 274.625C173.892 274.625 174.506 274.482 175.006 274.195C175.511 273.909 175.892 273.539 176.147 273.086C176.407 272.633 176.537 272.156 176.537 271.656V269.969C176.459 270.062 176.287 270.148 176.022 270.227C175.761 270.299 175.459 270.365 175.116 270.422C174.777 270.474 174.446 270.521 174.123 270.562C173.806 270.599 173.548 270.63 173.35 270.656C172.871 270.719 172.423 270.82 172.006 270.961C171.595 271.096 171.261 271.302 171.006 271.578C170.756 271.849 170.631 272.219 170.631 272.687C170.631 273.328 170.868 273.812 171.342 274.141C171.821 274.464 172.428 274.625 173.162 274.625ZM181.526 276V264H183.308V265.875H183.464C183.714 265.234 184.118 264.737 184.675 264.383C185.232 264.023 185.901 263.844 186.683 263.844C187.474 263.844 188.133 264.023 188.659 264.383C189.191 264.737 189.605 265.234 189.901 265.875H190.026C190.334 265.255 190.795 264.763 191.409 264.398C192.024 264.029 192.761 263.844 193.62 263.844C194.693 263.844 195.571 264.18 196.253 264.852C196.935 265.518 197.276 266.557 197.276 267.969V276H195.433V267.969C195.433 267.083 195.191 266.451 194.706 266.07C194.222 265.69 193.651 265.5 192.995 265.5C192.151 265.5 191.498 265.755 191.034 266.266C190.571 266.771 190.339 267.411 190.339 268.187V276H188.464V267.781C188.464 267.099 188.243 266.549 187.8 266.133C187.357 265.711 186.787 265.5 186.089 265.5C185.61 265.5 185.162 265.628 184.745 265.883C184.334 266.138 184 266.492 183.745 266.945C183.495 267.393 183.37 267.911 183.37 268.5V276H181.526ZM203.959 276.281C203.198 276.281 202.508 276.138 201.888 275.852C201.269 275.56 200.776 275.141 200.412 274.594C200.047 274.042 199.865 273.375 199.865 272.594C199.865 271.906 200 271.349 200.271 270.922C200.542 270.49 200.904 270.151 201.357 269.906C201.81 269.661 202.31 269.479 202.857 269.359C203.409 269.234 203.964 269.135 204.521 269.063C205.25 268.969 205.842 268.898 206.295 268.852C206.753 268.799 207.086 268.714 207.295 268.594C207.508 268.474 207.615 268.266 207.615 267.969V267.906C207.615 267.135 207.404 266.536 206.982 266.109C206.566 265.682 205.933 265.469 205.084 265.469C204.204 265.469 203.513 265.661 203.013 266.047C202.513 266.432 202.162 266.844 201.959 267.281L200.209 266.656C200.521 265.927 200.938 265.359 201.459 264.953C201.985 264.542 202.558 264.255 203.178 264.094C203.803 263.927 204.417 263.844 205.021 263.844C205.407 263.844 205.849 263.891 206.349 263.984C206.855 264.073 207.342 264.258 207.81 264.539C208.284 264.82 208.678 265.245 208.99 265.812C209.303 266.38 209.459 267.141 209.459 268.094V276H207.615V274.375H207.521C207.396 274.635 207.188 274.914 206.896 275.211C206.605 275.508 206.217 275.76 205.732 275.969C205.248 276.177 204.657 276.281 203.959 276.281ZM204.24 274.625C204.969 274.625 205.584 274.482 206.084 274.195C206.589 273.909 206.969 273.539 207.224 273.086C207.485 272.633 207.615 272.156 207.615 271.656V269.969C207.537 270.062 207.365 270.148 207.099 270.227C206.839 270.299 206.537 270.365 206.193 270.422C205.855 270.474 205.524 270.521 205.201 270.562C204.883 270.599 204.625 270.63 204.428 270.656C203.948 270.719 203.5 270.82 203.084 270.961C202.672 271.096 202.339 271.302 202.084 271.578C201.834 271.849 201.709 272.219 201.709 272.687C201.709 273.328 201.946 273.812 202.42 274.141C202.899 274.464 203.506 274.625 204.24 274.625ZM212.26 276V274.594L219.073 265.844V265.719H212.479V264H221.448V265.469L214.823 274.156V274.281H221.667V276H212.26ZM224.286 276V264H226.13V276H224.286ZM225.224 262C224.864 262 224.555 261.878 224.294 261.633C224.039 261.388 223.911 261.094 223.911 260.75C223.911 260.406 224.039 260.112 224.294 259.867C224.555 259.622 224.864 259.5 225.224 259.5C225.583 259.5 225.891 259.622 226.146 259.867C226.406 260.112 226.536 260.406 226.536 260.75C226.536 261.094 226.406 261.388 226.146 261.633C225.891 261.878 225.583 262 225.224 262ZM231.131 268.781V276H229.287V264H231.068V265.875H231.225C231.506 265.266 231.933 264.776 232.506 264.406C233.079 264.031 233.818 263.844 234.725 263.844C235.537 263.844 236.248 264.01 236.857 264.344C237.467 264.672 237.941 265.172 238.279 265.844C238.618 266.51 238.787 267.354 238.787 268.375V276H236.943V268.5C236.943 267.557 236.699 266.823 236.209 266.297C235.719 265.766 235.047 265.5 234.193 265.5C233.605 265.5 233.079 265.628 232.615 265.883C232.157 266.138 231.795 266.51 231.529 267C231.264 267.49 231.131 268.083 231.131 268.781ZM246.78 280.75C245.889 280.75 245.124 280.635 244.483 280.406C243.842 280.182 243.309 279.885 242.882 279.516C242.46 279.151 242.124 278.76 241.874 278.344L243.342 277.313C243.509 277.531 243.72 277.781 243.975 278.062C244.23 278.349 244.579 278.596 245.022 278.805C245.47 279.018 246.056 279.125 246.78 279.125C247.749 279.125 248.548 278.891 249.178 278.422C249.809 277.953 250.124 277.219 250.124 276.219V273.781H249.967C249.832 274 249.639 274.271 249.389 274.594C249.145 274.911 248.79 275.195 248.327 275.445C247.868 275.69 247.249 275.812 246.467 275.812C245.499 275.812 244.629 275.583 243.858 275.125C243.092 274.667 242.486 274 242.038 273.125C241.595 272.25 241.374 271.187 241.374 269.937C241.374 268.708 241.59 267.638 242.022 266.727C242.454 265.81 243.056 265.102 243.827 264.602C244.598 264.096 245.488 263.844 246.499 263.844C247.28 263.844 247.9 263.974 248.358 264.234C248.822 264.49 249.176 264.781 249.421 265.109C249.671 265.432 249.863 265.698 249.999 265.906H250.186V264H251.967V276.344C251.967 277.375 251.733 278.214 251.264 278.859C250.801 279.51 250.176 279.987 249.389 280.289C248.608 280.596 247.738 280.75 246.78 280.75ZM246.717 274.156C247.457 274.156 248.082 273.987 248.592 273.648C249.103 273.31 249.491 272.823 249.757 272.188C250.022 271.552 250.155 270.792 250.155 269.906C250.155 269.042 250.025 268.279 249.764 267.617C249.504 266.956 249.118 266.437 248.608 266.062C248.098 265.687 247.467 265.5 246.717 265.5C245.936 265.5 245.285 265.698 244.764 266.094C244.249 266.49 243.861 267.021 243.6 267.688C243.345 268.354 243.217 269.094 243.217 269.906C243.217 270.74 243.348 271.477 243.608 272.117C243.874 272.753 244.264 273.253 244.78 273.617C245.301 273.977 245.947 274.156 246.717 274.156ZM263.809 276L260.152 264H262.09L264.684 273.188H264.809L267.371 264H269.34L271.871 273.156H271.996L274.59 264H276.527L272.871 276H271.059L268.434 266.781H268.246L265.621 276H263.809ZM282.276 276.281C281.516 276.281 280.826 276.138 280.206 275.852C279.586 275.56 279.094 275.141 278.729 274.594C278.365 274.042 278.182 273.375 278.182 272.594C278.182 271.906 278.318 271.349 278.589 270.922C278.86 270.49 279.222 270.151 279.675 269.906C280.128 269.661 280.628 269.479 281.175 269.359C281.727 269.234 282.281 269.135 282.839 269.063C283.568 268.969 284.159 268.898 284.612 268.852C285.07 268.799 285.404 268.714 285.612 268.594C285.826 268.474 285.932 268.266 285.932 267.969V267.906C285.932 267.135 285.722 266.536 285.3 266.109C284.883 265.682 284.25 265.469 283.401 265.469C282.521 265.469 281.831 265.661 281.331 266.047C280.831 266.432 280.479 266.844 280.276 267.281L278.526 266.656C278.839 265.927 279.255 265.359 279.776 264.953C280.302 264.542 280.875 264.255 281.495 264.094C282.12 263.927 282.735 263.844 283.339 263.844C283.724 263.844 284.167 263.891 284.667 263.984C285.172 264.073 285.659 264.258 286.128 264.539C286.602 264.82 286.995 265.245 287.307 265.812C287.62 266.38 287.776 267.141 287.776 268.094V276H285.932V274.375H285.839C285.714 274.635 285.505 274.914 285.214 275.211C284.922 275.508 284.534 275.76 284.05 275.969C283.565 276.177 282.974 276.281 282.276 276.281ZM282.557 274.625C283.287 274.625 283.901 274.482 284.401 274.195C284.906 273.909 285.287 273.539 285.542 273.086C285.802 272.633 285.932 272.156 285.932 271.656V269.969C285.854 270.062 285.682 270.148 285.417 270.227C285.156 270.299 284.854 270.365 284.511 270.422C284.172 270.474 283.841 270.521 283.518 270.562C283.201 270.599 282.943 270.63 282.745 270.656C282.266 270.719 281.818 270.82 281.401 270.961C280.99 271.096 280.656 271.302 280.401 271.578C280.151 271.849 280.026 272.219 280.026 272.687C280.026 273.328 280.263 273.812 280.737 274.141C281.216 274.464 281.823 274.625 282.557 274.625ZM291.679 280.5C291.367 280.5 291.088 280.474 290.843 280.422C290.599 280.375 290.429 280.328 290.336 280.281L290.804 278.656C291.252 278.771 291.648 278.813 291.992 278.781C292.336 278.75 292.64 278.596 292.906 278.32C293.177 278.049 293.424 277.609 293.648 277L293.992 276.063L289.554 264H291.554L294.867 273.562H294.992L298.304 264H300.304L295.211 277.75C294.981 278.37 294.697 278.883 294.359 279.289C294.02 279.701 293.627 280.005 293.179 280.203C292.737 280.401 292.237 280.5 291.679 280.5ZM303.11 276.125C302.724 276.125 302.394 275.987 302.117 275.711C301.841 275.435 301.703 275.104 301.703 274.719C301.703 274.333 301.841 274.003 302.117 273.727C302.394 273.451 302.724 273.312 303.11 273.312C303.495 273.312 303.826 273.451 304.102 273.727C304.378 274.003 304.516 274.333 304.516 274.719C304.516 274.974 304.451 275.208 304.321 275.422C304.196 275.635 304.026 275.807 303.813 275.937C303.604 276.063 303.37 276.125 303.11 276.125Z" fill="#6B6B6B"/>
<path d="M213.281 31.7629H192.721C194.637 30.9162 196.416 29.7892 198 28.4191C199.099 27.4423 199.984 26.249 200.599 24.914C201.215 23.5791 201.548 22.1314 201.578 20.6616C201.626 19.0328 201.34 17.4116 200.738 15.8972C200.136 14.3829 199.232 13.0074 198.08 11.8552C196.927 10.703 195.552 9.79837 194.038 9.19675C192.523 8.59513 190.902 8.30924 189.273 8.35662C187.803 8.38646 186.356 8.71967 185.021 9.33534C183.686 9.95102 182.492 10.8359 181.516 11.9344C179.045 14.7223 177.491 18.3544 176.5 21.8361C175.518 18.3544 173.963 14.7306 171.484 11.9344C170.508 10.8359 169.314 9.95102 167.979 9.33534C166.644 8.71967 165.197 8.38646 163.727 8.35662C162.098 8.30924 160.477 8.59513 158.962 9.19675C157.448 9.79837 156.073 10.703 154.92 11.8552C153.768 13.0074 152.864 14.3829 152.262 15.8972C151.66 17.4116 151.375 19.0328 151.422 20.6616C151.452 22.1314 151.785 23.5791 152.401 24.914C153.016 26.249 153.901 27.4423 155 28.4191C156.584 29.7892 158.363 30.9162 160.279 31.7629H139.719C138.389 31.7629 137.113 32.2913 136.172 33.2319C135.232 34.1725 134.703 35.4483 134.703 36.7785V50.1535C134.703 51.4837 135.232 52.7595 136.172 53.7001C137.113 54.6407 138.389 55.1691 139.719 55.1691H141.391V83.591C141.391 84.9212 141.919 86.197 142.86 87.1376C143.8 88.0782 145.076 88.6066 146.406 88.6066H206.594C207.924 88.6066 209.2 88.0782 210.14 87.1376C211.081 86.197 211.609 84.9212 211.609 83.591V55.1691H213.281C214.611 55.1691 215.887 54.6407 216.828 53.7001C217.768 52.7595 218.297 51.4837 218.297 50.1535V36.7785C218.297 35.4483 217.768 34.1725 216.828 33.2319C215.887 32.2913 214.611 31.7629 213.281 31.7629ZM184.023 14.1497C184.698 13.395 185.522 12.7879 186.443 12.3665C187.363 11.945 188.361 11.7182 189.373 11.7004H189.628C190.78 11.7016 191.919 11.9335 192.98 12.3825C194.04 12.8314 195 13.4883 195.802 14.3143C196.604 15.1402 197.233 16.1186 197.65 17.1916C198.068 18.2645 198.267 19.4103 198.234 20.5613C198.216 21.5736 197.989 22.5713 197.568 23.4919C197.146 24.4124 196.54 25.2361 195.785 25.9113C190.732 30.3836 181.963 31.4327 178.23 31.6751C178.49 27.9719 179.534 19.2238 184.023 14.1497ZM154.766 20.5613C154.733 19.4103 154.932 18.2645 155.35 17.1916C155.767 16.1186 156.396 15.1402 157.198 14.3143C158 13.4883 158.96 12.8314 160.02 12.3825C161.081 11.9335 162.22 11.7016 163.372 11.7004H163.627C164.639 11.7182 165.637 11.945 166.557 12.3665C167.478 12.7879 168.302 13.395 168.977 14.1497C173.453 19.2029 174.498 27.9719 174.74 31.7044C171.025 31.4619 162.256 30.4128 157.186 25.9406C156.433 25.2594 155.829 24.4299 155.413 23.5041C154.996 22.5783 154.776 21.5764 154.766 20.5613ZM138.047 50.1535V36.7785C138.047 36.3351 138.223 35.9098 138.537 35.5963C138.85 35.2828 139.275 35.1066 139.719 35.1066H174.828V51.8254H139.719C139.275 51.8254 138.85 51.6492 138.537 51.3357C138.223 51.0221 138.047 50.5969 138.047 50.1535ZM144.734 83.591V55.1691H174.828V85.2629H146.406C145.963 85.2629 145.538 85.0867 145.224 84.7732C144.911 84.4596 144.734 84.0344 144.734 83.591ZM208.266 83.591C208.266 84.0344 208.089 84.4596 207.776 84.7732C207.462 85.0867 207.037 85.2629 206.594 85.2629H178.172V55.1691H208.266V83.591ZM214.953 50.1535C214.953 50.5969 214.777 51.0221 214.463 51.3357C214.15 51.6492 213.725 51.8254 213.281 51.8254H178.172V35.1066H213.281C213.725 35.1066 214.15 35.2828 214.463 35.5963C214.777 35.9098 214.953 36.3351 214.953 36.7785V50.1535Z" fill="#061818"/>
</svg>
