<svg width="354" height="301" viewBox="0 0 354 301" fill="none" xmlns="http://www.w3.org/2000/svg">
<path d="M32.52 207V186.56H36.496V207H32.52ZM35.936 207V203.5H44.756V207H35.936ZM54.5525 207.532C53.2085 207.532 52.0232 207.317 50.9965 206.888C49.9698 206.459 49.1018 205.88 48.3925 205.152C47.6832 204.405 47.1418 203.565 46.7685 202.632C46.4138 201.699 46.2365 200.728 46.2365 199.72V199.132C46.2365 198.087 46.4232 197.097 46.7965 196.164C47.1885 195.212 47.7392 194.372 48.4485 193.644C49.1765 192.897 50.0538 192.319 51.0805 191.908C52.1072 191.479 53.2645 191.264 54.5525 191.264C55.8405 191.264 56.9978 191.479 58.0245 191.908C59.0512 192.319 59.9192 192.897 60.6285 193.644C61.3565 194.372 61.9072 195.212 62.2805 196.164C62.6538 197.097 62.8405 198.087 62.8405 199.132V199.72C62.8405 200.728 62.6538 201.699 62.2805 202.632C61.9258 203.565 61.3938 204.405 60.6845 205.152C59.9752 205.88 59.1072 206.459 58.0805 206.888C57.0538 207.317 55.8778 207.532 54.5525 207.532ZM54.5525 204.2C55.5045 204.2 56.3072 203.995 56.9605 203.584C57.6138 203.155 58.1085 202.585 58.4445 201.876C58.7805 201.148 58.9485 200.327 58.9485 199.412C58.9485 198.479 58.7712 197.657 58.4165 196.948C58.0805 196.22 57.5765 195.651 56.9045 195.24C56.2512 194.811 55.4672 194.596 54.5525 194.596C53.6378 194.596 52.8445 194.811 52.1725 195.24C51.5192 195.651 51.0152 196.22 50.6605 196.948C50.3058 197.657 50.1285 198.479 50.1285 199.412C50.1285 200.327 50.2965 201.148 50.6325 201.876C50.9872 202.585 51.4912 203.155 52.1445 203.584C52.7978 203.995 53.6005 204.2 54.5525 204.2ZM72.5764 207.196C71.1764 207.196 70.0191 207.019 69.1044 206.664C68.2084 206.291 67.5364 205.675 67.0884 204.816C66.6404 203.939 66.4164 202.763 66.4164 201.288L66.4444 187.512H70.0844L70.0564 201.54C70.0564 202.287 70.2524 202.865 70.6444 203.276C71.0551 203.668 71.6337 203.864 72.3804 203.864H74.7604V207.196H72.5764ZM64.0084 194.652V191.796H74.7604V194.652H64.0084ZM83.1536 207.476C81.063 207.476 79.4203 207.037 78.2256 206.16C77.0496 205.264 76.4336 204.032 76.3776 202.464H79.8776C79.9336 202.987 80.223 203.463 80.7456 203.892C81.2683 204.321 82.0896 204.536 83.2096 204.536C84.143 204.536 84.8803 204.368 85.4216 204.032C85.9816 203.696 86.2616 203.239 86.2616 202.66C86.2616 202.156 86.047 201.755 85.6176 201.456C85.207 201.157 84.4976 200.961 83.4896 200.868L82.1456 200.728C80.447 200.541 79.1403 200.056 78.2256 199.272C77.311 198.488 76.8536 197.443 76.8536 196.136C76.8536 195.091 77.115 194.213 77.6376 193.504C78.1603 192.795 78.879 192.263 79.7936 191.908C80.727 191.535 81.791 191.348 82.9856 191.348C84.8523 191.348 86.3643 191.759 87.5216 192.58C88.679 193.401 89.2856 194.605 89.3416 196.192H85.8416C85.8043 195.669 85.543 195.221 85.0576 194.848C84.5723 194.475 83.8723 194.288 82.9576 194.288C82.1363 194.288 81.5016 194.447 81.0536 194.764C80.6056 195.081 80.3816 195.492 80.3816 195.996C80.3816 196.481 80.559 196.855 80.9136 197.116C81.287 197.377 81.8843 197.555 82.7056 197.648L84.0496 197.788C85.8416 197.975 87.2416 198.469 88.2496 199.272C89.2763 200.075 89.7896 201.157 89.7896 202.52C89.7896 203.528 89.5096 204.405 88.9496 205.152C88.4083 205.88 87.643 206.449 86.6536 206.86C85.6643 207.271 84.4976 207.476 83.1536 207.476ZM105.796 207.532C104.452 207.532 103.266 207.317 102.24 206.888C101.213 206.459 100.345 205.88 99.6358 205.152C98.9264 204.405 98.3851 203.565 98.0118 202.632C97.6571 201.699 97.4798 200.728 97.4798 199.72V199.132C97.4798 198.087 97.6664 197.097 98.0398 196.164C98.4318 195.212 98.9824 194.372 99.6918 193.644C100.42 192.897 101.297 192.319 102.324 191.908C103.35 191.479 104.508 191.264 105.796 191.264C107.084 191.264 108.241 191.479 109.268 191.908C110.294 192.319 111.162 192.897 111.872 193.644C112.6 194.372 113.15 195.212 113.524 196.164C113.897 197.097 114.084 198.087 114.084 199.132V199.72C114.084 200.728 113.897 201.699 113.524 202.632C113.169 203.565 112.637 204.405 111.928 205.152C111.218 205.88 110.35 206.459 109.324 206.888C108.297 207.317 107.121 207.532 105.796 207.532ZM105.796 204.2C106.748 204.2 107.55 203.995 108.204 203.584C108.857 203.155 109.352 202.585 109.688 201.876C110.024 201.148 110.192 200.327 110.192 199.412C110.192 198.479 110.014 197.657 109.66 196.948C109.324 196.22 108.82 195.651 108.148 195.24C107.494 194.811 106.71 194.596 105.796 194.596C104.881 194.596 104.088 194.811 103.416 195.24C102.762 195.651 102.258 196.22 101.904 196.948C101.549 197.657 101.372 198.479 101.372 199.412C101.372 200.327 101.54 201.148 101.876 201.876C102.23 202.585 102.734 203.155 103.388 203.584C104.041 203.995 104.844 204.2 105.796 204.2ZM117.576 207V191.432C117.576 189.696 118.052 188.417 119.004 187.596C119.974 186.756 121.402 186.336 123.288 186.336H125.192V189.332H123.008C122.429 189.332 121.981 189.491 121.664 189.808C121.365 190.107 121.216 190.536 121.216 191.096V207H117.576ZM115.672 194.904V192.048H125.444V194.904H115.672ZM133.359 212.6V191.796H136.439V198.348L135.963 198.32C136.037 196.771 136.355 195.473 136.915 194.428C137.493 193.383 138.259 192.608 139.211 192.104C140.163 191.581 141.227 191.32 142.403 191.32C143.485 191.32 144.456 191.516 145.315 191.908C146.192 192.3 146.939 192.851 147.555 193.56C148.189 194.269 148.675 195.1 149.011 196.052C149.347 196.985 149.515 197.993 149.515 199.076V199.664C149.515 200.765 149.347 201.792 149.011 202.744C148.693 203.677 148.217 204.508 147.583 205.236C146.967 205.945 146.22 206.505 145.343 206.916C144.465 207.308 143.485 207.504 142.403 207.504C141.264 207.504 140.219 207.271 139.267 206.804C138.333 206.319 137.577 205.581 136.999 204.592C136.42 203.584 136.093 202.287 136.019 200.7L137.251 202.576V212.6H133.359ZM141.423 204.228C142.263 204.228 142.991 204.023 143.607 203.612C144.241 203.201 144.736 202.632 145.091 201.904C145.445 201.157 145.623 200.317 145.623 199.384C145.623 198.413 145.445 197.573 145.091 196.864C144.736 196.155 144.241 195.604 143.607 195.212C142.991 194.801 142.263 194.596 141.423 194.596C140.657 194.596 139.948 194.764 139.295 195.1C138.66 195.436 138.137 195.931 137.727 196.584C137.335 197.237 137.139 198.021 137.139 198.936V200.056C137.139 200.933 137.344 201.68 137.755 202.296C138.165 202.912 138.697 203.388 139.351 203.724C140.004 204.06 140.695 204.228 141.423 204.228ZM159.461 207.532C158.154 207.532 157.006 207.308 156.017 206.86C155.046 206.412 154.234 205.815 153.581 205.068C152.946 204.303 152.461 203.453 152.125 202.52C151.808 201.587 151.649 200.635 151.649 199.664V199.132C151.649 198.124 151.808 197.153 152.125 196.22C152.461 195.268 152.946 194.428 153.581 193.7C154.234 192.953 155.037 192.365 155.989 191.936C156.941 191.488 158.042 191.264 159.293 191.264C160.936 191.264 162.308 191.628 163.409 192.356C164.529 193.065 165.369 194.008 165.929 195.184C166.489 196.341 166.769 197.592 166.769 198.936V200.336H153.301V197.956H164.333L163.129 199.132C163.129 198.161 162.989 197.331 162.709 196.64C162.429 195.949 162 195.417 161.421 195.044C160.861 194.671 160.152 194.484 159.293 194.484C158.434 194.484 157.706 194.68 157.109 195.072C156.512 195.464 156.054 196.033 155.737 196.78C155.438 197.508 155.289 198.385 155.289 199.412C155.289 200.364 155.438 201.213 155.737 201.96C156.036 202.688 156.493 203.267 157.109 203.696C157.725 204.107 158.509 204.312 159.461 204.312C160.413 204.312 161.188 204.125 161.785 203.752C162.382 203.36 162.765 202.884 162.933 202.324H166.517C166.293 203.369 165.864 204.284 165.229 205.068C164.594 205.852 163.782 206.459 162.793 206.888C161.822 207.317 160.712 207.532 159.461 207.532ZM177.048 207.532C175.704 207.532 174.519 207.317 173.492 206.888C172.465 206.459 171.597 205.88 170.888 205.152C170.179 204.405 169.637 203.565 169.264 202.632C168.909 201.699 168.732 200.728 168.732 199.72V199.132C168.732 198.087 168.919 197.097 169.292 196.164C169.684 195.212 170.235 194.372 170.944 193.644C171.672 192.897 172.549 192.319 173.576 191.908C174.603 191.479 175.76 191.264 177.048 191.264C178.336 191.264 179.493 191.479 180.52 191.908C181.547 192.319 182.415 192.897 183.124 193.644C183.852 194.372 184.403 195.212 184.776 196.164C185.149 197.097 185.336 198.087 185.336 199.132V199.72C185.336 200.728 185.149 201.699 184.776 202.632C184.421 203.565 183.889 204.405 183.18 205.152C182.471 205.88 181.603 206.459 180.576 206.888C179.549 207.317 178.373 207.532 177.048 207.532ZM177.048 204.2C178 204.2 178.803 203.995 179.456 203.584C180.109 203.155 180.604 202.585 180.94 201.876C181.276 201.148 181.444 200.327 181.444 199.412C181.444 198.479 181.267 197.657 180.912 196.948C180.576 196.22 180.072 195.651 179.4 195.24C178.747 194.811 177.963 194.596 177.048 194.596C176.133 194.596 175.34 194.811 174.668 195.24C174.015 195.651 173.511 196.22 173.156 196.948C172.801 197.657 172.624 198.479 172.624 199.412C172.624 200.327 172.792 201.148 173.128 201.876C173.483 202.585 173.987 203.155 174.64 203.584C175.293 203.995 176.096 204.2 177.048 204.2ZM188.464 212.6V191.796H191.544V198.348L191.068 198.32C191.143 196.771 191.46 195.473 192.02 194.428C192.599 193.383 193.364 192.608 194.316 192.104C195.268 191.581 196.332 191.32 197.508 191.32C198.591 191.32 199.561 191.516 200.42 191.908C201.297 192.3 202.044 192.851 202.66 193.56C203.295 194.269 203.78 195.1 204.116 196.052C204.452 196.985 204.62 197.993 204.62 199.076V199.664C204.62 200.765 204.452 201.792 204.116 202.744C203.799 203.677 203.323 204.508 202.688 205.236C202.072 205.945 201.325 206.505 200.448 206.916C199.571 207.308 198.591 207.504 197.508 207.504C196.369 207.504 195.324 207.271 194.372 206.804C193.439 206.319 192.683 205.581 192.104 204.592C191.525 203.584 191.199 202.287 191.124 200.7L192.356 202.576V212.6H188.464ZM196.528 204.228C197.368 204.228 198.096 204.023 198.712 203.612C199.347 203.201 199.841 202.632 200.196 201.904C200.551 201.157 200.728 200.317 200.728 199.384C200.728 198.413 200.551 197.573 200.196 196.864C199.841 196.155 199.347 195.604 198.712 195.212C198.096 194.801 197.368 194.596 196.528 194.596C195.763 194.596 195.053 194.764 194.4 195.1C193.765 195.436 193.243 195.931 192.832 196.584C192.44 197.237 192.244 198.021 192.244 198.936V200.056C192.244 200.933 192.449 201.68 192.86 202.296C193.271 202.912 193.803 203.388 194.456 203.724C195.109 204.06 195.8 204.228 196.528 204.228ZM207.958 207V186.56H211.85V207H207.958ZM206.054 189.472V186.56H211.85V189.472H206.054ZM222.817 207.532C221.511 207.532 220.363 207.308 219.373 206.86C218.403 206.412 217.591 205.815 216.937 205.068C216.303 204.303 215.817 203.453 215.481 202.52C215.164 201.587 215.005 200.635 215.005 199.664V199.132C215.005 198.124 215.164 197.153 215.481 196.22C215.817 195.268 216.303 194.428 216.937 193.7C217.591 192.953 218.393 192.365 219.345 191.936C220.297 191.488 221.399 191.264 222.649 191.264C224.292 191.264 225.664 191.628 226.765 192.356C227.885 193.065 228.725 194.008 229.285 195.184C229.845 196.341 230.125 197.592 230.125 198.936V200.336H216.657V197.956H227.689L226.485 199.132C226.485 198.161 226.345 197.331 226.065 196.64C225.785 195.949 225.356 195.417 224.777 195.044C224.217 194.671 223.508 194.484 222.649 194.484C221.791 194.484 221.063 194.68 220.465 195.072C219.868 195.464 219.411 196.033 219.093 196.78C218.795 197.508 218.645 198.385 218.645 199.412C218.645 200.364 218.795 201.213 219.093 201.96C219.392 202.688 219.849 203.267 220.465 203.696C221.081 204.107 221.865 204.312 222.817 204.312C223.769 204.312 224.544 204.125 225.141 203.752C225.739 203.36 226.121 202.884 226.289 202.324H229.873C229.649 203.369 229.22 204.284 228.585 205.068C227.951 205.852 227.139 206.459 226.149 206.888C225.179 207.317 224.068 207.532 222.817 207.532ZM244.376 207.476C242.285 207.476 240.642 207.037 239.448 206.16C238.272 205.264 237.656 204.032 237.6 202.464H241.1C241.156 202.987 241.445 203.463 241.968 203.892C242.49 204.321 243.312 204.536 244.432 204.536C245.365 204.536 246.102 204.368 246.644 204.032C247.204 203.696 247.484 203.239 247.484 202.66C247.484 202.156 247.269 201.755 246.84 201.456C246.429 201.157 245.72 200.961 244.712 200.868L243.368 200.728C241.669 200.541 240.362 200.056 239.448 199.272C238.533 198.488 238.076 197.443 238.076 196.136C238.076 195.091 238.337 194.213 238.86 193.504C239.382 192.795 240.101 192.263 241.016 191.908C241.949 191.535 243.013 191.348 244.208 191.348C246.074 191.348 247.586 191.759 248.744 192.58C249.901 193.401 250.508 194.605 250.564 196.192H247.064C247.026 195.669 246.765 195.221 246.28 194.848C245.794 194.475 245.094 194.288 244.18 194.288C243.358 194.288 242.724 194.447 242.276 194.764C241.828 195.081 241.604 195.492 241.604 195.996C241.604 196.481 241.781 196.855 242.136 197.116C242.509 197.377 243.106 197.555 243.928 197.648L245.272 197.788C247.064 197.975 248.464 198.469 249.472 199.272C250.498 200.075 251.012 201.157 251.012 202.52C251.012 203.528 250.732 204.405 250.172 205.152C249.63 205.88 248.865 206.449 247.876 206.86C246.886 207.271 245.72 207.476 244.376 207.476ZM254.675 207V191.796H258.567V207H254.675ZM252.547 194.708V191.796H258.567V194.708H252.547ZM256.103 189.976C255.338 189.976 254.768 189.78 254.395 189.388C254.04 188.977 253.863 188.473 253.863 187.876C253.863 187.241 254.04 186.728 254.395 186.336C254.768 185.944 255.338 185.748 256.103 185.748C256.868 185.748 257.428 185.944 257.783 186.336C258.138 186.728 258.315 187.241 258.315 187.876C258.315 188.473 258.138 188.977 257.783 189.388C257.428 189.78 256.868 189.976 256.103 189.976ZM268.708 212.992C267.98 212.992 267.234 212.964 266.468 212.908C265.722 212.852 265.022 212.777 264.368 212.684V209.436C265.04 209.511 265.759 209.576 266.524 209.632C267.29 209.707 268.008 209.744 268.68 209.744C269.931 209.744 270.939 209.595 271.704 209.296C272.488 208.997 273.058 208.521 273.412 207.868C273.786 207.233 273.972 206.421 273.972 205.432V202.436L274.812 200.532C274.756 201.932 274.467 203.127 273.944 204.116C273.422 205.087 272.712 205.833 271.816 206.356C270.92 206.86 269.884 207.112 268.708 207.112C267.663 207.112 266.711 206.916 265.852 206.524C265.012 206.132 264.284 205.591 263.668 204.9C263.071 204.209 262.604 203.397 262.268 202.464C261.932 201.531 261.764 200.532 261.764 199.468V198.88C261.764 197.816 261.932 196.827 262.268 195.912C262.623 194.979 263.118 194.167 263.752 193.476C264.387 192.785 265.143 192.253 266.02 191.88C266.898 191.507 267.868 191.32 268.932 191.32C270.183 191.32 271.266 191.591 272.18 192.132C273.114 192.673 273.842 193.457 274.364 194.484C274.887 195.511 275.176 196.771 275.232 198.264L274.56 198.376V191.796H277.64V205.208C277.64 207.056 277.323 208.549 276.688 209.688C276.054 210.827 275.074 211.657 273.748 212.18C272.442 212.721 270.762 212.992 268.708 212.992ZM269.828 203.78C270.575 203.78 271.256 203.612 271.872 203.276C272.488 202.94 272.983 202.455 273.356 201.82C273.73 201.185 273.916 200.42 273.916 199.524V198.544C273.916 197.685 273.72 196.957 273.328 196.36C272.955 195.763 272.46 195.315 271.844 195.016C271.228 194.699 270.556 194.54 269.828 194.54C269.007 194.54 268.279 194.736 267.644 195.128C267.028 195.501 266.543 196.033 266.188 196.724C265.834 197.415 265.656 198.236 265.656 199.188C265.656 200.121 265.834 200.933 266.188 201.624C266.543 202.315 267.028 202.847 267.644 203.22C268.279 203.593 269.007 203.78 269.828 203.78ZM281.606 207V191.796H284.686V198.32H284.406C284.406 196.771 284.611 195.483 285.022 194.456C285.432 193.411 286.039 192.627 286.842 192.104C287.663 191.581 288.68 191.32 289.894 191.32H290.062C291.872 191.32 293.244 191.908 294.178 193.084C295.111 194.241 295.578 195.977 295.578 198.292V207H291.686V197.956C291.686 197.023 291.415 196.267 290.874 195.688C290.351 195.109 289.623 194.82 288.69 194.82C287.738 194.82 286.963 195.119 286.366 195.716C285.787 196.295 285.498 197.079 285.498 198.068V207H281.606ZM305.973 207V191.796H309.865V207H305.973ZM303.845 194.708V191.796H309.865V194.708H303.845ZM307.401 189.976C306.635 189.976 306.066 189.78 305.693 189.388C305.338 188.977 305.161 188.473 305.161 187.876C305.161 187.241 305.338 186.728 305.693 186.336C306.066 185.944 306.635 185.748 307.401 185.748C308.166 185.748 308.726 185.944 309.081 186.336C309.435 186.728 309.613 187.241 309.613 187.876C309.613 188.473 309.435 188.977 309.081 189.388C308.726 189.78 308.166 189.976 307.401 189.976ZM320.678 207.196C319.278 207.196 318.121 207.019 317.206 206.664C316.31 206.291 315.638 205.675 315.19 204.816C314.742 203.939 314.518 202.763 314.518 201.288L314.546 187.512H318.186L318.158 201.54C318.158 202.287 318.354 202.865 318.746 203.276C319.157 203.668 319.736 203.864 320.482 203.864H322.862V207.196H320.678ZM312.11 194.652V191.796H322.862V194.652H312.11Z" fill="#000E1F"/>
<path d="M7.01895 246.719V245H19.019V246.719H13.9877V261H12.0502V246.719H7.01895ZM23.4376 261.281C22.6772 261.281 21.9871 261.138 21.3673 260.852C20.7475 260.56 20.2553 260.141 19.8907 259.594C19.5262 259.042 19.3439 258.375 19.3439 257.594C19.3439 256.906 19.4793 256.349 19.7501 255.922C20.021 255.49 20.3829 255.151 20.8361 254.906C21.2892 254.661 21.7892 254.479 22.3361 254.359C22.8881 254.234 23.4428 254.135 24.0001 254.063C24.7293 253.969 25.3204 253.898 25.7736 253.852C26.2319 253.799 26.5652 253.714 26.7736 253.594C26.9871 253.474 27.0939 253.266 27.0939 252.969V252.906C27.0939 252.135 26.8829 251.536 26.4611 251.109C26.0444 250.682 25.4116 250.469 24.5626 250.469C23.6824 250.469 22.9923 250.661 22.4923 251.047C21.9923 251.432 21.6407 251.844 21.4376 252.281L19.6876 251.656C20.0001 250.927 20.4168 250.359 20.9376 249.953C21.4637 249.542 22.0366 249.255 22.6564 249.094C23.2814 248.927 23.896 248.844 24.5001 248.844C24.8855 248.844 25.3282 248.891 25.8282 248.984C26.3335 249.073 26.8204 249.258 27.2892 249.539C27.7631 249.82 28.1564 250.245 28.4689 250.812C28.7814 251.38 28.9376 252.141 28.9376 253.094V261H27.0939V259.375H27.0001C26.8751 259.635 26.6668 259.914 26.3751 260.211C26.0835 260.508 25.6954 260.76 25.2111 260.969C24.7267 261.177 24.1355 261.281 23.4376 261.281ZM23.7189 259.625C24.448 259.625 25.0626 259.482 25.5626 259.195C26.0678 258.909 26.448 258.539 26.7032 258.086C26.9637 257.633 27.0939 257.156 27.0939 256.656V254.969C27.0157 255.062 26.8439 255.148 26.5782 255.227C26.3178 255.299 26.0157 255.365 25.672 255.422C25.3335 255.474 25.0027 255.521 24.6798 255.562C24.3621 255.599 24.1043 255.63 23.9064 255.656C23.4272 255.719 22.9793 255.82 22.5626 255.961C22.1512 256.096 21.8178 256.302 21.5626 256.578C21.3126 256.849 21.1876 257.219 21.1876 257.687C21.1876 258.328 21.4246 258.812 21.8986 259.141C22.3777 259.464 22.9845 259.625 23.7189 259.625ZM32.0829 265.5V249H33.8641V250.906H34.0829C34.2183 250.698 34.4058 250.432 34.6454 250.109C34.8901 249.781 35.2391 249.49 35.6922 249.234C36.1506 248.974 36.7704 248.844 37.5516 248.844C38.562 248.844 39.4526 249.096 40.2235 249.602C40.9943 250.107 41.5959 250.823 42.0282 251.75C42.4605 252.677 42.6766 253.771 42.6766 255.031C42.6766 256.302 42.4605 257.404 42.0282 258.336C41.5959 259.263 40.9969 259.982 40.2313 260.492C39.4657 260.997 38.5829 261.25 37.5829 261.25C36.812 261.25 36.1948 261.122 35.7313 260.867C35.2678 260.607 34.911 260.312 34.661 259.984C34.411 259.651 34.2183 259.375 34.0829 259.156H33.9266V265.5H32.0829ZM33.8954 255C33.8954 255.906 34.0282 256.706 34.2938 257.398C34.5594 258.086 34.9474 258.625 35.4579 259.016C35.9683 259.401 36.5933 259.594 37.3329 259.594C38.1037 259.594 38.7469 259.391 39.2625 258.984C39.7834 258.573 40.174 258.021 40.4344 257.328C40.7 256.63 40.8329 255.854 40.8329 255C40.8329 254.156 40.7026 253.396 40.4422 252.719C40.187 252.036 39.799 251.497 39.2782 251.102C38.7625 250.701 38.1141 250.5 37.3329 250.5C36.5829 250.5 35.9526 250.69 35.4422 251.07C34.9318 251.445 34.5464 251.971 34.286 252.648C34.0256 253.32 33.8954 254.104 33.8954 255ZM51.2366 261V249H53.0804V261H51.2366ZM52.1741 247C51.8147 247 51.5048 246.878 51.2444 246.633C50.9892 246.388 50.8616 246.094 50.8616 245.75C50.8616 245.406 50.9892 245.112 51.2444 244.867C51.5048 244.622 51.8147 244.5 52.1741 244.5C52.5335 244.5 52.8408 244.622 53.096 244.867C53.3564 245.112 53.4866 245.406 53.4866 245.75C53.4866 246.094 53.3564 246.388 53.096 246.633C52.8408 246.878 52.5335 247 52.1741 247ZM58.0811 253.781V261H56.2373V249H58.0186V250.875H58.1748C58.4561 250.266 58.8831 249.776 59.4561 249.406C60.029 249.031 60.7686 248.844 61.6748 248.844C62.4873 248.844 63.1983 249.01 63.8076 249.344C64.417 249.672 64.891 250.172 65.2295 250.844C65.568 251.51 65.7373 252.354 65.7373 253.375V261H63.8936V253.5C63.8936 252.557 63.6488 251.823 63.1592 251.297C62.6696 250.766 61.9977 250.5 61.1436 250.5C60.555 250.5 60.029 250.628 59.5654 250.883C59.1071 251.138 58.7451 251.51 58.4795 252C58.2139 252.49 58.0811 253.083 58.0811 253.781ZM74.1052 249V250.562H67.8865V249H74.1052ZM69.699 246.125H71.5427V257.562C71.5427 258.083 71.6182 258.474 71.7693 258.734C71.9255 258.99 72.1234 259.161 72.363 259.25C72.6078 259.333 72.8656 259.375 73.1365 259.375C73.3396 259.375 73.5062 259.365 73.6365 259.344C73.7667 259.318 73.8708 259.297 73.949 259.281L74.324 260.937C74.199 260.984 74.0245 261.031 73.8005 261.078C73.5766 261.13 73.2927 261.156 72.949 261.156C72.4281 261.156 71.9177 261.044 71.4177 260.82C70.9229 260.596 70.5115 260.255 70.1833 259.797C69.8604 259.339 69.699 258.76 69.699 258.062V246.125ZM81.4047 261.25C80.3214 261.25 79.3709 260.992 78.5532 260.477C77.7407 259.961 77.1053 259.24 76.6469 258.312C76.1938 257.385 75.9672 256.302 75.9672 255.062C75.9672 253.812 76.1938 252.721 76.6469 251.789C77.1053 250.857 77.7407 250.133 78.5532 249.617C79.3709 249.102 80.3214 248.844 81.4047 248.844C82.4881 248.844 83.436 249.102 84.2485 249.617C85.0662 250.133 85.7016 250.857 86.1547 251.789C86.6131 252.721 86.8422 253.812 86.8422 255.062C86.8422 256.302 86.6131 257.385 86.1547 258.312C85.7016 259.24 85.0662 259.961 84.2485 260.477C83.436 260.992 82.4881 261.25 81.4047 261.25ZM81.4047 259.594C82.2276 259.594 82.9047 259.383 83.436 258.961C83.9672 258.539 84.3605 257.984 84.6157 257.297C84.8709 256.609 84.9985 255.865 84.9985 255.062C84.9985 254.26 84.8709 253.513 84.6157 252.82C84.3605 252.128 83.9672 251.568 83.436 251.141C82.9047 250.714 82.2276 250.5 81.4047 250.5C80.5818 250.5 79.9047 250.714 79.3735 251.141C78.8422 251.568 78.449 252.128 78.1938 252.82C77.9386 253.513 77.811 254.26 77.811 255.062C77.811 255.865 77.9386 256.609 78.1938 257.297C78.449 257.984 78.8422 258.539 79.3735 258.961C79.9047 259.383 80.5818 259.594 81.4047 259.594ZM100.623 249V250.562H94.4042V249H100.623ZM96.2167 246.125H98.0604V257.562C98.0604 258.083 98.136 258.474 98.287 258.734C98.4432 258.99 98.6412 259.161 98.8807 259.25C99.1255 259.333 99.3833 259.375 99.6542 259.375C99.8573 259.375 100.024 259.365 100.154 259.344C100.284 259.318 100.389 259.297 100.467 259.281L100.842 260.937C100.717 260.984 100.542 261.031 100.318 261.078C100.094 261.13 99.8104 261.156 99.4667 261.156C98.9458 261.156 98.4354 261.044 97.9354 260.82C97.4406 260.596 97.0292 260.255 96.7011 259.797C96.3781 259.339 96.2167 258.76 96.2167 258.062V246.125ZM105.278 253.781V261H103.434V245H105.278V250.875H105.434C105.715 250.255 106.137 249.763 106.7 249.398C107.268 249.029 108.023 248.844 108.965 248.844C109.783 248.844 110.499 249.008 111.114 249.336C111.728 249.659 112.205 250.156 112.544 250.828C112.887 251.495 113.059 252.344 113.059 253.375V261H111.215V253.5C111.215 252.547 110.968 251.81 110.473 251.289C109.984 250.763 109.304 250.5 108.434 250.5C107.83 250.5 107.288 250.628 106.809 250.883C106.335 251.138 105.96 251.51 105.684 252C105.413 252.49 105.278 253.083 105.278 253.781ZM121.243 261.25C120.087 261.25 119.09 260.995 118.251 260.484C117.418 259.969 116.775 259.25 116.322 258.328C115.874 257.401 115.65 256.323 115.65 255.094C115.65 253.865 115.874 252.781 116.322 251.844C116.775 250.901 117.405 250.167 118.212 249.641C119.025 249.109 119.973 248.844 121.056 248.844C121.681 248.844 122.298 248.948 122.908 249.156C123.517 249.365 124.072 249.703 124.572 250.172C125.072 250.635 125.47 251.25 125.767 252.016C126.064 252.781 126.212 253.724 126.212 254.844V255.625H116.962V254.031H124.337C124.337 253.354 124.202 252.75 123.931 252.219C123.665 251.687 123.285 251.268 122.79 250.961C122.301 250.654 121.723 250.5 121.056 250.5C120.322 250.5 119.686 250.682 119.15 251.047C118.618 251.406 118.21 251.875 117.923 252.453C117.637 253.031 117.493 253.651 117.493 254.312V255.375C117.493 256.281 117.65 257.049 117.962 257.68C118.28 258.305 118.72 258.781 119.283 259.109C119.845 259.432 120.499 259.594 121.243 259.594C121.728 259.594 122.165 259.526 122.556 259.391C122.952 259.25 123.293 259.042 123.579 258.766C123.866 258.484 124.087 258.135 124.243 257.719L126.025 258.219C125.837 258.823 125.522 259.354 125.079 259.812C124.637 260.266 124.09 260.62 123.439 260.875C122.788 261.125 122.056 261.25 121.243 261.25ZM139.608 265.75C138.718 265.75 137.952 265.635 137.311 265.406C136.671 265.182 136.137 264.885 135.71 264.516C135.288 264.151 134.952 263.76 134.702 263.344L136.171 262.313C136.337 262.531 136.548 262.781 136.803 263.062C137.059 263.349 137.408 263.596 137.85 263.805C138.298 264.018 138.884 264.125 139.608 264.125C140.577 264.125 141.376 263.891 142.007 263.422C142.637 262.953 142.952 262.219 142.952 261.219V258.781H142.796C142.66 259 142.468 259.271 142.218 259.594C141.973 259.911 141.619 260.195 141.155 260.445C140.697 260.69 140.077 260.812 139.296 260.812C138.327 260.812 137.457 260.583 136.686 260.125C135.921 259.667 135.314 259 134.866 258.125C134.423 257.25 134.202 256.187 134.202 254.937C134.202 253.708 134.418 252.638 134.85 251.727C135.283 250.81 135.884 250.102 136.655 249.602C137.426 249.096 138.317 248.844 139.327 248.844C140.108 248.844 140.728 248.974 141.186 249.234C141.65 249.49 142.004 249.781 142.249 250.109C142.499 250.432 142.692 250.698 142.827 250.906H143.014V249H144.796V261.344C144.796 262.375 144.561 263.214 144.093 263.859C143.629 264.51 143.004 264.987 142.218 265.289C141.436 265.596 140.567 265.75 139.608 265.75ZM139.546 259.156C140.285 259.156 140.91 258.987 141.421 258.648C141.931 258.31 142.319 257.823 142.585 257.188C142.85 256.552 142.983 255.792 142.983 254.906C142.983 254.042 142.853 253.279 142.593 252.617C142.332 251.956 141.947 251.437 141.436 251.062C140.926 250.687 140.296 250.5 139.546 250.5C138.764 250.5 138.113 250.698 137.593 251.094C137.077 251.49 136.689 252.021 136.428 252.688C136.173 253.354 136.046 254.094 136.046 254.906C136.046 255.74 136.176 256.477 136.436 257.117C136.702 257.753 137.093 258.253 137.608 258.617C138.129 258.977 138.775 259.156 139.546 259.156ZM147.951 261V249H149.794V261H147.951ZM148.888 247C148.529 247 148.219 246.878 147.958 246.633C147.703 246.388 147.576 246.094 147.576 245.75C147.576 245.406 147.703 245.112 147.958 244.867C148.219 244.622 148.529 244.5 148.888 244.5C149.248 244.5 149.555 244.622 149.81 244.867C150.07 245.112 150.201 245.406 150.201 245.75C150.201 246.094 150.07 246.388 149.81 246.633C149.555 246.878 149.248 247 148.888 247ZM158.295 249V250.562H151.826V249H158.295ZM153.764 261V247.344C153.764 246.656 153.925 246.083 154.248 245.625C154.571 245.167 154.99 244.823 155.506 244.594C156.022 244.365 156.566 244.25 157.139 244.25C157.592 244.25 157.962 244.286 158.248 244.359C158.535 244.432 158.748 244.5 158.889 244.562L158.358 246.156C158.264 246.125 158.134 246.086 157.967 246.039C157.806 245.992 157.592 245.969 157.326 245.969C156.717 245.969 156.277 246.122 156.006 246.43C155.74 246.737 155.608 247.187 155.608 247.781V261H153.764ZM165.878 249V250.562H159.659V249H165.878ZM161.472 246.125H163.315V257.562C163.315 258.083 163.391 258.474 163.542 258.734C163.698 258.99 163.896 259.161 164.136 259.25C164.38 259.333 164.638 259.375 164.909 259.375C165.112 259.375 165.279 259.365 165.409 259.344C165.539 259.318 165.643 259.297 165.722 259.281L166.097 260.937C165.972 260.984 165.797 261.031 165.573 261.078C165.349 261.13 165.065 261.156 164.722 261.156C164.201 261.156 163.69 261.044 163.19 260.82C162.696 260.596 162.284 260.255 161.956 259.797C161.633 259.339 161.472 258.76 161.472 258.062V246.125ZM174.649 261V245H176.493V250.906H176.649C176.784 250.698 176.972 250.432 177.211 250.109C177.456 249.781 177.805 249.49 178.258 249.234C178.716 248.974 179.336 248.844 180.118 248.844C181.128 248.844 182.019 249.096 182.789 249.602C183.56 250.107 184.162 250.823 184.594 251.75C185.026 252.677 185.243 253.771 185.243 255.031C185.243 256.302 185.026 257.404 184.594 258.336C184.162 259.263 183.563 259.982 182.797 260.492C182.032 260.997 181.149 261.25 180.149 261.25C179.378 261.25 178.761 261.122 178.297 260.867C177.834 260.607 177.477 260.312 177.227 259.984C176.977 259.651 176.784 259.375 176.649 259.156H176.43V261H174.649ZM176.461 255C176.461 255.906 176.594 256.706 176.86 257.398C177.125 258.086 177.513 258.625 178.024 259.016C178.534 259.401 179.159 259.594 179.899 259.594C180.67 259.594 181.313 259.391 181.828 258.984C182.349 258.573 182.74 258.021 183 257.328C183.266 256.63 183.399 255.854 183.399 255C183.399 254.156 183.269 253.396 183.008 252.719C182.753 252.036 182.365 251.497 181.844 251.102C181.328 250.701 180.68 250.5 179.899 250.5C179.149 250.5 178.519 250.69 178.008 251.07C177.498 251.445 177.112 251.971 176.852 252.648C176.591 253.32 176.461 254.104 176.461 255ZM191.374 261.281C190.614 261.281 189.924 261.138 189.304 260.852C188.684 260.56 188.192 260.141 187.827 259.594C187.463 259.042 187.28 258.375 187.28 257.594C187.28 256.906 187.416 256.349 187.687 255.922C187.957 255.49 188.319 255.151 188.773 254.906C189.226 254.661 189.726 254.479 190.273 254.359C190.825 254.234 191.379 254.135 191.937 254.063C192.666 253.969 193.257 253.898 193.71 253.852C194.168 253.799 194.502 253.714 194.71 253.594C194.924 253.474 195.03 253.266 195.03 252.969V252.906C195.03 252.135 194.819 251.536 194.398 251.109C193.981 250.682 193.348 250.469 192.499 250.469C191.619 250.469 190.929 250.661 190.429 251.047C189.929 251.432 189.577 251.844 189.374 252.281L187.624 251.656C187.937 250.927 188.353 250.359 188.874 249.953C189.4 249.542 189.973 249.255 190.593 249.094C191.218 248.927 191.832 248.844 192.437 248.844C192.822 248.844 193.265 248.891 193.765 248.984C194.27 249.073 194.757 249.258 195.226 249.539C195.7 249.82 196.093 250.245 196.405 250.812C196.718 251.38 196.874 252.141 196.874 253.094V261H195.03V259.375H194.937C194.812 259.635 194.603 259.914 194.312 260.211C194.02 260.508 193.632 260.76 193.148 260.969C192.663 261.177 192.072 261.281 191.374 261.281ZM191.655 259.625C192.385 259.625 192.999 259.482 193.499 259.195C194.004 258.909 194.385 258.539 194.64 258.086C194.9 257.633 195.03 257.156 195.03 256.656V254.969C194.952 255.062 194.78 255.148 194.515 255.227C194.254 255.299 193.952 255.365 193.608 255.422C193.27 255.474 192.939 255.521 192.616 255.562C192.299 255.599 192.041 255.63 191.843 255.656C191.364 255.719 190.916 255.82 190.499 255.961C190.088 256.096 189.754 256.302 189.499 256.578C189.249 256.849 189.124 257.219 189.124 257.687C189.124 258.328 189.361 258.812 189.835 259.141C190.314 259.464 190.921 259.625 191.655 259.625ZM204.863 265.75C203.972 265.75 203.207 265.635 202.566 265.406C201.926 265.182 201.392 264.885 200.965 264.516C200.543 264.151 200.207 263.76 199.957 263.344L201.426 262.313C201.592 262.531 201.803 262.781 202.058 263.062C202.314 263.349 202.663 263.596 203.105 263.805C203.553 264.018 204.139 264.125 204.863 264.125C205.832 264.125 206.631 263.891 207.262 263.422C207.892 262.953 208.207 262.219 208.207 261.219V258.781H208.051C207.915 259 207.722 259.271 207.472 259.594C207.228 259.911 206.874 260.195 206.41 260.445C205.952 260.69 205.332 260.812 204.551 260.812C203.582 260.812 202.712 260.583 201.941 260.125C201.176 259.667 200.569 259 200.121 258.125C199.678 257.25 199.457 256.187 199.457 254.937C199.457 253.708 199.673 252.638 200.105 251.727C200.538 250.81 201.139 250.102 201.91 249.602C202.681 249.096 203.571 248.844 204.582 248.844C205.363 248.844 205.983 248.974 206.441 249.234C206.905 249.49 207.259 249.781 207.504 250.109C207.754 250.432 207.946 250.698 208.082 250.906H208.269V249H210.051V261.344C210.051 262.375 209.816 263.214 209.347 263.859C208.884 264.51 208.259 264.987 207.472 265.289C206.691 265.596 205.821 265.75 204.863 265.75ZM204.801 259.156C205.54 259.156 206.165 258.987 206.676 258.648C207.186 258.31 207.574 257.823 207.84 257.188C208.105 256.552 208.238 255.792 208.238 254.906C208.238 254.042 208.108 253.279 207.847 252.617C207.587 251.956 207.202 251.437 206.691 251.062C206.181 250.687 205.551 250.5 204.801 250.5C204.019 250.5 203.368 250.698 202.847 251.094C202.332 251.49 201.944 252.021 201.683 252.688C201.428 253.354 201.301 254.094 201.301 254.906C201.301 255.74 201.431 256.477 201.691 257.117C201.957 257.753 202.347 258.253 202.863 258.617C203.384 258.977 204.03 259.156 204.801 259.156ZM224.392 249V250.562H218.173V249H224.392ZM219.986 246.125H221.829V257.562C221.829 258.083 221.905 258.474 222.056 258.734C222.212 258.99 222.41 259.161 222.65 259.25C222.894 259.333 223.152 259.375 223.423 259.375C223.626 259.375 223.793 259.365 223.923 259.344C224.053 259.318 224.157 259.297 224.236 259.281L224.611 260.937C224.486 260.984 224.311 261.031 224.087 261.078C223.863 261.13 223.579 261.156 223.236 261.156C222.715 261.156 222.204 261.044 221.704 260.82C221.21 260.596 220.798 260.255 220.47 259.797C220.147 259.339 219.986 258.76 219.986 258.062V246.125ZM231.691 261.25C230.608 261.25 229.658 260.992 228.84 260.477C228.027 259.961 227.392 259.24 226.934 258.312C226.48 257.385 226.254 256.302 226.254 255.062C226.254 253.812 226.48 252.721 226.934 251.789C227.392 250.857 228.027 250.133 228.84 249.617C229.658 249.102 230.608 248.844 231.691 248.844C232.775 248.844 233.723 249.102 234.535 249.617C235.353 250.133 235.988 250.857 236.441 251.789C236.9 252.721 237.129 253.812 237.129 255.062C237.129 256.302 236.9 257.385 236.441 258.312C235.988 259.24 235.353 259.961 234.535 260.477C233.723 260.992 232.775 261.25 231.691 261.25ZM231.691 259.594C232.514 259.594 233.191 259.383 233.723 258.961C234.254 258.539 234.647 257.984 234.902 257.297C235.158 256.609 235.285 255.865 235.285 255.062C235.285 254.26 235.158 253.513 234.902 252.82C234.647 252.128 234.254 251.568 233.723 251.141C233.191 250.714 232.514 250.5 231.691 250.5C230.868 250.5 230.191 250.714 229.66 251.141C229.129 251.568 228.736 252.128 228.48 252.82C228.225 253.513 228.098 254.26 228.098 255.062C228.098 255.865 228.225 256.609 228.48 257.297C228.736 257.984 229.129 258.539 229.66 258.961C230.191 259.383 230.868 259.594 231.691 259.594ZM254.191 251.687L252.535 252.156C252.43 251.88 252.277 251.612 252.074 251.352C251.876 251.086 251.605 250.867 251.261 250.695C250.917 250.523 250.477 250.437 249.941 250.437C249.206 250.437 248.594 250.607 248.105 250.945C247.621 251.279 247.378 251.703 247.378 252.219C247.378 252.677 247.545 253.039 247.878 253.305C248.212 253.57 248.732 253.792 249.441 253.969L251.222 254.406C252.295 254.667 253.094 255.065 253.621 255.602C254.147 256.133 254.41 256.818 254.41 257.656C254.41 258.344 254.212 258.958 253.816 259.5C253.425 260.042 252.878 260.469 252.175 260.781C251.472 261.094 250.654 261.25 249.722 261.25C248.498 261.25 247.485 260.984 246.683 260.453C245.881 259.922 245.373 259.146 245.16 258.125L246.91 257.687C247.076 258.333 247.391 258.818 247.855 259.141C248.324 259.464 248.936 259.625 249.691 259.625C250.55 259.625 251.232 259.443 251.738 259.078C252.248 258.708 252.503 258.266 252.503 257.75C252.503 257.333 252.357 256.984 252.066 256.703C251.774 256.417 251.326 256.203 250.722 256.062L248.722 255.594C247.623 255.333 246.816 254.93 246.3 254.383C245.79 253.831 245.535 253.141 245.535 252.312C245.535 251.635 245.725 251.036 246.105 250.516C246.49 249.995 247.014 249.586 247.675 249.289C248.342 248.992 249.097 248.844 249.941 248.844C251.128 248.844 252.061 249.104 252.738 249.625C253.42 250.146 253.904 250.833 254.191 251.687ZM258.809 253.781V261H256.965V245H258.809V250.875H258.965C259.246 250.255 259.668 249.763 260.231 249.398C260.798 249.029 261.554 248.844 262.496 248.844C263.314 248.844 264.03 249.008 264.645 249.336C265.259 249.659 265.736 250.156 266.074 250.828C266.418 251.495 266.59 252.344 266.59 253.375V261H264.746V253.5C264.746 252.547 264.499 251.81 264.004 251.289C263.514 250.763 262.835 250.5 261.965 250.5C261.361 250.5 260.819 250.628 260.34 250.883C259.866 251.138 259.491 251.51 259.215 252C258.944 252.49 258.809 253.083 258.809 253.781ZM273.274 261.281C272.514 261.281 271.824 261.138 271.204 260.852C270.584 260.56 270.092 260.141 269.727 259.594C269.363 259.042 269.181 258.375 269.181 257.594C269.181 256.906 269.316 256.349 269.587 255.922C269.858 255.49 270.22 255.151 270.673 254.906C271.126 254.661 271.626 254.479 272.173 254.359C272.725 254.234 273.279 254.135 273.837 254.063C274.566 253.969 275.157 253.898 275.61 253.852C276.069 253.799 276.402 253.714 276.61 253.594C276.824 253.474 276.931 253.266 276.931 252.969V252.906C276.931 252.135 276.72 251.536 276.298 251.109C275.881 250.682 275.248 250.469 274.399 250.469C273.519 250.469 272.829 250.661 272.329 251.047C271.829 251.432 271.477 251.844 271.274 252.281L269.524 251.656C269.837 250.927 270.253 250.359 270.774 249.953C271.3 249.542 271.873 249.255 272.493 249.094C273.118 248.927 273.733 248.844 274.337 248.844C274.722 248.844 275.165 248.891 275.665 248.984C276.17 249.073 276.657 249.258 277.126 249.539C277.6 249.82 277.993 250.245 278.306 250.812C278.618 251.38 278.774 252.141 278.774 253.094V261H276.931V259.375H276.837C276.712 259.635 276.503 259.914 276.212 260.211C275.92 260.508 275.532 260.76 275.048 260.969C274.563 261.177 273.972 261.281 273.274 261.281ZM273.556 259.625C274.285 259.625 274.899 259.482 275.399 259.195C275.904 258.909 276.285 258.539 276.54 258.086C276.8 257.633 276.931 257.156 276.931 256.656V254.969C276.852 255.062 276.681 255.148 276.415 255.227C276.154 255.299 275.852 255.365 275.509 255.422C275.17 255.474 274.839 255.521 274.516 255.562C274.199 255.599 273.941 255.63 273.743 255.656C273.264 255.719 272.816 255.82 272.399 255.961C271.988 256.096 271.654 256.302 271.399 256.578C271.149 256.849 271.024 257.219 271.024 257.687C271.024 258.328 271.261 258.812 271.735 259.141C272.214 259.464 272.821 259.625 273.556 259.625ZM281.919 261V249H283.701V250.812H283.826C284.044 250.219 284.44 249.737 285.013 249.367C285.586 248.997 286.232 248.812 286.951 248.812C287.086 248.812 287.255 248.815 287.459 248.82C287.662 248.826 287.815 248.833 287.919 248.844V250.719C287.857 250.703 287.714 250.68 287.49 250.648C287.271 250.612 287.039 250.594 286.794 250.594C286.211 250.594 285.69 250.716 285.232 250.961C284.779 251.201 284.419 251.534 284.154 251.961C283.893 252.383 283.763 252.865 283.763 253.406V261H281.919ZM294.551 261.25C293.395 261.25 292.397 260.995 291.559 260.484C290.726 259.969 290.082 259.25 289.629 258.328C289.181 257.401 288.957 256.323 288.957 255.094C288.957 253.865 289.181 252.781 289.629 251.844C290.082 250.901 290.713 250.167 291.52 249.641C292.332 249.109 293.28 248.844 294.364 248.844C294.989 248.844 295.606 248.948 296.215 249.156C296.824 249.365 297.379 249.703 297.879 250.172C298.379 250.635 298.778 251.25 299.074 252.016C299.371 252.781 299.52 253.724 299.52 254.844V255.625H290.27V254.031H297.645C297.645 253.354 297.509 252.75 297.239 252.219C296.973 251.687 296.593 251.268 296.098 250.961C295.608 250.654 295.03 250.5 294.364 250.5C293.629 250.5 292.994 250.682 292.457 251.047C291.926 251.406 291.517 251.875 291.231 252.453C290.944 253.031 290.801 253.651 290.801 254.312V255.375C290.801 256.281 290.957 257.049 291.27 257.68C291.588 258.305 292.028 258.781 292.59 259.109C293.153 259.432 293.806 259.594 294.551 259.594C295.035 259.594 295.473 259.526 295.864 259.391C296.259 259.25 296.601 259.042 296.887 258.766C297.173 258.484 297.395 258.135 297.551 257.719L299.332 258.219C299.145 258.823 298.83 259.354 298.387 259.812C297.944 260.266 297.397 260.62 296.746 260.875C296.095 261.125 295.364 261.25 294.551 261.25ZM309.916 245V261H308.072V245H309.916ZM317.948 261.25C316.864 261.25 315.914 260.992 315.096 260.477C314.284 259.961 313.648 259.24 313.19 258.312C312.737 257.385 312.51 256.302 312.51 255.062C312.51 253.812 312.737 252.721 313.19 251.789C313.648 250.857 314.284 250.133 315.096 249.617C315.914 249.102 316.864 248.844 317.948 248.844C319.031 248.844 319.979 249.102 320.791 249.617C321.609 250.133 322.245 250.857 322.698 251.789C323.156 252.721 323.385 253.812 323.385 255.062C323.385 256.302 323.156 257.385 322.698 258.312C322.245 259.24 321.609 259.961 320.791 260.477C319.979 260.992 319.031 261.25 317.948 261.25ZM317.948 259.594C318.771 259.594 319.448 259.383 319.979 258.961C320.51 258.539 320.903 257.984 321.159 257.297C321.414 256.609 321.541 255.865 321.541 255.062C321.541 254.26 321.414 253.513 321.159 252.82C320.903 252.128 320.51 251.568 319.979 251.141C319.448 250.714 318.771 250.5 317.948 250.5C317.125 250.5 316.448 250.714 315.916 251.141C315.385 251.568 314.992 252.128 314.737 252.82C314.482 253.513 314.354 254.26 314.354 255.062C314.354 255.865 314.482 256.609 314.737 257.297C314.992 257.984 315.385 258.539 315.916 258.961C316.448 259.383 317.125 259.594 317.948 259.594ZM335.362 249L330.925 261H329.05L324.612 249H326.612L329.925 258.562H330.05L333.362 249H335.362ZM342.178 261.25C341.021 261.25 340.024 260.995 339.185 260.484C338.352 259.969 337.709 259.25 337.256 258.328C336.808 257.401 336.584 256.323 336.584 255.094C336.584 253.865 336.808 252.781 337.256 251.844C337.709 250.901 338.339 250.167 339.146 249.641C339.959 249.109 340.907 248.844 341.99 248.844C342.615 248.844 343.232 248.948 343.842 249.156C344.451 249.365 345.006 249.703 345.506 250.172C346.006 250.635 346.404 251.25 346.701 252.016C346.998 252.781 347.146 253.724 347.146 254.844V255.625H337.896V254.031H345.271C345.271 253.354 345.136 252.75 344.865 252.219C344.599 251.687 344.219 251.268 343.724 250.961C343.235 250.654 342.657 250.5 341.99 250.5C341.256 250.5 340.62 250.682 340.084 251.047C339.553 251.406 339.144 251.875 338.857 252.453C338.571 253.031 338.428 253.651 338.428 254.312V255.375C338.428 256.281 338.584 257.049 338.896 257.68C339.214 258.305 339.654 258.781 340.217 259.109C340.779 259.432 341.433 259.594 342.178 259.594C342.662 259.594 343.099 259.526 343.49 259.391C343.886 259.25 344.227 259.042 344.514 258.766C344.8 258.484 345.021 258.135 345.178 257.719L346.959 258.219C346.771 258.823 346.456 259.354 346.014 259.812C345.571 260.266 345.024 260.62 344.373 260.875C343.722 261.125 342.99 261.25 342.178 261.25ZM49.5505 293V281H51.3943V293H49.5505ZM50.488 279C50.1286 279 49.8187 278.878 49.5583 278.633C49.3031 278.388 49.1755 278.094 49.1755 277.75C49.1755 277.406 49.3031 277.112 49.5583 276.867C49.8187 276.622 50.1286 276.5 50.488 276.5C50.8474 276.5 51.1547 276.622 51.4099 276.867C51.6703 277.112 51.8005 277.406 51.8005 277.75C51.8005 278.094 51.6703 278.388 51.4099 278.633C51.1547 278.878 50.8474 279 50.488 279ZM56.395 285.781V293H54.5512V281H56.3325V282.875H56.4887C56.77 282.266 57.197 281.776 57.77 281.406C58.3429 281.031 59.0825 280.844 59.9887 280.844C60.8012 280.844 61.5121 281.01 62.1215 281.344C62.7309 281.672 63.2049 282.172 63.5434 282.844C63.8819 283.51 64.0512 284.354 64.0512 285.375V293H62.2075V285.5C62.2075 284.557 61.9627 283.823 61.4731 283.297C60.9835 282.766 60.3116 282.5 59.4575 282.5C58.8689 282.5 58.3429 282.628 57.8793 282.883C57.421 283.138 57.059 283.51 56.7934 284C56.5278 284.49 56.395 285.083 56.395 285.781ZM78.3866 281V282.562H72.1678V281H78.3866ZM73.9803 278.125H75.8241V289.562C75.8241 290.083 75.8996 290.474 76.0507 290.734C76.2069 290.99 76.4048 291.161 76.6444 291.25C76.8892 291.333 77.147 291.375 77.4178 291.375C77.621 291.375 77.7876 291.365 77.9178 291.344C78.0481 291.318 78.1522 291.297 78.2303 291.281L78.6053 292.937C78.4803 292.984 78.3059 293.031 78.0819 293.078C77.858 293.13 77.5741 293.156 77.2303 293.156C76.7095 293.156 76.1991 293.044 75.6991 292.82C75.2043 292.596 74.7928 292.255 74.4647 291.797C74.1418 291.339 73.9803 290.76 73.9803 290.062V278.125ZM83.0416 285.781V293H81.1979V277H83.0416V282.875H83.1979C83.4791 282.255 83.901 281.763 84.4635 281.398C85.0312 281.029 85.7864 280.844 86.7291 280.844C87.5468 280.844 88.263 281.008 88.8775 281.336C89.4921 281.659 89.9687 282.156 90.3072 282.828C90.651 283.495 90.8229 284.344 90.8229 285.375V293H88.9791V285.5C88.9791 284.547 88.7317 283.81 88.2369 283.289C87.7473 282.763 87.0676 282.5 86.1979 282.5C85.5937 282.5 85.052 282.628 84.5729 282.883C84.0989 283.138 83.7239 283.51 83.4479 284C83.177 284.49 83.0416 285.083 83.0416 285.781ZM99.0071 293.25C97.8509 293.25 96.8535 292.995 96.015 292.484C95.1816 291.969 94.5384 291.25 94.0853 290.328C93.6374 289.401 93.4134 288.323 93.4134 287.094C93.4134 285.865 93.6374 284.781 94.0853 283.844C94.5384 282.901 95.1686 282.167 95.9759 281.641C96.7884 281.109 97.7363 280.844 98.8196 280.844C99.4446 280.844 100.062 280.948 100.671 281.156C101.281 281.365 101.835 281.703 102.335 282.172C102.835 282.635 103.234 283.25 103.531 284.016C103.827 284.781 103.976 285.724 103.976 286.844V287.625H94.7259V286.031H102.101C102.101 285.354 101.965 284.75 101.695 284.219C101.429 283.687 101.049 283.268 100.554 282.961C100.064 282.654 99.4863 282.5 98.8196 282.5C98.0853 282.5 97.4499 282.682 96.9134 283.047C96.3821 283.406 95.9733 283.875 95.6868 284.453C95.4004 285.031 95.2571 285.651 95.2571 286.312V287.375C95.2571 288.281 95.4134 289.049 95.7259 289.68C96.0436 290.305 96.4837 290.781 97.0462 291.109C97.6087 291.432 98.2624 291.594 99.0071 291.594C99.4915 291.594 99.929 291.526 100.32 291.391C100.715 291.25 101.057 291.042 101.343 290.766C101.63 290.484 101.851 290.135 102.007 289.719L103.788 290.219C103.601 290.823 103.286 291.354 102.843 291.812C102.4 292.266 101.854 292.62 101.202 292.875C100.551 293.125 99.8196 293.25 99.0071 293.25ZM112.528 293V281H114.309V282.875H114.466C114.716 282.234 115.119 281.737 115.677 281.383C116.234 281.023 116.903 280.844 117.684 280.844C118.476 280.844 119.135 281.023 119.661 281.383C120.192 281.737 120.606 282.234 120.903 282.875H121.028C121.335 282.255 121.796 281.763 122.411 281.398C123.025 281.029 123.762 280.844 124.622 280.844C125.695 280.844 126.572 281.18 127.255 281.852C127.937 282.518 128.278 283.557 128.278 284.969V293H126.434V284.969C126.434 284.083 126.192 283.451 125.708 283.07C125.223 282.69 124.653 282.5 123.997 282.5C123.153 282.5 122.499 282.755 122.036 283.266C121.572 283.771 121.341 284.411 121.341 285.187V293H119.466V284.781C119.466 284.099 119.244 283.549 118.802 283.133C118.359 282.711 117.789 282.5 117.091 282.5C116.611 282.5 116.164 282.628 115.747 282.883C115.335 283.138 115.002 283.492 114.747 283.945C114.497 284.393 114.372 284.911 114.372 285.5V293H112.528ZM136.304 293.25C135.221 293.25 134.27 292.992 133.453 292.477C132.64 291.961 132.005 291.24 131.546 290.312C131.093 289.385 130.867 288.302 130.867 287.062C130.867 285.812 131.093 284.721 131.546 283.789C132.005 282.857 132.64 282.133 133.453 281.617C134.27 281.102 135.221 280.844 136.304 280.844C137.388 280.844 138.335 281.102 139.148 281.617C139.966 282.133 140.601 282.857 141.054 283.789C141.513 284.721 141.742 285.812 141.742 287.062C141.742 288.302 141.513 289.385 141.054 290.312C140.601 291.24 139.966 291.961 139.148 292.477C138.335 292.992 137.388 293.25 136.304 293.25ZM136.304 291.594C137.127 291.594 137.804 291.383 138.335 290.961C138.867 290.539 139.26 289.984 139.515 289.297C139.77 288.609 139.898 287.865 139.898 287.062C139.898 286.26 139.77 285.513 139.515 284.82C139.26 284.128 138.867 283.568 138.335 283.141C137.804 282.714 137.127 282.5 136.304 282.5C135.481 282.5 134.804 282.714 134.273 283.141C133.742 283.568 133.348 284.128 133.093 284.82C132.838 285.513 132.71 286.26 132.71 287.062C132.71 287.865 132.838 288.609 133.093 289.297C133.348 289.984 133.742 290.539 134.273 290.961C134.804 291.383 135.481 291.594 136.304 291.594ZM152.836 283.687L151.18 284.156C151.076 283.88 150.922 283.612 150.719 283.352C150.521 283.086 150.25 282.867 149.906 282.695C149.563 282.523 149.123 282.437 148.586 282.437C147.852 282.437 147.24 282.607 146.75 282.945C146.266 283.279 146.024 283.703 146.024 284.219C146.024 284.677 146.19 285.039 146.524 285.305C146.857 285.57 147.378 285.792 148.086 285.969L149.867 286.406C150.94 286.667 151.74 287.065 152.266 287.602C152.792 288.133 153.055 288.818 153.055 289.656C153.055 290.344 152.857 290.958 152.461 291.5C152.07 292.042 151.524 292.469 150.82 292.781C150.117 293.094 149.3 293.25 148.367 293.25C147.143 293.25 146.13 292.984 145.328 292.453C144.526 291.922 144.018 291.146 143.805 290.125L145.555 289.687C145.722 290.333 146.037 290.818 146.5 291.141C146.969 291.464 147.581 291.625 148.336 291.625C149.195 291.625 149.878 291.443 150.383 291.078C150.893 290.708 151.149 290.266 151.149 289.75C151.149 289.333 151.003 288.984 150.711 288.703C150.419 288.417 149.972 288.203 149.367 288.062L147.367 287.594C146.268 287.333 145.461 286.93 144.945 286.383C144.435 285.831 144.18 285.141 144.18 284.312C144.18 283.635 144.37 283.036 144.75 282.516C145.136 281.995 145.659 281.586 146.32 281.289C146.987 280.992 147.742 280.844 148.586 280.844C149.774 280.844 150.706 281.104 151.383 281.625C152.065 282.146 152.55 282.833 152.836 283.687ZM160.829 281V282.562H154.61V281H160.829ZM156.423 278.125H158.267V289.562C158.267 290.083 158.342 290.474 158.493 290.734C158.649 290.99 158.847 291.161 159.087 291.25C159.332 291.333 159.589 291.375 159.86 291.375C160.063 291.375 160.23 291.365 160.36 291.344C160.49 291.318 160.595 291.297 160.673 291.281L161.048 292.937C160.923 292.984 160.748 293.031 160.524 293.078C160.3 293.13 160.017 293.156 159.673 293.156C159.152 293.156 158.642 293.044 158.142 292.82C157.647 292.596 157.235 292.255 156.907 291.797C156.584 291.339 156.423 290.76 156.423 290.062V278.125ZM172.881 293.281C172.121 293.281 171.431 293.138 170.811 292.852C170.191 292.56 169.699 292.141 169.334 291.594C168.97 291.042 168.787 290.375 168.787 289.594C168.787 288.906 168.923 288.349 169.194 287.922C169.465 287.49 169.827 287.151 170.28 286.906C170.733 286.661 171.233 286.479 171.78 286.359C172.332 286.234 172.886 286.135 173.444 286.063C174.173 285.969 174.764 285.898 175.217 285.852C175.675 285.799 176.009 285.714 176.217 285.594C176.431 285.474 176.537 285.266 176.537 284.969V284.906C176.537 284.135 176.327 283.536 175.905 283.109C175.488 282.682 174.855 282.469 174.006 282.469C173.126 282.469 172.436 282.661 171.936 283.047C171.436 283.432 171.084 283.844 170.881 284.281L169.131 283.656C169.444 282.927 169.86 282.359 170.381 281.953C170.907 281.542 171.48 281.255 172.1 281.094C172.725 280.927 173.34 280.844 173.944 280.844C174.329 280.844 174.772 280.891 175.272 280.984C175.777 281.073 176.264 281.258 176.733 281.539C177.207 281.82 177.6 282.245 177.912 282.812C178.225 283.38 178.381 284.141 178.381 285.094V293H176.537V291.375H176.444C176.319 291.635 176.11 291.914 175.819 292.211C175.527 292.508 175.139 292.76 174.655 292.969C174.17 293.177 173.579 293.281 172.881 293.281ZM173.162 291.625C173.892 291.625 174.506 291.482 175.006 291.195C175.511 290.909 175.892 290.539 176.147 290.086C176.407 289.633 176.537 289.156 176.537 288.656V286.969C176.459 287.062 176.287 287.148 176.022 287.227C175.761 287.299 175.459 287.365 175.116 287.422C174.777 287.474 174.446 287.521 174.123 287.562C173.806 287.599 173.548 287.63 173.35 287.656C172.871 287.719 172.423 287.82 172.006 287.961C171.595 288.096 171.261 288.302 171.006 288.578C170.756 288.849 170.631 289.219 170.631 289.687C170.631 290.328 170.868 290.812 171.342 291.141C171.821 291.464 172.428 291.625 173.162 291.625ZM181.526 293V281H183.308V282.875H183.464C183.714 282.234 184.118 281.737 184.675 281.383C185.232 281.023 185.901 280.844 186.683 280.844C187.474 280.844 188.133 281.023 188.659 281.383C189.191 281.737 189.605 282.234 189.901 282.875H190.026C190.334 282.255 190.795 281.763 191.409 281.398C192.024 281.029 192.761 280.844 193.62 280.844C194.693 280.844 195.571 281.18 196.253 281.852C196.935 282.518 197.276 283.557 197.276 284.969V293H195.433V284.969C195.433 284.083 195.191 283.451 194.706 283.07C194.222 282.69 193.651 282.5 192.995 282.5C192.151 282.5 191.498 282.755 191.034 283.266C190.571 283.771 190.339 284.411 190.339 285.187V293H188.464V284.781C188.464 284.099 188.243 283.549 187.8 283.133C187.357 282.711 186.787 282.5 186.089 282.5C185.61 282.5 185.162 282.628 184.745 282.883C184.334 283.138 184 283.492 183.745 283.945C183.495 284.393 183.37 284.911 183.37 285.5V293H181.526ZM203.959 293.281C203.198 293.281 202.508 293.138 201.888 292.852C201.269 292.56 200.776 292.141 200.412 291.594C200.047 291.042 199.865 290.375 199.865 289.594C199.865 288.906 200 288.349 200.271 287.922C200.542 287.49 200.904 287.151 201.357 286.906C201.81 286.661 202.31 286.479 202.857 286.359C203.409 286.234 203.964 286.135 204.521 286.063C205.25 285.969 205.842 285.898 206.295 285.852C206.753 285.799 207.086 285.714 207.295 285.594C207.508 285.474 207.615 285.266 207.615 284.969V284.906C207.615 284.135 207.404 283.536 206.982 283.109C206.566 282.682 205.933 282.469 205.084 282.469C204.204 282.469 203.513 282.661 203.013 283.047C202.513 283.432 202.162 283.844 201.959 284.281L200.209 283.656C200.521 282.927 200.938 282.359 201.459 281.953C201.985 281.542 202.558 281.255 203.178 281.094C203.803 280.927 204.417 280.844 205.021 280.844C205.407 280.844 205.849 280.891 206.349 280.984C206.855 281.073 207.342 281.258 207.81 281.539C208.284 281.82 208.678 282.245 208.99 282.812C209.303 283.38 209.459 284.141 209.459 285.094V293H207.615V291.375H207.521C207.396 291.635 207.188 291.914 206.896 292.211C206.605 292.508 206.217 292.76 205.732 292.969C205.248 293.177 204.657 293.281 203.959 293.281ZM204.24 291.625C204.969 291.625 205.584 291.482 206.084 291.195C206.589 290.909 206.969 290.539 207.224 290.086C207.485 289.633 207.615 289.156 207.615 288.656V286.969C207.537 287.062 207.365 287.148 207.099 287.227C206.839 287.299 206.537 287.365 206.193 287.422C205.855 287.474 205.524 287.521 205.201 287.562C204.883 287.599 204.625 287.63 204.428 287.656C203.948 287.719 203.5 287.82 203.084 287.961C202.672 288.096 202.339 288.302 202.084 288.578C201.834 288.849 201.709 289.219 201.709 289.687C201.709 290.328 201.946 290.812 202.42 291.141C202.899 291.464 203.506 291.625 204.24 291.625ZM212.26 293V291.594L219.073 282.844V282.719H212.479V281H221.448V282.469L214.823 291.156V291.281H221.667V293H212.26ZM224.286 293V281H226.13V293H224.286ZM225.224 279C224.864 279 224.555 278.878 224.294 278.633C224.039 278.388 223.911 278.094 223.911 277.75C223.911 277.406 224.039 277.112 224.294 276.867C224.555 276.622 224.864 276.5 225.224 276.5C225.583 276.5 225.891 276.622 226.146 276.867C226.406 277.112 226.536 277.406 226.536 277.75C226.536 278.094 226.406 278.388 226.146 278.633C225.891 278.878 225.583 279 225.224 279ZM231.131 285.781V293H229.287V281H231.068V282.875H231.225C231.506 282.266 231.933 281.776 232.506 281.406C233.079 281.031 233.818 280.844 234.725 280.844C235.537 280.844 236.248 281.01 236.857 281.344C237.467 281.672 237.941 282.172 238.279 282.844C238.618 283.51 238.787 284.354 238.787 285.375V293H236.943V285.5C236.943 284.557 236.699 283.823 236.209 283.297C235.719 282.766 235.047 282.5 234.193 282.5C233.605 282.5 233.079 282.628 232.615 282.883C232.157 283.138 231.795 283.51 231.529 284C231.264 284.49 231.131 285.083 231.131 285.781ZM246.78 297.75C245.889 297.75 245.124 297.635 244.483 297.406C243.842 297.182 243.309 296.885 242.882 296.516C242.46 296.151 242.124 295.76 241.874 295.344L243.342 294.313C243.509 294.531 243.72 294.781 243.975 295.062C244.23 295.349 244.579 295.596 245.022 295.805C245.47 296.018 246.056 296.125 246.78 296.125C247.749 296.125 248.548 295.891 249.178 295.422C249.809 294.953 250.124 294.219 250.124 293.219V290.781H249.967C249.832 291 249.639 291.271 249.389 291.594C249.145 291.911 248.79 292.195 248.327 292.445C247.868 292.69 247.249 292.812 246.467 292.812C245.499 292.812 244.629 292.583 243.858 292.125C243.092 291.667 242.486 291 242.038 290.125C241.595 289.25 241.374 288.187 241.374 286.937C241.374 285.708 241.59 284.638 242.022 283.727C242.454 282.81 243.056 282.102 243.827 281.602C244.598 281.096 245.488 280.844 246.499 280.844C247.28 280.844 247.9 280.974 248.358 281.234C248.822 281.49 249.176 281.781 249.421 282.109C249.671 282.432 249.863 282.698 249.999 282.906H250.186V281H251.967V293.344C251.967 294.375 251.733 295.214 251.264 295.859C250.801 296.51 250.176 296.987 249.389 297.289C248.608 297.596 247.738 297.75 246.78 297.75ZM246.717 291.156C247.457 291.156 248.082 290.987 248.592 290.648C249.103 290.31 249.491 289.823 249.757 289.188C250.022 288.552 250.155 287.792 250.155 286.906C250.155 286.042 250.025 285.279 249.764 284.617C249.504 283.956 249.118 283.437 248.608 283.062C248.098 282.687 247.467 282.5 246.717 282.5C245.936 282.5 245.285 282.698 244.764 283.094C244.249 283.49 243.861 284.021 243.6 284.688C243.345 285.354 243.217 286.094 243.217 286.906C243.217 287.74 243.348 288.477 243.608 289.117C243.874 289.753 244.264 290.253 244.78 290.617C245.301 290.977 245.947 291.156 246.717 291.156ZM263.809 293L260.152 281H262.09L264.684 290.188H264.809L267.371 281H269.34L271.871 290.156H271.996L274.59 281H276.527L272.871 293H271.059L268.434 283.781H268.246L265.621 293H263.809ZM282.276 293.281C281.516 293.281 280.826 293.138 280.206 292.852C279.586 292.56 279.094 292.141 278.729 291.594C278.365 291.042 278.182 290.375 278.182 289.594C278.182 288.906 278.318 288.349 278.589 287.922C278.86 287.49 279.222 287.151 279.675 286.906C280.128 286.661 280.628 286.479 281.175 286.359C281.727 286.234 282.281 286.135 282.839 286.063C283.568 285.969 284.159 285.898 284.612 285.852C285.07 285.799 285.404 285.714 285.612 285.594C285.826 285.474 285.932 285.266 285.932 284.969V284.906C285.932 284.135 285.722 283.536 285.3 283.109C284.883 282.682 284.25 282.469 283.401 282.469C282.521 282.469 281.831 282.661 281.331 283.047C280.831 283.432 280.479 283.844 280.276 284.281L278.526 283.656C278.839 282.927 279.255 282.359 279.776 281.953C280.302 281.542 280.875 281.255 281.495 281.094C282.12 280.927 282.735 280.844 283.339 280.844C283.724 280.844 284.167 280.891 284.667 280.984C285.172 281.073 285.659 281.258 286.128 281.539C286.602 281.82 286.995 282.245 287.307 282.812C287.62 283.38 287.776 284.141 287.776 285.094V293H285.932V291.375H285.839C285.714 291.635 285.505 291.914 285.214 292.211C284.922 292.508 284.534 292.76 284.05 292.969C283.565 293.177 282.974 293.281 282.276 293.281ZM282.557 291.625C283.287 291.625 283.901 291.482 284.401 291.195C284.906 290.909 285.287 290.539 285.542 290.086C285.802 289.633 285.932 289.156 285.932 288.656V286.969C285.854 287.062 285.682 287.148 285.417 287.227C285.156 287.299 284.854 287.365 284.511 287.422C284.172 287.474 283.841 287.521 283.518 287.562C283.201 287.599 282.943 287.63 282.745 287.656C282.266 287.719 281.818 287.82 281.401 287.961C280.99 288.096 280.656 288.302 280.401 288.578C280.151 288.849 280.026 289.219 280.026 289.687C280.026 290.328 280.263 290.812 280.737 291.141C281.216 291.464 281.823 291.625 282.557 291.625ZM291.679 297.5C291.367 297.5 291.088 297.474 290.843 297.422C290.599 297.375 290.429 297.328 290.336 297.281L290.804 295.656C291.252 295.771 291.648 295.813 291.992 295.781C292.336 295.75 292.64 295.596 292.906 295.32C293.177 295.049 293.424 294.609 293.648 294L293.992 293.063L289.554 281H291.554L294.867 290.562H294.992L298.304 281H300.304L295.211 294.75C294.981 295.37 294.697 295.883 294.359 296.289C294.02 296.701 293.627 297.005 293.179 297.203C292.737 297.401 292.237 297.5 291.679 297.5ZM303.11 293.125C302.724 293.125 302.394 292.987 302.117 292.711C301.841 292.435 301.703 292.104 301.703 291.719C301.703 291.333 301.841 291.003 302.117 290.727C302.394 290.451 302.724 290.312 303.11 290.312C303.495 290.312 303.826 290.451 304.102 290.727C304.378 291.003 304.516 291.333 304.516 291.719C304.516 291.974 304.451 292.208 304.321 292.422C304.196 292.635 304.026 292.807 303.813 292.937C303.604 293.063 303.37 293.125 303.11 293.125Z" fill="#6B6B6B"/>
<path d="M227.151 28.4432L209.689 13.7166C209.253 13.3478 208.749 13.0687 208.205 12.8952C207.661 12.7217 207.089 12.6573 206.52 12.7056C205.951 12.754 205.398 12.9141 204.891 13.1769C204.384 13.4396 203.934 13.7998 203.567 14.2368L162.944 62.4198C162.575 62.8537 162.296 63.3566 162.123 63.8994C161.95 64.4421 161.886 65.0138 161.936 65.5813L163.303 81.6754C163.401 82.8215 163.949 83.882 164.829 84.6236C165.708 85.3651 166.846 85.727 167.992 85.6297L184.086 84.2622C185.231 84.1648 186.291 83.6169 187.033 82.7387L227.666 34.5548C228.035 34.1191 228.314 33.6149 228.488 33.071C228.661 32.5272 228.725 31.9545 228.677 31.3857C228.629 30.817 228.469 30.2633 228.206 29.7566C227.943 29.2498 227.583 28.7999 227.146 28.4327L227.151 28.4432ZM165.313 64.0937L195.083 28.792L203.812 36.1573L174.042 71.4553L165.313 64.0937ZM166.184 81.4306L165.011 67.6233L173.283 74.5994L181.554 81.5755L167.747 82.7487C167.365 82.7811 166.986 82.6605 166.693 82.4133C166.4 82.1661 166.217 81.8126 166.184 81.4306ZM184.983 80.6821L176.254 73.3205L206.023 38.0188L214.752 45.384L184.983 80.6821ZM225.458 32.6894L216.617 43.1725L196.948 26.5841L205.786 16.1013C205.908 15.956 206.058 15.8363 206.227 15.7489C206.395 15.6616 206.58 15.6083 206.769 15.5922C206.958 15.5761 207.149 15.5975 207.33 15.6552C207.511 15.7128 207.679 15.8055 207.824 15.9281L225.285 30.6511C225.43 30.7735 225.55 30.9233 225.637 31.092C225.725 31.2607 225.778 31.445 225.794 31.6343C225.81 31.8236 225.789 32.0142 225.731 32.1953C225.674 32.3763 225.581 32.5442 225.458 32.6894Z" fill="#061818"/>
<path d="M128.8 62.3006C127.424 64.4304 126.906 67.0028 127.352 69.4991C127.798 71.9954 129.174 74.2297 131.202 75.7514C133.231 77.273 135.761 77.9687 138.282 77.6981C140.803 77.4276 143.128 76.2109 144.788 74.2935L182.576 98.6149C181.575 100.806 181.397 103.285 182.075 105.597C182.753 107.908 184.242 109.898 186.268 111.202C187.883 112.239 189.763 112.791 191.683 112.791C193.603 112.791 195.482 112.239 197.097 111.201C198.713 110.163 199.996 108.682 200.793 106.936C201.591 105.189 201.87 103.251 201.597 101.35C201.325 99.4495 200.511 97.6674 199.254 96.216C197.997 94.7645 196.35 93.7049 194.508 93.1632C192.666 92.6216 190.707 92.6207 188.864 93.1607C187.022 93.7007 185.373 94.7589 184.115 96.2092L146.327 71.8877C147.385 69.5832 147.53 66.9632 146.732 64.5562C145.934 62.1493 144.252 60.1345 142.027 58.9184C139.802 57.7023 137.199 57.3753 134.742 58.0034C132.285 58.6316 130.158 60.168 128.79 62.3029L128.8 62.3006ZM195.575 96.7556C196.765 97.5214 197.701 98.6229 198.265 99.9209C198.829 101.219 198.996 102.655 198.744 104.048C198.492 105.44 197.832 106.727 196.849 107.745C195.865 108.762 194.602 109.466 193.219 109.766C191.836 110.066 190.395 109.948 189.078 109.429C187.762 108.91 186.629 108.012 185.822 106.849C185.016 105.686 184.573 104.31 184.549 102.895C184.525 101.48 184.921 100.089 185.687 98.8995C186.714 97.3086 188.33 96.1899 190.181 95.7887C192.032 95.3874 193.966 95.7362 195.561 96.7586L195.575 96.7556ZM141.118 61.7056C142.713 62.7327 143.835 64.3513 144.237 66.2055C144.639 68.0598 144.288 69.9977 143.261 71.5933C142.496 72.7835 141.394 73.7199 140.096 74.284C138.798 74.8481 137.362 75.0146 135.969 74.7625C134.577 74.5103 133.29 73.8509 132.272 72.8675C131.255 71.8841 130.551 70.621 130.251 69.2379C129.952 67.8548 130.069 66.4138 130.588 65.0972C131.107 63.7805 132.005 62.6475 133.168 61.8412C134.331 61.0349 135.707 60.5917 137.122 60.5675C138.537 60.5434 139.928 60.9395 141.118 61.7056Z" fill="#061818"/>
</svg>
