<svg width="136" height="14" viewBox="0 0 136 14" fill="none" xmlns="http://www.w3.org/2000/svg">
<path d="M3.375 11H0.232955V0.818182H3.5142C4.50189 0.818182 5.34706 1.02202 6.04972 1.42969C6.75237 1.83404 7.29096 2.41572 7.66548 3.17472C8.04001 3.9304 8.22727 4.83523 8.22727 5.8892C8.22727 6.94981 8.03835 7.86293 7.66051 8.62855C7.28267 9.39086 6.73248 9.97751 6.00994 10.3885C5.28741 10.7962 4.40909 11 3.375 11ZM1.46591 9.90625H3.29545C4.13731 9.90625 4.83499 9.74384 5.38849 9.41903C5.942 9.09422 6.35464 8.63187 6.62642 8.03196C6.8982 7.43205 7.03409 6.7178 7.03409 5.8892C7.03409 5.06723 6.89986 4.35961 6.63139 3.76633C6.36293 3.16974 5.96188 2.71236 5.42827 2.39418C4.89465 2.07268 4.23011 1.91193 3.43466 1.91193H1.46591V9.90625ZM13.1981 11.1591C12.4623 11.1591 11.8276 10.9967 11.2939 10.6719C10.7636 10.3438 10.3543 9.88636 10.066 9.29972C9.78093 8.70975 9.63841 8.02367 9.63841 7.24148C9.63841 6.45928 9.78093 5.76989 10.066 5.1733C10.3543 4.57339 10.7554 4.10606 11.2691 3.77131C11.7861 3.43324 12.3894 3.2642 13.0787 3.2642C13.4765 3.2642 13.8692 3.33049 14.257 3.46307C14.6448 3.59564 14.9978 3.81108 15.316 4.10938C15.6341 4.40436 15.8877 4.79545 16.0766 5.28267C16.2655 5.76989 16.36 6.36979 16.36 7.08239V7.57955H10.4736V6.56534H15.1668C15.1668 6.13447 15.0806 5.75 14.9083 5.41193C14.7393 5.07386 14.4973 4.80705 14.1824 4.61151C13.8709 4.41596 13.503 4.31818 13.0787 4.31818C12.6114 4.31818 12.2071 4.43419 11.8657 4.66619C11.5276 4.89489 11.2674 5.19318 11.0851 5.56108C10.9029 5.92898 10.8117 6.32339 10.8117 6.74432V7.42045C10.8117 7.99716 10.9111 8.48603 11.11 8.88707C11.3122 9.2848 11.5922 9.58807 11.9502 9.79688C12.3082 10.0024 12.7241 10.1051 13.1981 10.1051C13.5063 10.1051 13.7847 10.062 14.0333 9.97585C14.2852 9.88636 14.5023 9.75379 14.6846 9.57812C14.8669 9.39915 15.0077 9.17708 15.1072 8.91193L16.2407 9.23011C16.1214 9.61458 15.9208 9.95265 15.6391 10.2443C15.3574 10.5327 15.0094 10.758 14.5951 10.9205C14.1808 11.0795 13.7151 11.1591 13.1981 11.1591ZM19.1781 0.818182V11H18.0048V0.818182H19.1781ZM21.1871 11V3.36364H22.3604V11H21.1871ZM21.7837 2.09091C21.555 2.09091 21.3578 2.01302 21.192 1.85724C21.0296 1.70147 20.9484 1.5142 20.9484 1.29545C20.9484 1.0767 21.0296 0.889441 21.192 0.733664C21.3578 0.577888 21.555 0.5 21.7837 0.5C22.0124 0.5 22.2079 0.577888 22.3703 0.733664C22.536 0.889441 22.6189 1.0767 22.6189 1.29545C22.6189 1.5142 22.536 1.70147 22.3703 1.85724C22.2079 2.01302 22.0124 2.09091 21.7837 2.09091ZM30.6137 3.36364L27.7898 11H26.5966L23.7727 3.36364H25.0455L27.1534 9.44886H27.233L29.3409 3.36364H30.6137ZM34.9506 11.1591C34.2148 11.1591 33.5801 10.9967 33.0464 10.6719C32.5161 10.3438 32.1068 9.88636 31.8185 9.29972C31.5334 8.70975 31.3909 8.02367 31.3909 7.24148C31.3909 6.45928 31.5334 5.76989 31.8185 5.1733C32.1068 4.57339 32.5079 4.10606 33.0216 3.77131C33.5386 3.43324 34.1419 3.2642 34.8312 3.2642C35.229 3.2642 35.6217 3.33049 36.0095 3.46307C36.3973 3.59564 36.7503 3.81108 37.0685 4.10938C37.3866 4.40436 37.6402 4.79545 37.8291 5.28267C38.018 5.76989 38.1125 6.36979 38.1125 7.08239V7.57955H32.2261V6.56534H36.9193C36.9193 6.13447 36.8331 5.75 36.6608 5.41193C36.4918 5.07386 36.2498 4.80705 35.9349 4.61151C35.6234 4.41596 35.2555 4.31818 34.8312 4.31818C34.3639 4.31818 33.9596 4.43419 33.6182 4.66619C33.2801 4.89489 33.0199 5.19318 32.8376 5.56108C32.6553 5.92898 32.5642 6.32339 32.5642 6.74432V7.42045C32.5642 7.99716 32.6636 8.48603 32.8625 8.88707C33.0647 9.2848 33.3447 9.58807 33.7027 9.79688C34.0607 10.0024 34.4766 10.1051 34.9506 10.1051C35.2588 10.1051 35.5372 10.062 35.7858 9.97585C36.0377 9.88636 36.2548 9.75379 36.4371 9.57812C36.6194 9.39915 36.7602 9.17708 36.8597 8.91193L37.9932 9.23011C37.8739 9.61458 37.6733 9.95265 37.3916 10.2443C37.1099 10.5327 36.7619 10.758 36.3476 10.9205C35.9333 11.0795 35.4676 11.1591 34.9506 11.1591ZM39.7573 11V3.36364H40.8908V4.51705H40.9704C41.1096 4.1392 41.3615 3.83262 41.7261 3.5973C42.0906 3.36198 42.5016 3.24432 42.959 3.24432C43.0452 3.24432 43.1529 3.24597 43.2822 3.24929C43.4114 3.2526 43.5092 3.25758 43.5755 3.2642V4.45739C43.5357 4.44744 43.4446 4.43253 43.302 4.41264C43.1628 4.38944 43.0154 4.37784 42.8596 4.37784C42.4884 4.37784 42.1569 4.45573 41.8653 4.61151C41.5769 4.76397 41.3482 4.97609 41.1792 5.24787C41.0135 5.51634 40.9306 5.82292 40.9306 6.16761V11H39.7573ZM45.8144 13.8636C45.6155 13.8636 45.4382 13.8471 45.2824 13.8139C45.1267 13.7841 45.0189 13.7543 44.9593 13.7244L45.2576 12.6903C45.5426 12.7633 45.7945 12.7898 46.0133 12.7699C46.232 12.75 46.4259 12.6522 46.5949 12.4766C46.7673 12.3042 46.9247 12.0241 47.0672 11.6364L47.286 11.0398L44.4621 3.36364H45.7348L47.8428 9.44886H47.9223L50.0303 3.36364H51.303L48.0615 12.1136C47.9157 12.508 47.7351 12.8345 47.5196 13.093C47.3042 13.3549 47.054 13.5488 46.7689 13.6747C46.4872 13.8007 46.169 13.8636 45.8144 13.8636ZM53.5668 11.0795C53.3215 11.0795 53.1111 10.9917 52.9354 10.8161C52.7597 10.6404 52.6719 10.4299 52.6719 10.1847C52.6719 9.93939 52.7597 9.72893 52.9354 9.55327C53.1111 9.3776 53.3215 9.28977 53.5668 9.28977C53.8121 9.28977 54.0225 9.3776 54.1982 9.55327C54.3738 9.72893 54.4617 9.93939 54.4617 10.1847C54.4617 10.3471 54.4202 10.4962 54.3374 10.6321C54.2578 10.768 54.1501 10.8774 54.0142 10.9602C53.8817 11.0398 53.7325 11.0795 53.5668 11.0795ZM53.5668 5.41193C53.3215 5.41193 53.1111 5.3241 52.9354 5.14844C52.7597 4.97277 52.6719 4.76231 52.6719 4.51705C52.6719 4.27178 52.7597 4.06132 52.9354 3.88565C53.1111 3.70999 53.3215 3.62216 53.5668 3.62216C53.8121 3.62216 54.0225 3.70999 54.1982 3.88565C54.3738 4.06132 54.4617 4.27178 54.4617 4.51705C54.4617 4.67945 54.4202 4.8286 54.3374 4.96449C54.2578 5.10038 54.1501 5.20975 54.0142 5.29261C53.8817 5.37216 53.7325 5.41193 53.5668 5.41193ZM135.62 9.60795L135.54 10.1449C135.484 10.5227 135.397 10.9271 135.281 11.358C135.169 11.7888 135.051 12.1948 134.929 12.576C134.806 12.9571 134.705 13.2604 134.625 13.4858H133.73C133.773 13.2737 133.83 12.9936 133.899 12.6456C133.969 12.2976 134.039 11.9081 134.108 11.4773C134.181 11.0497 134.241 10.6122 134.287 10.1648L134.347 9.60795H135.62ZM134.904 5.41193C134.658 5.41193 134.448 5.3241 134.272 5.14844C134.097 4.97277 134.009 4.76231 134.009 4.51705C134.009 4.27178 134.097 4.06132 134.272 3.88565C134.448 3.70999 134.658 3.62216 134.904 3.62216C135.149 3.62216 135.359 3.70999 135.535 3.88565C135.711 4.06132 135.799 4.27178 135.799 4.51705C135.799 4.67945 135.757 4.8286 135.674 4.96449C135.595 5.10038 135.487 5.20975 135.351 5.29261C135.219 5.37216 135.069 5.41193 134.904 5.41193Z" fill="#000E1F"/>
<path d="M63.9931 0.818182V11H62.4519V2.35938H62.3923L59.9562 3.95028V2.47869L62.4967 0.818182H63.9931ZM70.3117 0.818182H72.176L75.4175 8.73295H75.5368L78.7783 0.818182H80.6426V11H79.181V3.6321H79.0865L76.0837 10.9851H74.8706L71.8678 3.62713H71.7733V11H70.3117V0.818182ZM84.8391 11.169C84.3552 11.169 83.9177 11.0795 83.5266 10.9006C83.1355 10.7183 82.8256 10.4548 82.5969 10.1101C82.3715 9.76539 82.2588 9.3428 82.2588 8.84233C82.2588 8.41146 82.3417 8.05682 82.5074 7.77841C82.6731 7.5 82.8969 7.27959 83.1786 7.11719C83.4603 6.95478 83.7752 6.83215 84.1232 6.74929C84.4712 6.66643 84.8258 6.60346 85.1871 6.56037C85.6445 6.50734 86.0157 6.46425 86.3007 6.43111C86.5858 6.39465 86.7929 6.33665 86.9222 6.2571C87.0514 6.17756 87.1161 6.0483 87.1161 5.86932V5.83452C87.1161 5.40033 86.9934 5.06392 86.7482 4.82528C86.5062 4.58665 86.145 4.46733 85.6644 4.46733C85.1639 4.46733 84.7695 4.57836 84.4811 4.80043C84.1961 5.01918 83.9989 5.26278 83.8895 5.53125L82.4925 5.21307C82.6582 4.74905 82.9002 4.37453 83.2184 4.08949C83.5398 3.80114 83.9094 3.59233 84.327 3.46307C84.7446 3.33049 85.1838 3.2642 85.6445 3.2642C85.9494 3.2642 86.2726 3.30066 86.6139 3.37358C86.9586 3.44318 87.2801 3.57244 87.5784 3.76136C87.88 3.95028 88.127 4.22041 88.3192 4.57173C88.5114 4.91974 88.6076 5.37216 88.6076 5.92898V11H87.1559V9.95597H87.0962C87.0001 10.1482 86.8559 10.3371 86.6637 10.5227C86.4714 10.7083 86.2245 10.8625 85.9229 10.9851C85.6213 11.1077 85.26 11.169 84.8391 11.169ZM85.1622 9.97585C85.5732 9.97585 85.9246 9.89465 86.2162 9.73224C86.5112 9.56984 86.7349 9.35772 86.8874 9.09588C87.0432 8.83073 87.1211 8.54735 87.1211 8.24574V7.26136C87.068 7.31439 86.9653 7.36411 86.8128 7.41051C86.6637 7.4536 86.493 7.49171 86.3007 7.52486C86.1085 7.55469 85.9212 7.58286 85.7389 7.60938C85.5567 7.63258 85.4042 7.65246 85.2816 7.66903C84.9932 7.70549 84.7297 7.76681 84.4911 7.85298C84.2558 7.93916 84.0668 8.06345 83.9243 8.22585C83.7851 8.38494 83.7155 8.59706 83.7155 8.86222C83.7155 9.23011 83.8514 9.50852 84.1232 9.69744C84.395 9.88305 84.7413 9.97585 85.1622 9.97585ZM91.1137 13.8636C90.8916 13.8636 90.6894 13.8454 90.5072 13.8089C90.3249 13.7758 90.189 13.7393 90.0995 13.6996L90.4574 12.4815C90.7292 12.5545 90.9712 12.5859 91.1833 12.576C91.3954 12.5661 91.5827 12.4865 91.7451 12.3374C91.9108 12.1882 92.0566 11.9446 92.1826 11.6065L92.3665 11.0994L89.5725 3.36364H91.1634L93.0974 9.28977H93.1769L95.1108 3.36364H96.7067L93.5597 12.0192C93.4139 12.4169 93.2283 12.7533 93.0029 13.0284C92.7775 13.3068 92.509 13.5156 92.1975 13.6548C91.8859 13.794 91.5247 13.8636 91.1137 13.8636ZM101.509 11V9.88636L104.954 6.31676C105.322 5.92898 105.625 5.58925 105.864 5.29759C106.106 5.0026 106.287 4.72254 106.406 4.45739C106.525 4.19223 106.585 3.91051 106.585 3.61222C106.585 3.27415 106.505 2.98248 106.346 2.73722C106.187 2.48864 105.97 2.29806 105.695 2.16548C105.42 2.02959 105.11 1.96165 104.765 1.96165C104.401 1.96165 104.083 2.03622 103.811 2.18537C103.539 2.33452 103.33 2.54498 103.184 2.81676C103.039 3.08854 102.966 3.40672 102.966 3.77131H101.499C101.499 3.15151 101.642 2.60961 101.927 2.1456C102.212 1.68158 102.603 1.32197 103.1 1.06676C103.597 0.808238 104.162 0.678977 104.795 0.678977C105.435 0.678977 105.998 0.806581 106.485 1.06179C106.976 1.31368 107.359 1.65838 107.634 2.09588C107.909 2.53007 108.047 3.0206 108.047 3.56747C108.047 3.94531 107.975 4.31487 107.833 4.67614C107.694 5.0374 107.45 5.4401 107.102 5.88423C106.754 6.32505 106.27 6.86032 105.65 7.49006L103.627 9.60795V9.68253H108.211V11H101.509ZM113.5 11.169C112.714 11.1657 112.043 10.9586 111.486 10.5476C110.929 10.1366 110.503 9.53835 110.208 8.75284C109.913 7.96733 109.766 7.02107 109.766 5.91406C109.766 4.81037 109.913 3.86742 110.208 3.08523C110.507 2.30303 110.934 1.70644 111.491 1.29545C112.051 0.884469 112.721 0.678977 113.5 0.678977C114.279 0.678977 114.946 0.886126 115.503 1.30043C116.06 1.71141 116.486 2.308 116.781 3.0902C117.079 3.86908 117.228 4.81037 117.228 5.91406C117.228 7.02438 117.081 7.9723 116.786 8.75781C116.491 9.54001 116.065 10.1383 115.508 10.5526C114.951 10.9635 114.282 11.169 113.5 11.169ZM113.5 9.84162C114.189 9.84162 114.728 9.50521 115.115 8.83239C115.506 8.15956 115.702 7.18679 115.702 5.91406C115.702 5.06889 115.613 4.35464 115.434 3.77131C115.258 3.18466 115.004 2.74053 114.673 2.43892C114.345 2.134 113.954 1.98153 113.5 1.98153C112.814 1.98153 112.275 2.3196 111.884 2.99574C111.493 3.67187 111.296 4.64465 111.292 5.91406C111.292 6.76255 111.38 7.48011 111.556 8.06676C111.735 8.65009 111.988 9.09257 112.316 9.39418C112.645 9.69247 113.039 9.84162 113.5 9.84162ZM122.715 0.818182V11H121.174V2.35938H121.114L118.678 3.95028V2.47869L121.218 0.818182H122.715ZM125.329 11V9.88636L128.774 6.31676C129.142 5.92898 129.446 5.58925 129.684 5.29759C129.926 5.0026 130.107 4.72254 130.226 4.45739C130.346 4.19223 130.405 3.91051 130.405 3.61222C130.405 3.27415 130.326 2.98248 130.167 2.73722C130.007 2.48864 129.79 2.29806 129.515 2.16548C129.24 2.02959 128.93 1.96165 128.586 1.96165C128.221 1.96165 127.903 2.03622 127.631 2.18537C127.359 2.33452 127.15 2.54498 127.005 2.81676C126.859 3.08854 126.786 3.40672 126.786 3.77131H125.319C125.319 3.15151 125.462 2.60961 125.747 2.1456C126.032 1.68158 126.423 1.32197 126.92 1.06676C127.417 0.808238 127.982 0.678977 128.615 0.678977C129.255 0.678977 129.819 0.806581 130.306 1.06179C130.796 1.31368 131.179 1.65838 131.454 2.09588C131.729 2.53007 131.867 3.0206 131.867 3.56747C131.867 3.94531 131.796 4.31487 131.653 4.67614C131.514 5.0374 131.27 5.4401 130.922 5.88423C130.574 6.32505 130.09 6.86032 129.471 7.49006L127.447 9.60795V9.68253H132.031V11H125.329Z" fill="#588AEF"/>
</svg>
