<svg width="38" height="40" viewBox="0 0 38 40" fill="none" xmlns="http://www.w3.org/2000/svg">
<path d="M3.74797 39.25C4.65805 39.6389 5.66422 39.7446 6.63523 39.5531C7.60623 39.3616 8.49699 38.882 9.1913 38.1767L18.9996 28.4217L28.808 38.1767C29.2653 38.6407 29.8101 39.0094 30.4109 39.2614C31.0117 39.5134 31.6565 39.6438 32.308 39.645C32.9776 39.6431 33.6403 39.5088 34.258 39.25C35.1755 38.8787 35.9597 38.2393 36.5083 37.4154C37.0569 36.5916 37.3443 35.6214 37.333 34.6317V8.33333C37.3303 6.12401 36.4515 4.00593 34.8893 2.4437C33.327 0.88147 31.209 0.00264643 28.9996 0L8.99964 0C6.79031 0.00264643 4.67224 0.88147 3.11001 2.4437C1.54778 4.00593 0.668952 6.12401 0.666306 8.33333V34.6317C0.655551 35.6222 0.943933 36.5929 1.49375 37.4169C2.04356 38.2408 2.82921 38.8797 3.74797 39.25Z" fill="#F44C4C"/>
</svg>
