<svg width="40" height="40" viewBox="0 0 40 40" fill="none" xmlns="http://www.w3.org/2000/svg">
<path d="M37.4437 14.1088L25.8937 2.55714C24.3291 0.997119 22.2098 0.121094 20.0004 0.121094C17.791 0.121094 15.6717 0.997119 14.1071 2.55714L2.55707 14.1088C0.994816 15.6715 0.117188 17.7908 0.117188 20.0005C0.117187 22.2102 0.994816 24.3294 2.55707 25.8921L14.1071 37.4438C15.6715 39.0042 17.7908 39.8805 20.0004 39.8805C22.21 39.8805 24.3294 39.0042 25.8937 37.4438L37.4437 25.8921C39.006 24.3294 39.8836 22.2102 39.8836 20.0005C39.8836 17.7908 39.006 15.6715 37.4437 14.1088V14.1088Z" fill="#F44CCF"/>
</svg>
