<svg width="36" height="36" viewBox="0 0 36 36" fill="none" xmlns="http://www.w3.org/2000/svg">
<g clip-path="url(#clip0_256_47546)">
<path d="M22.119 9.4275C22.4033 9.14926 22.7864 8.99531 23.1842 8.99953C23.5819 9.00375 23.9617 9.16579 24.24 9.45L27 12.2715V1.5C27 1.10218 27.158 0.720644 27.4393 0.43934C27.7206 0.158035 28.1022 0 28.5 0C28.8978 0 29.2794 0.158035 29.5607 0.43934C29.842 0.720644 30 1.10218 30 1.5V12.2715L32.76 9.45C33.0385 9.16556 33.4185 9.00338 33.8166 8.99917C34.2146 8.99495 34.5981 9.14902 34.8825 9.4275C35.1669 9.70598 35.3291 10.086 35.3333 10.4841C35.3376 10.8821 35.1835 11.2656 34.905 11.55L31.1325 15.405C30.4398 16.101 29.4999 16.4947 28.518 16.5C28.5086 16.5023 28.4989 16.5023 28.4895 16.5C28.0046 16.5001 27.5244 16.4045 27.0765 16.2187C26.6286 16.0328 26.2219 15.7604 25.8795 15.417L22.095 11.55C21.9571 11.4091 21.8483 11.2424 21.7749 11.0595C21.7015 10.8765 21.6648 10.6809 21.667 10.4838C21.6693 10.2866 21.7103 10.0919 21.7879 9.91065C21.8654 9.7294 21.9779 9.56522 22.119 9.4275ZM18 23.133C19.1932 23.1343 20.3382 22.6617 21.183 21.819L24.6945 18.3075C24.3594 18.0792 24.0457 17.8212 23.757 17.5365L19.95 13.65C19.1155 12.797 18.6539 11.6475 18.6668 10.4542C18.6798 9.26095 19.1662 8.12169 20.019 7.287C20.73 6.591 22.188 5.3145 23.13 4.5H7.5C6.21483 4.50351 4.95225 4.83813 3.83404 5.47159C2.71583 6.10506 1.77972 7.01598 1.116 8.1165L14.817 21.819C15.6618 22.6617 16.8067 23.1343 18 23.133ZM33.2775 17.502C32.5769 18.2234 31.719 18.773 30.7708 19.1079C29.8226 19.4428 28.8098 19.5539 27.8115 19.4325L23.304 23.94C21.8959 25.344 19.9885 26.1324 18 26.1324C16.0115 26.1324 14.1041 25.344 12.696 23.94L0.069 11.313C0.048 11.55 0 11.7645 0 12V28.5C0.00238179 30.4884 0.793323 32.3947 2.19933 33.8007C3.60534 35.2067 5.51161 35.9976 7.5 36H28.5C30.4884 35.9976 32.3947 35.2067 33.8007 33.8007C35.2067 32.3947 35.9976 30.4884 36 28.5V14.718L33.2775 17.502Z" fill="#299E9E"/>
</g>
<defs>
<clipPath id="clip0_256_47546">
<rect width="36" height="36" fill="white"/>
</clipPath>
</defs>
</svg>
