<svg width="160" height="15" viewBox="0 0 160 15" fill="none" xmlns="http://www.w3.org/2000/svg">
<path d="M0.232955 11V0.818182H6.37784V1.91193H1.46591V5.35227H6.05966V6.44602H1.46591V9.90625H6.45739V11H0.232955ZM8.30105 11V3.36364H9.43457V4.55682H9.53401C9.6931 4.14915 9.94996 3.83262 10.3046 3.60724C10.6592 3.37855 11.0851 3.2642 11.5823 3.2642C12.0861 3.2642 12.5054 3.37855 12.8401 3.60724C13.1782 3.83262 13.4417 4.14915 13.6306 4.55682H13.7101C13.9057 4.16241 14.199 3.84919 14.5901 3.61719C14.9812 3.38187 15.4502 3.2642 15.9971 3.2642C16.6798 3.2642 17.2383 3.47798 17.6725 3.90554C18.1067 4.32978 18.3238 4.991 18.3238 5.8892V11H17.1505V5.8892C17.1505 5.32576 16.9964 4.92306 16.6881 4.68111C16.3799 4.43916 16.017 4.31818 15.5993 4.31818C15.0624 4.31818 14.6465 4.48059 14.3515 4.8054C14.0565 5.12689 13.909 5.53456 13.909 6.02841V11H12.7158V5.76989C12.7158 5.3357 12.575 4.98603 12.2932 4.72088C12.0115 4.45241 11.6486 4.31818 11.2045 4.31818C10.8995 4.31818 10.6145 4.39938 10.3493 4.56179C10.0875 4.72419 9.87539 4.94957 9.71298 5.23793C9.55389 5.52296 9.47435 5.85275 9.47435 6.22727V11H8.30105ZM22.5762 11.179C22.0923 11.179 21.6531 11.0878 21.2587 10.9055C20.8643 10.7199 20.5511 10.4531 20.3191 10.1051C20.0871 9.75379 19.9711 9.32955 19.9711 8.83239C19.9711 8.39489 20.0572 8.04025 20.2296 7.76847C20.4019 7.49337 20.6323 7.27794 20.9206 7.12216C21.209 6.96638 21.5272 6.85038 21.8752 6.77415C22.2265 6.6946 22.5795 6.63163 22.9341 6.58523C23.3981 6.52557 23.7743 6.48082 24.0627 6.45099C24.3544 6.41785 24.5665 6.36316 24.699 6.28693C24.8349 6.2107 24.9029 6.07812 24.9029 5.8892V5.84943C24.9029 5.3589 24.7686 4.97775 24.5002 4.70597C24.235 4.43419 23.8323 4.2983 23.2921 4.2983C22.732 4.2983 22.2928 4.42093 21.9746 4.66619C21.6564 4.91146 21.4327 5.1733 21.3035 5.4517L20.1898 5.05398C20.3887 4.58996 20.6538 4.22869 20.9853 3.97017C21.32 3.70833 21.6846 3.52604 22.079 3.4233C22.4767 3.31723 22.8678 3.2642 23.2523 3.2642C23.4976 3.2642 23.7793 3.29403 24.0975 3.35369C24.419 3.41004 24.7289 3.5277 25.0272 3.70668C25.3288 3.88565 25.579 4.15578 25.7779 4.51705C25.9767 4.87831 26.0762 5.36222 26.0762 5.96875V11H24.9029V9.96591H24.8432C24.7637 10.1316 24.6311 10.3089 24.4455 10.4979C24.2599 10.6868 24.013 10.8475 23.7047 10.9801C23.3965 11.1127 23.0203 11.179 22.5762 11.179ZM22.7552 10.125C23.2192 10.125 23.6103 10.0339 23.9285 9.85156C24.2499 9.66927 24.4919 9.43395 24.6543 9.1456C24.82 8.85724 24.9029 8.55398 24.9029 8.2358V7.16193C24.8532 7.22159 24.7438 7.27628 24.5748 7.32599C24.409 7.3724 24.2168 7.41383 23.9981 7.45028C23.7826 7.48343 23.5722 7.51326 23.3667 7.53977C23.1645 7.56297 23.0004 7.58286 22.8745 7.59943C22.5695 7.6392 22.2845 7.70384 22.0194 7.79332C21.7575 7.8795 21.5454 8.01042 21.383 8.18608C21.2239 8.35843 21.1444 8.59375 21.1444 8.89205C21.1444 9.29972 21.2952 9.60795 21.5968 9.81676C21.9017 10.0223 22.2878 10.125 22.7552 10.125ZM28.0777 11V3.36364H29.251V11H28.0777ZM28.6743 2.09091C28.4456 2.09091 28.2484 2.01302 28.0827 1.85724C27.9203 1.70147 27.8391 1.5142 27.8391 1.29545C27.8391 1.0767 27.9203 0.889441 28.0827 0.733664C28.2484 0.577888 28.4456 0.5 28.6743 0.5C28.903 0.5 29.0985 0.577888 29.2609 0.733664C29.4267 0.889441 29.5095 1.0767 29.5095 1.29545C29.5095 1.5142 29.4267 1.70147 29.2609 1.85724C29.0985 2.01302 28.903 2.09091 28.6743 2.09091ZM32.4333 0.818182V11H31.26V0.818182H32.4333ZM35.2973 11.0795C35.0521 11.0795 34.8416 10.9917 34.6659 10.8161C34.4903 10.6404 34.4024 10.4299 34.4024 10.1847C34.4024 9.93939 34.4903 9.72893 34.6659 9.55327C34.8416 9.3776 35.0521 9.28977 35.2973 9.28977C35.5426 9.28977 35.7531 9.3776 35.9287 9.55327C36.1044 9.72893 36.1922 9.93939 36.1922 10.1847C36.1922 10.3471 36.1508 10.4962 36.0679 10.6321C35.9884 10.768 35.8807 10.8774 35.7448 10.9602C35.6122 11.0398 35.4631 11.0795 35.2973 11.0795ZM35.2973 5.41193C35.0521 5.41193 34.8416 5.3241 34.6659 5.14844C34.4903 4.97277 34.4024 4.76231 34.4024 4.51705C34.4024 4.27178 34.4903 4.06132 34.6659 3.88565C34.8416 3.70999 35.0521 3.62216 35.2973 3.62216C35.5426 3.62216 35.7531 3.70999 35.9287 3.88565C36.1044 4.06132 36.1922 4.27178 36.1922 4.51705C36.1922 4.67945 36.1508 4.8286 36.0679 4.96449C35.9884 5.10038 35.8807 5.20975 35.7448 5.29261C35.6122 5.37216 35.4631 5.41193 35.2973 5.41193ZM159.402 9.60795L159.323 10.1449C159.266 10.5227 159.18 10.9271 159.064 11.358C158.951 11.7888 158.834 12.1948 158.711 12.576C158.588 12.9571 158.487 13.2604 158.408 13.4858H157.513C157.556 13.2737 157.612 12.9936 157.682 12.6456C157.751 12.2976 157.821 11.9081 157.891 11.4773C157.964 11.0497 158.023 10.6122 158.07 10.1648L158.129 9.60795H159.402ZM158.686 5.41193C158.441 5.41193 158.23 5.3241 158.055 5.14844C157.879 4.97277 157.791 4.76231 157.791 4.51705C157.791 4.27178 157.879 4.06132 158.055 3.88565C158.23 3.70999 158.441 3.62216 158.686 3.62216C158.931 3.62216 159.142 3.70999 159.318 3.88565C159.493 4.06132 159.581 4.27178 159.581 4.51705C159.581 4.67945 159.54 4.8286 159.457 4.96449C159.377 5.10038 159.269 5.20975 159.134 5.29261C159.001 5.37216 158.852 5.41193 158.686 5.41193Z" fill="#000E1F"/>
<path d="M41.8806 13.8636V3.36364H43.3323V4.60156H43.4566C43.5428 4.44247 43.6671 4.25852 43.8295 4.04972C43.9919 3.84091 44.2173 3.65862 44.5056 3.50284C44.794 3.34375 45.1751 3.2642 45.6491 3.2642C46.2656 3.2642 46.8158 3.41998 47.2997 3.73153C47.7836 4.04309 48.1631 4.49219 48.4381 5.07884C48.7166 5.66548 48.8558 6.37145 48.8558 7.19673C48.8558 8.02202 48.7182 8.72964 48.4431 9.3196C48.168 9.90625 47.7902 10.3587 47.3096 10.6768C46.829 10.9917 46.2805 11.1491 45.664 11.1491C45.2 11.1491 44.8205 11.0713 44.5255 10.9155C44.2338 10.7597 44.0051 10.5774 43.8394 10.3686C43.6737 10.1598 43.5461 9.9742 43.4566 9.81179H43.3671V13.8636H41.8806ZM43.3373 7.18182C43.3373 7.71875 43.4152 8.18939 43.571 8.59375C43.7267 8.99811 43.9521 9.31463 44.2471 9.54332C44.5421 9.7687 44.9033 9.88139 45.3309 9.88139C45.775 9.88139 46.1462 9.76373 46.4445 9.52841C46.7428 9.28977 46.9682 8.96662 47.1207 8.55895C47.2765 8.15128 47.3543 7.69223 47.3543 7.18182C47.3543 6.67803 47.2781 6.22562 47.1256 5.82457C46.9765 5.42353 46.7511 5.10701 46.4495 4.875C46.1512 4.64299 45.7783 4.52699 45.3309 4.52699C44.9 4.52699 44.5354 4.63802 44.2372 4.86009C43.9422 5.08215 43.7184 5.39205 43.566 5.78977C43.4135 6.1875 43.3373 6.65151 43.3373 7.18182ZM53.6724 11.1541C52.9201 11.1541 52.2721 10.9934 51.7285 10.6719C51.1883 10.3471 50.7707 9.89134 50.4757 9.30469C50.184 8.71473 50.0382 8.02367 50.0382 7.23153C50.0382 6.44934 50.184 5.75994 50.4757 5.16335C50.7707 4.56676 51.1817 4.10109 51.7087 3.76633C52.239 3.43158 52.8588 3.2642 53.568 3.2642C53.9989 3.2642 54.4165 3.33546 54.8209 3.47798C55.2252 3.6205 55.5882 3.84422 55.9097 4.14915C56.2311 4.45407 56.4847 4.85014 56.6703 5.33736C56.8559 5.82126 56.9487 6.40956 56.9487 7.10227V7.62926H50.8784V6.51562H55.492C55.492 6.12453 55.4125 5.77817 55.2534 5.47656C55.0943 5.17164 54.8706 4.93134 54.5822 4.75568C54.2972 4.58002 53.9624 4.49219 53.578 4.49219C53.1604 4.49219 52.7958 4.59493 52.4842 4.80043C52.176 5.0026 51.9374 5.26776 51.7683 5.59588C51.6026 5.92069 51.5197 6.27367 51.5197 6.65483V7.52486C51.5197 8.03527 51.6092 8.46946 51.7882 8.82741C51.9705 9.18537 52.224 9.45881 52.5489 9.64773C52.8737 9.83333 53.2532 9.92614 53.6874 9.92614C53.9691 9.92614 54.2259 9.88636 54.4579 9.80682C54.69 9.72396 54.8905 9.60133 55.0595 9.43892C55.2285 9.27652 55.3578 9.07599 55.4473 8.83736L56.8543 9.09091C56.7416 9.50521 56.5394 9.86813 56.2477 10.1797C55.9594 10.4879 55.5964 10.7282 55.1589 10.9006C54.7248 11.0696 54.2293 11.1541 53.6724 11.1541ZM62.0227 3.36364V4.55682H57.8515V3.36364H62.0227ZM58.9701 1.53409H60.4566V8.75781C60.4566 9.04616 60.4997 9.26326 60.5859 9.40909C60.6721 9.55161 60.7831 9.64938 60.919 9.70241C61.0582 9.75213 61.209 9.77699 61.3714 9.77699C61.4907 9.77699 61.5951 9.7687 61.6846 9.75213C61.7741 9.73556 61.8437 9.7223 61.8934 9.71236L62.1619 10.9403C62.0757 10.9735 61.9531 11.0066 61.794 11.0398C61.6349 11.0762 61.436 11.0961 61.1974 11.0994C60.8063 11.1061 60.4417 11.0365 60.1036 10.8906C59.7656 10.7448 59.4921 10.5194 59.2833 10.2145C59.0745 9.90956 58.9701 9.52675 58.9701 9.06605V1.53409ZM66.7362 11.1541C65.9838 11.1541 65.3359 10.9934 64.7923 10.6719C64.252 10.3471 63.8344 9.89134 63.5395 9.30469C63.2478 8.71473 63.102 8.02367 63.102 7.23153C63.102 6.44934 63.2478 5.75994 63.5395 5.16335C63.8344 4.56676 64.2454 4.10109 64.7724 3.76633C65.3027 3.43158 65.9225 3.2642 66.6318 3.2642C67.0627 3.2642 67.4803 3.33546 67.8846 3.47798C68.289 3.6205 68.6519 3.84422 68.9734 4.14915C69.2949 4.45407 69.5484 4.85014 69.7341 5.33736C69.9197 5.82126 70.0125 6.40956 70.0125 7.10227V7.62926H63.9422V6.51562H68.5558C68.5558 6.12453 68.4762 5.77817 68.3172 5.47656C68.1581 5.17164 67.9343 4.93134 67.646 4.75568C67.3609 4.58002 67.0262 4.49219 66.6417 4.49219C66.2241 4.49219 65.8595 4.59493 65.548 4.80043C65.2397 5.0026 65.0011 5.26776 64.8321 5.59588C64.6663 5.92069 64.5835 6.27367 64.5835 6.65483V7.52486C64.5835 8.03527 64.673 8.46946 64.852 8.82741C65.0342 9.18537 65.2878 9.45881 65.6126 9.64773C65.9374 9.83333 66.3169 9.92614 66.7511 9.92614C67.0328 9.92614 67.2897 9.88636 67.5217 9.80682C67.7537 9.72396 67.9542 9.60133 68.1233 9.43892C68.2923 9.27652 68.4216 9.07599 68.511 8.83736L69.918 9.09091C69.8053 9.50521 69.6031 9.86813 69.3115 10.1797C69.0231 10.4879 68.6602 10.7282 68.2227 10.9006C67.7885 11.0696 67.293 11.1541 66.7362 11.1541ZM71.5218 11V3.36364H72.9586V4.5767H73.0381C73.1773 4.16572 73.4226 3.84257 73.7739 3.60724C74.1286 3.36861 74.5296 3.24929 74.977 3.24929C75.0698 3.24929 75.1792 3.2526 75.3052 3.25923C75.4344 3.26586 75.5355 3.27415 75.6084 3.28409V4.70597C75.5488 4.68939 75.4427 4.67116 75.2903 4.65128C75.1378 4.62808 74.9853 4.61648 74.8329 4.61648C74.4815 4.61648 74.1683 4.69105 73.8932 4.8402C73.6215 4.98603 73.406 5.18987 73.2469 5.4517C73.0878 5.71023 73.0083 6.00521 73.0083 6.33665V11H71.5218ZM82.8848 13.7692C81.8573 13.7692 80.9459 13.6283 80.1504 13.3466C79.3583 13.0682 78.6904 12.6572 78.1469 12.1136C77.6033 11.5734 77.1907 10.9105 76.909 10.125C76.6272 9.33949 76.4864 8.44294 76.4864 7.43537C76.4864 6.45431 76.6289 5.57268 76.9139 4.79048C77.199 4.00829 77.6133 3.34209 78.1568 2.7919C78.7037 2.2384 79.3682 1.81581 80.1504 1.52415C80.9326 1.23248 81.8209 1.08665 82.8152 1.08665C83.7664 1.08665 84.605 1.2358 85.3308 1.53409C86.0567 1.83239 86.6665 2.24171 87.1604 2.76207C87.6575 3.28243 88.0321 3.87902 88.284 4.55185C88.5358 5.22467 88.6618 5.93561 88.6618 6.68466C88.6618 7.20833 88.6287 7.72041 88.5624 8.22088C88.4961 8.71804 88.3734 9.1688 88.1945 9.57315C88.0188 9.9742 87.7636 10.2957 87.4288 10.5376C87.0974 10.7763 86.6665 10.9006 86.1362 10.9105C85.8545 10.9205 85.5811 10.8873 85.3159 10.8111C85.0508 10.7348 84.8254 10.6122 84.6398 10.4432C84.4542 10.2708 84.3415 10.0521 84.3017 9.78693H84.2421C84.1625 9.98248 84.0299 10.1648 83.8443 10.3338C83.6587 10.4995 83.4217 10.6321 83.1334 10.7315C82.8483 10.8277 82.5169 10.8674 82.1391 10.8509C81.7215 10.8343 81.3453 10.7398 81.0105 10.5675C80.6758 10.3951 80.3891 10.1565 80.1504 9.85156C79.9151 9.54664 79.7345 9.18537 79.6085 8.76776C79.4826 8.35014 79.4196 7.88613 79.4196 7.37571C79.4196 6.88518 79.4909 6.44602 79.6334 6.05824C79.7759 5.66714 79.9698 5.33073 80.2151 5.04901C80.4636 4.76397 80.7487 4.53859 81.0702 4.37287C81.3917 4.20715 81.7314 4.10275 82.0894 4.05966C82.4374 4.01989 82.7572 4.02983 83.0489 4.08949C83.3405 4.14915 83.5825 4.24029 83.7747 4.36293C83.9703 4.48556 84.0929 4.61979 84.1426 4.76562H84.2073V4.20881H85.4303V8.82244C85.4303 9.08428 85.4982 9.30634 85.6341 9.48864C85.7733 9.67093 85.9705 9.76207 86.2257 9.76207C86.5273 9.76207 86.7626 9.65104 86.9317 9.42898C87.104 9.20691 87.225 8.86553 87.2946 8.40483C87.3675 7.94413 87.404 7.35417 87.404 6.63494C87.404 6.13116 87.336 5.6572 87.2001 5.21307C87.0676 4.76562 86.8704 4.36127 86.6085 4C86.35 3.63542 86.0318 3.32221 85.654 3.06037C85.2761 2.79853 84.8453 2.59635 84.3614 2.45383C83.8808 2.31132 83.3488 2.24006 82.7655 2.24006C81.9733 2.24006 81.269 2.36269 80.6526 2.60795C80.0361 2.8499 79.5157 3.19957 79.0915 3.65696C78.6706 4.11435 78.3507 4.66288 78.132 5.30256C77.9165 5.93892 77.8088 6.65317 77.8088 7.44531C77.8088 8.2706 77.9198 9.00308 78.1419 9.64276C78.364 10.2791 78.6921 10.8161 79.1263 11.2536C79.5605 11.6911 80.0974 12.0225 80.7371 12.2479C81.3768 12.4766 82.1142 12.5909 82.9494 12.5909C83.3207 12.5909 83.6852 12.5578 84.0432 12.4915C84.4011 12.4285 84.7193 12.3556 84.9977 12.2727C85.2795 12.1932 85.4899 12.1286 85.6291 12.0788L85.9771 13.1676C85.7716 13.2637 85.4982 13.3582 85.1568 13.451C84.8188 13.5438 84.4509 13.62 84.0531 13.6797C83.6587 13.7393 83.2693 13.7692 82.8848 13.7692ZM82.4274 9.63281C82.8583 9.63281 83.2046 9.54664 83.4665 9.37429C83.7316 9.20194 83.9222 8.94508 84.0382 8.60369C84.1575 8.259 84.2172 7.82812 84.2172 7.31108C84.2139 6.80729 84.1492 6.40625 84.0233 6.10795C83.9007 5.80634 83.7084 5.59091 83.4466 5.46165C83.1881 5.32907 82.855 5.26278 82.4473 5.26278C82.0728 5.26278 81.7529 5.35393 81.4878 5.53622C81.226 5.71851 81.0254 5.96544 80.8862 6.27699C80.7503 6.58854 80.6807 6.9349 80.6774 7.31605C80.6807 7.71709 80.7371 8.09493 80.8465 8.44957C80.9591 8.8009 81.1414 9.08594 81.3933 9.30469C81.6485 9.52344 81.9932 9.63281 82.4274 9.63281ZM93.3654 14.0227C92.7588 14.0227 92.2368 13.9432 91.7993 13.7841C91.3651 13.625 91.0105 13.4145 90.7354 13.1527C90.4603 12.8909 90.2548 12.6042 90.1189 12.2926L91.3966 11.7656C91.4861 11.9115 91.6054 12.0656 91.7546 12.228C91.907 12.3937 92.1125 12.5346 92.3711 12.6506C92.6329 12.7666 92.9693 12.8246 93.3803 12.8246C93.9437 12.8246 94.4094 12.687 94.7773 12.4119C95.1452 12.1402 95.3291 11.706 95.3291 11.1094V9.60795H95.2347C95.1452 9.77036 95.0159 9.95099 94.8469 10.1499C94.6812 10.3487 94.4525 10.5211 94.1608 10.6669C93.8692 10.8127 93.4897 10.8857 93.0223 10.8857C92.4191 10.8857 91.8755 10.7448 91.3916 10.4631C90.9111 10.178 90.5299 9.75876 90.2482 9.20526C89.9698 8.64844 89.8306 7.96401 89.8306 7.15199C89.8306 6.33996 89.9681 5.64394 90.2432 5.06392C90.5216 4.4839 90.9028 4.03977 91.3867 3.73153C91.8706 3.41998 92.4191 3.2642 93.0323 3.2642C93.5062 3.2642 93.889 3.34375 94.1807 3.50284C94.4724 3.65862 94.6994 3.84091 94.8618 4.04972C95.0275 4.25852 95.1551 4.44247 95.2446 4.60156H95.354V3.36364H96.8107V11.169C96.8107 11.8253 96.6582 12.3639 96.3533 12.7848C96.0484 13.2057 95.6357 13.5173 95.1154 13.7195C94.5983 13.9216 94.015 14.0227 93.3654 14.0227ZM93.3505 9.6527C93.778 9.6527 94.1393 9.55327 94.4343 9.3544C94.7326 9.15223 94.9579 8.86387 95.1104 8.48935C95.2662 8.11151 95.3441 7.65909 95.3441 7.1321C95.3441 6.61837 95.2678 6.16596 95.1154 5.77486C94.9629 5.38376 94.7392 5.07884 94.4442 4.86009C94.1492 4.63802 93.7846 4.52699 93.3505 4.52699C92.903 4.52699 92.5301 4.64299 92.2318 4.875C91.9336 5.10369 91.7082 5.41525 91.5557 5.80966C91.4066 6.20407 91.332 6.64489 91.332 7.1321C91.332 7.63258 91.4082 8.07173 91.5607 8.44957C91.7131 8.82741 91.9385 9.1224 92.2368 9.33452C92.5384 9.54664 92.9096 9.6527 93.3505 9.6527ZM98.6643 11V3.36364H100.091V4.60653H100.186C100.345 4.18561 100.605 3.85748 100.966 3.62216C101.327 3.38352 101.76 3.2642 102.264 3.2642C102.774 3.2642 103.202 3.38352 103.546 3.62216C103.894 3.8608 104.151 4.18892 104.317 4.60653H104.397C104.579 4.19886 104.869 3.87405 105.267 3.6321C105.664 3.38684 106.138 3.2642 106.688 3.2642C107.381 3.2642 107.946 3.4813 108.384 3.91548C108.825 4.34967 109.045 5.00426 109.045 5.87926V11H107.558V6.01847C107.558 5.50142 107.418 5.12689 107.136 4.89489C106.854 4.66288 106.518 4.54688 106.127 4.54688C105.643 4.54688 105.267 4.69602 104.998 4.99432C104.73 5.2893 104.595 5.6688 104.595 6.13281V11H103.114V5.92401C103.114 5.50971 102.985 5.17661 102.726 4.92472C102.468 4.67282 102.131 4.54688 101.717 4.54688C101.435 4.54688 101.175 4.62145 100.936 4.7706C100.701 4.91643 100.51 5.12026 100.365 5.3821C100.222 5.64394 100.151 5.94721 100.151 6.2919V11H98.6643ZM113.12 11.169C112.636 11.169 112.198 11.0795 111.807 10.9006C111.416 10.7183 111.106 10.4548 110.877 10.1101C110.652 9.76539 110.539 9.3428 110.539 8.84233C110.539 8.41146 110.622 8.05682 110.788 7.77841C110.954 7.5 111.177 7.27959 111.459 7.11719C111.741 6.95478 112.056 6.83215 112.404 6.74929C112.752 6.66643 113.106 6.60346 113.468 6.56037C113.925 6.50734 114.296 6.46425 114.581 6.43111C114.866 6.39465 115.073 6.33665 115.203 6.2571C115.332 6.17756 115.397 6.0483 115.397 5.86932V5.83452C115.397 5.40033 115.274 5.06392 115.029 4.82528C114.787 4.58665 114.426 4.46733 113.945 4.46733C113.444 4.46733 113.05 4.57836 112.762 4.80043C112.477 5.01918 112.279 5.26278 112.17 5.53125L110.773 5.21307C110.939 4.74905 111.181 4.37453 111.499 4.08949C111.82 3.80114 112.19 3.59233 112.608 3.46307C113.025 3.33049 113.464 3.2642 113.925 3.2642C114.23 3.2642 114.553 3.30066 114.894 3.37358C115.239 3.44318 115.561 3.57244 115.859 3.76136C116.161 3.95028 116.408 4.22041 116.6 4.57173C116.792 4.91974 116.888 5.37216 116.888 5.92898V11H115.436V9.95597H115.377C115.281 10.1482 115.136 10.3371 114.944 10.5227C114.752 10.7083 114.505 10.8625 114.203 10.9851C113.902 11.1077 113.541 11.169 113.12 11.169ZM113.443 9.97585C113.854 9.97585 114.205 9.89465 114.497 9.73224C114.792 9.56984 115.015 9.35772 115.168 9.09588C115.324 8.83073 115.402 8.54735 115.402 8.24574V7.26136C115.349 7.31439 115.246 7.36411 115.093 7.41051C114.944 7.4536 114.774 7.49171 114.581 7.52486C114.389 7.55469 114.202 7.58286 114.019 7.60938C113.837 7.63258 113.685 7.65246 113.562 7.66903C113.274 7.70549 113.01 7.76681 112.772 7.85298C112.536 7.93916 112.347 8.06345 112.205 8.22585C112.066 8.38494 111.996 8.59706 111.996 8.86222C111.996 9.23011 112.132 9.50852 112.404 9.69744C112.676 9.88305 113.022 9.97585 113.443 9.97585ZM118.728 11V3.36364H120.215V11H118.728ZM119.479 2.18537C119.22 2.18537 118.998 2.09919 118.813 1.92685C118.63 1.75118 118.539 1.54238 118.539 1.30043C118.539 1.05516 118.63 0.846354 118.813 0.674005C118.998 0.498342 119.22 0.410511 119.479 0.410511C119.737 0.410511 119.958 0.498342 120.14 0.674005C120.326 0.846354 120.418 1.05516 120.418 1.30043C120.418 1.54238 120.326 1.75118 120.14 1.92685C119.958 2.09919 119.737 2.18537 119.479 2.18537ZM123.561 0.818182V11H122.074V0.818182H123.561ZM126.4 11.0945C126.128 11.0945 125.895 10.9983 125.699 10.8061C125.504 10.6106 125.406 10.3752 125.406 10.1001C125.406 9.82836 125.504 9.59635 125.699 9.40412C125.895 9.20857 126.128 9.1108 126.4 9.1108C126.672 9.1108 126.906 9.20857 127.101 9.40412C127.297 9.59635 127.394 9.82836 127.394 10.1001C127.394 10.2824 127.348 10.4498 127.255 10.6023C127.166 10.7514 127.046 10.8707 126.897 10.9602C126.748 11.0497 126.582 11.0945 126.4 11.0945ZM132.462 11.1541C131.723 11.1541 131.087 10.9867 130.553 10.652C130.023 10.3139 129.615 9.84825 129.33 9.25497C129.045 8.66169 128.902 7.98224 128.902 7.21662C128.902 6.44105 129.048 5.75663 129.34 5.16335C129.632 4.56676 130.043 4.10109 130.573 3.76633C131.103 3.43158 131.728 3.2642 132.447 3.2642C133.027 3.2642 133.544 3.37192 133.998 3.58736C134.452 3.79948 134.819 4.09777 135.097 4.48224C135.379 4.86671 135.546 5.31581 135.599 5.82955H134.152C134.073 5.47159 133.891 5.16335 133.606 4.90483C133.324 4.64631 132.946 4.51705 132.472 4.51705C132.058 4.51705 131.695 4.62642 131.383 4.84517C131.075 5.06061 130.835 5.36884 130.662 5.76989C130.49 6.16761 130.404 6.63826 130.404 7.18182C130.404 7.73864 130.488 8.21922 130.657 8.62358C130.827 9.02794 131.065 9.34115 131.373 9.56321C131.685 9.78527 132.051 9.89631 132.472 9.89631C132.754 9.89631 133.009 9.84493 133.238 9.74219C133.47 9.63613 133.664 9.48532 133.819 9.28977C133.978 9.09422 134.09 8.8589 134.152 8.58381H135.599C135.546 9.07765 135.385 9.51847 135.117 9.90625C134.849 10.294 134.489 10.599 134.038 10.821C133.591 11.0431 133.065 11.1541 132.462 11.1541ZM140.266 11.1541C139.55 11.1541 138.925 10.9901 138.391 10.6619C137.858 10.3338 137.443 9.87476 137.148 9.2848C136.853 8.69484 136.706 8.00544 136.706 7.21662C136.706 6.42448 136.853 5.73177 137.148 5.13849C137.443 4.54522 137.858 4.08452 138.391 3.75639C138.925 3.42827 139.55 3.2642 140.266 3.2642C140.981 3.2642 141.606 3.42827 142.14 3.75639C142.673 4.08452 143.088 4.54522 143.383 5.13849C143.678 5.73177 143.825 6.42448 143.825 7.21662C143.825 8.00544 143.678 8.69484 143.383 9.2848C143.088 9.87476 142.673 10.3338 142.14 10.6619C141.606 10.9901 140.981 11.1541 140.266 11.1541ZM140.27 9.90625C140.735 9.90625 141.119 9.78362 141.424 9.53835C141.729 9.29309 141.954 8.96662 142.1 8.55895C142.249 8.15128 142.324 7.70218 142.324 7.21165C142.324 6.72443 142.249 6.27699 142.1 5.86932C141.954 5.45833 141.729 5.12855 141.424 4.87997C141.119 4.63139 140.735 4.5071 140.27 4.5071C139.803 4.5071 139.415 4.63139 139.107 4.87997C138.802 5.12855 138.575 5.45833 138.426 5.86932C138.28 6.27699 138.207 6.72443 138.207 7.21165C138.207 7.70218 138.28 8.15128 138.426 8.55895C138.575 8.96662 138.802 9.29309 139.107 9.53835C139.415 9.78362 139.803 9.90625 140.27 9.90625ZM145.344 11V3.36364H146.771V4.60653H146.866C147.025 4.18561 147.285 3.85748 147.646 3.62216C148.008 3.38352 148.44 3.2642 148.944 3.2642C149.454 3.2642 149.882 3.38352 150.227 3.62216C150.575 3.8608 150.831 4.18892 150.997 4.60653H151.077C151.259 4.19886 151.549 3.87405 151.947 3.6321C152.344 3.38684 152.818 3.2642 153.369 3.2642C154.061 3.2642 154.626 3.4813 155.064 3.91548C155.505 4.34967 155.725 5.00426 155.725 5.87926V11H154.239V6.01847C154.239 5.50142 154.098 5.12689 153.816 4.89489C153.534 4.66288 153.198 4.54688 152.807 4.54688C152.323 4.54688 151.947 4.69602 151.678 4.99432C151.41 5.2893 151.276 5.6688 151.276 6.13281V11H149.794V5.92401C149.794 5.50971 149.665 5.17661 149.406 4.92472C149.148 4.67282 148.811 4.54688 148.397 4.54688C148.115 4.54688 147.855 4.62145 147.616 4.7706C147.381 4.91643 147.191 5.12026 147.045 5.3821C146.902 5.64394 146.831 5.94721 146.831 6.2919V11H145.344Z" fill="#588AEF"/>
</svg>
