<svg width="80" height="65" viewBox="0 0 80 65" fill="none" xmlns="http://www.w3.org/2000/svg">
<path d="M39.8268 44.9599C47.9275 44.9599 54.4944 38.477 54.4944 30.48C54.4944 22.4829 47.9275 16 39.8268 16C31.7261 16 25.1592 22.4829 25.1592 30.48C25.1592 38.477 31.7261 44.9599 39.8268 44.9599Z" fill="url(#paint0_radial_165_47115)"/>
<g style="mix-blend-mode:soft-light">
<path d="M39.8268 44.9599C47.9275 44.9599 54.4944 38.477 54.4944 30.48C54.4944 22.4829 47.9275 16 39.8268 16C31.7261 16 25.1592 22.4829 25.1592 30.48C25.1592 38.477 31.7261 44.9599 39.8268 44.9599Z" fill="url(#paint1_radial_165_47115)"/>
</g>
<g style="mix-blend-mode:soft-light">
<path d="M39.8268 44.9599C47.9275 44.9599 54.4944 38.477 54.4944 30.48C54.4944 22.4829 47.9275 16 39.8268 16C31.7261 16 25.1592 22.4829 25.1592 30.48C25.1592 38.477 31.7261 44.9599 39.8268 44.9599Z" fill="url(#paint2_radial_165_47115)"/>
</g>
<g style="mix-blend-mode:overlay">
<path d="M39.8268 44.9599C47.9275 44.9599 54.4944 38.477 54.4944 30.48C54.4944 22.4829 47.9275 16 39.8268 16C31.7261 16 25.1592 22.4829 25.1592 30.48C25.1592 38.477 31.7261 44.9599 39.8268 44.9599Z" fill="url(#paint3_radial_165_47115)" fill-opacity="0.7"/>
</g>
<mask id="mask0_165_47115" style="mask-type:alpha" maskUnits="userSpaceOnUse" x="25" y="16" width="30" height="29">
<path d="M39.8268 44.9599C47.9275 44.9599 54.4944 38.477 54.4944 30.48C54.4944 22.4829 47.9275 16 39.8268 16C31.7261 16 25.1592 22.4829 25.1592 30.48C25.1592 38.477 31.7261 44.9599 39.8268 44.9599Z" fill="white"/>
</mask>
<g mask="url(#mask0_165_47115)">
<g filter="url(#filter0_f_165_47115)">
<path d="M25.0755 30.0669C25.0915 29.8611 25.16 29.8405 25.18 30.0494C25.2023 30.2816 25.1591 30.7482 25.1695 31.0296C25.197 31.7749 25.3127 32.4229 25.432 32.95C25.8165 34.6486 26.3489 35.7431 26.8454 36.6704C28.4777 39.7187 30.2657 41.2623 32.01 42.4256C34.5668 44.1308 37.1444 44.6732 39.724 44.7883C39.7891 44.7912 39.7999 45.2096 39.7359 45.2641C39.6205 45.3623 39.4775 45.2648 39.3594 45.2607C39.02 45.249 38.6807 45.226 38.3414 45.1912C37.3353 45.088 36.3293 44.8778 35.3253 44.5396C32.5954 43.6202 29.6521 42.0458 27.0815 37.6114C26.9198 37.3325 26.7594 37.0388 26.6013 36.7232C26.4748 36.4708 26.3495 36.2062 26.2265 35.9233C25.8218 34.9926 24.8786 32.6101 25.0755 30.0669ZM39.7258 45.2686C39.6638 45.2705 39.648 44.8804 39.7072 44.7994C39.7966 44.677 39.9307 44.7778 40.025 44.772C40.4165 44.7478 40.808 44.712 41.1994 44.6635C42.2725 44.5304 43.3449 44.3033 44.4148 43.9535C47.0686 43.0859 49.9216 41.7633 52.4233 37.6996C52.5825 37.441 52.7403 37.1667 52.8961 36.8717C53.3693 35.9754 54.5553 33.5962 54.4182 30.6386C54.4066 30.3892 54.4835 30.2399 54.5179 30.4538C54.5617 30.7261 54.5439 31.2939 54.5319 31.596C54.4932 32.5635 54.3427 33.3818 54.184 34.0425C53.6811 36.1367 52.975 37.3509 52.3283 38.3648C50.2266 41.6601 47.9438 42.9886 45.7244 43.9432C43.7339 44.7994 41.7281 45.2076 39.7258 45.2686Z" fill="#401C02"/>
</g>
<g filter="url(#filter1_f_165_47115)">
<path d="M25.0755 30.0669C25.0915 29.8611 25.16 29.8405 25.18 30.0494C25.2023 30.2816 25.1591 30.7482 25.1695 31.0296C25.197 31.7749 25.3127 32.4229 25.432 32.95C25.8165 34.6486 26.3489 35.7431 26.8454 36.6704C28.4777 39.7187 30.2657 41.2623 32.01 42.4256C34.5668 44.1308 37.1444 44.6732 39.724 44.7883C39.7891 44.7912 39.7999 45.2096 39.7359 45.2641C39.6205 45.3623 39.4775 45.2648 39.3594 45.2607C39.02 45.249 38.6807 45.226 38.3414 45.1912C37.3353 45.088 36.3293 44.8778 35.3253 44.5396C32.5954 43.6202 29.6521 42.0458 27.0815 37.6114C26.9198 37.3325 26.7594 37.0388 26.6013 36.7232C26.4748 36.4708 26.3495 36.2062 26.2265 35.9233C25.8218 34.9926 24.8786 32.6101 25.0755 30.0669ZM39.7258 45.2686C39.6638 45.2705 39.648 44.8804 39.7072 44.7994C39.7966 44.677 39.9307 44.7778 40.025 44.772C40.4165 44.7478 40.808 44.712 41.1994 44.6635C42.2725 44.5304 43.3449 44.3033 44.4148 43.9535C47.0686 43.0859 49.9216 41.7633 52.4233 37.6996C52.5825 37.441 52.7403 37.1667 52.8961 36.8717C53.3693 35.9754 54.5553 33.5962 54.4182 30.6386C54.4066 30.3892 54.4835 30.2399 54.5179 30.4538C54.5617 30.7261 54.5439 31.2939 54.5319 31.596C54.4932 32.5635 54.3427 33.3818 54.184 34.0425C53.6811 36.1367 52.975 37.3509 52.3283 38.3648C50.2266 41.6601 47.9438 42.9886 45.7244 43.9432C43.7339 44.7994 41.7281 45.2076 39.7258 45.2686Z" fill="#401C02"/>
</g>
</g>
<g opacity="0.7">
<g filter="url(#filter2_f_165_47115)">
<ellipse cx="47.3567" cy="32.33" rx="3.0408" ry="3.0019" fill="#E66200"/>
</g>
<g filter="url(#filter3_f_165_47115)">
<ellipse cx="32.3352" cy="32.33" rx="3.0408" ry="3.0019" fill="#E66200"/>
</g>
</g>
<mask id="mask1_165_47115" style="mask-type:alpha" maskUnits="userSpaceOnUse" x="25" y="16" width="30" height="29">
<path d="M39.8268 44.9599C47.9275 44.9599 54.4944 38.477 54.4944 30.48C54.4944 22.4829 47.9275 16 39.8268 16C31.7261 16 25.1592 22.4829 25.1592 30.48C25.1592 38.477 31.7261 44.9599 39.8268 44.9599Z" fill="url(#paint4_radial_165_47115)"/>
</mask>
<g mask="url(#mask1_165_47115)">
<g filter="url(#filter4_f_165_47115)">
<path d="M40.239 41.5221C40.2633 41.486 40.2937 41.456 40.3241 41.426C40.4762 41.2819 40.6769 41.1858 40.8897 41.1738C40.9627 41.1678 41.0357 41.1738 41.1087 41.1858L42.4953 41.426C42.1608 41.366 41.9054 41.1318 41.802 40.8376C41.7533 40.6995 41.7412 40.5554 41.7716 40.4053C41.8324 40.0751 42.0696 39.823 42.3676 39.7209C42.5074 39.6729 42.6534 39.6609 42.8115 39.6849L47.5977 40.5194C47.7072 40.5374 47.7619 40.3993 47.6768 40.3393L46.7828 39.7209C46.3145 39.3967 46.2111 38.7243 46.5639 38.226C46.9166 37.7277 47.5916 37.5836 48.0599 37.9078L50.1946 39.3787C51.7028 40.1712 52.6029 41.8643 52.2927 43.6174L52.1468 44.4279C51.7758 46.4872 49.854 47.9101 47.7741 47.724C47.7194 47.724 47.6707 47.718 47.616 47.712L42.3493 46.7934C41.8628 46.7093 41.5101 46.241 41.5891 45.7667C41.6378 45.4846 41.8202 45.2624 42.0574 45.1363C42.2277 45.0463 42.4223 45.0103 42.623 45.0463L41.6864 44.8722C41.431 44.8301 41.2242 44.6801 41.0904 44.4819C40.9749 44.3018 40.9201 44.0797 40.9566 43.8515C40.9992 43.6234 41.1269 43.4313 41.3033 43.2992C41.4918 43.1551 41.7412 43.089 41.9905 43.1311L40.7985 42.9209C40.312 42.8369 39.9836 42.3746 40.0748 41.8943C40.093 41.7562 40.1539 41.6301 40.239 41.5221Z" fill="#A43C00"/>
<mask id="mask2_165_47115" style="mask-type:alpha" maskUnits="userSpaceOnUse" x="40" y="37" width="13" height="11">
<path d="M40.239 41.5221C40.2633 41.486 40.2937 41.456 40.3241 41.426C40.4762 41.2819 40.6769 41.1858 40.8897 41.1738C40.9627 41.1678 41.0357 41.1738 41.1087 41.1858L42.4953 41.426C42.1608 41.366 41.9054 41.1318 41.802 40.8376C41.7533 40.6995 41.7412 40.5554 41.7716 40.4053C41.8324 40.0751 42.0696 39.823 42.3676 39.7209C42.5074 39.6729 42.6534 39.6609 42.8115 39.6849L47.5977 40.5194C47.7072 40.5374 47.7619 40.3993 47.6768 40.3393L46.7828 39.7209C46.3145 39.3967 46.2111 38.7243 46.5639 38.226C46.9166 37.7277 47.5916 37.5836 48.0599 37.9078L50.1946 39.3787C51.7028 40.1712 52.6029 41.8643 52.2927 43.6174L52.1468 44.4279C51.7758 46.4872 49.854 47.9101 47.7741 47.724C47.7194 47.724 47.6707 47.718 47.616 47.712L42.3493 46.7934C41.8628 46.7093 41.5101 46.241 41.5891 45.7667C41.6378 45.4846 41.8202 45.2624 42.0574 45.1363C42.2277 45.0463 42.4223 45.0103 42.623 45.0463L41.6864 44.8722C41.431 44.8301 41.2242 44.6801 41.0904 44.4819C40.9749 44.3018 40.9201 44.0797 40.9566 43.8515C40.9992 43.6234 41.1269 43.4313 41.3033 43.2992C41.4918 43.1551 41.7412 43.089 41.9905 43.1311L40.7985 42.9209C40.312 42.8369 39.9836 42.3746 40.0748 41.8943C40.093 41.7562 40.1539 41.6301 40.239 41.5221Z" fill="url(#paint5_radial_165_47115)"/>
</mask>
<g mask="url(#mask2_165_47115)">
<g style="mix-blend-mode:color-burn" filter="url(#filter5_f_165_47115)">
<path d="M50.5751 39.6599C50.0278 39.3057 49.4865 38.9515 48.9453 38.5913L48.1364 38.0449C48.0695 37.9969 48.0087 37.9609 47.9357 37.9249C47.8627 37.8948 47.7898 37.8708 47.7168 37.8588C47.5647 37.8348 47.4066 37.8468 47.2607 37.8888C46.9627 37.9729 46.7133 38.195 46.5795 38.4712C46.4457 38.7474 46.4336 39.0776 46.5613 39.3598C46.6221 39.4978 46.7194 39.6239 46.8471 39.714C46.9748 39.81 47.1025 39.9121 47.2303 40.0142C47.4857 40.2183 47.735 40.4224 47.9844 40.6326C47.7107 40.4524 47.4431 40.2723 47.1755 40.0802C47.0417 39.9842 46.914 39.8941 46.7802 39.798C46.6403 39.696 46.5309 39.5579 46.4579 39.4078C46.3119 39.0956 46.3241 38.7294 46.4761 38.4232C46.6221 38.117 46.9019 37.8768 47.2363 37.7808C47.4005 37.7327 47.5769 37.7207 47.7472 37.7507C47.8323 37.7688 47.9175 37.7928 47.9905 37.8288C48.0695 37.8648 48.1425 37.9128 48.2094 37.9609L49.0061 38.5192C49.523 38.8975 50.0521 39.2757 50.5751 39.6599Z" fill="#A43C00"/>
<path d="M48.1608 40.6672C47.6013 40.5831 47.0418 40.493 46.4883 40.403L44.8159 40.1268C44.2564 40.0368 43.703 39.9407 43.1435 39.8446L42.9367 39.8086C42.8637 39.7966 42.8029 39.7846 42.736 39.7846C42.6022 39.7846 42.4684 39.8086 42.3528 39.8687C42.2373 39.9287 42.1278 40.0067 42.0488 40.1148C41.9697 40.2169 41.915 40.343 41.8906 40.469C41.8663 40.5951 41.8785 40.7272 41.915 40.8533C41.9515 40.9794 42.0244 41.0934 42.1157 41.1895C42.2069 41.2855 42.3224 41.3576 42.4441 41.3996C42.5049 41.4236 42.5718 41.4296 42.6448 41.4477L42.8515 41.4837C43.405 41.5857 43.9645 41.6758 44.5179 41.7839L46.1842 42.0901C46.7377 42.1981 47.2972 42.3002 47.8506 42.4083C47.2911 42.3242 46.7316 42.2341 46.1782 42.1441L44.5057 41.8679C43.9462 41.7779 43.3928 41.6818 42.8333 41.5857L42.6265 41.5497C42.5596 41.5377 42.4806 41.5257 42.4137 41.5017C42.2738 41.4537 42.14 41.3756 42.0366 41.2675C41.9332 41.1595 41.8481 41.0334 41.8055 40.8893C41.7629 40.7452 41.7508 40.5951 41.7751 40.445C41.7994 40.3009 41.8663 40.1568 41.9575 40.0428C42.0488 39.9227 42.1704 39.8326 42.3042 39.7666C42.438 39.7005 42.59 39.6705 42.7421 39.6765C42.815 39.6765 42.8941 39.6945 42.961 39.7005L43.1678 39.7366C43.7212 39.8386 44.2807 39.9287 44.8341 40.0368L46.5005 40.343C47.0478 40.457 47.6073 40.5591 48.1608 40.6672Z" fill="#A43C00"/>
<path d="M46.1476 43.9109C45.8921 43.8749 45.6367 43.8329 45.3874 43.7968C45.1319 43.7548 44.8765 43.7188 44.6272 43.6768L43.1068 43.4306L42.3466 43.2985L42.158 43.2685L42.0607 43.2505C42.0303 43.2445 41.9999 43.2445 41.9695 43.2385C41.8479 43.2265 41.7263 43.2445 41.6168 43.2865C41.3918 43.3706 41.2032 43.5507 41.1242 43.7728C41.0816 43.8869 41.0634 44.001 41.0755 44.121C41.0816 44.2411 41.1181 44.3552 41.1789 44.4573C41.2945 44.6674 41.5012 44.8235 41.7384 44.8715L42.4986 45.0036L43.2588 45.1357L44.019 45.2738L45.5333 45.5559C46.0381 45.652 46.5429 45.7481 47.0476 45.8441C46.5368 45.7661 46.032 45.688 45.5212 45.604L44.0008 45.3578L43.2406 45.2317L42.4682 45.1237L41.708 44.9916C41.4404 44.9376 41.1972 44.7634 41.0634 44.5293C40.9296 44.2951 40.9052 44.001 41.0025 43.7428C41.0999 43.4906 41.3127 43.2805 41.5681 43.1904C41.6958 43.1424 41.8357 43.1244 41.9695 43.1364C42.006 43.1364 42.0364 43.1424 42.0729 43.1484L42.1702 43.1664L42.3587 43.2025L43.1189 43.3405L44.6333 43.6227C44.8887 43.6708 45.138 43.7188 45.3935 43.7668C45.6428 43.8088 45.8982 43.8629 46.1476 43.9109Z" fill="#A43C00"/>
<path d="M46.4576 42.169C45.8981 42.0849 45.3386 41.9949 44.7852 41.9048L43.1128 41.6286C42.5533 41.5386 41.9998 41.4425 41.4403 41.3464L41.2336 41.3104C41.1606 41.2984 41.0998 41.2864 41.0329 41.2864C40.8991 41.2864 40.7653 41.3104 40.6497 41.3705C40.5342 41.4305 40.4247 41.5085 40.3456 41.6166C40.2666 41.7187 40.2118 41.8448 40.1875 41.9708C40.1632 42.1029 40.1754 42.235 40.2118 42.3611C40.2483 42.4872 40.3213 42.6012 40.4125 42.6973C40.5038 42.7934 40.6193 42.8654 40.7409 42.9074C40.8018 42.9314 40.8687 42.9375 40.9416 42.9555L41.1484 42.9915C41.7018 43.0936 42.2613 43.1836 42.8148 43.2917L44.4811 43.5979C45.0346 43.7059 45.5941 43.808 46.1475 43.9161C45.588 43.832 45.0285 43.742 44.475 43.6519L42.8026 43.3757C42.2431 43.2857 41.6897 43.1896 41.1302 43.0936L40.9234 43.0575C40.8565 43.0455 40.7774 43.0335 40.7105 43.0095C40.5707 42.9615 40.4369 42.8834 40.3335 42.7753C40.2301 42.6673 40.1449 42.5412 40.1024 42.3971C40.0598 42.253 40.0476 42.1029 40.072 41.9528C40.0963 41.8087 40.1632 41.6646 40.2544 41.5506C40.3456 41.4305 40.4673 41.3404 40.6011 41.2744C40.7349 41.2084 40.8869 41.1783 41.0389 41.1843C41.1119 41.1843 41.191 41.2024 41.2579 41.2084L41.4647 41.2444C42.0181 41.3464 42.5776 41.4365 43.131 41.5446L44.7974 41.8508C45.3508 41.9588 45.9042 42.0609 46.4576 42.169Z" fill="#A43C00"/>
</g>
</g>
<path d="M39.4026 41.5221C39.3783 41.486 39.3479 41.456 39.3175 41.426C39.1654 41.2819 38.9647 41.1858 38.7519 41.1738C38.6789 41.1678 38.6059 41.1738 38.5329 41.1858L37.1463 41.426C37.4808 41.366 37.7362 41.1318 37.8396 40.8376C37.8883 40.6995 37.9004 40.5554 37.87 40.4053C37.8092 40.0751 37.572 39.823 37.274 39.7209C37.1342 39.6729 36.9882 39.6609 36.8301 39.6849L32.0439 40.5194C31.9344 40.5374 31.8797 40.3993 31.9648 40.3393L32.8588 39.7209C33.3271 39.3967 33.4305 38.7243 33.0777 38.226C32.725 37.7277 32.05 37.5836 31.5817 37.9078L29.447 39.3787C27.9388 40.1712 27.0387 41.8643 27.3489 43.6174L27.4948 44.4279C27.8658 46.4872 29.7876 47.9101 31.8675 47.724C31.9222 47.724 31.9709 47.718 32.0256 47.712L37.2923 46.7934C37.7788 46.7093 38.1315 46.241 38.0525 45.7667C38.0038 45.4846 37.8214 45.2624 37.5842 45.1363C37.4139 45.0463 37.2193 45.0103 37.0186 45.0463L37.9552 44.8722C38.2106 44.8301 38.4174 44.6801 38.5512 44.4819C38.6667 44.3018 38.7215 44.0797 38.685 43.8515C38.6424 43.6234 38.5147 43.4313 38.3383 43.2992C38.1498 43.1551 37.9004 43.089 37.6511 43.1311L38.8431 42.9209C39.3296 42.8369 39.658 42.3746 39.5668 41.8943C39.5486 41.7562 39.4877 41.6301 39.4026 41.5221Z" fill="#A43C00"/>
<mask id="mask3_165_47115" style="mask-type:alpha" maskUnits="userSpaceOnUse" x="27" y="37" width="13" height="11">
<path d="M39.4026 41.5221C39.3783 41.486 39.3479 41.456 39.3175 41.426C39.1654 41.2819 38.9647 41.1858 38.7519 41.1738C38.6789 41.1678 38.6059 41.1738 38.5329 41.1858L37.1463 41.426C37.4808 41.366 37.7362 41.1318 37.8396 40.8376C37.8883 40.6995 37.9004 40.5554 37.87 40.4053C37.8092 40.0751 37.572 39.823 37.274 39.7209C37.1342 39.6729 36.9882 39.6609 36.8301 39.6849L32.0439 40.5194C31.9344 40.5374 31.8797 40.3993 31.9648 40.3393L32.8588 39.7209C33.3271 39.3967 33.4305 38.7243 33.0777 38.226C32.725 37.7277 32.05 37.5836 31.5817 37.9078L29.447 39.3787C27.9388 40.1712 27.0387 41.8643 27.3489 43.6174L27.4948 44.4279C27.8658 46.4872 29.7876 47.9101 31.8675 47.724C31.9222 47.724 31.9709 47.718 32.0256 47.712L37.2923 46.7934C37.7788 46.7093 38.1315 46.241 38.0525 45.7667C38.0038 45.4846 37.8214 45.2624 37.5842 45.1363C37.4139 45.0463 37.2193 45.0103 37.0186 45.0463L37.9552 44.8722C38.2106 44.8301 38.4174 44.6801 38.5512 44.4819C38.6667 44.3018 38.7215 44.0797 38.685 43.8515C38.6424 43.6234 38.5147 43.4313 38.3383 43.2992C38.1498 43.1551 37.9004 43.089 37.6511 43.1311L38.8431 42.9209C39.3296 42.8369 39.658 42.3746 39.5668 41.8943C39.5486 41.7562 39.4877 41.6301 39.4026 41.5221Z" fill="url(#paint6_radial_165_47115)"/>
</mask>
<g mask="url(#mask3_165_47115)">
<g style="mix-blend-mode:color-burn" filter="url(#filter6_f_165_47115)">
<path d="M29.067 39.6599C29.6143 39.3057 30.1556 38.9515 30.6968 38.5913L31.5057 38.0449C31.5726 37.9969 31.6334 37.9609 31.7064 37.9249C31.7793 37.8948 31.8523 37.8708 31.9253 37.8588C32.0773 37.8348 32.2355 37.8468 32.3814 37.8888C32.6794 37.9729 32.9288 38.195 33.0626 38.4712C33.1964 38.7474 33.2085 39.0776 33.0808 39.3598C33.02 39.4978 32.9227 39.6239 32.795 39.714C32.6673 39.81 32.5395 39.9121 32.4118 40.0142C32.1564 40.2183 31.9071 40.4224 31.6577 40.6326C31.9314 40.4524 32.199 40.2723 32.4666 40.0802C32.6004 39.9842 32.7281 39.8941 32.8619 39.798C33.0017 39.696 33.1112 39.5579 33.1842 39.4078C33.3302 39.0956 33.318 38.7294 33.1659 38.4232C33.02 38.117 32.7402 37.8768 32.4057 37.7808C32.2415 37.7327 32.0652 37.7207 31.8949 37.7507C31.8098 37.7688 31.7246 37.7928 31.6516 37.8288C31.5726 37.8648 31.4996 37.9128 31.4327 37.9609L30.636 38.5192C30.1191 38.8975 29.59 39.2757 29.067 39.6599Z" fill="#A43C00"/>
<path d="M31.4813 40.6672C32.0408 40.5831 32.6003 40.493 33.1538 40.403L34.8262 40.1268C35.3857 40.0368 35.9391 39.9407 36.4986 39.8446L36.7054 39.8086C36.7784 39.7966 36.8392 39.7846 36.9061 39.7846C37.0399 39.7846 37.1737 39.8086 37.2892 39.8687C37.4048 39.9287 37.5143 40.0067 37.5933 40.1148C37.6724 40.2169 37.7271 40.343 37.7514 40.469C37.7758 40.5951 37.7636 40.7272 37.7271 40.8533C37.6906 40.9794 37.6177 41.0934 37.5264 41.1895C37.4352 41.2855 37.3197 41.3576 37.198 41.3996C37.1372 41.4236 37.0703 41.4296 36.9973 41.4477L36.7906 41.4837C36.2371 41.5857 35.6776 41.6758 35.1242 41.7839L33.4578 42.0901C32.9044 42.1981 32.3449 42.3002 31.7915 42.4083C32.351 42.3242 32.9105 42.2341 33.4639 42.1441L35.1364 41.8679C35.6959 41.7779 36.2493 41.6818 36.8088 41.5857L37.0156 41.5497C37.0825 41.5377 37.1615 41.5257 37.2284 41.5017C37.3683 41.4537 37.5021 41.3756 37.6055 41.2675C37.7089 41.1595 37.794 41.0334 37.8366 40.8893C37.8792 40.7452 37.8913 40.5951 37.867 40.445C37.8427 40.3009 37.7758 40.1568 37.6845 40.0428C37.5933 39.9227 37.4717 39.8326 37.3379 39.7666C37.2041 39.7005 37.0521 39.6705 36.9 39.6765C36.827 39.6765 36.748 39.6945 36.6811 39.7005L36.4743 39.7366C35.9209 39.8386 35.3614 39.9287 34.808 40.0368L33.1416 40.343C32.5943 40.457 32.0347 40.5591 31.4813 40.6672Z" fill="#A43C00"/>
<path d="M33.494 43.9109C33.7495 43.8749 34.0049 43.8329 34.2542 43.7968C34.5097 43.7548 34.7651 43.7188 35.0144 43.6768L36.5348 43.4306L37.295 43.2985L37.4836 43.2685L37.5809 43.2505C37.6113 43.2445 37.6417 43.2445 37.6721 43.2385C37.7937 43.2265 37.9153 43.2445 38.0248 43.2865C38.2498 43.3706 38.4384 43.5507 38.5174 43.7728C38.56 43.8869 38.5782 44.001 38.5661 44.121C38.56 44.2411 38.5235 44.3552 38.4627 44.4573C38.3471 44.6674 38.1404 44.8235 37.9032 44.8715L37.143 45.0036L36.3828 45.1357L35.6226 45.2738L34.1083 45.5559C33.6035 45.652 33.0987 45.7481 32.594 45.8441C33.1048 45.7661 33.6096 45.688 34.1204 45.604L35.6408 45.3578L36.401 45.2317L37.1734 45.1237L37.9336 44.9916C38.2012 44.9376 38.4444 44.7634 38.5782 44.5293C38.712 44.2951 38.7364 44.001 38.6391 43.7428C38.5418 43.4906 38.3289 43.2805 38.0735 43.1904C37.9458 43.1424 37.8059 43.1244 37.6721 43.1364C37.6356 43.1364 37.6052 43.1424 37.5687 43.1484L37.4714 43.1664L37.2829 43.2025L36.5227 43.3405L35.0083 43.6227C34.7529 43.6708 34.5036 43.7188 34.2481 43.7668C33.9988 43.8088 33.7434 43.8629 33.494 43.9109Z" fill="#A43C00"/>
<path d="M33.184 42.169C33.7435 42.0849 34.303 41.9949 34.8564 41.9048L36.5288 41.6286C37.0883 41.5386 37.6418 41.4425 38.2013 41.3464L38.408 41.3104C38.481 41.2984 38.5418 41.2864 38.6087 41.2864C38.7425 41.2864 38.8763 41.3104 38.9919 41.3705C39.1074 41.4305 39.2169 41.5085 39.296 41.6166C39.375 41.7187 39.4298 41.8448 39.4541 41.9708C39.4784 42.1029 39.4662 42.235 39.4298 42.3611C39.3933 42.4872 39.3203 42.6012 39.2291 42.6973C39.1378 42.7934 39.0223 42.8654 38.9007 42.9074C38.8398 42.9314 38.7729 42.9375 38.7 42.9555L38.4932 42.9915C37.9398 43.0936 37.3803 43.1836 36.8268 43.2917L35.1605 43.5979C34.6071 43.7059 34.0475 43.808 33.4941 43.9161C34.0536 43.832 34.6131 43.742 35.1666 43.6519L36.839 43.3757C37.3985 43.2857 37.9519 43.1896 38.5114 43.0936L38.7182 43.0575C38.7851 43.0455 38.8642 43.0335 38.9311 43.0095C39.0709 42.9615 39.2047 42.8834 39.3081 42.7753C39.4115 42.6673 39.4967 42.5412 39.5392 42.3971C39.5818 42.253 39.594 42.1029 39.5696 41.9528C39.5453 41.8087 39.4784 41.6646 39.3872 41.5506C39.296 41.4305 39.1743 41.3404 39.0405 41.2744C38.9067 41.2084 38.7547 41.1783 38.6027 41.1843C38.5297 41.1843 38.4506 41.2024 38.3837 41.2084L38.1769 41.2444C37.6235 41.3464 37.064 41.4365 36.5106 41.5446L34.8442 41.8508C34.2908 41.9588 33.7374 42.0609 33.184 42.169Z" fill="#A43C00"/>
</g>
</g>
</g>
</g>
<path d="M40.239 41.5221C40.2633 41.486 40.2937 41.456 40.3241 41.426C40.4762 41.2819 40.6769 41.1858 40.8897 41.1738C40.9627 41.1678 41.0357 41.1738 41.1087 41.1858L42.4953 41.426C42.1608 41.366 41.9054 41.1318 41.802 40.8376C41.7533 40.6995 41.7412 40.5554 41.7716 40.4053C41.8324 40.0751 42.0696 39.823 42.3676 39.7209C42.5074 39.6729 42.6534 39.6609 42.8115 39.6849L47.5977 40.5194C47.7072 40.5374 47.7619 40.3993 47.6768 40.3393L46.7828 39.7209C46.3145 39.3967 46.2111 38.7243 46.5639 38.226C46.9166 37.7277 47.5916 37.5836 48.0599 37.9078L50.1946 39.3787C51.7028 40.1712 52.6029 41.8643 52.2927 43.6174L52.1468 44.4279C51.7758 46.4872 49.854 47.9101 47.7741 47.724C47.7194 47.724 47.6707 47.718 47.616 47.712L42.3493 46.7934C41.8628 46.7093 41.5101 46.241 41.5891 45.7667C41.6378 45.4846 41.8202 45.2624 42.0574 45.1363C42.2277 45.0463 42.4223 45.0103 42.623 45.0463L41.6864 44.8722C41.431 44.8301 41.2242 44.6801 41.0904 44.4819C40.9749 44.3018 40.9201 44.0797 40.9566 43.8515C40.9992 43.6234 41.1269 43.4313 41.3033 43.2992C41.4918 43.1551 41.7412 43.089 41.9905 43.1311L40.7985 42.9209C40.312 42.8369 39.9836 42.3746 40.0748 41.8943C40.093 41.7562 40.1539 41.6301 40.239 41.5221Z" fill="url(#paint7_radial_165_47115)"/>
<g style="mix-blend-mode:color-burn">
<mask id="mask4_165_47115" style="mask-type:alpha" maskUnits="userSpaceOnUse" x="40" y="37" width="13" height="11">
<path d="M40.239 41.5221C40.2633 41.486 40.2937 41.456 40.3241 41.426C40.4762 41.2819 40.6769 41.1858 40.8897 41.1738C40.9627 41.1678 41.0357 41.1738 41.1087 41.1858L42.4953 41.426C42.1608 41.366 41.9054 41.1318 41.802 40.8376C41.7533 40.6995 41.7412 40.5554 41.7716 40.4053C41.8324 40.0751 42.0696 39.823 42.3676 39.7209C42.5074 39.6729 42.6534 39.6609 42.8115 39.6849L47.5977 40.5194C47.7072 40.5374 47.7619 40.3993 47.6768 40.3393L46.7828 39.7209C46.3145 39.3967 46.2111 38.7243 46.5639 38.226C46.9166 37.7277 47.5916 37.5836 48.0599 37.9078L50.1946 39.3787C51.7028 40.1712 52.6029 41.8643 52.2927 43.6174L52.1468 44.4279C51.7758 46.4872 49.854 47.9101 47.7741 47.724C47.7194 47.724 47.6707 47.718 47.616 47.712L42.3493 46.7934C41.8628 46.7093 41.5101 46.241 41.5891 45.7667C41.6378 45.4846 41.8202 45.2624 42.0574 45.1363C42.2277 45.0463 42.4223 45.0103 42.623 45.0463L41.6864 44.8722C41.431 44.8301 41.2242 44.6801 41.0904 44.4819C40.9749 44.3018 40.9201 44.0797 40.9566 43.8515C40.9992 43.6234 41.1269 43.4313 41.3033 43.2992C41.4918 43.1551 41.7412 43.089 41.9905 43.1311L40.7985 42.9209C40.312 42.8369 39.9836 42.3746 40.0748 41.8943C40.093 41.7562 40.1539 41.6301 40.239 41.5221Z" fill="url(#paint8_radial_165_47115)"/>
</mask>
<g mask="url(#mask4_165_47115)">
<g style="mix-blend-mode:color-burn" filter="url(#filter7_f_165_47115)">
<path d="M50.5751 39.6599C50.0278 39.3057 49.4865 38.9515 48.9453 38.5913L48.1364 38.0449C48.0695 37.9969 48.0087 37.9609 47.9357 37.9249C47.8627 37.8948 47.7898 37.8708 47.7168 37.8588C47.5647 37.8348 47.4066 37.8468 47.2607 37.8888C46.9627 37.9729 46.7133 38.195 46.5795 38.4712C46.4457 38.7474 46.4336 39.0776 46.5613 39.3598C46.6221 39.4978 46.7194 39.6239 46.8471 39.714C46.9748 39.81 47.1025 39.9121 47.2303 40.0142C47.4857 40.2183 47.735 40.4224 47.9844 40.6326C47.7107 40.4524 47.4431 40.2723 47.1755 40.0802C47.0417 39.9842 46.914 39.8941 46.7802 39.798C46.6403 39.696 46.5309 39.5579 46.4579 39.4078C46.3119 39.0956 46.3241 38.7294 46.4761 38.4232C46.6221 38.117 46.9019 37.8768 47.2363 37.7808C47.4005 37.7327 47.5769 37.7207 47.7472 37.7507C47.8323 37.7688 47.9175 37.7928 47.9905 37.8288C48.0695 37.8648 48.1425 37.9128 48.2094 37.9609L49.0061 38.5192C49.523 38.8975 50.0521 39.2757 50.5751 39.6599Z" fill="#633617"/>
<path d="M48.1608 40.6672C47.6013 40.5831 47.0418 40.493 46.4883 40.403L44.8159 40.1268C44.2564 40.0368 43.703 39.9407 43.1435 39.8446L42.9367 39.8086C42.8637 39.7966 42.8029 39.7846 42.736 39.7846C42.6022 39.7846 42.4684 39.8086 42.3528 39.8687C42.2373 39.9287 42.1278 40.0067 42.0488 40.1148C41.9697 40.2169 41.915 40.343 41.8906 40.469C41.8663 40.5951 41.8785 40.7272 41.915 40.8533C41.9515 40.9794 42.0244 41.0934 42.1157 41.1895C42.2069 41.2855 42.3224 41.3576 42.4441 41.3996C42.5049 41.4236 42.5718 41.4296 42.6448 41.4477L42.8515 41.4837C43.405 41.5857 43.9645 41.6758 44.5179 41.7839L46.1842 42.0901C46.7377 42.1981 47.2972 42.3002 47.8506 42.4083C47.2911 42.3242 46.7316 42.2341 46.1782 42.1441L44.5057 41.8679C43.9462 41.7779 43.3928 41.6818 42.8333 41.5857L42.6265 41.5497C42.5596 41.5377 42.4806 41.5257 42.4137 41.5017C42.2738 41.4537 42.14 41.3756 42.0366 41.2675C41.9332 41.1595 41.8481 41.0334 41.8055 40.8893C41.7629 40.7452 41.7508 40.5951 41.7751 40.445C41.7994 40.3009 41.8663 40.1568 41.9575 40.0428C42.0488 39.9227 42.1704 39.8326 42.3042 39.7666C42.438 39.7005 42.59 39.6705 42.7421 39.6765C42.815 39.6765 42.8941 39.6945 42.961 39.7005L43.1678 39.7366C43.7212 39.8386 44.2807 39.9287 44.8341 40.0368L46.5005 40.343C47.0478 40.457 47.6073 40.5591 48.1608 40.6672Z" fill="#42210B"/>
<path d="M46.1476 43.9109C45.8921 43.8749 45.6367 43.8329 45.3874 43.7968C45.1319 43.7548 44.8765 43.7188 44.6272 43.6768L43.1068 43.4306L42.3466 43.2985L42.158 43.2685L42.0607 43.2505C42.0303 43.2445 41.9999 43.2445 41.9695 43.2385C41.8479 43.2265 41.7263 43.2445 41.6168 43.2865C41.3918 43.3706 41.2032 43.5507 41.1242 43.7728C41.0816 43.8869 41.0634 44.001 41.0755 44.121C41.0816 44.2411 41.1181 44.3552 41.1789 44.4573C41.2945 44.6674 41.5012 44.8235 41.7384 44.8715L42.4986 45.0036L43.2588 45.1357L44.019 45.2738L45.5333 45.5559C46.0381 45.652 46.5429 45.7481 47.0476 45.8441C46.5368 45.7661 46.032 45.688 45.5212 45.604L44.0008 45.3578L43.2406 45.2317L42.4682 45.1237L41.708 44.9916C41.4404 44.9376 41.1972 44.7634 41.0634 44.5293C40.9296 44.2951 40.9052 44.001 41.0025 43.7428C41.0999 43.4906 41.3127 43.2805 41.5681 43.1904C41.6958 43.1424 41.8357 43.1244 41.9695 43.1364C42.006 43.1364 42.0364 43.1424 42.0729 43.1484L42.1702 43.1664L42.3587 43.2025L43.1189 43.3405L44.6333 43.6227C44.8887 43.6708 45.138 43.7188 45.3935 43.7668C45.6428 43.8088 45.8982 43.8629 46.1476 43.9109Z" fill="#42210B"/>
<path d="M45.6002 45.6156C45.138 45.5555 44.6819 45.4895 44.2197 45.4114L43.5325 45.3034L42.8452 45.1893L42.6749 45.1593C42.6202 45.1473 42.5655 45.1473 42.5107 45.1473C42.4013 45.1473 42.2918 45.1713 42.1945 45.2193C41.9938 45.3034 41.8296 45.4715 41.7505 45.6696C41.6715 45.8677 41.6715 46.0959 41.7566 46.294C41.8418 46.4921 42.006 46.6542 42.2067 46.7383C42.2553 46.7563 42.3101 46.7743 42.3648 46.7863C42.4195 46.7983 42.4803 46.8043 42.5351 46.8163L42.8756 46.8764L43.5629 46.9964C44.019 47.0745 44.4751 47.1646 44.9312 47.2486C45.8435 47.4167 46.7557 47.5848 47.6679 47.7649C46.7496 47.6268 45.8313 47.4768 44.913 47.3267C44.4569 47.2486 43.9947 47.1766 43.5385 47.0985L42.8513 46.9844L42.5107 46.9244C42.4499 46.9124 42.3952 46.9064 42.3405 46.8944C42.2796 46.8824 42.2188 46.8644 42.1641 46.8403C41.933 46.7443 41.7505 46.5642 41.6532 46.336C41.5559 46.1139 41.5499 45.8497 41.6472 45.6216C41.7384 45.3934 41.9269 45.2073 42.1519 45.1113C42.2675 45.0632 42.3891 45.0332 42.5107 45.0332C42.5716 45.0332 42.6324 45.0392 42.6932 45.0452L42.8635 45.0752L43.5507 45.2013L44.2318 45.3334C44.688 45.4235 45.1441 45.5135 45.6002 45.6156Z" fill="#42210B"/>
<path d="M46.4576 42.169C45.8981 42.0849 45.3386 41.9949 44.7852 41.9048L43.1128 41.6286C42.5533 41.5386 41.9998 41.4425 41.4403 41.3464L41.2336 41.3104C41.1606 41.2984 41.0998 41.2864 41.0329 41.2864C40.8991 41.2864 40.7653 41.3104 40.6497 41.3705C40.5342 41.4305 40.4247 41.5085 40.3456 41.6166C40.2666 41.7187 40.2118 41.8448 40.1875 41.9708C40.1632 42.1029 40.1754 42.235 40.2118 42.3611C40.2483 42.4872 40.3213 42.6012 40.4125 42.6973C40.5038 42.7934 40.6193 42.8654 40.7409 42.9074C40.8018 42.9314 40.8687 42.9375 40.9416 42.9555L41.1484 42.9915C41.7018 43.0936 42.2613 43.1836 42.8148 43.2917L44.4811 43.5979C45.0346 43.7059 45.5941 43.808 46.1475 43.9161C45.588 43.832 45.0285 43.742 44.475 43.6519L42.8026 43.3757C42.2431 43.2857 41.6897 43.1896 41.1302 43.0936L40.9234 43.0575C40.8565 43.0455 40.7774 43.0335 40.7105 43.0095C40.5707 42.9615 40.4369 42.8834 40.3335 42.7753C40.2301 42.6673 40.1449 42.5412 40.1024 42.3971C40.0598 42.253 40.0476 42.1029 40.072 41.9528C40.0963 41.8087 40.1632 41.6646 40.2544 41.5506C40.3456 41.4305 40.4673 41.3404 40.6011 41.2744C40.7349 41.2084 40.8869 41.1783 41.0389 41.1843C41.1119 41.1843 41.191 41.2024 41.2579 41.2084L41.4647 41.2444C42.0181 41.3464 42.5776 41.4365 43.131 41.5446L44.7974 41.8508C45.3508 41.9588 45.9042 42.0609 46.4576 42.169Z" fill="#42210B"/>
</g>
</g>
</g>
<path d="M39.4026 41.5221C39.3783 41.486 39.3479 41.456 39.3175 41.426C39.1654 41.2819 38.9647 41.1858 38.7519 41.1738C38.6789 41.1678 38.6059 41.1738 38.5329 41.1858L37.1463 41.426C37.4808 41.366 37.7362 41.1318 37.8396 40.8376C37.8883 40.6995 37.9004 40.5554 37.87 40.4053C37.8092 40.0751 37.572 39.823 37.274 39.7209C37.1342 39.6729 36.9882 39.6609 36.8301 39.6849L32.0439 40.5194C31.9344 40.5374 31.8797 40.3993 31.9648 40.3393L32.8588 39.7209C33.3271 39.3967 33.4305 38.7243 33.0777 38.226C32.725 37.7277 32.05 37.5836 31.5817 37.9078L29.447 39.3787C27.9388 40.1712 27.0387 41.8643 27.3489 43.6174L27.4948 44.4279C27.8658 46.4872 29.7876 47.9101 31.8675 47.724C31.9222 47.724 31.9709 47.718 32.0256 47.712L37.2923 46.7934C37.7788 46.7093 38.1315 46.241 38.0525 45.7667C38.0038 45.4846 37.8214 45.2624 37.5842 45.1363C37.4139 45.0463 37.2193 45.0103 37.0186 45.0463L37.9552 44.8722C38.2106 44.8301 38.4174 44.6801 38.5512 44.4819C38.6667 44.3018 38.7215 44.0797 38.685 43.8515C38.6424 43.6234 38.5147 43.4313 38.3383 43.2992C38.1498 43.1551 37.9004 43.089 37.6511 43.1311L38.8431 42.9209C39.3296 42.8369 39.658 42.3746 39.5668 41.8943C39.5486 41.7562 39.4877 41.6301 39.4026 41.5221Z" fill="url(#paint9_radial_165_47115)"/>
<g style="mix-blend-mode:color-burn">
<mask id="mask5_165_47115" style="mask-type:alpha" maskUnits="userSpaceOnUse" x="27" y="37" width="13" height="11">
<path d="M39.4026 41.5221C39.3783 41.486 39.3479 41.456 39.3175 41.426C39.1654 41.2819 38.9647 41.1858 38.7519 41.1738C38.6789 41.1678 38.6059 41.1738 38.5329 41.1858L37.1463 41.426C37.4808 41.366 37.7362 41.1318 37.8396 40.8376C37.8883 40.6995 37.9004 40.5554 37.87 40.4053C37.8092 40.0751 37.572 39.823 37.274 39.7209C37.1342 39.6729 36.9882 39.6609 36.8301 39.6849L32.0439 40.5194C31.9344 40.5374 31.8797 40.3993 31.9648 40.3393L32.8588 39.7209C33.3271 39.3967 33.4305 38.7243 33.0777 38.226C32.725 37.7277 32.05 37.5836 31.5817 37.9078L29.447 39.3787C27.9388 40.1712 27.0387 41.8643 27.3489 43.6174L27.4948 44.4279C27.8658 46.4872 29.7876 47.9101 31.8675 47.724C31.9222 47.724 31.9709 47.718 32.0256 47.712L37.2923 46.7934C37.7788 46.7093 38.1315 46.241 38.0525 45.7667C38.0038 45.4846 37.8214 45.2624 37.5842 45.1363C37.4139 45.0463 37.2193 45.0103 37.0186 45.0463L37.9552 44.8722C38.2106 44.8301 38.4174 44.6801 38.5512 44.4819C38.6667 44.3018 38.7215 44.0797 38.685 43.8515C38.6424 43.6234 38.5147 43.4313 38.3383 43.2992C38.1498 43.1551 37.9004 43.089 37.6511 43.1311L38.8431 42.9209C39.3296 42.8369 39.658 42.3746 39.5668 41.8943C39.5486 41.7562 39.4877 41.6301 39.4026 41.5221Z" fill="url(#paint10_radial_165_47115)"/>
</mask>
<g mask="url(#mask5_165_47115)">
<g style="mix-blend-mode:color-burn" filter="url(#filter8_f_165_47115)">
<path d="M29.067 39.6599C29.6143 39.3057 30.1556 38.9515 30.6968 38.5913L31.5057 38.0449C31.5726 37.9969 31.6334 37.9609 31.7064 37.9249C31.7793 37.8948 31.8523 37.8708 31.9253 37.8588C32.0773 37.8348 32.2355 37.8468 32.3814 37.8888C32.6794 37.9729 32.9288 38.195 33.0626 38.4712C33.1964 38.7474 33.2085 39.0776 33.0808 39.3598C33.02 39.4978 32.9227 39.6239 32.795 39.714C32.6673 39.81 32.5395 39.9121 32.4118 40.0142C32.1564 40.2183 31.9071 40.4224 31.6577 40.6326C31.9314 40.4524 32.199 40.2723 32.4666 40.0802C32.6004 39.9842 32.7281 39.8941 32.8619 39.798C33.0017 39.696 33.1112 39.5579 33.1842 39.4078C33.3302 39.0956 33.318 38.7294 33.1659 38.4232C33.02 38.117 32.7402 37.8768 32.4057 37.7808C32.2415 37.7327 32.0652 37.7207 31.8949 37.7507C31.8098 37.7688 31.7246 37.7928 31.6516 37.8288C31.5726 37.8648 31.4996 37.9128 31.4327 37.9609L30.636 38.5192C30.1191 38.8975 29.59 39.2757 29.067 39.6599Z" fill="#633617"/>
<path d="M31.4813 40.6672C32.0408 40.5831 32.6003 40.493 33.1538 40.403L34.8262 40.1268C35.3857 40.0368 35.9391 39.9407 36.4986 39.8446L36.7054 39.8086C36.7784 39.7966 36.8392 39.7846 36.9061 39.7846C37.0399 39.7846 37.1737 39.8086 37.2892 39.8687C37.4048 39.9287 37.5143 40.0067 37.5933 40.1148C37.6724 40.2169 37.7271 40.343 37.7514 40.469C37.7758 40.5951 37.7636 40.7272 37.7271 40.8533C37.6906 40.9794 37.6177 41.0934 37.5264 41.1895C37.4352 41.2855 37.3197 41.3576 37.198 41.3996C37.1372 41.4236 37.0703 41.4296 36.9973 41.4477L36.7906 41.4837C36.2371 41.5857 35.6776 41.6758 35.1242 41.7839L33.4578 42.0901C32.9044 42.1981 32.3449 42.3002 31.7915 42.4083C32.351 42.3242 32.9105 42.2341 33.4639 42.1441L35.1364 41.8679C35.6959 41.7779 36.2493 41.6818 36.8088 41.5857L37.0156 41.5497C37.0825 41.5377 37.1615 41.5257 37.2284 41.5017C37.3683 41.4537 37.5021 41.3756 37.6055 41.2675C37.7089 41.1595 37.794 41.0334 37.8366 40.8893C37.8792 40.7452 37.8913 40.5951 37.867 40.445C37.8427 40.3009 37.7758 40.1568 37.6845 40.0428C37.5933 39.9227 37.4717 39.8326 37.3379 39.7666C37.2041 39.7005 37.0521 39.6705 36.9 39.6765C36.827 39.6765 36.748 39.6945 36.6811 39.7005L36.4743 39.7366C35.9209 39.8386 35.3614 39.9287 34.808 40.0368L33.1416 40.343C32.5943 40.457 32.0347 40.5591 31.4813 40.6672Z" fill="#42210B"/>
<path d="M33.494 43.9109C33.7495 43.8749 34.0049 43.8329 34.2542 43.7968C34.5097 43.7548 34.7651 43.7188 35.0144 43.6768L36.5348 43.4306L37.295 43.2985L37.4836 43.2685L37.5809 43.2505C37.6113 43.2445 37.6417 43.2445 37.6721 43.2385C37.7937 43.2265 37.9153 43.2445 38.0248 43.2865C38.2498 43.3706 38.4384 43.5507 38.5174 43.7728C38.56 43.8869 38.5782 44.001 38.5661 44.121C38.56 44.2411 38.5235 44.3552 38.4627 44.4573C38.3471 44.6674 38.1404 44.8235 37.9032 44.8715L37.143 45.0036L36.3828 45.1357L35.6226 45.2738L34.1083 45.5559C33.6035 45.652 33.0987 45.7481 32.594 45.8441C33.1048 45.7661 33.6096 45.688 34.1204 45.604L35.6408 45.3578L36.401 45.2317L37.1734 45.1237L37.9336 44.9916C38.2012 44.9376 38.4444 44.7634 38.5782 44.5293C38.712 44.2951 38.7364 44.001 38.6391 43.7428C38.5418 43.4906 38.3289 43.2805 38.0735 43.1904C37.9458 43.1424 37.8059 43.1244 37.6721 43.1364C37.6356 43.1364 37.6052 43.1424 37.5687 43.1484L37.4714 43.1664L37.2829 43.2025L36.5227 43.3405L35.0083 43.6227C34.7529 43.6708 34.5036 43.7188 34.2481 43.7668C33.9988 43.8088 33.7434 43.8629 33.494 43.9109Z" fill="#42210B"/>
<path d="M34.0414 45.6156C34.5036 45.5555 34.9597 45.4895 35.4219 45.4114L36.1091 45.3034L36.7964 45.1893L36.9667 45.1593C37.0214 45.1473 37.0761 45.1473 37.1309 45.1473C37.2403 45.1473 37.3498 45.1713 37.4471 45.2193C37.6478 45.3034 37.812 45.4715 37.8911 45.6696C37.9701 45.8677 37.9701 46.0959 37.885 46.294C37.7998 46.4921 37.6356 46.6542 37.4349 46.7383C37.3863 46.7563 37.3315 46.7743 37.2768 46.7863C37.2221 46.7983 37.1613 46.8043 37.1065 46.8163L36.766 46.8764L36.0787 46.9964C35.6226 47.0745 35.1665 47.1646 34.7104 47.2486C33.7981 47.4167 32.8859 47.5848 31.9737 47.7649C32.892 47.6268 33.8103 47.4768 34.7286 47.3267C35.1847 47.2486 35.6469 47.1766 36.1031 47.0985L36.7903 46.9844L37.1309 46.9244C37.1917 46.9124 37.2464 46.9064 37.3011 46.8944C37.362 46.8824 37.4228 46.8644 37.4775 46.8403C37.7086 46.7443 37.8911 46.5642 37.9884 46.336C38.0857 46.1139 38.0917 45.8497 37.9944 45.6216C37.9032 45.3934 37.7147 45.2073 37.4897 45.1113C37.3741 45.0632 37.2525 45.0332 37.1309 45.0332C37.07 45.0332 37.0092 45.0392 36.9484 45.0452L36.7781 45.0752L36.0909 45.2013L35.4098 45.3334C34.9536 45.4235 34.4975 45.5135 34.0414 45.6156Z" fill="#42210B"/>
<path d="M33.184 42.169C33.7435 42.0849 34.303 41.9949 34.8564 41.9048L36.5288 41.6286C37.0883 41.5386 37.6418 41.4425 38.2013 41.3464L38.408 41.3104C38.481 41.2984 38.5418 41.2864 38.6087 41.2864C38.7425 41.2864 38.8763 41.3104 38.9919 41.3705C39.1074 41.4305 39.2169 41.5085 39.296 41.6166C39.375 41.7187 39.4298 41.8448 39.4541 41.9708C39.4784 42.1029 39.4662 42.235 39.4298 42.3611C39.3933 42.4872 39.3203 42.6012 39.2291 42.6973C39.1378 42.7934 39.0223 42.8654 38.9007 42.9074C38.8398 42.9314 38.7729 42.9375 38.7 42.9555L38.4932 42.9915C37.9398 43.0936 37.3803 43.1836 36.8268 43.2917L35.1605 43.5979C34.6071 43.7059 34.0475 43.808 33.4941 43.9161C34.0536 43.832 34.6131 43.742 35.1666 43.6519L36.839 43.3757C37.3985 43.2857 37.9519 43.1896 38.5114 43.0936L38.7182 43.0575C38.7851 43.0455 38.8642 43.0335 38.9311 43.0095C39.0709 42.9615 39.2047 42.8834 39.3081 42.7753C39.4115 42.6673 39.4967 42.5412 39.5392 42.3971C39.5818 42.253 39.594 42.1029 39.5696 41.9528C39.5453 41.8087 39.4784 41.6646 39.3872 41.5506C39.296 41.4305 39.1743 41.3404 39.0405 41.2744C38.9067 41.2084 38.7547 41.1783 38.6027 41.1843C38.5297 41.1843 38.4506 41.2024 38.3837 41.2084L38.1769 41.2444C37.6235 41.3464 37.064 41.4365 36.5106 41.5446L34.8442 41.8508C34.2908 41.9588 33.7374 42.0609 33.184 42.169Z" fill="#42210B"/>
</g>
</g>
</g>
<path d="M46.3812 32.9156C43.5898 37.7433 36.065 37.7463 33.2809 32.9108C33.1635 32.7073 33.3806 32.4743 33.5545 32.6154C35.3219 34.0526 37.5401 34.8389 39.8299 34.8398C42.1196 34.8407 44.3385 34.0561 46.107 32.6202C46.2809 32.4785 46.4986 32.7121 46.3812 32.9156Z" fill="url(#paint11_radial_165_47115)"/>
<path d="M46.3812 32.9156C43.5898 37.7433 36.065 37.7463 33.2809 32.9108C33.1635 32.7073 33.3806 32.4743 33.5545 32.6154C35.3219 34.0526 37.5401 34.8389 39.8299 34.8398C42.1196 34.8407 44.3385 34.0561 46.107 32.6202C46.2809 32.4785 46.4986 32.7121 46.3812 32.9156Z" stroke="url(#paint12_linear_165_47115)" stroke-width="1.20226" stroke-miterlimit="10"/>
<path d="M37.7224 27.9043C37.7239 28.3309 37.6402 28.7536 37.4761 29.1483C37.4529 29.1975 37.4156 29.2388 37.3688 29.2672C37.322 29.2956 37.2677 29.3098 37.2128 29.308C37.151 29.3109 37.09 29.2929 37.04 29.257C36.9899 29.2211 36.9537 29.1694 36.9373 29.1105C36.75 28.2183 36.0214 27.5537 35.1511 27.5537C34.2809 27.5537 33.5511 28.2183 33.3638 29.1105C33.3475 29.1695 33.3113 29.2212 33.2612 29.2571C33.2111 29.293 33.1501 29.311 33.0883 29.308C33.0334 29.3098 32.9791 29.2956 32.9323 29.2672C32.8855 29.2388 32.8481 29.1975 32.8249 29.1483C32.661 28.7538 32.5773 28.3313 32.5786 27.9049C32.5786 26.2983 33.7299 24.9961 35.1511 24.9961C36.5724 24.9961 37.7224 26.2977 37.7224 27.9043Z" fill="url(#paint13_radial_165_47115)"/>
<path d="M37.7224 27.9043C37.7239 28.3309 37.6402 28.7536 37.4761 29.1483C37.4529 29.1975 37.4156 29.2388 37.3688 29.2672C37.322 29.2956 37.2677 29.3098 37.2128 29.308C37.151 29.3109 37.09 29.2929 37.04 29.257C36.9899 29.2211 36.9537 29.1694 36.9373 29.1105C36.75 28.2183 36.0214 27.5537 35.1511 27.5537C34.2809 27.5537 33.5511 28.2183 33.3638 29.1105C33.3475 29.1695 33.3113 29.2212 33.2612 29.2571C33.2111 29.293 33.1501 29.311 33.0883 29.308V29.308C33.0334 29.3098 32.9791 29.2956 32.9323 29.2672C32.8855 29.2388 32.8481 29.1975 32.8249 29.1483C32.661 28.7538 32.5773 28.3313 32.5786 27.9049C32.5786 26.2983 33.7299 24.9961 35.1511 24.9961C36.5724 24.9961 37.7224 26.2977 37.7224 27.9043Z" stroke="url(#paint14_linear_165_47115)" stroke-width="0.961809" stroke-miterlimit="10"/>
<path d="M47.1113 27.9043C47.1128 28.3309 47.0291 28.7536 46.865 29.1483C46.8417 29.1975 46.8043 29.2389 46.7574 29.2673C46.7104 29.2957 46.6561 29.3098 46.6011 29.308C46.5393 29.3109 46.4783 29.2929 46.4282 29.257C46.3782 29.2211 46.342 29.1694 46.3256 29.1105C46.1383 28.2183 45.4097 27.5537 44.5388 27.5537C43.6679 27.5537 42.9394 28.2183 42.7521 29.1105C42.7358 29.1695 42.6996 29.2212 42.6495 29.2571C42.5994 29.293 42.5384 29.311 42.4766 29.308C42.4217 29.3098 42.3674 29.2956 42.3206 29.2672C42.2738 29.2388 42.2364 29.1975 42.2132 29.1483C42.0491 28.7539 41.9652 28.3314 41.9663 27.9049C41.9663 26.2983 43.1182 24.9961 44.5388 24.9961C45.9595 24.9961 47.1113 26.2977 47.1113 27.9043Z" fill="url(#paint15_radial_165_47115)"/>
<path d="M47.1113 27.9043C47.1128 28.3309 47.0291 28.7536 46.865 29.1483C46.8417 29.1975 46.8043 29.2389 46.7574 29.2673C46.7104 29.2957 46.6561 29.3098 46.6011 29.308C46.5393 29.3109 46.4783 29.2929 46.4282 29.257C46.3782 29.2211 46.342 29.1694 46.3256 29.1105C46.1383 28.2183 45.4097 27.5537 44.5388 27.5537C43.6679 27.5537 42.9394 28.2183 42.7521 29.1105C42.7358 29.1695 42.6996 29.2212 42.6495 29.2571C42.5994 29.293 42.5384 29.311 42.4766 29.308C42.4217 29.3098 42.3674 29.2956 42.3206 29.2672C42.2738 29.2388 42.2364 29.1975 42.2132 29.1483C42.0491 28.7539 41.9652 28.3314 41.9663 27.9049C41.9663 26.2983 43.1182 24.9961 44.5388 24.9961C45.9595 24.9961 47.1113 26.2977 47.1113 27.9043Z" fill="url(#paint16_radial_165_47115)"/>
<path d="M47.1113 27.9043C47.1128 28.3309 47.0291 28.7536 46.865 29.1483C46.8417 29.1975 46.8043 29.2389 46.7574 29.2673C46.7104 29.2957 46.6561 29.3098 46.6011 29.308V29.308C46.5393 29.3109 46.4783 29.2929 46.4282 29.257C46.3782 29.2211 46.342 29.1694 46.3256 29.1105C46.1383 28.2183 45.4097 27.5537 44.5388 27.5537C43.6679 27.5537 42.9394 28.2183 42.7521 29.1105C42.7358 29.1695 42.6996 29.2212 42.6495 29.2571C42.5994 29.293 42.5384 29.311 42.4766 29.308V29.308C42.4217 29.3098 42.3674 29.2956 42.3206 29.2672C42.2738 29.2388 42.2364 29.1975 42.2132 29.1483C42.0491 28.7539 41.9652 28.3314 41.9663 27.9049C41.9663 26.2983 43.1182 24.9961 44.5388 24.9961C45.9595 24.9961 47.1113 26.2977 47.1113 27.9043Z" stroke="url(#paint17_linear_165_47115)" stroke-width="0.961809" stroke-miterlimit="10"/>
<defs>
<filter id="filter0_f_165_47115" x="13.0262" y="17.8797" width="53.5423" height="39.4515" filterUnits="userSpaceOnUse" color-interpolation-filters="sRGB">
<feFlood flood-opacity="0" result="BackgroundImageFix"/>
<feBlend mode="normal" in="SourceGraphic" in2="BackgroundImageFix" result="shape"/>
<feGaussianBlur stdDeviation="6.01131" result="effect1_foregroundBlur_165_47115"/>
</filter>
<filter id="filter1_f_165_47115" x="5.81265" y="10.6662" width="67.9694" height="53.8786" filterUnits="userSpaceOnUse" color-interpolation-filters="sRGB">
<feFlood flood-opacity="0" result="BackgroundImageFix"/>
<feBlend mode="normal" in="SourceGraphic" in2="BackgroundImageFix" result="shape"/>
<feGaussianBlur stdDeviation="9.61809" result="effect1_foregroundBlur_165_47115"/>
</filter>
<filter id="filter2_f_165_47115" x="15.4616" y="0.473856" width="63.7901" height="63.7124" filterUnits="userSpaceOnUse" color-interpolation-filters="sRGB">
<feFlood flood-opacity="0" result="BackgroundImageFix"/>
<feBlend mode="normal" in="SourceGraphic" in2="BackgroundImageFix" result="shape"/>
<feGaussianBlur stdDeviation="14.4271" result="effect1_foregroundBlur_165_47115"/>
</filter>
<filter id="filter3_f_165_47115" x="0.440165" y="0.473856" width="63.7901" height="63.7124" filterUnits="userSpaceOnUse" color-interpolation-filters="sRGB">
<feFlood flood-opacity="0" result="BackgroundImageFix"/>
<feBlend mode="normal" in="SourceGraphic" in2="BackgroundImageFix" result="shape"/>
<feGaussianBlur stdDeviation="14.4271" result="effect1_foregroundBlur_165_47115"/>
</filter>
<filter id="filter4_f_165_47115" x="0.838339" y="11.2846" width="77.9649" height="62.9054" filterUnits="userSpaceOnUse" color-interpolation-filters="sRGB">
<feFlood flood-opacity="0" result="BackgroundImageFix"/>
<feBlend mode="normal" in="SourceGraphic" in2="BackgroundImageFix" result="shape"/>
<feGaussianBlur stdDeviation="13.2249" result="effect1_foregroundBlur_165_47115"/>
</filter>
<filter id="filter5_f_165_47115" x="36.2123" y="33.8871" width="18.2101" height="17.7257" filterUnits="userSpaceOnUse" color-interpolation-filters="sRGB">
<feFlood flood-opacity="0" result="BackgroundImageFix"/>
<feBlend mode="normal" in="SourceGraphic" in2="BackgroundImageFix" result="shape"/>
<feGaussianBlur stdDeviation="1.92362" result="effect1_foregroundBlur_165_47115"/>
</filter>
<filter id="filter6_f_165_47115" x="25.2197" y="33.8871" width="18.2096" height="17.7257" filterUnits="userSpaceOnUse" color-interpolation-filters="sRGB">
<feFlood flood-opacity="0" result="BackgroundImageFix"/>
<feBlend mode="normal" in="SourceGraphic" in2="BackgroundImageFix" result="shape"/>
<feGaussianBlur stdDeviation="1.92362" result="effect1_foregroundBlur_165_47115"/>
</filter>
<filter id="filter7_f_165_47115" x="36.2123" y="33.8871" width="18.2101" height="17.7257" filterUnits="userSpaceOnUse" color-interpolation-filters="sRGB">
<feFlood flood-opacity="0" result="BackgroundImageFix"/>
<feBlend mode="normal" in="SourceGraphic" in2="BackgroundImageFix" result="shape"/>
<feGaussianBlur stdDeviation="1.92362" result="effect1_foregroundBlur_165_47115"/>
</filter>
<filter id="filter8_f_165_47115" x="25.2197" y="33.8871" width="18.2096" height="17.7257" filterUnits="userSpaceOnUse" color-interpolation-filters="sRGB">
<feFlood flood-opacity="0" result="BackgroundImageFix"/>
<feBlend mode="normal" in="SourceGraphic" in2="BackgroundImageFix" result="shape"/>
<feGaussianBlur stdDeviation="1.92362" result="effect1_foregroundBlur_165_47115"/>
</filter>
<radialGradient id="paint0_radial_165_47115" cx="0" cy="0" r="1" gradientUnits="userSpaceOnUse" gradientTransform="translate(39.8158 16) rotate(90) scale(28.9383 29.3133)">
<stop stop-color="#FFDE43"/>
<stop offset="1" stop-color="#FFBC00"/>
</radialGradient>
<radialGradient id="paint1_radial_165_47115" cx="0" cy="0" r="1" gradientUnits="userSpaceOnUse" gradientTransform="translate(39.8158 19.8724) rotate(90) scale(25.0659 25.3907)">
<stop stop-color="white" stop-opacity="0.5"/>
<stop offset="0.782278"/>
</radialGradient>
<radialGradient id="paint2_radial_165_47115" cx="0" cy="0" r="1" gradientUnits="userSpaceOnUse" gradientTransform="translate(39.8158 19.8724) rotate(90) scale(25.0659 25.3907)">
<stop stop-color="white" stop-opacity="0.5"/>
<stop offset="0.782278"/>
</radialGradient>
<radialGradient id="paint3_radial_165_47115" cx="0" cy="0" r="1" gradientUnits="userSpaceOnUse" gradientTransform="translate(39.8158 12.848) rotate(90) scale(32.0903 43.9599)">
<stop offset="0.0922635" stop-color="white"/>
<stop offset="0.670207" stop-color="white" stop-opacity="0"/>
</radialGradient>
<radialGradient id="paint4_radial_165_47115" cx="0" cy="0" r="1" gradientUnits="userSpaceOnUse" gradientTransform="translate(39.8158 16) rotate(90) scale(28.9383 29.3133)">
<stop stop-color="#FFDE43"/>
<stop offset="1" stop-color="#FFBC00"/>
</radialGradient>
<radialGradient id="paint5_radial_165_47115" cx="0" cy="0" r="1" gradientUnits="userSpaceOnUse" gradientTransform="translate(46.2302 42.4882) rotate(-170.128) scale(5.59804 5.53067)">
<stop offset="0.0139674" stop-color="#FFDE43"/>
<stop offset="0.3975" stop-color="#FFDC41"/>
<stop offset="0.6038" stop-color="#FFD43B"/>
<stop offset="0.7679" stop-color="#FFC631"/>
<stop offset="0.9089" stop-color="#FFB323"/>
<stop offset="1" stop-color="#FFA216"/>
</radialGradient>
<radialGradient id="paint6_radial_165_47115" cx="0" cy="0" r="1" gradientUnits="userSpaceOnUse" gradientTransform="translate(33.4114 42.4882) rotate(-9.872) scale(5.59804 5.53067)">
<stop offset="0.0139674" stop-color="#FFDE43"/>
<stop offset="0.3975" stop-color="#FFDC41"/>
<stop offset="0.6038" stop-color="#FFD43B"/>
<stop offset="0.7679" stop-color="#FFC631"/>
<stop offset="0.9089" stop-color="#FFB323"/>
<stop offset="1" stop-color="#FFA216"/>
</radialGradient>
<radialGradient id="paint7_radial_165_47115" cx="0" cy="0" r="1" gradientUnits="userSpaceOnUse" gradientTransform="translate(46.2302 42.4882) rotate(-170.128) scale(5.59804 5.53067)">
<stop offset="0.0139674" stop-color="#FFDE43"/>
<stop offset="0.3975" stop-color="#FFDC41"/>
<stop offset="0.6038" stop-color="#FFD43B"/>
<stop offset="0.7679" stop-color="#FFC631"/>
<stop offset="0.9089" stop-color="#FFB323"/>
<stop offset="1" stop-color="#FFA216"/>
</radialGradient>
<radialGradient id="paint8_radial_165_47115" cx="0" cy="0" r="1" gradientUnits="userSpaceOnUse" gradientTransform="translate(46.2302 42.4882) rotate(-170.128) scale(5.59804 5.53067)">
<stop offset="0.0139674" stop-color="#FFDE43"/>
<stop offset="0.3975" stop-color="#FFDC41"/>
<stop offset="0.6038" stop-color="#FFD43B"/>
<stop offset="0.7679" stop-color="#FFC631"/>
<stop offset="0.9089" stop-color="#FFB323"/>
<stop offset="1" stop-color="#FFA216"/>
</radialGradient>
<radialGradient id="paint9_radial_165_47115" cx="0" cy="0" r="1" gradientUnits="userSpaceOnUse" gradientTransform="translate(33.4114 42.4882) rotate(-9.872) scale(5.59804 5.53067)">
<stop offset="0.0139674" stop-color="#FFDE43"/>
<stop offset="0.3975" stop-color="#FFDC41"/>
<stop offset="0.6038" stop-color="#FFD43B"/>
<stop offset="0.7679" stop-color="#FFC631"/>
<stop offset="0.9089" stop-color="#FFB323"/>
<stop offset="1" stop-color="#FFA216"/>
</radialGradient>
<radialGradient id="paint10_radial_165_47115" cx="0" cy="0" r="1" gradientUnits="userSpaceOnUse" gradientTransform="translate(33.4114 42.4882) rotate(-9.872) scale(5.59804 5.53067)">
<stop offset="0.0139674" stop-color="#FFDE43"/>
<stop offset="0.3975" stop-color="#FFDC41"/>
<stop offset="0.6038" stop-color="#FFD43B"/>
<stop offset="0.7679" stop-color="#FFC631"/>
<stop offset="0.9089" stop-color="#FFB323"/>
<stop offset="1" stop-color="#FFA216"/>
</radialGradient>
<radialGradient id="paint11_radial_165_47115" cx="0" cy="0" r="1" gradientUnits="userSpaceOnUse" gradientTransform="translate(39.831 34.5466) scale(4.96935 4.00447)">
<stop stop-color="#743C1C"/>
<stop offset="1" stop-color="#401C02"/>
</radialGradient>
<linearGradient id="paint12_linear_165_47115" x1="39.831" y1="36.6484" x2="39.831" y2="32.4447" gradientUnits="userSpaceOnUse">
<stop offset="0.265625" stop-color="#FFDE43"/>
<stop offset="1" stop-color="#F79D14"/>
</linearGradient>
<radialGradient id="paint13_radial_165_47115" cx="0" cy="0" r="1" gradientUnits="userSpaceOnUse" gradientTransform="translate(35.147 27.1508) scale(3.27858 2.15986)">
<stop stop-color="#743C1C"/>
<stop offset="1" stop-color="#401C02"/>
</radialGradient>
<linearGradient id="paint14_linear_165_47115" x1="35.1505" y1="29.4297" x2="35.1505" y2="24.8573" gradientUnits="userSpaceOnUse">
<stop stop-color="#FFDE43"/>
<stop offset="0.22" stop-color="#FED93F"/>
<stop offset="0.51" stop-color="#FCC934"/>
<stop offset="0.82" stop-color="#F9AF21"/>
<stop offset="1" stop-color="#F79D14"/>
</linearGradient>
<radialGradient id="paint15_radial_165_47115" cx="0" cy="0" r="1" gradientUnits="userSpaceOnUse" gradientTransform="translate(1722.09 -2496.41) scale(214.292 158.052)">
<stop stop-color="#743C1C"/>
<stop offset="1" stop-color="#401C02"/>
</radialGradient>
<radialGradient id="paint16_radial_165_47115" cx="0" cy="0" r="1" gradientUnits="userSpaceOnUse" gradientTransform="translate(44.5353 27.1508) scale(3.27935 2.15986)">
<stop stop-color="#743C1C"/>
<stop offset="1" stop-color="#401C02"/>
</radialGradient>
<linearGradient id="paint17_linear_165_47115" x1="44.5388" y1="29.4297" x2="44.5388" y2="24.8573" gradientUnits="userSpaceOnUse">
<stop stop-color="#FFDE43"/>
<stop offset="0.22" stop-color="#FED93F"/>
<stop offset="0.51" stop-color="#FCC934"/>
<stop offset="0.82" stop-color="#F9AF21"/>
<stop offset="1" stop-color="#F79D14"/>
</linearGradient>
</defs>
</svg>
