<svg width="84" height="66" viewBox="0 0 84 66" fill="none" xmlns="http://www.w3.org/2000/svg">
<path d="M41.912 46.5578C50.1477 46.5578 56.8241 39.9909 56.8241 31.8902C56.8241 23.7896 50.1477 17.2227 41.912 17.2227C33.6764 17.2227 27 23.7896 27 31.8902C27 39.9909 33.6764 46.5578 41.912 46.5578Z" fill="url(#paint0_radial_165_47113)"/>
<g style="mix-blend-mode:soft-light">
<path d="M41.912 46.5578C50.1477 46.5578 56.8241 39.9909 56.8241 31.8902C56.8241 23.7896 50.1477 17.2227 41.912 17.2227C33.6764 17.2227 27 23.7896 27 31.8902C27 39.9909 33.6764 46.5578 41.912 46.5578Z" fill="url(#paint1_radial_165_47113)"/>
</g>
<g style="mix-blend-mode:soft-light">
<path d="M41.912 46.5578C50.1477 46.5578 56.8241 39.9909 56.8241 31.8902C56.8241 23.7896 50.1477 17.2227 41.912 17.2227C33.6764 17.2227 27 23.7896 27 31.8902C27 39.9909 33.6764 46.5578 41.912 46.5578Z" fill="url(#paint2_radial_165_47113)"/>
</g>
<g style="mix-blend-mode:overlay">
<path d="M41.912 46.5578C50.1477 46.5578 56.8241 39.9909 56.8241 31.8902C56.8241 23.7896 50.1477 17.2227 41.912 17.2227C33.6764 17.2227 27 23.7896 27 31.8902C27 39.9909 33.6764 46.5578 41.912 46.5578Z" fill="url(#paint3_radial_165_47113)" fill-opacity="0.7"/>
</g>
<mask id="mask0_165_47113" style="mask-type:alpha" maskUnits="userSpaceOnUse" x="27" y="17" width="30" height="30">
<path d="M41.912 46.5578C50.1477 46.5578 56.8241 39.9909 56.8241 31.8902C56.8241 23.7896 50.1477 17.2227 41.912 17.2227C33.6764 17.2227 27 23.7896 27 31.8902C27 39.9909 33.6764 46.5578 41.912 46.5578Z" fill="white"/>
</mask>
<g mask="url(#mask0_165_47113)">
<g filter="url(#filter0_f_165_47113)">
<path d="M26.9148 31.4714C26.931 31.263 27.0008 31.2421 27.0211 31.4537C27.0437 31.6888 26.9998 32.1615 27.0103 32.4466C27.0383 33.2015 27.156 33.8579 27.2773 34.3918C27.6681 36.1124 28.2094 37.2211 28.7142 38.1605C30.3737 41.2482 32.1915 42.8118 33.9649 43.9902C36.5643 45.7175 39.1848 46.267 41.8075 46.3835C41.8736 46.3864 41.8846 46.8103 41.8196 46.8655C41.7022 46.965 41.5568 46.8662 41.4367 46.8621C41.0918 46.8502 40.7468 46.8269 40.4018 46.7916C39.379 46.6871 38.3562 46.4742 37.3354 46.1316C34.5601 45.2002 31.5677 43.6055 28.9543 39.1137C28.7899 38.8311 28.6268 38.5336 28.466 38.2139C28.3374 37.9583 28.2101 37.6903 28.085 37.4036C27.6735 36.4609 26.7147 34.0475 26.9148 31.4714ZM41.8093 46.87C41.7462 46.8719 41.7302 46.4768 41.7904 46.3948C41.8813 46.2708 42.0176 46.3729 42.1134 46.367C42.5115 46.3425 42.9095 46.3062 43.3074 46.2571C44.3984 46.1223 45.4887 45.8922 46.5764 45.5379C49.2744 44.6591 52.175 43.3193 54.7184 39.203C54.8803 38.941 55.0407 38.6631 55.199 38.3644C55.6801 37.4565 56.8859 35.0464 56.7465 32.0505C56.7348 31.7979 56.813 31.6466 56.8479 31.8633C56.8925 32.1391 56.8744 32.7143 56.8621 33.0203C56.8228 34.0004 56.6698 34.8292 56.5085 35.4985C55.9971 37.6198 55.2793 38.8498 54.6219 39.8768C52.485 43.2148 50.1642 44.5605 47.9079 45.5275C45.8841 46.3948 43.845 46.8082 41.8093 46.87Z" fill="#401C02"/>
</g>
<g filter="url(#filter1_f_165_47113)">
<path d="M26.9148 31.4714C26.931 31.263 27.0008 31.2421 27.0211 31.4537C27.0437 31.6888 26.9998 32.1615 27.0103 32.4466C27.0383 33.2015 27.156 33.8579 27.2773 34.3918C27.6681 36.1124 28.2094 37.2211 28.7142 38.1605C30.3737 41.2482 32.1915 42.8118 33.9649 43.9902C36.5643 45.7175 39.1848 46.267 41.8075 46.3835C41.8736 46.3864 41.8846 46.8103 41.8196 46.8655C41.7022 46.965 41.5568 46.8662 41.4367 46.8621C41.0918 46.8502 40.7468 46.8269 40.4018 46.7916C39.379 46.6871 38.3562 46.4742 37.3354 46.1316C34.5601 45.2002 31.5677 43.6055 28.9543 39.1137C28.7899 38.8311 28.6268 38.5336 28.466 38.2139C28.3374 37.9583 28.2101 37.6903 28.085 37.4036C27.6735 36.4609 26.7147 34.0475 26.9148 31.4714ZM41.8093 46.87C41.7462 46.8719 41.7302 46.4768 41.7904 46.3948C41.8813 46.2708 42.0176 46.3729 42.1134 46.367C42.5115 46.3425 42.9095 46.3062 43.3074 46.2571C44.3984 46.1223 45.4887 45.8922 46.5764 45.5379C49.2744 44.6591 52.175 43.3193 54.7184 39.203C54.8803 38.941 55.0407 38.6631 55.199 38.3644C55.6801 37.4565 56.8859 35.0464 56.7465 32.0505C56.7348 31.7979 56.813 31.6466 56.8479 31.8633C56.8925 32.1391 56.8744 32.7143 56.8621 33.0203C56.8228 34.0004 56.6698 34.8292 56.5085 35.4985C55.9971 37.6198 55.2793 38.8498 54.6219 39.8768C52.485 43.2148 50.1642 44.5605 47.9079 45.5275C45.8841 46.3948 43.845 46.8082 41.8093 46.87Z" fill="#401C02"/>
</g>
</g>
<g opacity="0.85">
<g filter="url(#filter2_f_165_47113)">
<ellipse cx="51.4225" cy="33.2185" rx="3.09148" ry="3.0408" fill="#E66200"/>
</g>
<g filter="url(#filter3_f_165_47113)">
<ellipse cx="32.4411" cy="33.2185" rx="3.09148" ry="3.0408" fill="#E66200"/>
</g>
</g>
<path d="M50.4916 35.3334C46.8257 40.8604 36.9429 40.8634 33.2857 35.3279C33.2534 35.2793 33.2395 35.2211 33.2463 35.1634C33.2531 35.1057 33.2803 35.0522 33.323 35.0121C33.3657 34.972 33.4214 34.9479 33.4803 34.9439C33.5392 34.94 33.5976 34.9564 33.6455 34.9904C38.4262 38.3803 45.3511 38.3864 50.1311 34.9959C50.179 34.9615 50.2376 34.9447 50.2967 34.9485C50.3559 34.9523 50.4118 34.9764 50.4547 35.0166C50.4976 35.0568 50.5248 35.1105 50.5316 35.1684C50.5383 35.2263 50.5242 35.2847 50.4916 35.3334Z" fill="url(#paint4_radial_165_47113)"/>
<path d="M50.4916 35.3334C46.8257 40.8604 36.9429 40.8634 33.2857 35.3279C33.2534 35.2793 33.2395 35.2211 33.2463 35.1634C33.2531 35.1057 33.2803 35.0522 33.323 35.0121C33.3657 34.972 33.4214 34.9479 33.4803 34.9439C33.5392 34.94 33.5976 34.9564 33.6455 34.9904C38.4262 38.3803 45.3511 38.3864 50.1311 34.9959C50.179 34.9615 50.2376 34.9447 50.2967 34.9485C50.3559 34.9523 50.4118 34.9764 50.4547 35.0166C50.4976 35.0568 50.5248 35.1105 50.5316 35.1684C50.5383 35.2263 50.5242 35.2847 50.4916 35.3334V35.3334Z" stroke="url(#paint5_linear_165_47113)" stroke-width="1.2223" stroke-miterlimit="10"/>
<path d="M39.7743 29.9619C39.7765 30.4935 39.692 31.0221 39.5239 31.5273C39.5064 31.5844 39.4711 31.6346 39.4229 31.6708C39.3747 31.7069 39.3161 31.7272 39.2555 31.7286C39.1864 31.7264 39.1202 31.7002 39.0689 31.6545C39.0176 31.6088 38.9845 31.5467 38.9754 31.4793C38.785 30.3572 38.0443 29.5204 37.1589 29.5204C36.2735 29.5204 35.5328 30.3572 35.3423 31.4793C35.3333 31.5467 35.3001 31.6088 35.2488 31.6545C35.1975 31.7002 35.1314 31.7264 35.0623 31.7286C35.0017 31.7271 34.9432 31.7068 34.895 31.6706C34.8468 31.6345 34.8114 31.5843 34.7939 31.5273C34.6258 31.0221 34.5412 30.4935 34.5435 29.9619C34.5435 27.9398 35.7146 26.3008 37.1589 26.3008C38.6032 26.3008 39.7743 27.9398 39.7743 29.9619Z" fill="url(#paint6_radial_165_47113)"/>
<path d="M39.7743 29.9619C39.7765 30.4935 39.692 31.0221 39.5239 31.5273C39.5064 31.5844 39.4711 31.6346 39.4229 31.6708C39.3747 31.7069 39.3161 31.7272 39.2555 31.7286C39.1864 31.7264 39.1202 31.7002 39.0689 31.6545C39.0176 31.6088 38.9845 31.5467 38.9754 31.4793C38.785 30.3572 38.0443 29.5204 37.1589 29.5204C36.2735 29.5204 35.5328 30.3572 35.3423 31.4793C35.3333 31.5467 35.3001 31.6088 35.2488 31.6545C35.1975 31.7002 35.1314 31.7264 35.0623 31.7286V31.7286C35.0017 31.7271 34.9432 31.7068 34.895 31.6706C34.8468 31.6345 34.8114 31.5843 34.7939 31.5273C34.6258 31.0221 34.5412 30.4935 34.5435 29.9619C34.5435 27.9398 35.7146 26.3008 37.1589 26.3008C38.6032 26.3008 39.7743 27.9398 39.7743 29.9619Z" stroke="url(#paint7_linear_165_47113)" stroke-width="0.977839" stroke-miterlimit="10"/>
<path d="M49.3195 29.9619C49.3228 30.4934 49.2393 31.0219 49.0722 31.5273C49.0548 31.5844 49.0194 31.6346 48.9712 31.6708C48.923 31.7069 48.8645 31.7272 48.8039 31.7286C48.7347 31.7264 48.6686 31.7002 48.6173 31.6545C48.566 31.6088 48.5328 31.5467 48.5238 31.4793C48.3333 30.3572 47.5926 29.5204 46.7072 29.5204C45.8218 29.5204 45.0811 30.3572 44.8907 31.4793C44.8816 31.5467 44.8485 31.6088 44.7972 31.6545C44.7459 31.7002 44.6798 31.7264 44.6106 31.7286C44.55 31.7272 44.4914 31.7069 44.4432 31.6708C44.395 31.6346 44.3597 31.5844 44.3423 31.5273C44.1741 31.0221 44.0896 30.4935 44.0918 29.9619C44.0918 27.9398 45.2629 26.3008 46.7072 26.3008C48.1516 26.3008 49.3195 27.9398 49.3195 29.9619Z" fill="url(#paint8_radial_165_47113)"/>
<path d="M49.3195 29.9619C49.3228 30.4934 49.2393 31.0219 49.0722 31.5273C49.0548 31.5844 49.0194 31.6346 48.9712 31.6708C48.923 31.7069 48.8645 31.7272 48.8039 31.7286C48.7347 31.7264 48.6686 31.7002 48.6173 31.6545C48.566 31.6088 48.5328 31.5467 48.5238 31.4793C48.3333 30.3572 47.5926 29.5204 46.7072 29.5204C45.8218 29.5204 45.0811 30.3572 44.8907 31.4793C44.8816 31.5467 44.8485 31.6088 44.7972 31.6545C44.7459 31.7002 44.6798 31.7264 44.6106 31.7286C44.55 31.7272 44.4914 31.7069 44.4432 31.6708C44.395 31.6346 44.3597 31.5844 44.3423 31.5273C44.1741 31.0221 44.0896 30.4935 44.0918 29.9619C44.0918 27.9398 45.2629 26.3008 46.7072 26.3008C48.1516 26.3008 49.3195 27.9398 49.3195 29.9619Z" fill="url(#paint9_radial_165_47113)"/>
<path d="M49.3195 29.9619C49.3228 30.4934 49.2393 31.0219 49.0722 31.5273C49.0548 31.5844 49.0194 31.6346 48.9712 31.6708C48.923 31.7069 48.8645 31.7272 48.8039 31.7286C48.7347 31.7264 48.6686 31.7002 48.6173 31.6545C48.566 31.6088 48.5328 31.5467 48.5238 31.4793C48.3333 30.3572 47.5926 29.5204 46.7072 29.5204C45.8218 29.5204 45.0811 30.3572 44.8907 31.4793C44.8816 31.5467 44.8485 31.6088 44.7972 31.6545C44.7459 31.7002 44.6798 31.7264 44.6106 31.7286V31.7286C44.55 31.7272 44.4914 31.7069 44.4432 31.6708C44.395 31.6346 44.3597 31.5844 44.3423 31.5273C44.1741 31.0221 44.0896 30.4935 44.0918 29.9619C44.0918 27.9398 45.2629 26.3008 46.7072 26.3008C48.1516 26.3008 49.3195 27.9398 49.3195 29.9619Z" stroke="url(#paint10_linear_165_47113)" stroke-width="0.977839" stroke-miterlimit="10"/>
<defs>
<filter id="filter0_f_165_47113" x="14.6647" y="19.0817" width="54.4347" height="40.0514" filterUnits="userSpaceOnUse" color-interpolation-filters="sRGB">
<feFlood flood-opacity="0" result="BackgroundImageFix"/>
<feBlend mode="normal" in="SourceGraphic" in2="BackgroundImageFix" result="shape"/>
<feGaussianBlur stdDeviation="6.11149" result="effect1_foregroundBlur_165_47113"/>
</filter>
<filter id="filter1_f_165_47113" x="7.33092" y="11.7479" width="69.1023" height="54.719" filterUnits="userSpaceOnUse" color-interpolation-filters="sRGB">
<feFlood flood-opacity="0" result="BackgroundImageFix"/>
<feBlend mode="normal" in="SourceGraphic" in2="BackgroundImageFix" result="shape"/>
<feGaussianBlur stdDeviation="9.77839" result="effect1_foregroundBlur_165_47113"/>
</filter>
<filter id="filter2_f_165_47113" x="18.9959" y="0.842564" width="64.8534" height="64.7524" filterUnits="userSpaceOnUse" color-interpolation-filters="sRGB">
<feFlood flood-opacity="0" result="BackgroundImageFix"/>
<feBlend mode="normal" in="SourceGraphic" in2="BackgroundImageFix" result="shape"/>
<feGaussianBlur stdDeviation="14.6676" result="effect1_foregroundBlur_165_47113"/>
</filter>
<filter id="filter3_f_165_47113" x="0.0144386" y="0.842564" width="64.8534" height="64.7524" filterUnits="userSpaceOnUse" color-interpolation-filters="sRGB">
<feFlood flood-opacity="0" result="BackgroundImageFix"/>
<feBlend mode="normal" in="SourceGraphic" in2="BackgroundImageFix" result="shape"/>
<feGaussianBlur stdDeviation="14.6676" result="effect1_foregroundBlur_165_47113"/>
</filter>
<radialGradient id="paint0_radial_165_47113" cx="0" cy="0" r="1" gradientUnits="userSpaceOnUse" gradientTransform="translate(41.9009 17.2227) rotate(90) scale(29.3133 29.8018)">
<stop stop-color="#FFDE43"/>
<stop offset="1" stop-color="#FFBC00"/>
</radialGradient>
<radialGradient id="paint1_radial_165_47113" cx="0" cy="0" r="1" gradientUnits="userSpaceOnUse" gradientTransform="translate(41.9009 21.1453) rotate(90) scale(25.3907 25.8138)">
<stop stop-color="white" stop-opacity="0.5"/>
<stop offset="0.782278"/>
</radialGradient>
<radialGradient id="paint2_radial_165_47113" cx="0" cy="0" r="1" gradientUnits="userSpaceOnUse" gradientTransform="translate(41.9009 21.1453) rotate(90) scale(25.3907 25.8138)">
<stop stop-color="white" stop-opacity="0.5"/>
<stop offset="0.782278"/>
</radialGradient>
<radialGradient id="paint3_radial_165_47113" cx="0" cy="0" r="1" gradientUnits="userSpaceOnUse" gradientTransform="translate(41.9009 14.0298) rotate(90) scale(32.5061 44.6925)">
<stop offset="0.0922635" stop-color="white"/>
<stop offset="0.670207" stop-color="white" stop-opacity="0"/>
</radialGradient>
<radialGradient id="paint4_radial_165_47113" cx="0" cy="0" r="1" gradientUnits="userSpaceOnUse" gradientTransform="translate(41.8889 37.2021) scale(6.52491 4.58134)">
<stop stop-color="#743C1C"/>
<stop offset="1" stop-color="#401C02"/>
</radialGradient>
<linearGradient id="paint5_linear_165_47113" x1="41.8889" y1="39.6067" x2="41.8889" y2="34.7974" gradientUnits="userSpaceOnUse">
<stop offset="0.265625" stop-color="#FFDE43"/>
<stop offset="1" stop-color="#F79D14"/>
</linearGradient>
<radialGradient id="paint6_radial_165_47113" cx="0" cy="0" r="1" gradientUnits="userSpaceOnUse" gradientTransform="translate(37.1553 29.0129) scale(3.33404 2.71862)">
<stop stop-color="#743C1C"/>
<stop offset="1" stop-color="#401C02"/>
</radialGradient>
<linearGradient id="paint7_linear_165_47113" x1="37.1589" y1="31.8813" x2="37.1589" y2="26.1261" gradientUnits="userSpaceOnUse">
<stop stop-color="#FFDE43"/>
<stop offset="0.22" stop-color="#FED93F"/>
<stop offset="0.51" stop-color="#FCC934"/>
<stop offset="0.82" stop-color="#F9AF21"/>
<stop offset="1" stop-color="#F79D14"/>
</linearGradient>
<radialGradient id="paint8_radial_165_47113" cx="0" cy="0" r="1" gradientUnits="userSpaceOnUse" gradientTransform="translate(3061.54 3890.95) scale(217.739 246.415)">
<stop stop-color="#743C1C"/>
<stop offset="1" stop-color="#401C02"/>
</radialGradient>
<radialGradient id="paint9_radial_165_47113" cx="0" cy="0" r="1" gradientUnits="userSpaceOnUse" gradientTransform="translate(46.7021 29.0129) scale(3.3321 2.71862)">
<stop stop-color="#743C1C"/>
<stop offset="1" stop-color="#401C02"/>
</radialGradient>
<linearGradient id="paint10_linear_165_47113" x1="46.7057" y1="31.8813" x2="46.7057" y2="26.1261" gradientUnits="userSpaceOnUse">
<stop stop-color="#FFDE43"/>
<stop offset="0.22" stop-color="#FED93F"/>
<stop offset="0.51" stop-color="#FCC934"/>
<stop offset="0.82" stop-color="#F9AF21"/>
<stop offset="1" stop-color="#F79D14"/>
</linearGradient>
</defs>
</svg>
