<svg width="36" height="36" viewBox="0 0 36 36" fill="none" xmlns="http://www.w3.org/2000/svg">
<g clip-path="url(#clip0_256_47557)">
<path d="M34.4995 16.4997C34.1016 16.4997 33.7201 16.3417 33.4388 16.0604C33.1575 15.7791 32.9995 15.3975 32.9995 14.9997C32.9963 11.8181 31.731 8.76769 29.4812 6.51794C27.2315 4.26819 24.1811 3.00289 20.9995 2.99971C20.6016 2.99971 20.2201 2.84167 19.9388 2.56037C19.6575 2.27907 19.4995 1.89753 19.4995 1.49971C19.4995 1.10189 19.6575 0.720354 19.9388 0.43905C20.2201 0.157745 20.6016 -0.000290189 20.9995 -0.000290189C24.9764 0.00407721 28.7891 1.58583 31.6012 4.39793C34.4133 7.21003 35.9951 11.0228 35.9995 14.9997C35.9995 15.3975 35.8414 15.7791 35.5601 16.0604C35.2788 16.3417 34.8973 16.4997 34.4995 16.4997ZM29.9995 14.9997C29.9995 12.6128 29.0513 10.3236 27.3634 8.63575C25.6756 6.94792 23.3864 5.99971 20.9995 5.99971C20.6016 5.99971 20.2201 6.15775 19.9388 6.43905C19.6575 6.72036 19.4995 7.10189 19.4995 7.49971C19.4995 7.89753 19.6575 8.27907 19.9388 8.56037C20.2201 8.84167 20.6016 8.99971 20.9995 8.99971C22.5908 8.99971 24.1169 9.63185 25.2421 10.7571C26.3673 11.8823 26.9995 13.4084 26.9995 14.9997C26.9995 15.3975 27.1575 15.7791 27.4388 16.0604C27.7201 16.3417 28.1016 16.4997 28.4995 16.4997C28.8973 16.4997 29.2788 16.3417 29.5601 16.0604C29.8414 15.7791 29.9995 15.3975 29.9995 14.9997ZM33.274 33.2457L34.639 31.6722C35.5078 30.8006 35.9956 29.6201 35.9956 28.3895C35.9956 27.1588 35.5078 25.9783 34.639 25.1067C34.5925 25.0602 30.9835 22.2837 30.9835 22.2837C30.1173 21.4592 28.9668 21.0001 27.7709 21.0018C26.5751 21.0035 25.4258 21.4658 24.562 22.2927L21.703 24.7017C19.3692 23.7359 17.2493 22.3185 15.4649 20.531C13.6805 18.7435 12.2668 16.6211 11.305 14.2857L13.705 11.4357C14.5325 10.572 14.9954 9.42253 14.9974 8.22631C14.9993 7.0301 14.5402 5.87915 13.7155 5.01271C13.7155 5.01271 10.936 1.40821 10.8895 1.36171C10.0336 0.500332 8.87329 0.0102428 7.65911 -0.00266801C6.44493 -0.0155789 5.27441 0.449725 4.40047 1.29271L2.67547 2.79271C-7.51553 14.6157 14.4295 36.3912 26.6425 35.9997C27.8757 36.0069 29.0979 35.7668 30.2369 35.2938C31.3759 34.8208 32.4086 34.1244 33.274 33.2457Z" fill="#299E9E"/>
</g>
<defs>
<clipPath id="clip0_256_47557">
<rect width="36" height="36" fill="white"/>
</clipPath>
</defs>
</svg>
