<svg width="75" height="75" viewBox="0 0 75 75" fill="none" xmlns="http://www.w3.org/2000/svg">
<path d="M63.2812 11.7188H11.7188C10.4755 11.7188 9.28326 12.2126 8.40419 13.0917C7.52511 13.9708 7.03125 15.163 7.03125 16.4062V58.5938C7.03125 59.837 7.52511 61.0292 8.40419 61.9083C9.28326 62.7874 10.4755 63.2812 11.7188 63.2812H63.2812C64.5245 63.2812 65.7167 62.7874 66.5958 61.9083C67.4749 61.0292 67.9688 59.837 67.9688 58.5938V16.4062C67.9688 15.163 67.4749 13.9708 66.5958 13.0917C65.7167 12.2126 64.5245 11.7188 63.2812 11.7188ZM45.7031 25.7812C46.3984 25.7812 47.0782 25.9874 47.6563 26.3737C48.2344 26.76 48.685 27.3091 48.9511 27.9515C49.2172 28.5939 49.2868 29.3008 49.1512 29.9827C49.0155 30.6647 48.6807 31.2911 48.189 31.7828C47.6974 32.2745 47.071 32.6093 46.389 32.7449C45.707 32.8806 45.0002 32.811 44.3578 32.5449C43.7154 32.2788 43.1663 31.8282 42.78 31.2501C42.3937 30.6719 42.1875 29.9922 42.1875 29.2969C42.1875 28.3645 42.5579 27.4703 43.2172 26.811C43.8765 26.1516 44.7707 25.7812 45.7031 25.7812ZM11.7188 58.5938V50.3906L26.9531 35.1562L50.3906 58.5938H11.7188ZM63.2812 58.5938H57.0205L46.4736 48.0469L52.333 42.1875L63.2812 53.1387V58.5938Z" fill="#299E9E"/>
<path d="M63.2812 11.7188H11.7188C10.4755 11.7188 9.28326 12.2126 8.40419 13.0917C7.52511 13.9708 7.03125 15.163 7.03125 16.4062V58.5938C7.03125 59.837 7.52511 61.0292 8.40419 61.9083C9.28326 62.7874 10.4755 63.2812 11.7188 63.2812H63.2812C64.5245 63.2812 65.7167 62.7874 66.5958 61.9083C67.4749 61.0292 67.9688 59.837 67.9688 58.5938V16.4062C67.9688 15.163 67.4749 13.9708 66.5958 13.0917C65.7167 12.2126 64.5245 11.7188 63.2812 11.7188ZM45.7031 25.7812C46.3984 25.7812 47.0782 25.9874 47.6563 26.3737C48.2344 26.76 48.685 27.3091 48.9511 27.9515C49.2172 28.5939 49.2868 29.3008 49.1512 29.9827C49.0155 30.6647 48.6807 31.2911 48.189 31.7828C47.6974 32.2745 47.071 32.6093 46.389 32.7449C45.707 32.8806 45.0002 32.811 44.3578 32.5449C43.7154 32.2788 43.1663 31.8282 42.78 31.2501C42.3937 30.6719 42.1875 29.9922 42.1875 29.2969C42.1875 28.3645 42.5579 27.4703 43.2172 26.811C43.8765 26.1516 44.7707 25.7812 45.7031 25.7812ZM11.7188 58.5938V50.3906L26.9531 35.1562L50.3906 58.5938H11.7188ZM63.2812 58.5938H57.0205L46.4736 48.0469L52.333 42.1875L63.2812 53.1387V58.5938Z" stroke="white"/>
</svg>
