<svg width="36" height="36" viewBox="0 0 36 36" fill="none" xmlns="http://www.w3.org/2000/svg">
<path d="M29.5124 4.13789C27.6119 2.55637 25.4044 1.38563 23.029 0.699435C20.6537 0.013241 18.162 -0.173531 15.7109 0.150886C11.1765 0.739963 7.0362 3.03264 4.13075 6.5634C1.22531 10.0942 -0.227525 14.5983 0.067256 19.1613C0.362037 23.7243 2.38233 28.0041 5.71792 31.1317C9.05351 34.2592 13.4544 36.0001 18.0269 36.0009H28.4999C30.4883 35.9985 32.3945 35.2076 33.8005 33.8016C35.2065 32.3955 35.9975 30.4893 35.9999 28.5009V16.9644V16.8699C35.8411 14.4181 35.1839 12.0244 34.0684 9.83521C32.953 7.64605 31.4027 5.70742 29.5124 4.13789ZM11.9999 10.5009H17.9999C18.3977 10.5009 18.7792 10.6589 19.0605 10.9402C19.3418 11.2215 19.4999 11.6031 19.4999 12.0009C19.4999 12.3987 19.3418 12.7802 19.0605 13.0615C18.7792 13.3429 18.3977 13.5009 17.9999 13.5009H11.9999C11.602 13.5009 11.2205 13.3429 10.9392 13.0615C10.6579 12.7802 10.4999 12.3987 10.4999 12.0009C10.4999 11.6031 10.6579 11.2215 10.9392 10.9402C11.2205 10.6589 11.602 10.5009 11.9999 10.5009ZM23.9999 25.5009H11.9999C11.602 25.5009 11.2205 25.3429 10.9392 25.0615C10.6579 24.7802 10.4999 24.3987 10.4999 24.0009C10.4999 23.6031 10.6579 23.2215 10.9392 22.9402C11.2205 22.6589 11.602 22.5009 11.9999 22.5009H23.9999C24.3977 22.5009 24.7792 22.6589 25.0605 22.9402C25.3418 23.2215 25.4999 23.6031 25.4999 24.0009C25.4999 24.3987 25.3418 24.7802 25.0605 25.0615C24.7792 25.3429 24.3977 25.5009 23.9999 25.5009ZM23.9999 19.5009H11.9999C11.602 19.5009 11.2205 19.3428 10.9392 19.0615C10.6579 18.7802 10.4999 18.3987 10.4999 18.0009C10.4999 17.6031 10.6579 17.2215 10.9392 16.9402C11.2205 16.6589 11.602 16.5009 11.9999 16.5009H23.9999C24.3977 16.5009 24.7792 16.6589 25.0605 16.9402C25.3418 17.2215 25.4999 17.6031 25.4999 18.0009C25.4999 18.3987 25.3418 18.7802 25.0605 19.0615C24.7792 19.3428 24.3977 19.5009 23.9999 19.5009Z" fill="white"/>
</svg>
