<svg width="83" height="14" viewBox="0 0 83 14" fill="none" xmlns="http://www.w3.org/2000/svg">
<path d="M8.30682 0.818182V11H7.11364L1.56534 3.00568H1.46591V11H0.232955V0.818182H1.42614L6.99432 8.83239H7.09375V0.818182H8.30682ZM12.722 11.179C12.2381 11.179 11.799 11.0878 11.4046 10.9055C11.0102 10.7199 10.6969 10.4531 10.4649 10.1051C10.2329 9.75379 10.1169 9.32955 10.1169 8.83239C10.1169 8.39489 10.2031 8.04025 10.3754 7.76847C10.5478 7.49337 10.7781 7.27794 11.0665 7.12216C11.3549 6.96638 11.673 6.85038 12.021 6.77415C12.3724 6.6946 12.7254 6.63163 13.08 6.58523C13.544 6.52557 13.9202 6.48082 14.2085 6.45099C14.5002 6.41785 14.7123 6.36316 14.8449 6.28693C14.9808 6.2107 15.0487 6.07812 15.0487 5.8892V5.84943C15.0487 5.3589 14.9145 4.97775 14.646 4.70597C14.3809 4.43419 13.9782 4.2983 13.4379 4.2983C12.8778 4.2983 12.4387 4.42093 12.1205 4.66619C11.8023 4.91146 11.5786 5.1733 11.4493 5.4517L10.3357 5.05398C10.5345 4.58996 10.7997 4.22869 11.1311 3.97017C11.4659 3.70833 11.8305 3.52604 12.2249 3.4233C12.6226 3.31723 13.0137 3.2642 13.3982 3.2642C13.6434 3.2642 13.9252 3.29403 14.2433 3.35369C14.5648 3.41004 14.8747 3.5277 15.173 3.70668C15.4746 3.88565 15.7249 4.15578 15.9237 4.51705C16.1226 4.87831 16.222 5.36222 16.222 5.96875V11H15.0487V9.96591H14.9891C14.9095 10.1316 14.777 10.3089 14.5914 10.4979C14.4058 10.6868 14.1588 10.8475 13.8506 10.9801C13.5424 11.1127 13.1662 11.179 12.722 11.179ZM12.901 10.125C13.365 10.125 13.7561 10.0339 14.0743 9.85156C14.3958 9.66927 14.6378 9.43395 14.8002 9.1456C14.9659 8.85724 15.0487 8.55398 15.0487 8.2358V7.16193C14.999 7.22159 14.8897 7.27628 14.7206 7.32599C14.5549 7.3724 14.3627 7.41383 14.1439 7.45028C13.9285 7.48343 13.718 7.51326 13.5125 7.53977C13.3103 7.56297 13.1463 7.58286 13.0203 7.59943C12.7154 7.6392 12.4304 7.70384 12.1652 7.79332C11.9034 7.8795 11.6913 8.01042 11.5289 8.18608C11.3698 8.35843 11.2902 8.59375 11.2902 8.89205C11.2902 9.29972 11.441 9.60795 11.7426 9.81676C12.0476 10.0223 12.4337 10.125 12.901 10.125ZM18.2236 11V3.36364H19.3571V4.55682H19.4565C19.6156 4.14915 19.8725 3.83262 20.2271 3.60724C20.5817 3.37855 21.0076 3.2642 21.5048 3.2642C22.0086 3.2642 22.4279 3.37855 22.7626 3.60724C23.1007 3.83262 23.3642 4.14915 23.5531 4.55682H23.6326C23.8282 4.16241 24.1215 3.84919 24.5126 3.61719C24.9037 3.38187 25.3727 3.2642 25.9196 3.2642C26.6023 3.2642 27.1608 3.47798 27.595 3.90554C28.0292 4.32978 28.2463 4.991 28.2463 5.8892V11H27.073V5.8892C27.073 5.32576 26.9189 4.92306 26.6106 4.68111C26.3024 4.43916 25.9395 4.31818 25.5218 4.31818C24.9849 4.31818 24.569 4.48059 24.274 4.8054C23.979 5.12689 23.8315 5.53456 23.8315 6.02841V11H22.6383V5.76989C22.6383 5.3357 22.4975 4.98603 22.2157 4.72088C21.934 4.45241 21.5711 4.31818 21.127 4.31818C20.822 4.31818 20.537 4.39938 20.2718 4.56179C20.01 4.72419 19.7979 4.94957 19.6355 5.23793C19.4764 5.52296 19.3968 5.85275 19.3968 6.22727V11H18.2236ZM33.4532 11.1591C32.7174 11.1591 32.0827 10.9967 31.5491 10.6719C31.0188 10.3438 30.6095 9.88636 30.3211 9.29972C30.0361 8.70975 29.8936 8.02367 29.8936 7.24148C29.8936 6.45928 30.0361 5.76989 30.3211 5.1733C30.6095 4.57339 31.0105 4.10606 31.5242 3.77131C32.0413 3.43324 32.6445 3.2642 33.3339 3.2642C33.7316 3.2642 34.1244 3.33049 34.5122 3.46307C34.9 3.59564 35.2529 3.81108 35.5711 4.10938C35.8893 4.40436 36.1429 4.79545 36.3318 5.28267C36.5207 5.76989 36.6152 6.36979 36.6152 7.08239V7.57955H30.7288V6.56534H35.422C35.422 6.13447 35.3358 5.75 35.1635 5.41193C34.9944 5.07386 34.7525 4.80705 34.4376 4.61151C34.126 4.41596 33.7581 4.31818 33.3339 4.31818C32.8666 4.31818 32.4622 4.43419 32.1208 4.66619C31.7828 4.89489 31.5226 5.19318 31.3403 5.56108C31.158 5.92898 31.0669 6.32339 31.0669 6.74432V7.42045C31.0669 7.99716 31.1663 8.48603 31.3652 8.88707C31.5673 9.2848 31.8474 9.58807 32.2054 9.79688C32.5633 10.0024 32.9793 10.1051 33.4532 10.1051C33.7615 10.1051 34.0399 10.062 34.2885 9.97585C34.5403 9.88636 34.7574 9.75379 34.9397 9.57812C35.122 9.39915 35.2629 9.17708 35.3623 8.91193L36.4958 9.23011C36.3765 9.61458 36.176 9.95265 35.8943 10.2443C35.6126 10.5327 35.2645 10.758 34.8502 10.9205C34.4359 11.0795 33.9703 11.1591 33.4532 11.1591ZM39.1151 11.0795C38.8698 11.0795 38.6593 10.9917 38.4837 10.8161C38.308 10.6404 38.2202 10.4299 38.2202 10.1847C38.2202 9.93939 38.308 9.72893 38.4837 9.55327C38.6593 9.3776 38.8698 9.28977 39.1151 9.28977C39.3603 9.28977 39.5708 9.3776 39.7465 9.55327C39.9221 9.72893 40.01 9.93939 40.01 10.1847C40.01 10.3471 39.9685 10.4962 39.8857 10.6321C39.8061 10.768 39.6984 10.8774 39.5625 10.9602C39.4299 11.0398 39.2808 11.0795 39.1151 11.0795ZM39.1151 5.41193C38.8698 5.41193 38.6593 5.3241 38.4837 5.14844C38.308 4.97277 38.2202 4.76231 38.2202 4.51705C38.2202 4.27178 38.308 4.06132 38.4837 3.88565C38.6593 3.70999 38.8698 3.62216 39.1151 3.62216C39.3603 3.62216 39.5708 3.70999 39.7465 3.88565C39.9221 4.06132 40.01 4.27178 40.01 4.51705C40.01 4.67945 39.9685 4.8286 39.8857 4.96449C39.8061 5.10038 39.6984 5.20975 39.5625 5.29261C39.4299 5.37216 39.2808 5.41193 39.1151 5.41193ZM82.6159 9.60795L82.5363 10.1449C82.48 10.5227 82.3938 10.9271 82.2778 11.358C82.1651 11.7888 82.0475 12.1948 81.9248 12.576C81.8022 12.9571 81.7011 13.2604 81.6216 13.4858H80.7267C80.7698 13.2737 80.8261 12.9936 80.8957 12.6456C80.9653 12.2976 81.0349 11.9081 81.1045 11.4773C81.1774 11.0497 81.2371 10.6122 81.2835 10.1648L81.3432 9.60795H82.6159ZM81.9 5.41193C81.6547 5.41193 81.4443 5.3241 81.2686 5.14844C81.0929 4.97277 81.0051 4.76231 81.0051 4.51705C81.0051 4.27178 81.0929 4.06132 81.2686 3.88565C81.4443 3.70999 81.6547 3.62216 81.9 3.62216C82.1453 3.62216 82.3557 3.70999 82.5314 3.88565C82.707 4.06132 82.7949 4.27178 82.7949 4.51705C82.7949 4.67945 82.7534 4.8286 82.6706 4.96449C82.591 5.10038 82.4833 5.20975 82.3474 5.29261C82.2149 5.37216 82.0657 5.41193 81.9 5.41193Z" fill="#000E1F"/>
<path d="M45.8177 11V0.818182H49.4469C50.2391 0.818182 50.8953 0.962358 51.4157 1.25071C51.936 1.53906 52.3255 1.93347 52.584 2.43395C52.8425 2.93111 52.9718 3.49124 52.9718 4.11435C52.9718 4.74077 52.8409 5.30421 52.579 5.80469C52.3205 6.30185 51.9294 6.69626 51.4057 6.98793C50.8854 7.27628 50.2308 7.42045 49.442 7.42045H46.9462V6.1179H49.3028C49.8032 6.1179 50.2092 6.03172 50.5208 5.85938C50.8323 5.68371 51.061 5.44508 51.2069 5.14347C51.3527 4.84186 51.4256 4.49882 51.4256 4.11435C51.4256 3.72988 51.3527 3.38849 51.2069 3.0902C51.061 2.7919 50.8307 2.55824 50.5158 2.3892C50.2043 2.22017 49.7933 2.13565 49.2829 2.13565H47.3539V11H45.8177ZM57.7089 11.1541C56.9566 11.1541 56.3086 10.9934 55.765 10.6719C55.2248 10.3471 54.8072 9.89134 54.5122 9.30469C54.2205 8.71473 54.0747 8.02367 54.0747 7.23153C54.0747 6.44934 54.2205 5.75994 54.5122 5.16335C54.8072 4.56676 55.2182 4.10109 55.7451 3.76633C56.2754 3.43158 56.8952 3.2642 57.6045 3.2642C58.0354 3.2642 58.453 3.33546 58.8574 3.47798C59.2617 3.6205 59.6246 3.84422 59.9461 4.14915C60.2676 4.45407 60.5212 4.85014 60.7068 5.33736C60.8924 5.82126 60.9852 6.40956 60.9852 7.10227V7.62926H54.9149V6.51562H59.5285C59.5285 6.12453 59.449 5.77817 59.2899 5.47656C59.1308 5.17164 58.9071 4.93134 58.6187 4.75568C58.3337 4.58002 57.9989 4.49219 57.6145 4.49219C57.1968 4.49219 56.8323 4.59493 56.5207 4.80043C56.2125 5.0026 55.9738 5.26776 55.8048 5.59588C55.6391 5.92069 55.5562 6.27367 55.5562 6.65483V7.52486C55.5562 8.03527 55.6457 8.46946 55.8247 8.82741C56.007 9.18537 56.2605 9.45881 56.5853 9.64773C56.9102 9.83333 57.2897 9.92614 57.7238 9.92614C58.0056 9.92614 58.2624 9.88636 58.4944 9.80682C58.7264 9.72396 58.927 9.60133 59.096 9.43892C59.265 9.27652 59.3943 9.07599 59.4838 8.83736L60.8907 9.09091C60.778 9.50521 60.5759 9.86813 60.2842 10.1797C59.9959 10.4879 59.6329 10.7282 59.1954 10.9006C58.7612 11.0696 58.2657 11.1541 57.7089 11.1541ZM66.0592 3.36364V4.55682H61.888V3.36364H66.0592ZM63.0066 1.53409H64.4931V8.75781C64.4931 9.04616 64.5362 9.26326 64.6224 9.40909C64.7085 9.55161 64.8196 9.64938 64.9555 9.70241C65.0947 9.75213 65.2455 9.77699 65.4079 9.77699C65.5272 9.77699 65.6316 9.7687 65.7211 9.75213C65.8106 9.73556 65.8802 9.7223 65.9299 9.71236L66.1984 10.9403C66.1122 10.9735 65.9896 11.0066 65.8305 11.0398C65.6714 11.0762 65.4725 11.0961 65.2339 11.0994C64.8428 11.1061 64.4782 11.0365 64.1401 10.8906C63.8021 10.7448 63.5286 10.5194 63.3198 10.2145C63.111 9.90956 63.0066 9.52675 63.0066 9.06605V1.53409ZM70.7727 11.1541C70.0203 11.1541 69.3723 10.9934 68.8288 10.6719C68.2885 10.3471 67.8709 9.89134 67.5759 9.30469C67.2843 8.71473 67.1384 8.02367 67.1384 7.23153C67.1384 6.44934 67.2843 5.75994 67.5759 5.16335C67.8709 4.56676 68.2819 4.10109 68.8089 3.76633C69.3392 3.43158 69.959 3.2642 70.6683 3.2642C71.0991 3.2642 71.5167 3.33546 71.9211 3.47798C72.3255 3.6205 72.6884 3.84422 73.0099 4.14915C73.3314 4.45407 73.5849 4.85014 73.7705 5.33736C73.9561 5.82126 74.0489 6.40956 74.0489 7.10227V7.62926H67.9786V6.51562H72.5923C72.5923 6.12453 72.5127 5.77817 72.3536 5.47656C72.1945 5.17164 71.9708 4.93134 71.6825 4.75568C71.3974 4.58002 71.0627 4.49219 70.6782 4.49219C70.2606 4.49219 69.896 4.59493 69.5845 4.80043C69.2762 5.0026 69.0376 5.26776 68.8685 5.59588C68.7028 5.92069 68.62 6.27367 68.62 6.65483V7.52486C68.62 8.03527 68.7095 8.46946 68.8884 8.82741C69.0707 9.18537 69.3243 9.45881 69.6491 9.64773C69.9739 9.83333 70.3534 9.92614 70.7876 9.92614C71.0693 9.92614 71.3262 9.88636 71.5582 9.80682C71.7902 9.72396 71.9907 9.60133 72.1597 9.43892C72.3288 9.27652 72.458 9.07599 72.5475 8.83736L73.9545 9.09091C73.8418 9.50521 73.6396 9.86813 73.348 10.1797C73.0596 10.4879 72.6967 10.7282 72.2592 10.9006C71.825 11.0696 71.3295 11.1541 70.7727 11.1541ZM75.5583 11V3.36364H76.9951V4.5767H77.0746C77.2138 4.16572 77.4591 3.84257 77.8104 3.60724C78.165 3.36861 78.5661 3.24929 79.0135 3.24929C79.1063 3.24929 79.2157 3.2526 79.3417 3.25923C79.4709 3.26586 79.572 3.27415 79.6449 3.28409V4.70597C79.5853 4.68939 79.4792 4.67116 79.3267 4.65128C79.1743 4.62808 79.0218 4.61648 78.8694 4.61648C78.518 4.61648 78.2048 4.69105 77.9297 4.8402C77.6579 4.98603 77.4425 5.18987 77.2834 5.4517C77.1243 5.71023 77.0448 6.00521 77.0448 6.33665V11H75.5583Z" fill="#588AEF"/>
</svg>
