<svg width="287" height="299" viewBox="0 0 287 299" fill="none" xmlns="http://www.w3.org/2000/svg">
<path d="M16.0948 144.227C15.11 144.227 14.2459 143.993 13.5025 143.524C12.7638 143.055 12.1862 142.4 11.7695 141.557C11.3576 140.714 11.1516 139.729 11.1516 138.602C11.1516 137.466 11.3576 136.474 11.7695 135.626C12.1862 134.779 12.7638 134.121 13.5025 133.652C14.2459 133.183 15.11 132.949 16.0948 132.949C17.0797 132.949 17.9414 133.183 18.68 133.652C19.4234 134.121 20.0011 134.779 20.413 135.626C20.8297 136.474 21.038 137.466 21.038 138.602C21.038 139.729 20.8297 140.714 20.413 141.557C20.0011 142.4 19.4234 143.055 18.68 143.524C17.9414 143.993 17.0797 144.227 16.0948 144.227ZM16.0948 142.722C16.8429 142.722 17.4585 142.53 17.9414 142.146C18.4244 141.763 18.7818 141.259 19.0138 140.634C19.2459 140.009 19.3619 139.331 19.3619 138.602C19.3619 137.873 19.2459 137.194 19.0138 136.564C18.7818 135.934 18.4244 135.425 17.9414 135.037C17.4585 134.649 16.8429 134.455 16.0948 134.455C15.3467 134.455 14.7312 134.649 14.2482 135.037C13.7653 135.425 13.4078 135.934 13.1758 136.564C12.9438 137.194 12.8278 137.873 12.8278 138.602C12.8278 139.331 12.9438 140.009 13.1758 140.634C13.4078 141.259 13.7653 141.763 14.2482 142.146C14.7312 142.53 15.3467 142.722 16.0948 142.722ZM28.4545 133.091V134.511H22.5739V133.091H28.4545ZM24.3352 144V131.585C24.3352 130.96 24.482 130.439 24.7756 130.023C25.0691 129.606 25.4503 129.294 25.919 129.085C26.3878 128.877 26.8826 128.773 27.4034 128.773C27.8153 128.773 28.1515 128.806 28.4119 128.872C28.6723 128.938 28.8665 129 28.9943 129.057L28.5114 130.506C28.4261 130.477 28.3078 130.442 28.1562 130.399C28.0095 130.357 27.8153 130.335 27.5739 130.335C27.0199 130.335 26.6198 130.475 26.3736 130.754C26.1321 131.034 26.0114 131.443 26.0114 131.983V144H24.3352ZM41.1729 133.091V134.511H35.5195V133.091H41.1729ZM37.1673 130.477H38.8434V140.875C38.8434 141.348 38.9121 141.704 39.0494 141.94C39.1914 142.172 39.3713 142.329 39.5891 142.409C39.8117 142.485 40.046 142.523 40.2923 142.523C40.4769 142.523 40.6284 142.513 40.7468 142.494C40.8652 142.471 40.9599 142.452 41.0309 142.438L41.3718 143.943C41.2582 143.986 41.0996 144.028 40.896 144.071C40.6924 144.118 40.4343 144.142 40.1218 144.142C39.6483 144.142 39.1843 144.04 38.7298 143.837C38.2799 143.633 37.9059 143.323 37.6076 142.906C37.314 142.49 37.1673 141.964 37.1673 141.33V130.477ZM45.6048 137.438V144H43.9286V129.455H45.6048V134.795H45.7468C46.0025 134.232 46.386 133.785 46.8974 133.453C47.4135 133.117 48.1 132.949 48.957 132.949C49.7004 132.949 50.3514 133.098 50.9102 133.396C51.4689 133.69 51.9021 134.142 52.2099 134.753C52.5224 135.359 52.6786 136.131 52.6786 137.068V144H51.0025V137.182C51.0025 136.315 50.7776 135.645 50.3278 135.172C49.8827 134.694 49.2648 134.455 48.4741 134.455C47.9248 134.455 47.4324 134.571 46.9968 134.803C46.5659 135.035 46.225 135.373 45.9741 135.818C45.7279 136.263 45.6048 136.803 45.6048 137.438ZM60.3189 144.227C59.2678 144.227 58.361 143.995 57.5987 143.531C56.8411 143.062 56.2564 142.409 55.8445 141.571C55.4373 140.728 55.2337 139.748 55.2337 138.631C55.2337 137.513 55.4373 136.528 55.8445 135.676C56.2564 134.819 56.8293 134.152 57.5632 133.673C58.3018 133.19 59.1636 132.949 60.1484 132.949C60.7166 132.949 61.2777 133.044 61.8317 133.233C62.3857 133.422 62.8899 133.73 63.3445 134.156C63.799 134.578 64.1612 135.136 64.4311 135.832C64.701 136.528 64.8359 137.385 64.8359 138.403V139.114H56.4268V137.665H63.1314C63.1314 137.049 63.0083 136.5 62.7621 136.017C62.5206 135.534 62.175 135.153 61.7251 134.874C61.2801 134.594 60.7545 134.455 60.1484 134.455C59.4808 134.455 58.9032 134.62 58.4155 134.952C57.9325 135.278 57.5608 135.705 57.3004 136.23C57.04 136.756 56.9098 137.319 56.9098 137.92V138.886C56.9098 139.71 57.0518 140.409 57.3359 140.982C57.6248 141.55 58.0249 141.983 58.5362 142.281C59.0476 142.575 59.6418 142.722 60.3189 142.722C60.7592 142.722 61.157 142.66 61.5121 142.537C61.8719 142.409 62.1821 142.22 62.4425 141.969C62.7029 141.713 62.9041 141.396 63.0462 141.017L64.6655 141.472C64.495 142.021 64.2086 142.504 63.8061 142.92C63.4036 143.332 62.9065 143.654 62.3146 143.886C61.7228 144.114 61.0575 144.227 60.3189 144.227ZM75.4822 144L72.1584 133.091H73.9197L76.2777 141.443H76.3913L78.7209 133.091H80.5107L82.8118 141.415H82.9254L85.2834 133.091H87.0447L83.7209 144H82.0732L79.6868 135.619H79.5163L77.13 144H75.4822ZM93.3214 144.227C92.3365 144.227 91.4724 143.993 90.729 143.524C89.9904 143.055 89.4128 142.4 88.9961 141.557C88.5842 140.714 88.3782 139.729 88.3782 138.602C88.3782 137.466 88.5842 136.474 88.9961 135.626C89.4128 134.779 89.9904 134.121 90.729 133.652C91.4724 133.183 92.3365 132.949 93.3214 132.949C94.3062 132.949 95.168 133.183 95.9066 133.652C96.65 134.121 97.2276 134.779 97.6396 135.626C98.0562 136.474 98.2646 137.466 98.2646 138.602C98.2646 139.729 98.0562 140.714 97.6396 141.557C97.2276 142.4 96.65 143.055 95.9066 143.524C95.168 143.993 94.3062 144.227 93.3214 144.227ZM93.3214 142.722C94.0695 142.722 94.685 142.53 95.168 142.146C95.6509 141.763 96.0084 141.259 96.2404 140.634C96.4724 140.009 96.5884 139.331 96.5884 138.602C96.5884 137.873 96.4724 137.194 96.2404 136.564C96.0084 135.934 95.6509 135.425 95.168 135.037C94.685 134.649 94.0695 134.455 93.3214 134.455C92.5733 134.455 91.9577 134.649 91.4748 135.037C90.9918 135.425 90.6344 135.934 90.4023 136.564C90.1703 137.194 90.0543 137.873 90.0543 138.602C90.0543 139.331 90.1703 140.009 90.4023 140.634C90.6344 141.259 90.9918 141.763 91.4748 142.146C91.9577 142.53 92.5733 142.722 93.3214 142.722ZM100.823 144V133.091H102.442V134.739H102.556C102.755 134.199 103.115 133.761 103.636 133.425C104.156 133.089 104.744 132.92 105.397 132.92C105.52 132.92 105.674 132.923 105.859 132.928C106.043 132.932 106.183 132.939 106.278 132.949V134.653C106.221 134.639 106.091 134.618 105.887 134.589C105.688 134.556 105.478 134.54 105.255 134.54C104.725 134.54 104.251 134.651 103.835 134.874C103.423 135.091 103.096 135.394 102.854 135.783C102.618 136.166 102.499 136.604 102.499 137.097V144H100.823ZM109.941 129.455V144H108.265V129.455H109.941ZM117.13 144.227C116.221 144.227 115.418 143.998 114.722 143.538C114.026 143.074 113.482 142.421 113.089 141.578C112.696 140.731 112.499 139.729 112.499 138.574C112.499 137.428 112.696 136.434 113.089 135.591C113.482 134.748 114.029 134.097 114.729 133.638C115.43 133.179 116.24 132.949 117.158 132.949C117.869 132.949 118.43 133.067 118.842 133.304C119.258 133.536 119.576 133.801 119.793 134.099C120.016 134.393 120.189 134.634 120.312 134.824H120.454V129.455H122.13V144H120.511V142.324H120.312C120.189 142.523 120.013 142.774 119.786 143.077C119.559 143.375 119.235 143.643 118.813 143.879C118.392 144.111 117.831 144.227 117.13 144.227ZM117.357 142.722C118.03 142.722 118.598 142.546 119.062 142.196C119.526 141.841 119.879 141.351 120.12 140.726C120.362 140.096 120.482 139.369 120.482 138.545C120.482 137.731 120.364 137.018 120.127 136.408C119.89 135.792 119.54 135.314 119.076 134.973C118.612 134.627 118.039 134.455 117.357 134.455C116.647 134.455 116.055 134.637 115.582 135.001C115.113 135.361 114.76 135.851 114.523 136.472C114.291 137.087 114.175 137.778 114.175 138.545C114.175 139.322 114.294 140.027 114.531 140.662C114.772 141.292 115.127 141.794 115.596 142.168C116.069 142.537 116.656 142.722 117.357 142.722ZM126.91 129.455V130.733C126.91 131.121 126.839 131.536 126.697 131.976C126.559 132.411 126.356 132.835 126.086 133.247C125.821 133.654 125.499 134.009 125.12 134.312L124.211 133.574C124.509 133.148 124.767 132.705 124.985 132.246C125.208 131.782 125.319 131.287 125.319 130.761V129.455H126.91ZM135.308 135.534L133.803 135.96C133.708 135.709 133.568 135.465 133.384 135.229C133.204 134.987 132.957 134.788 132.645 134.632C132.332 134.476 131.932 134.398 131.445 134.398C130.777 134.398 130.221 134.552 129.776 134.859C129.335 135.162 129.115 135.548 129.115 136.017C129.115 136.434 129.267 136.763 129.57 137.004C129.873 137.246 130.346 137.447 130.99 137.608L132.609 138.006C133.585 138.242 134.312 138.605 134.79 139.092C135.268 139.575 135.507 140.198 135.507 140.96C135.507 141.585 135.327 142.144 134.967 142.636C134.612 143.129 134.115 143.517 133.476 143.801C132.837 144.085 132.093 144.227 131.246 144.227C130.133 144.227 129.212 143.986 128.483 143.503C127.754 143.02 127.292 142.314 127.098 141.386L128.689 140.989C128.84 141.576 129.127 142.016 129.548 142.31C129.974 142.603 130.531 142.75 131.217 142.75C131.999 142.75 132.619 142.584 133.078 142.253C133.542 141.917 133.774 141.514 133.774 141.045C133.774 140.667 133.642 140.349 133.376 140.094C133.111 139.833 132.704 139.639 132.155 139.511L130.337 139.085C129.338 138.848 128.604 138.482 128.135 137.984C127.671 137.482 127.439 136.855 127.439 136.102C127.439 135.487 127.612 134.942 127.957 134.469C128.308 133.995 128.784 133.624 129.385 133.354C129.991 133.084 130.678 132.949 131.445 132.949C132.524 132.949 133.372 133.186 133.987 133.659C134.607 134.133 135.048 134.758 135.308 135.534ZM143.655 148.091V133.091H145.275V134.824H145.473C145.596 134.634 145.767 134.393 145.985 134.099C146.207 133.801 146.525 133.536 146.936 133.304C147.353 133.067 147.917 132.949 148.627 132.949C149.545 132.949 150.355 133.179 151.056 133.638C151.757 134.097 152.303 134.748 152.696 135.591C153.089 136.434 153.286 137.428 153.286 138.574C153.286 139.729 153.089 140.731 152.696 141.578C152.303 142.421 151.759 143.074 151.063 143.538C150.367 143.998 149.564 144.227 148.655 144.227C147.954 144.227 147.393 144.111 146.972 143.879C146.551 143.643 146.226 143.375 145.999 143.077C145.772 142.774 145.596 142.523 145.473 142.324H145.331V148.091H143.655ZM145.303 138.545C145.303 139.369 145.424 140.096 145.665 140.726C145.907 141.351 146.259 141.841 146.723 142.196C147.187 142.546 147.756 142.722 148.428 142.722C149.129 142.722 149.713 142.537 150.182 142.168C150.656 141.794 151.011 141.292 151.248 140.662C151.489 140.027 151.61 139.322 151.61 138.545C151.61 137.778 151.491 137.087 151.255 136.472C151.023 135.851 150.67 135.361 150.196 135.001C149.728 134.637 149.138 134.455 148.428 134.455C147.746 134.455 147.173 134.627 146.709 134.973C146.245 135.314 145.895 135.792 145.658 136.408C145.421 137.018 145.303 137.731 145.303 138.545ZM160.275 144.227C159.29 144.227 158.426 143.993 157.682 143.524C156.944 143.055 156.366 142.4 155.949 141.557C155.537 140.714 155.331 139.729 155.331 138.602C155.331 137.466 155.537 136.474 155.949 135.626C156.366 134.779 156.944 134.121 157.682 133.652C158.426 133.183 159.29 132.949 160.275 132.949C161.259 132.949 162.121 133.183 162.86 133.652C163.603 134.121 164.181 134.779 164.593 135.626C165.009 136.474 165.218 137.466 165.218 138.602C165.218 139.729 165.009 140.714 164.593 141.557C164.181 142.4 163.603 143.055 162.86 143.524C162.121 143.993 161.259 144.227 160.275 144.227ZM160.275 142.722C161.023 142.722 161.638 142.53 162.121 142.146C162.604 141.763 162.962 141.259 163.194 140.634C163.426 140.009 163.542 139.331 163.542 138.602C163.542 137.873 163.426 137.194 163.194 136.564C162.962 135.934 162.604 135.425 162.121 135.037C161.638 134.649 161.023 134.455 160.275 134.455C159.526 134.455 158.911 134.649 158.428 135.037C157.945 135.425 157.587 135.934 157.355 136.564C157.123 137.194 157.007 137.873 157.007 138.602C157.007 139.331 157.123 140.009 157.355 140.634C157.587 141.259 157.945 141.763 158.428 142.146C158.911 142.53 159.526 142.722 160.275 142.722ZM167.776 148.091V133.091H169.396V134.824H169.594C169.718 134.634 169.888 134.393 170.106 134.099C170.328 133.801 170.646 133.536 171.058 133.304C171.474 133.067 172.038 132.949 172.748 132.949C173.666 132.949 174.476 133.179 175.177 133.638C175.878 134.097 176.424 134.748 176.817 135.591C177.21 136.434 177.407 137.428 177.407 138.574C177.407 139.729 177.21 140.731 176.817 141.578C176.424 142.421 175.88 143.074 175.184 143.538C174.488 143.998 173.685 144.227 172.776 144.227C172.076 144.227 171.514 144.111 171.093 143.879C170.672 143.643 170.347 143.375 170.12 143.077C169.893 142.774 169.718 142.523 169.594 142.324H169.452V148.091H167.776ZM169.424 138.545C169.424 139.369 169.545 140.096 169.786 140.726C170.028 141.351 170.38 141.841 170.844 142.196C171.308 142.546 171.877 142.722 172.549 142.722C173.25 142.722 173.835 142.537 174.303 142.168C174.777 141.794 175.132 141.292 175.369 140.662C175.61 140.027 175.731 139.322 175.731 138.545C175.731 137.778 175.612 137.087 175.376 136.472C175.144 135.851 174.791 135.361 174.317 135.001C173.849 134.637 173.259 134.455 172.549 134.455C171.867 134.455 171.294 134.627 170.83 134.973C170.366 135.314 170.016 135.792 169.779 136.408C169.542 137.018 169.424 137.731 169.424 138.545ZM186.839 139.54V133.091H188.515V144H186.839V142.153H186.725C186.469 142.707 186.072 143.179 185.532 143.567C184.992 143.95 184.31 144.142 183.487 144.142C182.805 144.142 182.199 143.993 181.668 143.695C181.138 143.392 180.721 142.937 180.418 142.331C180.115 141.72 179.964 140.951 179.964 140.023V133.091H181.64V139.909C181.64 140.705 181.862 141.339 182.308 141.812C182.757 142.286 183.33 142.523 184.026 142.523C184.443 142.523 184.867 142.416 185.298 142.203C185.733 141.99 186.098 141.663 186.391 141.223C186.69 140.783 186.839 140.222 186.839 139.54ZM193.261 129.455V144H191.585V129.455H193.261ZM199.541 144.256C198.85 144.256 198.223 144.125 197.659 143.865C197.096 143.6 196.648 143.219 196.317 142.722C195.985 142.22 195.82 141.614 195.82 140.903C195.82 140.278 195.943 139.772 196.189 139.384C196.435 138.991 196.764 138.683 197.176 138.46C197.588 138.238 198.043 138.072 198.54 137.963C199.042 137.849 199.546 137.759 200.053 137.693C200.715 137.608 201.253 137.544 201.665 137.501C202.081 137.454 202.384 137.376 202.574 137.267C202.768 137.158 202.865 136.969 202.865 136.699V136.642C202.865 135.941 202.673 135.397 202.29 135.009C201.911 134.62 201.336 134.426 200.564 134.426C199.764 134.426 199.136 134.601 198.682 134.952C198.227 135.302 197.908 135.676 197.723 136.074L196.132 135.506C196.416 134.843 196.795 134.327 197.268 133.957C197.747 133.583 198.268 133.323 198.831 133.176C199.399 133.025 199.958 132.949 200.507 132.949C200.857 132.949 201.26 132.991 201.714 133.077C202.174 133.157 202.616 133.325 203.043 133.581C203.473 133.837 203.831 134.223 204.115 134.739C204.399 135.255 204.541 135.946 204.541 136.812V144H202.865V142.523H202.78C202.666 142.759 202.477 143.013 202.212 143.283C201.946 143.553 201.594 143.782 201.153 143.972C200.713 144.161 200.176 144.256 199.541 144.256ZM199.797 142.75C200.46 142.75 201.018 142.62 201.473 142.359C201.932 142.099 202.278 141.763 202.51 141.351C202.747 140.939 202.865 140.506 202.865 140.051V138.517C202.794 138.602 202.638 138.68 202.396 138.751C202.16 138.818 201.885 138.877 201.572 138.929C201.265 138.976 200.964 139.019 200.67 139.057C200.382 139.09 200.147 139.118 199.967 139.142C199.532 139.199 199.125 139.291 198.746 139.419C198.372 139.542 198.069 139.729 197.837 139.98C197.609 140.226 197.496 140.562 197.496 140.989C197.496 141.571 197.711 142.011 198.142 142.31C198.578 142.603 199.129 142.75 199.797 142.75ZM212.345 133.091V134.511H206.691V133.091H212.345ZM208.339 130.477H210.015V140.875C210.015 141.348 210.084 141.704 210.221 141.94C210.363 142.172 210.543 142.329 210.761 142.409C210.984 142.485 211.218 142.523 211.464 142.523C211.649 142.523 211.8 142.513 211.919 142.494C212.037 142.471 212.132 142.452 212.203 142.438L212.544 143.943C212.43 143.986 212.271 144.028 212.068 144.071C211.864 144.118 211.606 144.142 211.294 144.142C210.82 144.142 210.356 144.04 209.902 143.837C209.452 143.633 209.078 143.323 208.779 142.906C208.486 142.49 208.339 141.964 208.339 141.33V130.477ZM214.866 144V133.091H216.542V144H214.866ZM215.718 131.273C215.392 131.273 215.11 131.161 214.873 130.939C214.641 130.716 214.525 130.449 214.525 130.136C214.525 129.824 214.641 129.556 214.873 129.334C215.11 129.111 215.392 129 215.718 129C216.045 129 216.324 129.111 216.556 129.334C216.793 129.556 216.912 129.824 216.912 130.136C216.912 130.449 216.793 130.716 216.556 130.939C216.324 131.161 216.045 131.273 215.718 131.273ZM224.044 144.227C223.059 144.227 222.195 143.993 221.452 143.524C220.713 143.055 220.135 142.4 219.719 141.557C219.307 140.714 219.101 139.729 219.101 138.602C219.101 137.466 219.307 136.474 219.719 135.626C220.135 134.779 220.713 134.121 221.452 133.652C222.195 133.183 223.059 132.949 224.044 132.949C225.029 132.949 225.891 133.183 226.629 133.652C227.373 134.121 227.95 134.779 228.362 135.626C228.779 136.474 228.987 137.466 228.987 138.602C228.987 139.729 228.779 140.714 228.362 141.557C227.95 142.4 227.373 143.055 226.629 143.524C225.891 143.993 225.029 144.227 224.044 144.227ZM224.044 142.722C224.792 142.722 225.408 142.53 225.891 142.146C226.374 141.763 226.731 141.259 226.963 140.634C227.195 140.009 227.311 139.331 227.311 138.602C227.311 137.873 227.195 137.194 226.963 136.564C226.731 135.934 226.374 135.425 225.891 135.037C225.408 134.649 224.792 134.455 224.044 134.455C223.296 134.455 222.68 134.649 222.197 135.037C221.714 135.425 221.357 135.934 221.125 136.564C220.893 137.194 220.777 137.873 220.777 138.602C220.777 139.331 220.893 140.009 221.125 140.634C221.357 141.259 221.714 141.763 222.197 142.146C222.68 142.53 223.296 142.722 224.044 142.722ZM233.222 137.438V144H231.546V133.091H233.165V134.795H233.307C233.563 134.241 233.951 133.796 234.472 133.46C234.993 133.119 235.665 132.949 236.489 132.949C237.228 132.949 237.874 133.1 238.428 133.403C238.982 133.702 239.413 134.156 239.721 134.767C240.028 135.373 240.182 136.14 240.182 137.068V144H238.506V137.182C238.506 136.325 238.283 135.657 237.838 135.179C237.393 134.696 236.783 134.455 236.006 134.455C235.471 134.455 234.993 134.571 234.571 134.803C234.155 135.035 233.826 135.373 233.584 135.818C233.343 136.263 233.222 136.803 233.222 137.438ZM250.546 137.438V144H248.87V129.455H250.546V134.795H250.688C250.944 134.232 251.327 133.785 251.839 133.453C252.355 133.117 253.041 132.949 253.898 132.949C254.642 132.949 255.293 133.098 255.852 133.396C256.41 133.69 256.844 134.142 257.151 134.753C257.464 135.359 257.62 136.131 257.62 137.068V144H255.944V137.182C255.944 136.315 255.719 135.645 255.269 135.172C254.824 134.694 254.206 134.455 253.415 134.455C252.866 134.455 252.374 134.571 251.938 134.803C251.507 135.035 251.166 135.373 250.915 135.818C250.669 136.263 250.546 136.803 250.546 137.438ZM263.897 144.256C263.205 144.256 262.578 144.125 262.015 143.865C261.451 143.6 261.004 143.219 260.672 142.722C260.341 142.22 260.175 141.614 260.175 140.903C260.175 140.278 260.298 139.772 260.544 139.384C260.791 138.991 261.12 138.683 261.532 138.46C261.944 138.238 262.398 138.072 262.895 137.963C263.397 137.849 263.901 137.759 264.408 137.693C265.071 137.608 265.608 137.544 266.02 137.501C266.437 137.454 266.74 137.376 266.929 137.267C267.123 137.158 267.221 136.969 267.221 136.699V136.642C267.221 135.941 267.029 135.397 266.645 135.009C266.266 134.62 265.691 134.426 264.919 134.426C264.119 134.426 263.492 134.601 263.037 134.952C262.583 135.302 262.263 135.676 262.078 136.074L260.488 135.506C260.772 134.843 261.15 134.327 261.624 133.957C262.102 133.583 262.623 133.323 263.186 133.176C263.755 133.025 264.313 132.949 264.863 132.949C265.213 132.949 265.615 132.991 266.07 133.077C266.529 133.157 266.972 133.325 267.398 133.581C267.829 133.837 268.186 134.223 268.471 134.739C268.755 135.255 268.897 135.946 268.897 136.812V144H267.221V142.523H267.135C267.022 142.759 266.832 143.013 266.567 143.283C266.302 143.553 265.949 143.782 265.509 143.972C265.069 144.161 264.531 144.256 263.897 144.256ZM264.152 142.75C264.815 142.75 265.374 142.62 265.828 142.359C266.288 142.099 266.633 141.763 266.865 141.351C267.102 140.939 267.221 140.506 267.221 140.051V138.517C267.15 138.602 266.993 138.68 266.752 138.751C266.515 138.818 266.24 138.877 265.928 138.929C265.62 138.976 265.319 139.019 265.026 139.057C264.737 139.09 264.503 139.118 264.323 139.142C263.887 139.199 263.48 139.291 263.101 139.419C262.727 139.542 262.424 139.729 262.192 139.98C261.965 140.226 261.851 140.562 261.851 140.989C261.851 141.571 262.067 142.011 262.498 142.31C262.933 142.603 263.485 142.75 264.152 142.75ZM279.683 135.534L278.178 135.96C278.083 135.709 277.943 135.465 277.759 135.229C277.579 134.987 277.332 134.788 277.02 134.632C276.707 134.476 276.307 134.398 275.82 134.398C275.152 134.398 274.596 134.552 274.151 134.859C273.71 135.162 273.49 135.548 273.49 136.017C273.49 136.434 273.642 136.763 273.945 137.004C274.248 137.246 274.721 137.447 275.365 137.608L276.984 138.006C277.96 138.242 278.687 138.605 279.165 139.092C279.643 139.575 279.882 140.198 279.882 140.96C279.882 141.585 279.702 142.144 279.342 142.636C278.987 143.129 278.49 143.517 277.851 143.801C277.212 144.085 276.468 144.227 275.621 144.227C274.508 144.227 273.587 143.986 272.858 143.503C272.129 143.02 271.667 142.314 271.473 141.386L273.064 140.989C273.215 141.576 273.502 142.016 273.923 142.31C274.349 142.603 274.906 142.75 275.592 142.75C276.374 142.75 276.994 142.584 277.453 142.253C277.917 141.917 278.149 141.514 278.149 141.045C278.149 140.667 278.017 140.349 277.751 140.094C277.486 139.833 277.079 139.639 276.53 139.511L274.712 139.085C273.713 138.848 272.979 138.482 272.51 137.984C272.046 137.482 271.814 136.855 271.814 136.102C271.814 135.487 271.987 134.942 272.332 134.469C272.683 133.995 273.159 133.624 273.76 133.354C274.366 133.084 275.053 132.949 275.82 132.949C276.899 132.949 277.747 133.186 278.362 133.659C278.982 134.133 279.423 134.758 279.683 135.534ZM9.5483 169.091V170.511H3.66761V169.091H9.5483ZM5.42898 180V167.585C5.42898 166.96 5.57576 166.439 5.86932 166.023C6.16288 165.606 6.54403 165.294 7.01278 165.085C7.48153 164.877 7.97633 164.773 8.49716 164.773C8.90909 164.773 9.24527 164.806 9.50568 164.872C9.7661 164.938 9.96023 165 10.0881 165.057L9.60511 166.506C9.51989 166.477 9.40152 166.442 9.25 166.399C9.10322 166.357 8.90909 166.335 8.66761 166.335C8.11364 166.335 7.71354 166.475 7.46733 166.754C7.22585 167.034 7.10511 167.443 7.10511 167.983V180H5.42898ZM16.022 180.227C14.9709 180.227 14.0642 179.995 13.3018 179.531C12.5443 179.062 11.9595 178.409 11.5476 177.571C11.1404 176.728 10.9368 175.748 10.9368 174.631C10.9368 173.513 11.1404 172.528 11.5476 171.676C11.9595 170.819 12.5324 170.152 13.2663 169.673C14.005 169.19 14.8667 168.949 15.8516 168.949C16.4197 168.949 16.9808 169.044 17.5348 169.233C18.0888 169.422 18.593 169.73 19.0476 170.156C19.5021 170.578 19.8643 171.136 20.1342 171.832C20.4041 172.528 20.5391 173.385 20.5391 174.403V175.114H12.13V173.665H18.8345C18.8345 173.049 18.7114 172.5 18.4652 172.017C18.2237 171.534 17.8781 171.153 17.4283 170.874C16.9832 170.594 16.4576 170.455 15.8516 170.455C15.1839 170.455 14.6063 170.62 14.1186 170.952C13.6357 171.278 13.264 171.705 13.0036 172.23C12.7431 172.756 12.6129 173.319 12.6129 173.92V174.886C12.6129 175.71 12.755 176.409 13.0391 176.982C13.3279 177.55 13.728 177.983 14.2393 178.281C14.7507 178.575 15.3449 178.722 16.022 178.722C16.4624 178.722 16.8601 178.66 17.2152 178.537C17.575 178.409 17.8852 178.22 18.1456 177.969C18.406 177.713 18.6072 177.396 18.7493 177.017L20.3686 177.472C20.1982 178.021 19.9117 178.504 19.5092 178.92C19.1068 179.332 18.6096 179.654 18.0178 179.886C17.4259 180.114 16.7607 180.227 16.022 180.227ZM24.7649 165.455V180H23.0888V165.455H24.7649ZM32.5792 169.091V170.511H26.9258V169.091H32.5792ZM28.5735 166.477H30.2496V176.875C30.2496 177.348 30.3183 177.704 30.4556 177.94C30.5977 178.172 30.7776 178.329 30.9954 178.409C31.2179 178.485 31.4523 178.523 31.6985 178.523C31.8832 178.523 32.0347 178.513 32.1531 178.494C32.2714 178.471 32.3661 178.452 32.4371 178.438L32.7781 179.943C32.6644 179.986 32.5058 180.028 32.3022 180.071C32.0986 180.118 31.8406 180.142 31.5281 180.142C31.0546 180.142 30.5906 180.04 30.136 179.837C29.6862 179.633 29.3121 179.323 29.0138 178.906C28.7203 178.49 28.5735 177.964 28.5735 177.33V166.477ZM45.4698 169.091V170.511H39.8164V169.091H45.4698ZM41.4641 166.477H43.1403V176.875C43.1403 177.348 43.2089 177.704 43.3462 177.94C43.4883 178.172 43.6682 178.329 43.886 178.409C44.1085 178.485 44.3429 178.523 44.5891 178.523C44.7738 178.523 44.9253 178.513 45.0437 178.494C45.1621 178.471 45.2567 178.452 45.3278 178.438L45.6687 179.943C45.555 179.986 45.3964 180.028 45.1928 180.071C44.9892 180.118 44.7312 180.142 44.4187 180.142C43.9452 180.142 43.4812 180.04 43.0266 179.837C42.5768 179.633 42.2028 179.323 41.9045 178.906C41.6109 178.49 41.4641 177.964 41.4641 177.33V166.477ZM49.9016 173.438V180H48.2255V165.455H49.9016V170.795H50.0437C50.2994 170.232 50.6829 169.785 51.1942 169.453C51.7103 169.117 52.3969 168.949 53.2539 168.949C53.9973 168.949 54.6483 169.098 55.207 169.396C55.7657 169.69 56.199 170.142 56.5067 170.753C56.8192 171.359 56.9755 172.131 56.9755 173.068V180H55.2994V173.182C55.2994 172.315 55.0745 171.645 54.6246 171.172C54.1796 170.694 53.5617 170.455 52.771 170.455C52.2217 170.455 51.7293 170.571 51.2937 170.803C50.8628 171.035 50.5219 171.373 50.271 171.818C50.0247 172.263 49.9016 172.803 49.9016 173.438ZM64.6158 180.227C63.5646 180.227 62.6579 179.995 61.8956 179.531C61.138 179.062 60.5533 178.409 60.1413 177.571C59.7341 176.728 59.5305 175.748 59.5305 174.631C59.5305 173.513 59.7341 172.528 60.1413 171.676C60.5533 170.819 61.1262 170.152 61.8601 169.673C62.5987 169.19 63.4605 168.949 64.4453 168.949C65.0135 168.949 65.5746 169.044 66.1286 169.233C66.6825 169.422 67.1868 169.73 67.6413 170.156C68.0959 170.578 68.4581 171.136 68.728 171.832C68.9979 172.528 69.1328 173.385 69.1328 174.403V175.114H60.7237V173.665H67.4283C67.4283 173.049 67.3052 172.5 67.0589 172.017C66.8175 171.534 66.4718 171.153 66.022 170.874C65.5769 170.594 65.0514 170.455 64.4453 170.455C63.7777 170.455 63.2 170.62 62.7124 170.952C62.2294 171.278 61.8577 171.705 61.5973 172.23C61.3369 172.756 61.2067 173.319 61.2067 173.92V174.886C61.2067 175.71 61.3487 176.409 61.6328 176.982C61.9216 177.55 62.3217 177.983 62.8331 178.281C63.3445 178.575 63.9387 178.722 64.6158 178.722C65.0561 178.722 65.4538 178.66 65.8089 178.537C66.1688 178.409 66.4789 178.22 66.7393 177.969C66.9998 177.713 67.201 177.396 67.343 177.017L68.9624 177.472C68.7919 178.021 68.5054 178.504 68.103 178.92C67.7005 179.332 67.2034 179.654 66.6115 179.886C66.0196 180.114 65.3544 180.227 64.6158 180.227ZM78.9837 173.438V180H77.3075V165.455H78.9837V170.795H79.1257C79.3814 170.232 79.7649 169.785 80.2763 169.453C80.7924 169.117 81.4789 168.949 82.3359 168.949C83.0793 168.949 83.7304 169.098 84.2891 169.396C84.8478 169.69 85.281 170.142 85.5888 170.753C85.9013 171.359 86.0575 172.131 86.0575 173.068V180H84.3814V173.182C84.3814 172.315 84.1565 171.645 83.7067 171.172C83.2616 170.694 82.6437 170.455 81.853 170.455C81.3037 170.455 80.8113 170.571 80.3757 170.803C79.9448 171.035 79.6039 171.373 79.353 171.818C79.1068 172.263 78.9837 172.803 78.9837 173.438ZM93.6978 180.227C92.6467 180.227 91.7399 179.995 90.9776 179.531C90.2201 179.062 89.6353 178.409 89.2234 177.571C88.8162 176.728 88.6126 175.748 88.6126 174.631C88.6126 173.513 88.8162 172.528 89.2234 171.676C89.6353 170.819 90.2082 170.152 90.9421 169.673C91.6808 169.19 92.5425 168.949 93.5273 168.949C94.0955 168.949 94.6566 169.044 95.2106 169.233C95.7646 169.422 96.2688 169.73 96.7234 170.156C97.1779 170.578 97.5401 171.136 97.81 171.832C98.0799 172.528 98.2148 173.385 98.2148 174.403V175.114H89.8058V173.665H96.5103C96.5103 173.049 96.3872 172.5 96.141 172.017C95.8995 171.534 95.5539 171.153 95.104 170.874C94.659 170.594 94.1334 170.455 93.5273 170.455C92.8597 170.455 92.2821 170.62 91.7944 170.952C91.3114 171.278 90.9397 171.705 90.6793 172.23C90.4189 172.756 90.2887 173.319 90.2887 173.92V174.886C90.2887 175.71 90.4308 176.409 90.7148 176.982C91.0037 177.55 91.4038 177.983 91.9151 178.281C92.4265 178.575 93.0207 178.722 93.6978 178.722C94.1381 178.722 94.5359 178.66 94.891 178.537C95.2508 178.409 95.561 178.22 95.8214 177.969C96.0818 177.713 96.283 177.396 96.4251 177.017L98.0444 177.472C97.8739 178.021 97.5875 178.504 97.185 178.92C96.7826 179.332 96.2854 179.654 95.6935 179.886C95.1017 180.114 94.4364 180.227 93.6978 180.227ZM102.441 165.455V180H100.765V165.455H102.441ZM105.511 184.091V169.091H107.13V170.824H107.329C107.452 170.634 107.622 170.393 107.84 170.099C108.063 169.801 108.38 169.536 108.792 169.304C109.209 169.067 109.772 168.949 110.482 168.949C111.401 168.949 112.21 169.179 112.911 169.638C113.612 170.097 114.159 170.748 114.552 171.591C114.945 172.434 115.141 173.428 115.141 174.574C115.141 175.729 114.945 176.731 114.552 177.578C114.159 178.421 113.614 179.074 112.918 179.538C112.222 179.998 111.42 180.227 110.511 180.227C109.81 180.227 109.249 180.111 108.827 179.879C108.406 179.643 108.082 179.375 107.854 179.077C107.627 178.774 107.452 178.523 107.329 178.324H107.187V184.091H105.511ZM107.158 174.545C107.158 175.369 107.279 176.096 107.521 176.726C107.762 177.351 108.115 177.841 108.579 178.196C109.043 178.546 109.611 178.722 110.283 178.722C110.984 178.722 111.569 178.537 112.038 178.168C112.511 177.794 112.866 177.292 113.103 176.662C113.344 176.027 113.465 175.322 113.465 174.545C113.465 173.778 113.347 173.087 113.11 172.472C112.878 171.851 112.525 171.361 112.052 171.001C111.583 170.637 110.994 170.455 110.283 170.455C109.602 170.455 109.029 170.627 108.565 170.973C108.101 171.314 107.75 171.792 107.513 172.408C107.277 173.018 107.158 173.731 107.158 174.545ZM117.698 180V169.091H119.374V180H117.698ZM118.55 167.273C118.224 167.273 117.942 167.161 117.705 166.939C117.473 166.716 117.357 166.449 117.357 166.136C117.357 165.824 117.473 165.556 117.705 165.334C117.942 165.111 118.224 165 118.55 165C118.877 165 119.156 165.111 119.388 165.334C119.625 165.556 119.744 165.824 119.744 166.136C119.744 166.449 119.625 166.716 119.388 166.939C119.156 167.161 118.877 167.273 118.55 167.273ZM124.12 173.438V180H122.444V169.091H124.064V170.795H124.206C124.461 170.241 124.85 169.796 125.37 169.46C125.891 169.119 126.564 168.949 127.387 168.949C128.126 168.949 128.772 169.1 129.326 169.403C129.88 169.702 130.311 170.156 130.619 170.767C130.927 171.373 131.081 172.14 131.081 173.068V180H129.404V173.182C129.404 172.325 129.182 171.657 128.737 171.179C128.292 170.696 127.681 170.455 126.904 170.455C126.369 170.455 125.891 170.571 125.47 170.803C125.053 171.035 124.724 171.373 124.483 171.818C124.241 172.263 124.12 172.803 124.12 173.438ZM138.547 184.318C137.737 184.318 137.041 184.214 136.459 184.006C135.876 183.802 135.391 183.532 135.003 183.196C134.619 182.865 134.314 182.509 134.087 182.131L135.422 181.193C135.573 181.392 135.765 181.619 135.997 181.875C136.229 182.135 136.546 182.36 136.949 182.55C137.356 182.744 137.889 182.841 138.547 182.841C139.428 182.841 140.154 182.628 140.727 182.202C141.3 181.776 141.587 181.108 141.587 180.199V177.983H141.445C141.321 178.182 141.146 178.428 140.919 178.722C140.696 179.01 140.375 179.268 139.953 179.496C139.536 179.718 138.973 179.83 138.263 179.83C137.382 179.83 136.591 179.621 135.891 179.205C135.195 178.788 134.643 178.182 134.236 177.386C133.833 176.591 133.632 175.625 133.632 174.489C133.632 173.371 133.829 172.398 134.222 171.57C134.615 170.736 135.161 170.092 135.862 169.638C136.563 169.179 137.373 168.949 138.291 168.949C139.001 168.949 139.565 169.067 139.982 169.304C140.403 169.536 140.725 169.801 140.947 170.099C141.175 170.393 141.35 170.634 141.473 170.824H141.643V169.091H143.263V180.312C143.263 181.25 143.05 182.012 142.624 182.599C142.202 183.191 141.634 183.625 140.919 183.899C140.209 184.179 139.418 184.318 138.547 184.318ZM138.49 178.324C139.162 178.324 139.731 178.17 140.195 177.862C140.659 177.554 141.011 177.112 141.253 176.534C141.494 175.956 141.615 175.265 141.615 174.46C141.615 173.674 141.497 172.981 141.26 172.379C141.023 171.778 140.673 171.307 140.209 170.966C139.745 170.625 139.172 170.455 138.49 170.455C137.78 170.455 137.188 170.634 136.714 170.994C136.246 171.354 135.893 171.837 135.656 172.443C135.424 173.049 135.308 173.722 135.308 174.46C135.308 175.218 135.427 175.888 135.663 176.47C135.905 177.048 136.26 177.502 136.729 177.834C137.202 178.161 137.789 178.324 138.49 178.324ZM153.632 173.438V180H151.956V165.455H153.632V170.795H153.774C154.03 170.232 154.413 169.785 154.925 169.453C155.441 169.117 156.127 168.949 156.984 168.949C157.728 168.949 158.379 169.098 158.938 169.396C159.496 169.69 159.929 170.142 160.237 170.753C160.55 171.359 160.706 172.131 160.706 173.068V180H159.03V173.182C159.03 172.315 158.805 171.645 158.355 171.172C157.91 170.694 157.292 170.455 156.501 170.455C155.952 170.455 155.46 170.571 155.024 170.803C154.593 171.035 154.252 171.373 154.001 171.818C153.755 172.263 153.632 172.803 153.632 173.438ZM166.983 180.256C166.291 180.256 165.664 180.125 165.1 179.865C164.537 179.6 164.09 179.219 163.758 178.722C163.427 178.22 163.261 177.614 163.261 176.903C163.261 176.278 163.384 175.772 163.63 175.384C163.877 174.991 164.206 174.683 164.618 174.46C165.029 174.238 165.484 174.072 165.981 173.963C166.483 173.849 166.987 173.759 167.494 173.693C168.157 173.608 168.694 173.544 169.106 173.501C169.523 173.454 169.826 173.376 170.015 173.267C170.209 173.158 170.306 172.969 170.306 172.699V172.642C170.306 171.941 170.115 171.397 169.731 171.009C169.352 170.62 168.777 170.426 168.005 170.426C167.205 170.426 166.578 170.601 166.123 170.952C165.669 171.302 165.349 171.676 165.164 172.074L163.574 171.506C163.858 170.843 164.236 170.327 164.71 169.957C165.188 169.583 165.709 169.323 166.272 169.176C166.841 169.025 167.399 168.949 167.949 168.949C168.299 168.949 168.701 168.991 169.156 169.077C169.615 169.157 170.058 169.325 170.484 169.581C170.915 169.837 171.272 170.223 171.556 170.739C171.841 171.255 171.983 171.946 171.983 172.812V180H170.306V178.523H170.221C170.108 178.759 169.918 179.013 169.653 179.283C169.388 179.553 169.035 179.782 168.595 179.972C168.154 180.161 167.617 180.256 166.983 180.256ZM167.238 178.75C167.901 178.75 168.46 178.62 168.914 178.359C169.374 178.099 169.719 177.763 169.951 177.351C170.188 176.939 170.306 176.506 170.306 176.051V174.517C170.235 174.602 170.079 174.68 169.838 174.751C169.601 174.818 169.326 174.877 169.014 174.929C168.706 174.976 168.405 175.019 168.112 175.057C167.823 175.09 167.589 175.118 167.409 175.142C166.973 175.199 166.566 175.291 166.187 175.419C165.813 175.542 165.51 175.729 165.278 175.98C165.051 176.226 164.937 176.562 164.937 176.989C164.937 177.571 165.153 178.011 165.583 178.31C166.019 178.603 166.571 178.75 167.238 178.75ZM176.718 173.438V180H175.042V169.091H176.661V170.795H176.803C177.059 170.241 177.447 169.796 177.968 169.46C178.489 169.119 179.161 168.949 179.985 168.949C180.724 168.949 181.37 169.1 181.924 169.403C182.478 169.702 182.909 170.156 183.217 170.767C183.524 171.373 183.678 172.14 183.678 173.068V180H182.002V173.182C182.002 172.325 181.78 171.657 181.335 171.179C180.889 170.696 180.279 170.455 179.502 170.455C178.967 170.455 178.489 170.571 178.067 170.803C177.651 171.035 177.322 171.373 177.08 171.818C176.839 172.263 176.718 172.803 176.718 173.438ZM190.86 180.227C189.951 180.227 189.149 179.998 188.453 179.538C187.757 179.074 187.212 178.421 186.819 177.578C186.426 176.731 186.23 175.729 186.23 174.574C186.23 173.428 186.426 172.434 186.819 171.591C187.212 170.748 187.759 170.097 188.46 169.638C189.161 169.179 189.97 168.949 190.889 168.949C191.599 168.949 192.16 169.067 192.572 169.304C192.989 169.536 193.306 169.801 193.524 170.099C193.746 170.393 193.919 170.634 194.042 170.824H194.184V165.455H195.86V180H194.241V178.324H194.042C193.919 178.523 193.744 178.774 193.517 179.077C193.289 179.375 192.965 179.643 192.544 179.879C192.122 180.111 191.561 180.227 190.86 180.227ZM191.088 178.722C191.76 178.722 192.328 178.546 192.792 178.196C193.256 177.841 193.609 177.351 193.85 176.726C194.092 176.096 194.213 175.369 194.213 174.545C194.213 173.731 194.094 173.018 193.858 172.408C193.621 171.792 193.27 171.314 192.806 170.973C192.342 170.627 191.77 170.455 191.088 170.455C190.377 170.455 189.786 170.637 189.312 171.001C188.843 171.361 188.491 171.851 188.254 172.472C188.022 173.087 187.906 173.778 187.906 174.545C187.906 175.322 188.024 176.027 188.261 176.662C188.502 177.292 188.858 177.794 189.326 178.168C189.8 178.537 190.387 178.722 191.088 178.722ZM206.89 171.534L205.385 171.96C205.29 171.709 205.15 171.465 204.966 171.229C204.786 170.987 204.539 170.788 204.227 170.632C203.914 170.476 203.514 170.398 203.027 170.398C202.359 170.398 201.803 170.552 201.358 170.859C200.917 171.162 200.697 171.548 200.697 172.017C200.697 172.434 200.849 172.763 201.152 173.004C201.455 173.246 201.928 173.447 202.572 173.608L204.191 174.006C205.167 174.242 205.894 174.605 206.372 175.092C206.85 175.575 207.089 176.198 207.089 176.96C207.089 177.585 206.909 178.144 206.549 178.636C206.194 179.129 205.697 179.517 205.058 179.801C204.419 180.085 203.675 180.227 202.828 180.227C201.715 180.227 200.794 179.986 200.065 179.503C199.336 179.02 198.874 178.314 198.68 177.386L200.271 176.989C200.422 177.576 200.709 178.016 201.13 178.31C201.556 178.603 202.113 178.75 202.799 178.75C203.581 178.75 204.201 178.584 204.66 178.253C205.124 177.917 205.356 177.514 205.356 177.045C205.356 176.667 205.224 176.349 204.958 176.094C204.693 175.833 204.286 175.639 203.737 175.511L201.919 175.085C200.92 174.848 200.186 174.482 199.717 173.984C199.253 173.482 199.021 172.855 199.021 172.102C199.021 171.487 199.194 170.942 199.539 170.469C199.89 169.995 200.366 169.624 200.967 169.354C201.573 169.084 202.26 168.949 203.027 168.949C204.106 168.949 204.954 169.186 205.569 169.659C206.19 170.133 206.63 170.758 206.89 171.534ZM212.112 178.011L211.999 178.778C211.918 179.318 211.795 179.896 211.629 180.511C211.468 181.127 211.3 181.707 211.125 182.251C210.95 182.796 210.805 183.229 210.692 183.551H209.413C209.475 183.248 209.555 182.848 209.655 182.351C209.754 181.854 209.854 181.297 209.953 180.682C210.057 180.071 210.143 179.446 210.209 178.807L210.294 178.011H212.112ZM224.053 180.256C223.362 180.256 222.734 180.125 222.171 179.865C221.607 179.6 221.16 179.219 220.828 178.722C220.497 178.22 220.331 177.614 220.331 176.903C220.331 176.278 220.454 175.772 220.701 175.384C220.947 174.991 221.276 174.683 221.688 174.46C222.1 174.238 222.554 174.072 223.051 173.963C223.553 173.849 224.058 173.759 224.564 173.693C225.227 173.608 225.765 173.544 226.176 173.501C226.593 173.454 226.896 173.376 227.086 173.267C227.28 173.158 227.377 172.969 227.377 172.699V172.642C227.377 171.941 227.185 171.397 226.801 171.009C226.423 170.62 225.847 170.426 225.076 170.426C224.275 170.426 223.648 170.601 223.194 170.952C222.739 171.302 222.419 171.676 222.235 172.074L220.644 171.506C220.928 170.843 221.307 170.327 221.78 169.957C222.258 169.583 222.779 169.323 223.343 169.176C223.911 169.025 224.47 168.949 225.019 168.949C225.369 168.949 225.772 168.991 226.226 169.077C226.685 169.157 227.128 169.325 227.554 169.581C227.985 169.837 228.343 170.223 228.627 170.739C228.911 171.255 229.053 171.946 229.053 172.812V180H227.377V178.523H227.292C227.178 178.759 226.989 179.013 226.723 179.283C226.458 179.553 226.105 179.782 225.665 179.972C225.225 180.161 224.687 180.256 224.053 180.256ZM224.309 178.75C224.971 178.75 225.53 178.62 225.985 178.359C226.444 178.099 226.79 177.763 227.022 177.351C227.258 176.939 227.377 176.506 227.377 176.051V174.517C227.306 174.602 227.15 174.68 226.908 174.751C226.671 174.818 226.397 174.877 226.084 174.929C225.776 174.976 225.476 175.019 225.182 175.057C224.893 175.09 224.659 175.118 224.479 175.142C224.043 175.199 223.636 175.291 223.257 175.419C222.883 175.542 222.58 175.729 222.348 175.98C222.121 176.226 222.007 176.562 222.007 176.989C222.007 177.571 222.223 178.011 222.654 178.31C223.089 178.603 223.641 178.75 224.309 178.75ZM233.788 173.438V180H232.112V169.091H233.732V170.795H233.874C234.129 170.241 234.518 169.796 235.038 169.46C235.559 169.119 236.232 168.949 237.055 168.949C237.794 168.949 238.44 169.1 238.994 169.403C239.548 169.702 239.979 170.156 240.287 170.767C240.595 171.373 240.749 172.14 240.749 173.068V180H239.072V173.182C239.072 172.325 238.85 171.657 238.405 171.179C237.96 170.696 237.349 170.455 236.572 170.455C236.037 170.455 235.559 170.571 235.138 170.803C234.721 171.035 234.392 171.373 234.151 171.818C233.909 172.263 233.788 172.803 233.788 173.438ZM247.931 180.227C247.022 180.227 246.219 179.998 245.523 179.538C244.827 179.074 244.283 178.421 243.89 177.578C243.497 176.731 243.3 175.729 243.3 174.574C243.3 173.428 243.497 172.434 243.89 171.591C244.283 170.748 244.829 170.097 245.53 169.638C246.231 169.179 247.041 168.949 247.959 168.949C248.669 168.949 249.23 169.067 249.642 169.304C250.059 169.536 250.376 169.801 250.594 170.099C250.817 170.393 250.989 170.634 251.113 170.824H251.255V165.455H252.931V180H251.311V178.324H251.113C250.989 178.523 250.814 178.774 250.587 179.077C250.36 179.375 250.035 179.643 249.614 179.879C249.193 180.111 248.632 180.227 247.931 180.227ZM248.158 178.722C248.83 178.722 249.399 178.546 249.863 178.196C250.327 177.841 250.679 177.351 250.921 176.726C251.162 176.096 251.283 175.369 251.283 174.545C251.283 173.731 251.165 173.018 250.928 172.408C250.691 171.792 250.341 171.314 249.877 170.973C249.413 170.627 248.84 170.455 248.158 170.455C247.448 170.455 246.856 170.637 246.382 171.001C245.914 171.361 245.561 171.851 245.324 172.472C245.092 173.087 244.976 173.778 244.976 174.545C244.976 175.322 245.095 176.027 245.331 176.662C245.573 177.292 245.928 177.794 246.397 178.168C246.87 178.537 247.457 178.722 248.158 178.722ZM264.33 180L261.006 169.091H262.767L265.125 177.443H265.239L267.569 169.091H269.358L271.659 177.415H271.773L274.131 169.091H275.892L272.569 180H270.921L268.534 171.619H268.364L265.978 180H264.33ZM282.311 180.227C281.26 180.227 280.353 179.995 279.591 179.531C278.833 179.062 278.249 178.409 277.837 177.571C277.429 176.728 277.226 175.748 277.226 174.631C277.226 173.513 277.429 172.528 277.837 171.676C278.249 170.819 278.821 170.152 279.555 169.673C280.294 169.19 281.156 168.949 282.141 168.949C282.709 168.949 283.27 169.044 283.824 169.233C284.378 169.422 284.882 169.73 285.337 170.156C285.791 170.578 286.153 171.136 286.423 171.832C286.693 172.528 286.828 173.385 286.828 174.403V175.114H278.419V173.665H285.124C285.124 173.049 285 172.5 284.754 172.017C284.513 171.534 284.167 171.153 283.717 170.874C283.272 170.594 282.747 170.455 282.141 170.455C281.473 170.455 280.895 170.62 280.408 170.952C279.925 171.278 279.553 171.705 279.293 172.23C279.032 172.756 278.902 173.319 278.902 173.92V174.886C278.902 175.71 279.044 176.409 279.328 176.982C279.617 177.55 280.017 177.983 280.528 178.281C281.04 178.575 281.634 178.722 282.311 178.722C282.751 178.722 283.149 178.66 283.504 178.537C283.864 178.409 284.174 178.22 284.435 177.969C284.695 177.713 284.896 177.396 285.038 177.017L286.658 177.472C286.487 178.021 286.201 178.504 285.798 178.92C285.396 179.332 284.899 179.654 284.307 179.886C283.715 180.114 283.05 180.227 282.311 180.227ZM32.1246 207.534L30.619 207.96C30.5243 207.709 30.3846 207.465 30.1999 207.229C30.02 206.987 29.7738 206.788 29.4613 206.632C29.1488 206.476 28.7487 206.398 28.261 206.398C27.5934 206.398 27.0371 206.552 26.592 206.859C26.1516 207.162 25.9315 207.548 25.9315 208.017C25.9315 208.434 26.083 208.763 26.386 209.004C26.689 209.246 27.1625 209.447 27.8065 209.608L29.4258 210.006C30.4012 210.242 31.128 210.605 31.6062 211.092C32.0844 211.575 32.3235 212.198 32.3235 212.96C32.3235 213.585 32.1436 214.144 31.7837 214.636C31.4286 215.129 30.9315 215.517 30.2923 215.801C29.6531 216.085 28.9097 216.227 28.0621 216.227C26.9495 216.227 26.0285 215.986 25.2994 215.503C24.5702 215.02 24.1085 214.314 23.9144 213.386L25.5053 212.989C25.6568 213.576 25.9433 214.016 26.3647 214.31C26.7908 214.603 27.3472 214.75 28.0337 214.75C28.815 214.75 29.4353 214.584 29.8945 214.253C30.3585 213.917 30.5906 213.514 30.5906 213.045C30.5906 212.667 30.458 212.349 30.1928 212.094C29.9277 211.833 29.5205 211.639 28.9712 211.511L27.1531 211.085C26.154 210.848 25.4201 210.482 24.9513 209.984C24.4873 209.482 24.2553 208.855 24.2553 208.102C24.2553 207.487 24.4281 206.942 24.7738 206.469C25.1242 205.995 25.6 205.624 26.2013 205.354C26.8074 205.084 27.494 204.949 28.261 204.949C29.3406 204.949 30.1881 205.186 30.8036 205.659C31.4239 206.133 31.8642 206.758 32.1246 207.534ZM38.0568 216.256C37.3655 216.256 36.7382 216.125 36.1747 215.865C35.6113 215.6 35.1638 215.219 34.8324 214.722C34.5009 214.22 34.3352 213.614 34.3352 212.903C34.3352 212.278 34.4583 211.772 34.7045 211.384C34.9508 210.991 35.2798 210.683 35.6918 210.46C36.1037 210.238 36.5582 210.072 37.0554 209.963C37.5573 209.849 38.0616 209.759 38.5682 209.693C39.2311 209.608 39.7685 209.544 40.1804 209.501C40.5971 209.454 40.9001 209.376 41.0895 209.267C41.2836 209.158 41.3807 208.969 41.3807 208.699V208.642C41.3807 207.941 41.1889 207.397 40.8054 207.009C40.4266 206.62 39.8513 206.426 39.0795 206.426C38.2794 206.426 37.652 206.601 37.1974 206.952C36.7429 207.302 36.4233 207.676 36.2386 208.074L34.6477 207.506C34.9318 206.843 35.3106 206.327 35.7841 205.957C36.2623 205.583 36.7831 205.323 37.3466 205.176C37.9148 205.025 38.4735 204.949 39.0227 204.949C39.3731 204.949 39.7756 204.991 40.2301 205.077C40.6894 205.157 41.1321 205.325 41.5582 205.581C41.9891 205.837 42.3466 206.223 42.6307 206.739C42.9148 207.255 43.0568 207.946 43.0568 208.812V216H41.3807V214.523H41.2955C41.1818 214.759 40.9924 215.013 40.7273 215.283C40.4621 215.553 40.1094 215.782 39.669 215.972C39.2287 216.161 38.6913 216.256 38.0568 216.256ZM38.3125 214.75C38.9754 214.75 39.5341 214.62 39.9886 214.359C40.4479 214.099 40.7936 213.763 41.0256 213.351C41.2623 212.939 41.3807 212.506 41.3807 212.051V210.517C41.3097 210.602 41.1534 210.68 40.9119 210.751C40.6752 210.818 40.4006 210.877 40.0881 210.929C39.7803 210.976 39.4796 211.019 39.1861 211.057C38.8973 211.09 38.6629 211.118 38.483 211.142C38.0473 211.199 37.6402 211.291 37.2614 211.419C36.8873 211.542 36.5843 211.729 36.3523 211.98C36.125 212.226 36.0114 212.562 36.0114 212.989C36.0114 213.571 36.2268 214.011 36.6577 214.31C37.0933 214.603 37.6449 214.75 38.3125 214.75ZM54.646 205.091L50.6119 216H48.9073L44.8732 205.091H46.6914L49.7028 213.784H49.8164L52.8278 205.091H54.646ZM61.0415 216.227C59.9904 216.227 59.0837 215.995 58.3214 215.531C57.5638 215.062 56.979 214.409 56.5671 213.571C56.1599 212.728 55.9563 211.748 55.9563 210.631C55.9563 209.513 56.1599 208.528 56.5671 207.676C56.979 206.819 57.552 206.152 58.2859 205.673C59.0245 205.19 59.8862 204.949 60.8711 204.949C61.4393 204.949 62.0004 205.044 62.5543 205.233C63.1083 205.422 63.6126 205.73 64.0671 206.156C64.5217 206.578 64.8839 207.136 65.1538 207.832C65.4237 208.528 65.5586 209.385 65.5586 210.403V211.114H57.1495V209.665H63.854C63.854 209.049 63.7309 208.5 63.4847 208.017C63.2433 207.534 62.8976 207.153 62.4478 206.874C62.0027 206.594 61.4772 206.455 60.8711 206.455C60.2035 206.455 59.6258 206.62 59.1381 206.952C58.6552 207.278 58.2835 207.705 58.0231 208.23C57.7627 208.756 57.6325 209.319 57.6325 209.92V210.886C57.6325 211.71 57.7745 212.409 58.0586 212.982C58.3474 213.55 58.7475 213.983 59.2589 214.281C59.7702 214.575 60.3645 214.722 61.0415 214.722C61.4819 214.722 61.8796 214.66 62.2347 214.537C62.5946 214.409 62.9047 214.22 63.1651 213.969C63.4255 213.713 63.6268 213.396 63.7688 213.017L65.3881 213.472C65.2177 214.021 64.9312 214.504 64.5288 214.92C64.1263 215.332 63.6291 215.654 63.0373 215.886C62.4454 216.114 61.7802 216.227 61.0415 216.227ZM72.2276 216.227C71.3185 216.227 70.516 215.998 69.82 215.538C69.1239 215.074 68.5794 214.421 68.1864 213.578C67.7934 212.731 67.5969 211.729 67.5969 210.574C67.5969 209.428 67.7934 208.434 68.1864 207.591C68.5794 206.748 69.1263 206.097 69.8271 205.638C70.5278 205.179 71.3375 204.949 72.256 204.949C72.9663 204.949 73.5273 205.067 73.9393 205.304C74.3559 205.536 74.6732 205.801 74.891 206.099C75.1135 206.393 75.2863 206.634 75.4094 206.824H75.5515V201.455H77.2276V216H75.6083V214.324H75.4094C75.2863 214.523 75.1112 214.774 74.8839 215.077C74.6566 215.375 74.3323 215.643 73.9109 215.879C73.4895 216.111 72.9284 216.227 72.2276 216.227ZM72.4549 214.722C73.1272 214.722 73.6954 214.546 74.1594 214.196C74.6235 213.841 74.9762 213.351 75.2177 212.726C75.4592 212.096 75.5799 211.369 75.5799 210.545C75.5799 209.731 75.4615 209.018 75.2248 208.408C74.988 207.792 74.6377 207.314 74.1737 206.973C73.7096 206.627 73.1367 206.455 72.4549 206.455C71.7447 206.455 71.1528 206.637 70.6793 207.001C70.2106 207.361 69.8578 207.851 69.6211 208.472C69.3891 209.087 69.2731 209.778 69.2731 210.545C69.2731 211.322 69.3915 212.027 69.6282 212.662C69.8697 213.292 70.2248 213.794 70.6935 214.168C71.167 214.537 71.7541 214.722 72.4549 214.722ZM87.8313 201.455V216H86.1552V201.455H87.8313ZM90.9013 216V205.091H92.5774V216H90.9013ZM91.7536 203.273C91.4268 203.273 91.1451 203.161 90.9084 202.939C90.6764 202.716 90.5604 202.449 90.5604 202.136C90.5604 201.824 90.6764 201.556 90.9084 201.334C91.1451 201.111 91.4268 201 91.7536 201C92.0803 201 92.3596 201.111 92.5916 201.334C92.8284 201.556 92.9467 201.824 92.9467 202.136C92.9467 202.449 92.8284 202.716 92.5916 202.939C92.3596 203.161 92.0803 203.273 91.7536 203.273ZM104.568 205.091L100.534 216H98.8292L94.7951 205.091H96.6133L99.6246 213.784H99.7383L102.75 205.091H104.568ZM110.963 216.227C109.912 216.227 109.006 215.995 108.243 215.531C107.486 215.062 106.901 214.409 106.489 213.571C106.082 212.728 105.878 211.748 105.878 210.631C105.878 209.513 106.082 208.528 106.489 207.676C106.901 206.819 107.474 206.152 108.208 205.673C108.946 205.19 109.808 204.949 110.793 204.949C111.361 204.949 111.922 205.044 112.476 205.233C113.03 205.422 113.534 205.73 113.989 206.156C114.444 206.578 114.806 207.136 115.076 207.832C115.346 208.528 115.48 209.385 115.48 210.403V211.114H107.071V209.665H113.776C113.776 209.049 113.653 208.5 113.407 208.017C113.165 207.534 112.819 207.153 112.37 206.874C111.925 206.594 111.399 206.455 110.793 206.455C110.125 206.455 109.548 206.62 109.06 206.952C108.577 207.278 108.205 207.705 107.945 208.23C107.685 208.756 107.554 209.319 107.554 209.92V210.886C107.554 211.71 107.696 212.409 107.98 212.982C108.269 213.55 108.669 213.983 109.181 214.281C109.692 214.575 110.286 214.722 110.963 214.722C111.404 214.722 111.801 214.66 112.157 214.537C112.516 214.409 112.827 214.22 113.087 213.969C113.347 213.713 113.549 213.396 113.691 213.017L115.31 213.472C115.14 214.021 114.853 214.504 114.451 214.92C114.048 215.332 113.551 215.654 112.959 215.886C112.367 216.114 111.702 216.227 110.963 216.227ZM125.757 207.534L124.252 207.96C124.157 207.709 124.017 207.465 123.833 207.229C123.653 206.987 123.407 206.788 123.094 206.632C122.782 206.476 122.382 206.398 121.894 206.398C121.226 206.398 120.67 206.552 120.225 206.859C119.784 207.162 119.564 207.548 119.564 208.017C119.564 208.434 119.716 208.763 120.019 209.004C120.322 209.246 120.795 209.447 121.439 209.608L123.059 210.006C124.034 210.242 124.761 210.605 125.239 211.092C125.717 211.575 125.956 212.198 125.956 212.96C125.956 213.585 125.776 214.144 125.417 214.636C125.061 215.129 124.564 215.517 123.925 215.801C123.286 216.085 122.542 216.227 121.695 216.227C120.582 216.227 119.661 215.986 118.932 215.503C118.203 215.02 117.741 214.314 117.547 213.386L119.138 212.989C119.29 213.576 119.576 214.016 119.998 214.31C120.424 214.603 120.98 214.75 121.667 214.75C122.448 214.75 123.068 214.584 123.527 214.253C123.991 213.917 124.223 213.514 124.223 213.045C124.223 212.667 124.091 212.349 123.826 212.094C123.56 211.833 123.153 211.639 122.604 211.511L120.786 211.085C119.787 210.848 119.053 210.482 118.584 209.984C118.12 209.482 117.888 208.855 117.888 208.102C117.888 207.487 118.061 206.942 118.407 206.469C118.757 205.995 119.233 205.624 119.834 205.354C120.44 205.084 121.127 204.949 121.894 204.949C122.973 204.949 123.821 205.186 124.436 205.659C125.057 206.133 125.497 206.758 125.757 207.534ZM136.576 216L133.252 205.091H135.013L137.371 213.443H137.485L139.815 205.091H141.604L143.906 213.415H144.019L146.377 205.091H148.138L144.815 216H143.167L140.781 207.619H140.61L138.224 216H136.576ZM150.354 216V205.091H152.031V216H150.354ZM151.207 203.273C150.88 203.273 150.598 203.161 150.362 202.939C150.129 202.716 150.013 202.449 150.013 202.136C150.013 201.824 150.129 201.556 150.362 201.334C150.598 201.111 150.88 201 151.207 201C151.533 201 151.813 201.111 152.045 201.334C152.281 201.556 152.4 201.824 152.4 202.136C152.4 202.449 152.281 202.716 152.045 202.939C151.813 203.161 151.533 203.273 151.207 203.273ZM159.845 205.091V206.511H154.191V205.091H159.845ZM155.839 202.477H157.515V212.875C157.515 213.348 157.584 213.704 157.721 213.94C157.863 214.172 158.043 214.329 158.261 214.409C158.484 214.485 158.718 214.523 158.964 214.523C159.149 214.523 159.3 214.513 159.419 214.494C159.537 214.471 159.632 214.452 159.703 214.438L160.044 215.943C159.93 215.986 159.771 216.028 159.568 216.071C159.364 216.118 159.106 216.142 158.794 216.142C158.32 216.142 157.856 216.04 157.402 215.837C156.952 215.633 156.578 215.323 156.279 214.906C155.986 214.49 155.839 213.964 155.839 213.33V202.477ZM164.277 209.438V216H162.6V201.455H164.277V206.795H164.419C164.674 206.232 165.058 205.785 165.569 205.453C166.085 205.117 166.772 204.949 167.629 204.949C168.372 204.949 169.023 205.098 169.582 205.396C170.141 205.69 170.574 206.142 170.882 206.753C171.194 207.359 171.35 208.131 171.35 209.068V216H169.674V209.182C169.674 208.315 169.449 207.645 169 207.172C168.555 206.694 167.937 206.455 167.146 206.455C166.597 206.455 166.104 206.571 165.669 206.803C165.238 207.035 164.897 207.373 164.646 207.818C164.4 208.263 164.277 208.803 164.277 209.438ZM184.616 216.227C183.565 216.227 182.658 215.995 181.896 215.531C181.138 215.062 180.553 214.409 180.141 213.571C179.734 212.728 179.531 211.748 179.531 210.631C179.531 209.513 179.734 208.528 180.141 207.676C180.553 206.819 181.126 206.152 181.86 205.673C182.599 205.19 183.46 204.949 184.445 204.949C185.013 204.949 185.575 205.044 186.129 205.233C186.683 205.422 187.187 205.73 187.641 206.156C188.096 206.578 188.458 207.136 188.728 207.832C188.998 208.528 189.133 209.385 189.133 210.403V211.114H180.724V209.665H187.428C187.428 209.049 187.305 208.5 187.059 208.017C186.817 207.534 186.472 207.153 186.022 206.874C185.577 206.594 185.051 206.455 184.445 206.455C183.778 206.455 183.2 206.62 182.712 206.952C182.229 207.278 181.858 207.705 181.597 208.23C181.337 208.756 181.207 209.319 181.207 209.92V210.886C181.207 211.71 181.349 212.409 181.633 212.982C181.922 213.55 182.322 213.983 182.833 214.281C183.344 214.575 183.939 214.722 184.616 214.722C185.056 214.722 185.454 214.66 185.809 214.537C186.169 214.409 186.479 214.22 186.739 213.969C187 213.713 187.201 213.396 187.343 213.017L188.962 213.472C188.792 214.021 188.505 214.504 188.103 214.92C187.701 215.332 187.203 215.654 186.612 215.886C186.02 216.114 185.354 216.227 184.616 216.227ZM200.271 205.091L196.237 216H194.532L190.498 205.091H192.316L195.328 213.784H195.441L198.453 205.091H200.271ZM206.667 216.227C205.615 216.227 204.709 215.995 203.946 215.531C203.189 215.062 202.604 214.409 202.192 213.571C201.785 212.728 201.581 211.748 201.581 210.631C201.581 209.513 201.785 208.528 202.192 207.676C202.604 206.819 203.177 206.152 203.911 205.673C204.65 205.19 205.511 204.949 206.496 204.949C207.064 204.949 207.625 205.044 208.179 205.233C208.733 205.422 209.238 205.73 209.692 206.156C210.147 206.578 210.509 207.136 210.779 207.832C211.049 208.528 211.184 209.385 211.184 210.403V211.114H202.775V209.665H209.479C209.479 209.049 209.356 208.5 209.11 208.017C208.868 207.534 208.523 207.153 208.073 206.874C207.628 206.594 207.102 206.455 206.496 206.455C205.828 206.455 205.251 206.62 204.763 206.952C204.28 207.278 203.908 207.705 203.648 208.23C203.388 208.756 203.257 209.319 203.257 209.92V210.886C203.257 211.71 203.4 212.409 203.684 212.982C203.972 213.55 204.373 213.983 204.884 214.281C205.395 214.575 205.989 214.722 206.667 214.722C207.107 214.722 207.505 214.66 207.86 214.537C208.22 214.409 208.53 214.22 208.79 213.969C209.051 213.713 209.252 213.396 209.394 213.017L211.013 213.472C210.843 214.021 210.556 214.504 210.154 214.92C209.751 215.332 209.254 215.654 208.662 215.886C208.07 216.114 207.405 216.227 206.667 216.227ZM213.733 216V205.091H215.353V206.739H215.466C215.665 206.199 216.025 205.761 216.546 205.425C217.067 205.089 217.654 204.92 218.307 204.92C218.43 204.92 218.584 204.923 218.769 204.928C218.953 204.932 219.093 204.939 219.188 204.949V206.653C219.131 206.639 219.001 206.618 218.797 206.589C218.598 206.556 218.388 206.54 218.165 206.54C217.635 206.54 217.161 206.651 216.745 206.874C216.333 207.091 216.006 207.394 215.765 207.783C215.528 208.166 215.409 208.604 215.409 209.097V216H213.733ZM222.586 220.091C222.302 220.091 222.049 220.067 221.826 220.02C221.604 219.977 221.45 219.935 221.365 219.892L221.791 218.415C222.198 218.519 222.558 218.557 222.87 218.528C223.183 218.5 223.46 218.36 223.701 218.109C223.948 217.863 224.172 217.463 224.376 216.909L224.689 216.057L220.654 205.091H222.473L225.484 213.784H225.598L228.609 205.091H230.427L225.797 217.591C225.588 218.154 225.33 218.621 225.022 218.99C224.715 219.364 224.357 219.641 223.95 219.821C223.547 220.001 223.093 220.091 222.586 220.091ZM242.668 220.318C241.858 220.318 241.162 220.214 240.58 220.006C239.998 219.802 239.512 219.532 239.124 219.196C238.74 218.865 238.435 218.509 238.208 218.131L239.543 217.193C239.694 217.392 239.886 217.619 240.118 217.875C240.35 218.135 240.667 218.36 241.07 218.55C241.477 218.744 242.01 218.841 242.668 218.841C243.549 218.841 244.275 218.628 244.848 218.202C245.421 217.776 245.708 217.108 245.708 216.199V213.983H245.566C245.443 214.182 245.267 214.428 245.04 214.722C244.818 215.01 244.496 215.268 244.074 215.496C243.658 215.718 243.094 215.83 242.384 215.83C241.503 215.83 240.712 215.621 240.012 215.205C239.316 214.788 238.764 214.182 238.357 213.386C237.954 212.591 237.753 211.625 237.753 210.489C237.753 209.371 237.95 208.398 238.343 207.57C238.736 206.736 239.283 206.092 239.983 205.638C240.684 205.179 241.494 204.949 242.412 204.949C243.123 204.949 243.686 205.067 244.103 205.304C244.524 205.536 244.846 205.801 245.069 206.099C245.296 206.393 245.471 206.634 245.594 206.824H245.765V205.091H247.384V216.312C247.384 217.25 247.171 218.012 246.745 218.599C246.323 219.191 245.755 219.625 245.04 219.899C244.33 220.179 243.539 220.318 242.668 220.318ZM242.611 214.324C243.283 214.324 243.852 214.17 244.316 213.862C244.78 213.554 245.132 213.112 245.374 212.534C245.615 211.956 245.736 211.265 245.736 210.46C245.736 209.674 245.618 208.981 245.381 208.379C245.144 207.778 244.794 207.307 244.33 206.966C243.866 206.625 243.293 206.455 242.611 206.455C241.901 206.455 241.309 206.634 240.836 206.994C240.367 207.354 240.014 207.837 239.777 208.443C239.545 209.049 239.429 209.722 239.429 210.46C239.429 211.218 239.548 211.888 239.784 212.47C240.026 213.048 240.381 213.502 240.85 213.834C241.323 214.161 241.91 214.324 242.611 214.324ZM250.452 216V205.091H252.128V216H250.452ZM251.304 203.273C250.978 203.273 250.696 203.161 250.459 202.939C250.227 202.716 250.111 202.449 250.111 202.136C250.111 201.824 250.227 201.556 250.459 201.334C250.696 201.111 250.978 201 251.304 201C251.631 201 251.91 201.111 252.142 201.334C252.379 201.556 252.498 201.824 252.498 202.136C252.498 202.449 252.379 202.716 252.142 202.939C251.91 203.161 251.631 203.273 251.304 203.273ZM260.056 205.091V206.511H254.175V205.091H260.056ZM255.937 216V203.585C255.937 202.96 256.084 202.439 256.377 202.023C256.671 201.606 257.052 201.294 257.521 201.085C257.989 200.877 258.484 200.773 259.005 200.773C259.417 200.773 259.753 200.806 260.013 200.872C260.274 200.938 260.468 201 260.596 201.057L260.113 202.506C260.028 202.477 259.909 202.442 259.758 202.399C259.611 202.357 259.417 202.335 259.175 202.335C258.621 202.335 258.221 202.475 257.975 202.754C257.734 203.034 257.613 203.443 257.613 203.983V216H255.937ZM267.15 205.091V206.511H261.496V205.091H267.15ZM263.144 202.477H264.82V212.875C264.82 213.348 264.889 213.704 265.026 213.94C265.168 214.172 265.348 214.329 265.566 214.409C265.788 214.485 266.023 214.523 266.269 214.523C266.453 214.523 266.605 214.513 266.723 214.494C266.842 214.471 266.936 214.452 267.007 214.438L267.348 215.943C267.235 215.986 267.076 216.028 266.873 216.071C266.669 216.118 266.411 216.142 266.098 216.142C265.625 216.142 265.161 216.04 264.706 215.837C264.257 215.633 263.882 215.323 263.584 214.906C263.291 214.49 263.144 213.964 263.144 213.33V202.477ZM57.0421 252.227C56.0194 252.227 55.1387 251.986 54.4 251.503C53.6614 251.02 53.0932 250.355 52.6955 249.507C52.2978 248.66 52.0989 247.691 52.0989 246.602C52.0989 245.494 52.3025 244.517 52.7097 243.669C53.1216 242.817 53.6945 242.152 54.4284 241.673C55.1671 241.19 56.0288 240.949 57.0137 240.949C57.7807 240.949 58.472 241.091 59.0875 241.375C59.7031 241.659 60.2073 242.057 60.6003 242.568C60.9933 243.08 61.2372 243.676 61.3319 244.358H59.6557C59.5279 243.861 59.2438 243.42 58.8034 243.037C58.3678 242.649 57.7807 242.455 57.0421 242.455C56.3887 242.455 55.8158 242.625 55.3233 242.966C54.8356 243.302 54.4545 243.778 54.1799 244.393C53.91 245.004 53.775 245.722 53.775 246.545C53.775 247.388 53.9076 248.122 54.1728 248.747C54.4426 249.372 54.8214 249.857 55.3091 250.203C55.8016 250.549 56.3792 250.722 57.0421 250.722C57.4777 250.722 57.873 250.646 58.2282 250.494C58.5833 250.343 58.8839 250.125 59.1301 249.841C59.3764 249.557 59.5516 249.216 59.6557 248.818H61.3319C61.2372 249.462 61.0028 250.042 60.6287 250.558C60.2594 251.07 59.7694 251.477 59.1586 251.78C58.5525 252.078 57.847 252.227 57.0421 252.227ZM66.9924 252.256C66.3011 252.256 65.6737 252.125 65.1103 251.865C64.5468 251.6 64.0994 251.219 63.7679 250.722C63.4365 250.22 63.2708 249.614 63.2708 248.903C63.2708 248.278 63.3939 247.772 63.6401 247.384C63.8863 246.991 64.2154 246.683 64.6273 246.46C65.0392 246.238 65.4938 246.072 65.9909 245.963C66.4928 245.849 66.9971 245.759 67.5037 245.693C68.1666 245.608 68.704 245.544 69.1159 245.501C69.5326 245.454 69.8356 245.376 70.025 245.267C70.2192 245.158 70.3162 244.969 70.3162 244.699V244.642C70.3162 243.941 70.1245 243.397 69.7409 243.009C69.3622 242.62 68.7869 242.426 68.0151 242.426C67.2149 242.426 66.5875 242.601 66.133 242.952C65.6784 243.302 65.3588 243.676 65.1742 244.074L63.5833 243.506C63.8674 242.843 64.2462 242.327 64.7196 241.957C65.1979 241.583 65.7187 241.323 66.2821 241.176C66.8503 241.025 67.409 240.949 67.9583 240.949C68.3087 240.949 68.7111 240.991 69.1657 241.077C69.6249 241.157 70.0676 241.325 70.4938 241.581C70.9247 241.837 71.2821 242.223 71.5662 242.739C71.8503 243.255 71.9924 243.946 71.9924 244.812V252H70.3162V250.523H70.231C70.1174 250.759 69.928 251.013 69.6628 251.283C69.3977 251.553 69.0449 251.782 68.6046 251.972C68.1642 252.161 67.6268 252.256 66.9924 252.256ZM67.248 250.75C67.9109 250.75 68.4696 250.62 68.9242 250.359C69.3835 250.099 69.7291 249.763 69.9611 249.351C70.1979 248.939 70.3162 248.506 70.3162 248.051V246.517C70.2452 246.602 70.089 246.68 69.8475 246.751C69.6107 246.818 69.3361 246.877 69.0236 246.929C68.7158 246.976 68.4152 247.019 68.1216 247.057C67.8328 247.09 67.5984 247.118 67.4185 247.142C66.9829 247.199 66.5757 247.291 66.1969 247.419C65.8229 247.542 65.5198 247.729 65.2878 247.98C65.0605 248.226 64.9469 248.562 64.9469 248.989C64.9469 249.571 65.1623 250.011 65.5932 250.31C66.0288 250.603 66.5804 250.75 67.248 250.75ZM75.0517 252V241.091H76.671V242.739H76.7846C76.9835 242.199 77.3433 241.761 77.8642 241.425C78.385 241.089 78.9721 240.92 79.6255 240.92C79.7486 240.92 79.9025 240.923 80.0872 240.928C80.2718 240.932 80.4115 240.939 80.5062 240.949V242.653C80.4494 242.639 80.3192 242.618 80.1156 242.589C79.9167 242.556 79.706 242.54 79.4835 242.54C78.9532 242.54 78.4797 242.651 78.063 242.874C77.6511 243.091 77.3244 243.394 77.0829 243.783C76.8462 244.166 76.7278 244.604 76.7278 245.097V252H75.0517ZM86.2804 252.227C85.3713 252.227 84.5687 251.998 83.8727 251.538C83.1767 251.074 82.6322 250.421 82.2392 249.578C81.8462 248.731 81.6497 247.729 81.6497 246.574C81.6497 245.428 81.8462 244.434 82.2392 243.591C82.6322 242.748 83.179 242.097 83.8798 241.638C84.5806 241.179 85.3902 240.949 86.3088 240.949C87.019 240.949 87.5801 241.067 87.992 241.304C88.4087 241.536 88.7259 241.801 88.9437 242.099C89.1663 242.393 89.3391 242.634 89.4622 242.824H89.6042V237.455H91.2804V252H89.661V250.324H89.4622C89.3391 250.523 89.1639 250.774 88.9366 251.077C88.7093 251.375 88.385 251.643 87.9636 251.879C87.5422 252.111 86.9811 252.227 86.2804 252.227ZM86.5076 250.722C87.18 250.722 87.7482 250.546 88.2122 250.196C88.6762 249.841 89.0289 249.351 89.2704 248.726C89.5119 248.096 89.6326 247.369 89.6326 246.545C89.6326 245.731 89.5143 245.018 89.2775 244.408C89.0408 243.792 88.6904 243.314 88.2264 242.973C87.7624 242.627 87.1895 242.455 86.5076 242.455C85.7974 242.455 85.2056 242.637 84.7321 243.001C84.2633 243.361 83.9106 243.851 83.6738 244.472C83.4418 245.087 83.3258 245.778 83.3258 246.545C83.3258 247.322 83.4442 248.027 83.6809 248.662C83.9224 249.292 84.2775 249.794 84.7463 250.168C85.2198 250.537 85.8069 250.722 86.5076 250.722ZM104.952 241.091V242.511H99.2988V241.091H104.952ZM100.947 238.477H102.623V248.875C102.623 249.348 102.691 249.704 102.829 249.94C102.971 250.172 103.151 250.329 103.368 250.409C103.591 250.485 103.825 250.523 104.072 250.523C104.256 250.523 104.408 250.513 104.526 250.494C104.644 250.471 104.739 250.452 104.81 250.438L105.151 251.943C105.037 251.986 104.879 252.028 104.675 252.071C104.472 252.118 104.214 252.142 103.901 252.142C103.428 252.142 102.964 252.04 102.509 251.837C102.059 251.633 101.685 251.323 101.387 250.906C101.093 250.49 100.947 249.964 100.947 249.33V238.477ZM109.384 245.438V252H107.708V237.455H109.384V242.795H109.526C109.782 242.232 110.165 241.785 110.677 241.453C111.193 241.117 111.879 240.949 112.736 240.949C113.48 240.949 114.131 241.098 114.689 241.396C115.248 241.69 115.681 242.142 115.989 242.753C116.302 243.359 116.458 244.131 116.458 245.068V252H114.782V245.182C114.782 244.315 114.557 243.645 114.107 243.172C113.662 242.694 113.044 242.455 112.253 242.455C111.704 242.455 111.212 242.571 110.776 242.803C110.345 243.035 110.004 243.373 109.753 243.818C109.507 244.263 109.384 244.803 109.384 245.438ZM122.735 252.256C122.043 252.256 121.416 252.125 120.852 251.865C120.289 251.6 119.842 251.219 119.51 250.722C119.179 250.22 119.013 249.614 119.013 248.903C119.013 248.278 119.136 247.772 119.382 247.384C119.628 246.991 119.958 246.683 120.369 246.46C120.781 246.238 121.236 246.072 121.733 245.963C122.235 245.849 122.739 245.759 123.246 245.693C123.909 245.608 124.446 245.544 124.858 245.501C125.275 245.454 125.578 245.376 125.767 245.267C125.961 245.158 126.058 244.969 126.058 244.699V244.642C126.058 243.941 125.867 243.397 125.483 243.009C125.104 242.62 124.529 242.426 123.757 242.426C122.957 242.426 122.33 242.601 121.875 242.952C121.421 243.302 121.101 243.676 120.916 244.074L119.325 243.506C119.61 242.843 119.988 242.327 120.462 241.957C120.94 241.583 121.461 241.323 122.024 241.176C122.593 241.025 123.151 240.949 123.7 240.949C124.051 240.949 124.453 240.991 124.908 241.077C125.367 241.157 125.81 241.325 126.236 241.581C126.667 241.837 127.024 242.223 127.308 242.739C127.593 243.255 127.735 243.946 127.735 244.812V252H126.058V250.523H125.973C125.86 250.759 125.67 251.013 125.405 251.283C125.14 251.553 124.787 251.782 124.347 251.972C123.906 252.161 123.369 252.256 122.735 252.256ZM122.99 250.75C123.653 250.75 124.212 250.62 124.666 250.359C125.126 250.099 125.471 249.763 125.703 249.351C125.94 248.939 126.058 248.506 126.058 248.051V246.517C125.987 246.602 125.831 246.68 125.59 246.751C125.353 246.818 125.078 246.877 124.766 246.929C124.458 246.976 124.157 247.019 123.864 247.057C123.575 247.09 123.341 247.118 123.161 247.142C122.725 247.199 122.318 247.291 121.939 247.419C121.565 247.542 121.262 247.729 121.03 247.98C120.803 248.226 120.689 248.562 120.689 248.989C120.689 249.571 120.905 250.011 121.335 250.31C121.771 250.603 122.323 250.75 122.99 250.75ZM135.538 241.091V242.511H129.885V241.091H135.538ZM131.532 238.477H133.209V248.875C133.209 249.348 133.277 249.704 133.415 249.94C133.557 250.172 133.737 250.329 133.954 250.409C134.177 250.485 134.411 250.523 134.657 250.523C134.842 250.523 134.994 250.513 135.112 250.494C135.23 250.471 135.325 250.452 135.396 250.438L135.737 251.943C135.623 251.986 135.465 252.028 135.261 252.071C135.058 252.118 134.8 252.142 134.487 252.142C134.014 252.142 133.55 252.04 133.095 251.837C132.645 251.633 132.271 251.323 131.973 250.906C131.679 250.49 131.532 249.964 131.532 249.33V238.477ZM144.764 256.091C144.48 256.091 144.227 256.067 144.004 256.02C143.782 255.977 143.628 255.935 143.542 255.892L143.969 254.415C144.376 254.519 144.736 254.557 145.048 254.528C145.361 254.5 145.638 254.36 145.879 254.109C146.125 253.863 146.35 253.463 146.554 252.909L146.866 252.057L142.832 241.091H144.65L147.662 249.784H147.775L150.787 241.091H152.605L147.974 253.591C147.766 254.154 147.508 254.621 147.2 254.99C146.892 255.364 146.535 255.641 146.128 255.821C145.725 256.001 145.271 256.091 144.764 256.091ZM158.858 252.227C157.874 252.227 157.01 251.993 156.266 251.524C155.528 251.055 154.95 250.4 154.533 249.557C154.121 248.714 153.915 247.729 153.915 246.602C153.915 245.466 154.121 244.474 154.533 243.626C154.95 242.779 155.528 242.121 156.266 241.652C157.01 241.183 157.874 240.949 158.858 240.949C159.843 240.949 160.705 241.183 161.444 241.652C162.187 242.121 162.765 242.779 163.177 243.626C163.593 244.474 163.802 245.466 163.802 246.602C163.802 247.729 163.593 248.714 163.177 249.557C162.765 250.4 162.187 251.055 161.444 251.524C160.705 251.993 159.843 252.227 158.858 252.227ZM158.858 250.722C159.607 250.722 160.222 250.53 160.705 250.146C161.188 249.763 161.546 249.259 161.778 248.634C162.01 248.009 162.126 247.331 162.126 246.602C162.126 245.873 162.01 245.194 161.778 244.564C161.546 243.934 161.188 243.425 160.705 243.037C160.222 242.649 159.607 242.455 158.858 242.455C158.11 242.455 157.495 242.649 157.012 243.037C156.529 243.425 156.171 243.934 155.939 244.564C155.707 245.194 155.591 245.873 155.591 246.602C155.591 247.331 155.707 248.009 155.939 248.634C156.171 249.259 156.529 249.763 157.012 250.146C157.495 250.53 158.11 250.722 158.858 250.722ZM173.235 247.54V241.091H174.911V252H173.235V250.153H173.122C172.866 250.707 172.468 251.179 171.928 251.567C171.389 251.95 170.707 252.142 169.883 252.142C169.201 252.142 168.595 251.993 168.065 251.695C167.535 251.392 167.118 250.937 166.815 250.331C166.512 249.72 166.36 248.951 166.36 248.023V241.091H168.036V247.909C168.036 248.705 168.259 249.339 168.704 249.812C169.154 250.286 169.727 250.523 170.423 250.523C170.839 250.523 171.263 250.416 171.694 250.203C172.13 249.99 172.494 249.663 172.788 249.223C173.086 248.783 173.235 248.222 173.235 247.54ZM191.334 243.534L189.828 243.96C189.733 243.709 189.594 243.465 189.409 243.229C189.229 242.987 188.983 242.788 188.67 242.632C188.358 242.476 187.958 242.398 187.47 242.398C186.802 242.398 186.246 242.552 185.801 242.859C185.361 243.162 185.14 243.548 185.14 244.017C185.14 244.434 185.292 244.763 185.595 245.004C185.898 245.246 186.372 245.447 187.015 245.608L188.635 246.006C189.61 246.242 190.337 246.605 190.815 247.092C191.293 247.575 191.532 248.198 191.532 248.96C191.532 249.585 191.353 250.144 190.993 250.636C190.638 251.129 190.14 251.517 189.501 251.801C188.862 252.085 188.119 252.227 187.271 252.227C186.158 252.227 185.238 251.986 184.508 251.503C183.779 251.02 183.318 250.314 183.123 249.386L184.714 248.989C184.866 249.576 185.152 250.016 185.574 250.31C186 250.603 186.556 250.75 187.243 250.75C188.024 250.75 188.644 250.584 189.104 250.253C189.568 249.917 189.8 249.514 189.8 249.045C189.8 248.667 189.667 248.349 189.402 248.094C189.137 247.833 188.729 247.639 188.18 247.511L186.362 247.085C185.363 246.848 184.629 246.482 184.16 245.984C183.696 245.482 183.464 244.855 183.464 244.102C183.464 243.487 183.637 242.942 183.983 242.469C184.333 241.995 184.809 241.624 185.41 241.354C186.016 241.084 186.703 240.949 187.47 240.949C188.55 240.949 189.397 241.186 190.013 241.659C190.633 242.133 191.073 242.758 191.334 243.534ZM195.732 245.438V252H194.056V237.455H195.732V242.795H195.874C196.129 242.232 196.513 241.785 197.024 241.453C197.54 241.117 198.227 240.949 199.084 240.949C199.827 240.949 200.478 241.098 201.037 241.396C201.596 241.69 202.029 242.142 202.337 242.753C202.649 243.359 202.806 244.131 202.806 245.068V252H201.129V245.182C201.129 244.315 200.905 243.645 200.455 243.172C200.01 242.694 199.392 242.455 198.601 242.455C198.052 242.455 197.559 242.571 197.124 242.803C196.693 243.035 196.352 243.373 196.101 243.818C195.855 244.263 195.732 244.803 195.732 245.438ZM209.082 252.256C208.391 252.256 207.764 252.125 207.2 251.865C206.637 251.6 206.189 251.219 205.858 250.722C205.526 250.22 205.361 249.614 205.361 248.903C205.361 248.278 205.484 247.772 205.73 247.384C205.976 246.991 206.305 246.683 206.717 246.46C207.129 246.238 207.584 246.072 208.081 245.963C208.583 245.849 209.087 245.759 209.594 245.693C210.256 245.608 210.794 245.544 211.206 245.501C211.622 245.454 211.925 245.376 212.115 245.267C212.309 245.158 212.406 244.969 212.406 244.699V244.642C212.406 243.941 212.214 243.397 211.831 243.009C211.452 242.62 210.877 242.426 210.105 242.426C209.305 242.426 208.677 242.601 208.223 242.952C207.768 243.302 207.449 243.676 207.264 244.074L205.673 243.506C205.957 242.843 206.336 242.327 206.809 241.957C207.288 241.583 207.809 241.323 208.372 241.176C208.94 241.025 209.499 240.949 210.048 240.949C210.398 240.949 210.801 240.991 211.256 241.077C211.715 241.157 212.157 241.325 212.584 241.581C213.015 241.837 213.372 242.223 213.656 242.739C213.94 243.255 214.082 243.946 214.082 244.812V252H212.406V250.523H212.321C212.207 250.759 212.018 251.013 211.753 251.283C211.488 251.553 211.135 251.782 210.694 251.972C210.254 252.161 209.717 252.256 209.082 252.256ZM209.338 250.75C210.001 250.75 210.559 250.62 211.014 250.359C211.473 250.099 211.819 249.763 212.051 249.351C212.288 248.939 212.406 248.506 212.406 248.051V246.517C212.335 246.602 212.179 246.68 211.937 246.751C211.701 246.818 211.426 246.877 211.113 246.929C210.806 246.976 210.505 247.019 210.211 247.057C209.923 247.09 209.688 247.118 209.508 247.142C209.073 247.199 208.666 247.291 208.287 247.419C207.913 247.542 207.61 247.729 207.378 247.98C207.15 248.226 207.037 248.562 207.037 248.989C207.037 249.571 207.252 250.011 207.683 250.31C208.119 250.603 208.67 250.75 209.338 250.75ZM217.142 252V241.091H218.761V242.739H218.874C219.073 242.199 219.433 241.761 219.954 241.425C220.475 241.089 221.062 240.92 221.715 240.92C221.838 240.92 221.992 240.923 222.177 240.928C222.362 240.932 222.501 240.939 222.596 240.949V242.653C222.539 242.639 222.409 242.618 222.205 242.589C222.007 242.556 221.796 242.54 221.573 242.54C221.043 242.54 220.57 242.651 220.153 242.874C219.741 243.091 219.414 243.394 219.173 243.783C218.936 244.166 218.818 244.604 218.818 245.097V252H217.142ZM228.825 252.227C227.774 252.227 226.867 251.995 226.105 251.531C225.347 251.062 224.762 250.409 224.35 249.571C223.943 248.728 223.74 247.748 223.74 246.631C223.74 245.513 223.943 244.528 224.35 243.676C224.762 242.819 225.335 242.152 226.069 241.673C226.808 241.19 227.669 240.949 228.654 240.949C229.222 240.949 229.784 241.044 230.338 241.233C230.892 241.422 231.396 241.73 231.85 242.156C232.305 242.578 232.667 243.136 232.937 243.832C233.207 244.528 233.342 245.385 233.342 246.403V247.114H224.933V245.665H231.637C231.637 245.049 231.514 244.5 231.268 244.017C231.026 243.534 230.681 243.153 230.231 242.874C229.786 242.594 229.26 242.455 228.654 242.455C227.987 242.455 227.409 242.62 226.921 242.952C226.438 243.278 226.067 243.705 225.806 244.23C225.546 244.756 225.416 245.319 225.416 245.92V246.886C225.416 247.71 225.558 248.409 225.842 248.982C226.131 249.55 226.531 249.983 227.042 250.281C227.553 250.575 228.148 250.722 228.825 250.722C229.265 250.722 229.663 250.66 230.018 250.537C230.378 250.409 230.688 250.22 230.948 249.969C231.209 249.713 231.41 249.396 231.552 249.017L233.171 249.472C233.001 250.021 232.714 250.504 232.312 250.92C231.91 251.332 231.412 251.654 230.82 251.886C230.229 252.114 229.563 252.227 228.825 252.227ZM238.107 237.455L237.965 247.909H236.318L236.176 237.455H238.107ZM237.142 252.114C236.791 252.114 236.49 251.988 236.24 251.737C235.989 251.486 235.863 251.186 235.863 250.835C235.863 250.485 235.989 250.184 236.24 249.933C236.49 249.682 236.791 249.557 237.142 249.557C237.492 249.557 237.793 249.682 238.044 249.933C238.294 250.184 238.42 250.485 238.42 250.835C238.42 251.067 238.361 251.28 238.242 251.474C238.129 251.669 237.975 251.825 237.781 251.943C237.591 252.057 237.378 252.114 237.142 252.114Z" fill="#525252"/>
<path d="M83.608 47.632C83.608 24.208 71.32 13.36 52.696 13.36C33.496 13.36 21.88 23.92 21.88 38.992C21.88 54.448 31.864 63.76 48.664 63.76C61.336 63.76 71.608 57.04 72.76 45.712H76.6L72.76 54.352C69.88 67.024 62.392 70.576 50.104 69.52L27.352 67.6V81.04L50.104 82.96C74.296 84.976 83.608 68.752 83.608 47.632ZM68.248 38.032C68.248 46 63.544 50.32 52.312 50.32C41.944 50.32 37.24 46.864 37.24 38.992C37.24 29.968 42.136 26.8 52.696 26.8C63.448 26.8 68.248 32.176 68.248 38.032ZM90.34 57.136C90.34 75.568 104.356 82.96 122.212 82.96C140.068 82.96 151.972 75.088 151.972 56.464C151.972 40.912 142.372 32.56 130.468 32.56C120.964 32.56 113.86 37.36 110.212 47.92L107.044 46.096L109.924 37.456V27.76H146.596V14.32H94.564V43.216L111.844 53.2C115.684 48.304 120.196 46 125.86 46C133.06 46 136.612 49.648 136.612 56.848C136.612 65.296 133.06 69.52 122.212 69.52C110.212 69.52 105.7 65.296 105.7 57.136H90.34ZM223.337 4.816L190.889 89.2L201.737 93.424L234.185 9.04L223.337 4.816ZM181.961 55.024C195.305 55.024 204.233 44.944 204.233 32.752C204.233 20.56 195.305 10.48 181.961 10.48C168.617 10.48 159.689 20.56 159.689 32.752C159.689 44.944 168.617 55.024 181.961 55.024ZM181.961 43.504C175.625 43.504 171.209 38.608 171.209 32.752C171.209 26.896 175.625 22 181.961 22C188.297 22 192.713 26.896 192.713 32.752C192.713 38.608 188.297 43.504 181.961 43.504ZM242.825 88.72C256.169 88.72 265.097 78.64 265.097 66.448C265.097 54.256 256.169 44.176 242.825 44.176C229.481 44.176 220.553 54.256 220.553 66.448C220.553 78.64 229.481 88.72 242.825 88.72ZM242.825 77.2C236.489 77.2 232.073 72.304 232.073 66.448C232.073 60.592 236.489 55.696 242.825 55.696C249.161 55.696 253.577 60.592 253.577 66.448C253.577 72.304 249.161 77.2 242.825 77.2Z" fill="#061818"/>
</svg>
