<svg width="24" height="24" viewBox="0 0 24 24" fill="none" xmlns="http://www.w3.org/2000/svg">
<path d="M21.3103 6.8772L17.1216 2.68751C16.9823 2.54818 16.8169 2.43766 16.6349 2.36226C16.4529 2.28686 16.2578 2.24805 16.0608 2.24805C15.8638 2.24805 15.6687 2.28686 15.4867 2.36226C15.3047 2.43766 15.1393 2.54818 15 2.68751L3.43969 14.2488C3.2998 14.3875 3.18889 14.5527 3.11341 14.7348C3.03792 14.9168 2.99938 15.112 3.00001 15.3091V19.4988C3.00001 19.8966 3.15804 20.2781 3.43935 20.5594C3.72065 20.8407 4.10218 20.9988 4.50001 20.9988H8.6897C8.88675 20.9994 9.08197 20.9608 9.26399 20.8854C9.44602 20.8099 9.61122 20.699 9.75001 20.5591L21.3103 8.99876C21.4496 8.85946 21.5602 8.69409 21.6356 8.51208C21.711 8.33007 21.7498 8.13499 21.7498 7.93798C21.7498 7.74096 21.711 7.54588 21.6356 7.36387C21.5602 7.18186 21.4496 7.01649 21.3103 6.8772ZM18 10.1875L13.8103 5.99876L16.0603 3.74876L20.25 7.93751L18 10.1875Z" fill="#000E1F"/>
</svg>
