<svg width="332" height="104" viewBox="0 0 332 104" fill="none" xmlns="http://www.w3.org/2000/svg">
<path d="M277.735 7.54843C278.31 7.76253 278.992 7.96908 279.726 8.2794C280.465 8.58371 281.281 8.92794 282.172 9.30074C283.063 9.67354 284.024 10.0753 285.055 10.5062C286.062 10.9896 287.127 11.5029 288.25 12.0459C288.812 12.3174 289.386 12.5938 289.971 12.8806C290.264 13.024 290.562 13.167 290.861 13.31C291.149 13.4707 291.443 13.6366 291.743 13.8021C292.932 14.4593 294.162 15.1476 295.432 15.8499C295.75 16.0255 296.068 16.2067 296.391 16.3819C296.705 16.5804 297.018 16.7789 297.332 16.9774C297.964 17.3739 298.604 17.7813 299.248 18.1884C300.539 19.008 301.868 19.825 303.16 20.7519C308.367 24.3834 313.583 28.7717 317.978 33.7263C322.389 38.6572 325.897 44.1827 328.099 49.4493C330.663 55.5441 331.959 62.1742 331.695 68.8232C331.56 72.1451 331.024 75.4668 330.033 78.6735C329.048 81.8798 327.584 84.9556 325.688 87.7453C323.791 90.5349 321.456 93.0387 318.784 95.0913C316.124 97.1544 313.171 98.8141 310.081 100.065C303.877 102.546 297.187 103.428 290.637 103.14C284.073 102.832 277.595 101.318 271.567 98.728C268.553 97.43 265.654 95.8469 262.939 93.9796C261.638 93.0024 260.306 92.0669 259.042 91.0532L257.185 89.482L256.253 88.6938C255.941 88.433 255.661 88.1417 255.364 87.8629C250.606 83.4595 246.468 78.4699 242.819 73.2029C239.165 67.9308 235.983 62.388 233.088 56.7348C231.263 53.2054 228.941 48.3882 227.265 44.4074C225.584 40.4327 224.529 37.3073 225.158 37.1672C225.825 37.013 227.253 38.9083 229.26 42.3684C231.272 45.8281 233.825 50.8723 237.023 56.8887C240.885 64.1643 245.217 71.1978 250.405 77.5326L252.39 79.875C253.066 80.6416 253.784 81.3714 254.475 82.1199C254.829 82.4908 255.167 82.8686 255.531 83.233L256.64 84.2859L257.748 85.3387C258.118 85.6915 258.482 86.0447 258.878 86.3675L261.21 88.3408C261.991 88.9926 262.834 89.5666 263.64 90.1827L264.863 91.0919L266.126 91.9248C266.542 92.2122 266.978 92.4643 267.414 92.722C267.85 92.9741 268.271 93.2498 268.723 93.4838C275.788 97.3978 283.875 99.5161 291.945 99.7023C293.961 99.742 295.986 99.6792 297.982 99.4432C298.988 99.3558 299.976 99.1735 300.967 99.0249C301.947 98.8205 302.936 98.6439 303.901 98.3727C304.88 98.1459 305.824 97.8197 306.776 97.5269C307.707 97.1733 308.651 96.8528 309.555 96.4334C310.478 96.0578 311.349 95.5784 312.228 95.1325C313.081 94.6318 313.946 94.1472 314.754 93.5762C317.145 91.9559 319.305 90.0183 321.117 87.7886C322.922 85.5537 324.393 83.0595 325.496 80.4046C327.707 75.0832 328.377 69.1575 327.814 63.386C327.25 57.5921 325.464 51.9515 322.662 46.8231C319.876 41.6766 316.18 37.0291 311.966 32.8927C307.747 28.7624 303.045 25.0841 298.016 21.9037C296.757 21.1158 295.507 20.3046 294.237 19.5288L290.331 17.3662C289.045 16.6084 287.68 16.0144 286.345 15.3562C285 14.7213 283.685 14.022 282.29 13.4867L278.167 11.769C276.773 11.2505 275.36 10.7729 273.957 10.2721C273.25 10.0333 272.558 9.75397 271.842 9.54974L269.701 8.91976L267.559 8.28979L266.485 7.97503C266.128 7.87573 265.76 7.79973 265.398 7.71207L261.052 6.68822C260.332 6.50125 259.59 6.40068 258.862 6.25951L256.663 5.86524L254.464 5.47103L252.245 5.19127C250.768 5.01777 249.294 4.79326 247.809 4.66554L243.809 4.38625C243.139 4.3484 242.478 4.26479 241.805 4.2667L239.801 4.23187C238.466 4.21805 237.127 4.16487 235.789 4.1852L231.779 4.33617C231.114 4.36582 230.441 4.36769 229.778 4.42547L227.784 4.61049C226.453 4.73768 225.12 4.84233 223.79 4.9864L219.823 5.57536C219.163 5.67813 218.502 5.76405 217.842 5.87245L215.88 6.27559L211.956 7.08752L208.088 8.12178L206.151 8.63621L204.237 9.23956C203.601 9.4424 202.958 9.63437 202.323 9.84846L200.424 10.5073C195.37 12.2859 190.41 14.3744 185.507 16.623C175.702 21.1312 166.116 26.2573 156.191 30.8305C146.285 35.425 135.921 39.3846 125.043 41.4922C119.945 42.4882 114.739 43.0678 109.503 43.0673C104.267 43.0668 99.0059 42.4633 93.9033 41.1363L91.9908 40.6316C91.3448 40.4508 90.6901 40.2253 90.0575 39.9927C88.7803 39.5169 87.5425 38.9592 86.3442 38.3197C83.9537 37.0458 81.7063 35.4736 79.7225 33.5494C77.7504 31.63 76.0115 29.3269 74.9753 26.5619C74.4552 25.1908 74.1691 23.6903 74.1422 22.1773C74.121 20.6639 74.3814 19.1364 74.8881 17.7329C75.3903 16.3468 76.1211 14.9954 77.096 13.8192C78.0653 12.6434 79.2629 11.6607 80.5507 10.9147C83.1544 9.42087 86.0147 8.84731 88.75 8.66693C91.503 8.49663 94.2043 8.71997 96.8363 9.16297C99.4735 9.59995 102.042 10.2735 104.555 11.1036C105.804 11.5078 107.077 12.0009 108.258 12.4777L111.819 13.9183C114.195 14.8993 116.573 15.9197 118.925 17.038C123.616 19.2756 128.241 21.9304 132.324 25.409C135.864 28.4055 138.884 32.1225 141.025 36.2911C143.138 40.4729 144.415 45.2164 144.172 50.0608C143.958 54.9144 142.016 59.6404 138.887 63.3078C137.337 65.1574 135.489 66.7057 133.522 68.008C131.555 69.3103 129.452 70.3621 127.307 71.2134C122.992 72.9006 118.501 73.8372 114.001 74.339C109.501 74.8296 104.981 74.8807 100.492 74.5678C91.6343 73.9506 82.8184 72.7256 74.1219 70.9439C72.0782 70.5049 69.931 70.0393 67.7206 69.5611C65.5232 69.0254 63.2571 68.4777 60.9737 67.9255C58.7072 67.2929 56.4131 66.668 54.1391 66.0077C51.8889 65.2836 49.6463 64.5871 47.4789 63.8346C45.7028 63.179 43.6149 62.4322 41.4019 61.5924C40.3022 61.1495 39.1672 60.6864 38.0149 60.2188C36.8674 59.7396 35.6834 59.3025 34.5376 58.7667C29.907 56.751 25.3714 54.5591 22.0585 52.7902C20.6305 52.0198 19.1789 51.234 17.7329 50.4479C16.3026 49.6437 14.888 48.8214 13.4946 48.0599C12.7003 47.6181 11.9257 47.2146 11.217 46.7837C10.5083 46.3529 9.83532 45.9479 9.1977 45.5629C7.92206 44.7875 6.79339 44.0922 5.81051 43.4601C3.88059 42.1426 2.50962 41.1364 1.67955 40.4258C0.0190187 38.999 0.510823 38.7554 2.93664 39.4842C3.99951 39.8054 3.21528 38.7807 6.23728 40.5134C6.36096 40.5839 6.61394 40.7245 6.72597 40.7901C7.87922 41.4328 9.07315 42.0105 10.2377 42.6524C11.4018 43.2887 12.5663 43.9307 13.7304 44.567C14.9102 45.1853 16.0856 45.8207 17.2557 46.4623L19.0145 47.4357L20.7983 48.3621C21.9841 48.9855 23.176 49.6143 24.3678 50.243C25.5593 50.8661 26.787 51.4414 27.9941 52.0464C29.2109 52.6282 30.4096 53.2733 31.657 53.8077C32.8944 54.3597 34.1374 54.9114 35.3804 55.463C36.8992 56.1593 38.4609 56.7394 40.0035 57.3718C41.551 57.9926 43.0941 58.6306 44.6702 59.1758L49.3749 60.8754L54.1311 62.4245C55.7069 62.9641 57.325 63.3821 58.9245 63.8579L61.3255 64.5545C62.1277 64.7866 62.9379 64.9728 63.7442 65.182C65.3611 65.583 66.9748 66.0183 68.5957 66.3965L73.4825 67.4672C80.0205 68.7839 86.6038 69.8601 93.2432 70.5254C94.8965 70.7204 96.5653 70.8126 98.2264 70.9562L100.717 71.1604C101.54 71.2045 102.363 71.2542 103.185 71.2758C106.478 71.3842 109.772 71.2721 113.027 70.9252C116.281 70.5672 119.514 69.9845 122.609 69.0441C125.71 68.1202 128.691 66.8429 131.328 65.1037C132.647 64.2368 133.879 63.2574 134.978 62.1572C136.071 61.0519 137.031 59.8258 137.821 58.5043C138.61 57.1828 139.24 55.7594 139.69 54.2808C139.87 53.5334 140.112 52.7985 140.2 52.0349C140.252 51.6525 140.35 51.2782 140.363 50.893L140.446 49.7396C140.479 48.1942 140.415 46.6329 140.098 45.095L140.001 44.5139L139.859 43.9416L139.57 42.7975C139.314 42.0523 139.113 41.2862 138.791 40.5627C138.24 39.0807 137.486 37.6696 136.688 36.2954C135.858 34.9347 134.941 33.6254 133.916 32.4028C132.886 31.1805 131.799 30.0244 130.582 28.9622C129.393 27.8811 128.113 26.8854 126.792 25.9436C125.475 24.9901 124.081 24.1382 122.677 23.3039C121.252 22.4937 119.812 21.7128 118.331 20.9857C114.7 19.1939 110.921 17.6385 107.099 16.1032C103.36 14.545 99.5362 13.3998 95.6081 12.7763C93.6535 12.478 91.685 12.3051 89.7556 12.3668C88.7908 12.3948 87.8346 12.4675 86.9017 12.629C85.9736 12.7788 85.0615 12.9953 84.2071 13.3096C83.3528 13.6238 82.5425 14.0028 81.8133 14.4892C81.0901 14.9807 80.4467 15.5628 79.8993 16.223C79.3402 16.8783 78.9132 17.6431 78.5685 18.4529C78.2126 19.2636 77.9775 20.1053 77.8739 20.9661C77.6602 22.6769 77.9869 24.4346 78.7297 26.0783C79.4673 27.7281 80.6032 29.2539 81.9364 30.6075C84.6142 33.3197 88.0457 35.408 91.6766 36.7137C92.1349 36.8794 92.5804 37.0235 93.0592 37.1595L94.5054 37.5443C95.4675 37.7991 96.4255 38.0767 97.4151 38.2391C98.3998 38.4132 99.3663 38.6507 100.359 38.779L103.332 39.1585C107.315 39.5294 111.34 39.5074 115.342 39.1704C124.127 38.4304 132.72 35.9912 141.226 33.0267L141.082 33.0763C149.924 29.8339 158.418 25.5814 166.96 21.3538C175.041 17.3451 183.243 13.1978 191.816 9.66338C196.102 7.89896 200.479 6.29216 204.954 4.94983L208.339 4.04553L210.032 3.59342C210.598 3.4407 211.158 3.28274 211.733 3.18026L215.161 2.47092C216.303 2.23259 217.445 1.98297 218.6 1.83988C237.008 -1.17415 255.856 0.478365 272.663 5.85195C273.337 6.03082 274.103 6.31064 274.954 6.5958C275.835 6.89587 276.762 7.2153 277.735 7.54843Z" fill="#6DBCE9"/>
</svg>
