<svg width="40" height="33" viewBox="0 0 40 33" fill="none" xmlns="http://www.w3.org/2000/svg">
<path d="M37.9433 3.60939C37.3343 3.3557 36.6636 3.28902 36.0165 3.41783C35.3695 3.54665 34.7754 3.86513 34.31 4.33273L30 8.64273L22.3567 0.999392C21.7316 0.374489 20.8839 0.0234375 20 0.0234375C19.1161 0.0234375 18.2684 0.374489 17.6433 0.999392L10 8.64273L5.69 4.33273C5.22383 3.86669 4.62995 3.54934 3.98344 3.42078C3.33693 3.29222 2.66682 3.35823 2.05782 3.61047C1.44882 3.8627 0.928275 4.28983 0.561995 4.83786C0.195714 5.3859 0.000140748 6.03022 0 6.68939L0 24.3327C0.00264643 26.5421 0.88147 28.6601 2.4437 30.2224C4.00593 31.7846 6.12401 32.6634 8.33333 32.6661H31.6667C33.876 32.6634 35.9941 31.7846 37.5563 30.2224C39.1185 28.6601 39.9973 26.5421 40 24.3327V6.68939C40.0002 6.03017 39.8049 5.38571 39.4388 4.83748C39.0727 4.28925 38.5523 3.86187 37.9433 3.60939V3.60939Z" fill="#FFB019"/>
</svg>
