<svg width="31" height="31" viewBox="0 0 31 31" fill="none" xmlns="http://www.w3.org/2000/svg">
<path d="M15.49 31.0002C23.5897 31.0002 30.1557 24.3714 30.1557 16.1944C30.1557 8.01743 23.5897 1.38867 15.49 1.38867C7.3903 1.38867 0.824219 8.01743 0.824219 16.1944C0.824219 24.3714 7.3903 31.0002 15.49 31.0002Z" fill="url(#paint0_radial_165_47114)"/>
<g style="mix-blend-mode:soft-light">
<path d="M15.49 31.0002C23.5897 31.0002 30.1557 24.3714 30.1557 16.1944C30.1557 8.01743 23.5897 1.38867 15.49 1.38867C7.3903 1.38867 0.824219 8.01743 0.824219 16.1944C0.824219 24.3714 7.3903 31.0002 15.49 31.0002Z" fill="url(#paint1_radial_165_47114)"/>
</g>
<g style="mix-blend-mode:soft-light">
<path d="M15.49 31.0002C23.5897 31.0002 30.1557 24.3714 30.1557 16.1944C30.1557 8.01743 23.5897 1.38867 15.49 1.38867C7.3903 1.38867 0.824219 8.01743 0.824219 16.1944C0.824219 24.3714 7.3903 31.0002 15.49 31.0002Z" fill="url(#paint2_radial_165_47114)"/>
</g>
<g style="mix-blend-mode:overlay">
<path d="M15.49 31.0002C23.5897 31.0002 30.1557 24.3714 30.1557 16.1944C30.1557 8.01743 23.5897 1.38867 15.49 1.38867C7.3903 1.38867 0.824219 8.01743 0.824219 16.1944C0.824219 24.3714 7.3903 31.0002 15.49 31.0002Z" fill="url(#paint3_radial_165_47114)" fill-opacity="0.7"/>
</g>
<mask id="mask0_165_47114" style="mask-type:alpha" maskUnits="userSpaceOnUse" x="0" y="1" width="31" height="30">
<path d="M15.49 31.0002C23.5897 31.0002 30.1557 24.3714 30.1557 16.1944C30.1557 8.01743 23.5897 1.38867 15.49 1.38867C7.3903 1.38867 0.824219 8.01743 0.824219 16.1944C0.824219 24.3714 7.3903 31.0002 15.49 31.0002Z" fill="white"/>
</mask>
<g mask="url(#mask0_165_47114)">
<g filter="url(#filter0_f_165_47114)">
<path d="M0.740564 15.7718C0.756489 15.5614 0.825064 15.5403 0.845065 15.7539C0.867286 15.9913 0.82409 16.4684 0.83449 16.7562C0.862026 17.5182 0.977736 18.1808 1.09702 18.7197C1.48142 20.4565 2.01375 21.5757 2.51025 22.5239C4.14232 25.6407 5.93011 27.219 7.67416 28.4085C10.2306 30.1521 12.8079 30.7067 15.3872 30.8244C15.4523 30.8273 15.4631 31.2552 15.3991 31.3109C15.2837 31.4113 15.1407 31.3116 15.0226 31.3075C14.6833 31.2955 14.3441 31.2719 14.0048 31.2364C12.9988 31.1308 11.9929 30.9159 10.9891 30.5701C8.25954 29.63 5.31654 28.0202 2.74633 23.4861C2.58465 23.2008 2.42424 22.9005 2.26611 22.5778C2.13964 22.3198 2.01441 22.0492 1.89138 21.7599C1.48671 20.8083 0.543708 18.3721 0.740564 15.7718ZM15.389 31.3155C15.327 31.3174 15.3113 30.9186 15.3704 30.8357C15.4598 30.7106 15.5939 30.8137 15.6881 30.8077C16.0797 30.783 16.4711 30.7464 16.8624 30.6968C17.9354 30.5607 19.0076 30.3285 20.0774 29.9708C22.7309 29.0837 25.5836 27.7313 28.0849 23.5763C28.2441 23.3118 28.4019 23.0313 28.5576 22.7297C29.0308 21.8132 30.2167 19.3805 30.0796 16.3563C30.068 16.1014 30.1449 15.9487 30.1793 16.1674C30.2231 16.4458 30.2053 17.0264 30.1933 17.3353C30.1546 18.3246 30.0041 19.1612 29.8454 19.8369C29.3426 21.9782 28.6365 23.2197 27.99 24.2564C25.8885 27.6258 23.606 28.9842 21.3869 29.9603C19.3966 30.8358 17.3911 31.2531 15.389 31.3155Z" fill="#401C02"/>
</g>
<g filter="url(#filter1_f_165_47114)">
<path d="M0.740564 15.7718C0.756489 15.5614 0.825064 15.5403 0.845065 15.7539C0.867286 15.9913 0.82409 16.4684 0.83449 16.7562C0.862026 17.5182 0.977736 18.1808 1.09702 18.7197C1.48142 20.4565 2.01375 21.5757 2.51025 22.5239C4.14232 25.6407 5.93011 27.219 7.67416 28.4085C10.2306 30.1521 12.8079 30.7067 15.3872 30.8244C15.4523 30.8273 15.4631 31.2552 15.3991 31.3109C15.2837 31.4113 15.1407 31.3116 15.0226 31.3075C14.6833 31.2955 14.3441 31.2719 14.0048 31.2364C12.9988 31.1308 11.9929 30.9159 10.9891 30.5701C8.25954 29.63 5.31654 28.0202 2.74633 23.4861C2.58465 23.2008 2.42424 22.9005 2.26611 22.5778C2.13964 22.3198 2.01441 22.0492 1.89138 21.7599C1.48671 20.8083 0.543708 18.3721 0.740564 15.7718ZM15.389 31.3155C15.327 31.3174 15.3113 30.9186 15.3704 30.8357C15.4598 30.7106 15.5939 30.8137 15.6881 30.8077C16.0797 30.783 16.4711 30.7464 16.8624 30.6968C17.9354 30.5607 19.0076 30.3285 20.0774 29.9708C22.7309 29.0837 25.5836 27.7313 28.0849 23.5763C28.2441 23.3118 28.4019 23.0313 28.5576 22.7297C29.0308 21.8132 30.2167 19.3805 30.0796 16.3563C30.068 16.1014 30.1449 15.9487 30.1793 16.1674C30.2231 16.4458 30.2053 17.0264 30.1933 17.3353C30.1546 18.3246 30.0041 19.1612 29.8454 19.8369C29.3426 21.9782 28.6365 23.2197 27.99 24.2564C25.8885 27.6258 23.606 28.9842 21.3869 29.9603C19.3966 30.8358 17.3911 31.2531 15.389 31.3155Z" fill="#401C02"/>
</g>
</g>
<path d="M23.9279 19.6711C20.3226 25.2501 10.603 25.2532 7.00619 19.6656C6.97447 19.6164 6.96078 19.5577 6.96748 19.4994C6.97419 19.4412 7.00086 19.3872 7.04289 19.3467C7.08492 19.3063 7.13964 19.2819 7.19758 19.2779C7.25551 19.2739 7.31301 19.2905 7.36009 19.3248C12.0618 22.7467 18.8723 22.7528 23.5734 19.3304C23.6205 19.2957 23.6781 19.2787 23.7363 19.2825C23.7944 19.2864 23.8494 19.3107 23.8916 19.3512C23.9338 19.3918 23.9606 19.4461 23.9672 19.5045C23.9739 19.563 23.96 19.6219 23.9279 19.6711Z" fill="url(#paint4_radial_165_47114)"/>
<path d="M23.9279 19.6711C20.3226 25.2501 10.603 25.2532 7.00619 19.6656C6.97447 19.6164 6.96078 19.5577 6.96748 19.4994C6.97419 19.4412 7.00086 19.3872 7.04289 19.3467C7.08492 19.3063 7.13964 19.2819 7.19758 19.2779C7.25551 19.2739 7.31301 19.2905 7.36009 19.3248C12.0618 22.7467 18.8723 22.7528 23.5734 19.3304C23.6205 19.2957 23.6781 19.2787 23.7363 19.2825C23.7944 19.2864 23.8494 19.3107 23.8916 19.3512C23.9338 19.3918 23.9606 19.4461 23.9672 19.5045C23.9739 19.563 23.96 19.6219 23.9279 19.6711V19.6711Z" stroke="url(#paint5_linear_165_47114)" stroke-width="1.20226" stroke-miterlimit="10"/>
<path d="M13.3871 14.2503C13.3893 14.7869 13.3062 15.3204 13.1408 15.8304C13.1237 15.8881 13.0889 15.9387 13.0415 15.9752C12.9941 16.0117 12.9365 16.0322 12.8769 16.0336C12.8089 16.0315 12.7439 16.005 12.6934 15.9589C12.643 15.9128 12.6104 15.8501 12.6015 15.7819C12.4142 14.6493 11.6857 13.8046 10.8149 13.8046C9.94414 13.8046 9.21565 14.6493 9.02836 15.7819C9.01946 15.8501 8.98687 15.9128 8.93642 15.9589C8.88596 16.005 8.82092 16.0315 8.7529 16.0336C8.69334 16.0321 8.63577 16.0116 8.58839 15.9751C8.54102 15.9386 8.50623 15.888 8.48899 15.8304C8.32364 15.3204 8.24049 14.7869 8.24272 14.2503C8.24272 12.2091 9.39443 10.5547 10.8149 10.5547C12.2354 10.5547 13.3871 12.2091 13.3871 14.2503Z" fill="url(#paint6_radial_165_47114)"/>
<path d="M13.3871 14.2503C13.3893 14.7869 13.3062 15.3204 13.1408 15.8304C13.1237 15.8881 13.0889 15.9387 13.0415 15.9752C12.9941 16.0117 12.9365 16.0322 12.8769 16.0336C12.8089 16.0315 12.7439 16.005 12.6934 15.9589C12.643 15.9128 12.6104 15.8501 12.6015 15.7819C12.4142 14.6493 11.6857 13.8046 10.8149 13.8046C9.94414 13.8046 9.21565 14.6493 9.02836 15.7819C9.01946 15.8501 8.98687 15.9128 8.93642 15.9589C8.88596 16.005 8.82092 16.0315 8.7529 16.0336V16.0336C8.69334 16.0321 8.63577 16.0116 8.58839 15.9751C8.54102 15.9386 8.50623 15.888 8.48899 15.8304C8.32364 15.3204 8.24049 14.7869 8.24272 14.2503C8.24272 12.2091 9.39443 10.5547 10.8149 10.5547C12.2354 10.5547 13.3871 12.2091 13.3871 14.2503Z" stroke="url(#paint7_linear_165_47114)" stroke-width="0.961809" stroke-miterlimit="10"/>
<path d="M22.7747 14.2503C22.7779 14.7868 22.6958 15.3203 22.5315 15.8304C22.5143 15.8881 22.4795 15.9387 22.4321 15.9752C22.3847 16.0117 22.3271 16.0322 22.2676 16.0336C22.1995 16.0315 22.1345 16.005 22.084 15.9589C22.0336 15.9128 22.001 15.8501 21.9921 15.7819C21.8048 14.6493 21.0763 13.8046 20.2055 13.8046C19.3348 13.8046 18.6063 14.6493 18.419 15.7819C18.4101 15.8501 18.3775 15.9128 18.327 15.9589C18.2766 16.005 18.2115 16.0315 18.1435 16.0336C18.0839 16.0322 18.0263 16.0117 17.9789 15.9752C17.9315 15.9387 17.8968 15.8881 17.8796 15.8304C17.7143 15.3204 17.6311 14.7869 17.6333 14.2503C17.6333 12.2091 18.7851 10.5547 20.2055 10.5547C21.626 10.5547 22.7747 12.2091 22.7747 14.2503Z" fill="url(#paint8_radial_165_47114)"/>
<path d="M22.7747 14.2503C22.7779 14.7868 22.6958 15.3203 22.5315 15.8304C22.5143 15.8881 22.4795 15.9387 22.4321 15.9752C22.3847 16.0117 22.3271 16.0322 22.2676 16.0336C22.1995 16.0315 22.1345 16.005 22.084 15.9589C22.0336 15.9128 22.001 15.8501 21.9921 15.7819C21.8048 14.6493 21.0763 13.8046 20.2055 13.8046C19.3348 13.8046 18.6063 14.6493 18.419 15.7819C18.4101 15.8501 18.3775 15.9128 18.327 15.9589C18.2766 16.005 18.2115 16.0315 18.1435 16.0336C18.0839 16.0322 18.0263 16.0117 17.9789 15.9752C17.9315 15.9387 17.8968 15.8881 17.8796 15.8304C17.7143 15.3204 17.6311 14.7869 17.6333 14.2503C17.6333 12.2091 18.7851 10.5547 20.2055 10.5547C21.626 10.5547 22.7747 12.2091 22.7747 14.2503Z" fill="url(#paint9_radial_165_47114)"/>
<path d="M22.7747 14.2503C22.7779 14.7868 22.6958 15.3203 22.5315 15.8304C22.5143 15.8881 22.4795 15.9387 22.4321 15.9752C22.3847 16.0117 22.3271 16.0322 22.2676 16.0336C22.1995 16.0315 22.1345 16.005 22.084 15.9589C22.0336 15.9128 22.001 15.8501 21.9921 15.7819C21.8048 14.6493 21.0763 13.8046 20.2055 13.8046C19.3348 13.8046 18.6063 14.6493 18.419 15.7819C18.4101 15.8501 18.3775 15.9128 18.327 15.9589C18.2766 16.005 18.2115 16.0315 18.1435 16.0336V16.0336C18.0839 16.0322 18.0263 16.0117 17.9789 15.9752C17.9315 15.9387 17.8968 15.8881 17.8796 15.8304C17.7143 15.3204 17.6311 14.7869 17.6333 14.2503C17.6333 12.2091 18.7851 10.5547 20.2055 10.5547C21.626 10.5547 22.7747 12.2091 22.7747 14.2503Z" stroke="url(#paint10_linear_165_47114)" stroke-width="0.961809" stroke-miterlimit="10"/>
<path d="M15.4918 0.222656C7.39091 0.222656 0.824219 2.14535 0.824219 4.51987C0.824219 6.89439 7.39152 8.81709 15.4918 8.81709C23.5921 8.81709 30.1594 6.89439 30.1594 4.51987C30.1594 2.14535 23.5927 0.222656 15.4918 0.222656ZM15.4918 5.70161C9.04612 5.70161 3.8245 4.658 3.8245 3.36883C3.8245 2.07967 9.04794 1.03606 15.4918 1.03606C21.9357 1.03606 27.1591 2.07967 27.1591 3.36883C27.1591 4.658 21.9375 5.70345 15.4918 5.70345V5.70161Z" fill="url(#paint11_linear_165_47114)"/>
<mask id="mask1_165_47114" style="mask-type:alpha" maskUnits="userSpaceOnUse" x="0" y="0" width="31" height="9">
<path d="M15.4918 0.222656C7.39091 0.222656 0.824219 2.14535 0.824219 4.51987C0.824219 6.89439 7.39152 8.81709 15.4918 8.81709C23.5921 8.81709 30.1594 6.89439 30.1594 4.51987C30.1594 2.14535 23.5927 0.222656 15.4918 0.222656ZM15.4918 5.70161C9.04612 5.70161 3.8245 4.658 3.8245 3.36883C3.8245 2.07967 9.04794 1.03606 15.4918 1.03606C21.9357 1.03606 27.1591 2.07967 27.1591 3.36883C27.1591 4.658 21.9375 5.70345 15.4918 5.70345V5.70161Z" fill="url(#paint12_linear_165_47114)"/>
</mask>
<g mask="url(#mask1_165_47114)">
<g filter="url(#filter2_f_165_47114)">
<path d="M2.16211 4.02734C2.19617 4.09285 2.23693 4.15457 2.28373 4.21151C2.30623 4.24036 2.33116 4.26737 2.35487 4.29561C2.37859 4.32385 2.40534 4.34779 2.42967 4.37419C2.53324 4.47651 2.64422 4.5709 2.76168 4.65658C2.99569 4.82833 3.24413 4.9791 3.50415 5.10717C3.76198 5.23854 4.03075 5.34843 4.29952 5.45525C4.43634 5.50374 4.57195 5.55347 4.70937 5.59951C4.8468 5.64555 4.98544 5.68852 5.12469 5.72781C5.68112 5.89257 6.24581 6.02741 6.81638 6.13175C7.10097 6.18884 7.38859 6.23243 7.67439 6.28215L8.10552 6.34354C8.24903 6.36441 8.39253 6.3859 8.53726 6.40493C9.69262 6.55042 10.8522 6.64128 12.0161 6.69837L12.4527 6.71986L12.8893 6.7352C13.1806 6.74441 13.4719 6.75792 13.7637 6.76099L14.6382 6.77817L15.5138 6.78247C17.8476 6.78247 20.1839 6.72108 22.4928 6.44606C23.0711 6.38099 23.6439 6.28829 24.2161 6.18884C24.7864 6.08527 25.351 5.95209 25.9078 5.78982C26.4653 5.63534 27.0062 5.42559 27.5228 5.16365C27.7817 5.03403 28.0263 4.87724 28.2526 4.69587C28.3658 4.60457 28.4715 4.50418 28.5688 4.39568C28.6678 4.28762 28.7474 4.16298 28.8041 4.02734C28.7661 4.17261 28.7016 4.30941 28.6138 4.43067C28.5275 4.55389 28.4313 4.66969 28.3261 4.7769C28.113 4.98871 27.8779 5.17682 27.625 5.33799C27.3747 5.50237 27.1134 5.64903 26.843 5.77692L26.6411 5.87392L26.4356 5.96293C26.3669 5.99178 26.2988 6.02432 26.2295 6.05072L26.0215 6.13114C25.4637 6.33767 24.8953 6.51391 24.3189 6.65908C24.03 6.72722 23.7418 6.79905 23.4505 6.85491L23.0145 6.94208L22.5761 7.01759C21.4079 7.21016 20.2307 7.34232 19.0492 7.41355C18.46 7.44977 17.8701 7.47801 17.2809 7.49397L16.8382 7.50625L16.3961 7.51116C16.1018 7.51116 15.8069 7.52036 15.512 7.5173C14.3331 7.51484 13.154 7.47391 11.9748 7.39452C10.7943 7.31409 9.61861 7.17374 8.45213 6.974C8.30619 6.95068 8.16025 6.92244 8.01491 6.89297L7.57892 6.8058C7.28947 6.7395 6.99941 6.68302 6.71301 6.60076C6.13619 6.45536 5.56778 6.27788 5.01037 6.06913C4.45134 5.86051 3.9137 5.59756 3.40503 5.28397C3.15168 5.12497 2.91297 4.94335 2.69175 4.7413C2.58222 4.63962 2.48058 4.52961 2.38771 4.41225C2.29229 4.29718 2.21609 4.16717 2.16211 4.02734V4.02734Z" fill="white"/>
</g>
</g>
<mask id="mask2_165_47114" style="mask-type:alpha" maskUnits="userSpaceOnUse" x="0" y="0" width="31" height="9">
<path d="M15.4918 0.222656C7.39091 0.222656 0.824219 2.14535 0.824219 4.51987C0.824219 6.89439 7.39152 8.81709 15.4918 8.81709C23.5921 8.81709 30.1594 6.89439 30.1594 4.51987C30.1594 2.14535 23.5927 0.222656 15.4918 0.222656ZM15.4918 5.70161C9.04612 5.70161 3.8245 4.658 3.8245 3.36883C3.8245 2.07967 9.04794 1.03606 15.4918 1.03606C21.9357 1.03606 27.1591 2.07967 27.1591 3.36883C27.1591 4.658 21.9375 5.70345 15.4918 5.70345V5.70161Z" fill="black"/>
</mask>
<g mask="url(#mask2_165_47114)">
<g filter="url(#filter3_f_165_47114)">
<g style="mix-blend-mode:multiply">
<path style="mix-blend-mode:multiply" d="M18.4383 1.08809C18.8834 1.07827 19.3236 1.08196 19.7663 1.08809C20.209 1.09423 20.6523 1.11572 21.095 1.14027C21.9816 1.18939 22.8669 1.27594 23.7511 1.41346C24.1932 1.48344 24.634 1.56815 25.0749 1.67559C25.295 1.72838 25.5149 1.78977 25.7347 1.85975C25.9581 1.92985 26.1777 2.01182 26.3926 2.10531C26.626 2.20434 26.8462 2.3324 27.0481 2.48653C27.1679 2.58018 27.2731 2.69152 27.3601 2.8168C27.4108 2.89307 27.4517 2.9756 27.4817 3.06236C27.5146 3.16121 27.5304 3.26504 27.5285 3.3693C27.5262 3.47217 27.5073 3.57398 27.4726 3.67072C27.4406 3.75581 27.3987 3.83679 27.3479 3.91198C27.2626 4.0373 27.1602 4.14992 27.0439 4.24655C26.8446 4.40848 26.6273 4.54632 26.3963 4.65724C25.9736 4.86058 25.5354 5.02913 25.0858 5.16124C24.6474 5.29446 24.2066 5.40066 23.7657 5.49765C22.8834 5.6898 21.9956 5.82424 21.1078 5.93413C20.22 6.04401 19.3273 6.11584 18.4371 6.16925C17.5468 6.22265 16.6548 6.24537 15.7615 6.25335C14.8682 6.26133 13.9786 6.23862 13.0859 6.19994C12.1932 6.16127 11.3048 6.09497 10.4158 5.99981C9.5268 5.90466 8.64326 5.78557 7.75971 5.61552C6.87616 5.44547 5.99627 5.24228 5.12306 4.91569C4.90089 4.83283 4.68346 4.73752 4.4718 4.63023C4.24212 4.51727 4.02656 4.37714 3.82967 4.21278C3.7129 4.1123 3.61165 3.99478 3.52927 3.8641C3.42457 3.69967 3.37197 3.50695 3.37847 3.3116C3.38334 3.2114 3.40514 3.11278 3.44292 3.02C3.4759 2.9376 3.51923 2.85982 3.57184 2.78856C3.66127 2.67053 3.76669 2.56575 3.885 2.47732C4.08772 2.3296 4.30666 2.206 4.53747 2.10899C4.75182 2.01661 4.97107 1.93627 5.19421 1.86835C5.62799 1.7372 6.06848 1.62982 6.51375 1.54667C7.391 1.38549 8.27656 1.2744 9.16621 1.21394C9.6097 1.18202 10.0526 1.15849 10.4949 1.14334C10.9376 1.13168 11.3802 1.12186 11.8229 1.12738C11.3845 1.18877 10.9467 1.25016 10.5107 1.31953C10.0747 1.3889 9.64051 1.45459 9.20634 1.53439C8.34104 1.69584 7.47999 1.87203 6.64144 2.10592C6.22567 2.21846 5.81589 2.35246 5.41372 2.5074C5.2161 2.58598 5.02273 2.66947 4.84152 2.76339C4.6692 2.84927 4.50703 2.9545 4.35809 3.07709C4.30128 3.12496 4.25152 3.18078 4.21033 3.24284C4.18053 3.29379 4.17506 3.3251 4.17931 3.33861C4.18634 3.36653 4.19943 3.39253 4.21762 3.41473C4.26013 3.46901 4.30962 3.51732 4.36478 3.55838C4.51602 3.66815 4.67924 3.76001 4.85125 3.83217C5.03905 3.91449 5.23084 3.98723 5.42588 4.0501C5.83072 4.17944 6.24218 4.28662 6.65847 4.37117C7.07805 4.4608 7.50371 4.53692 7.9318 4.60199C8.7892 4.73029 9.65328 4.82667 10.5222 4.8985C11.3912 4.97032 12.2632 5.02128 13.137 5.0489C14.0108 5.07653 14.8846 5.09371 15.7591 5.08696C16.6335 5.08021 17.5067 5.06179 18.3793 5.02066C19.2519 4.97953 20.1221 4.91937 20.9892 4.83649C21.8563 4.75362 22.7174 4.64251 23.5656 4.49149C23.9913 4.41537 24.4115 4.32635 24.8231 4.22138C25.2272 4.12323 25.6229 3.99288 26.0065 3.83156C26.1777 3.75844 26.3407 3.66728 26.4929 3.55961C26.55 3.51935 26.6015 3.47167 26.6462 3.4178C26.6593 3.40194 26.6709 3.38488 26.6808 3.36685C26.6845 3.35518 26.6906 3.34782 26.6906 3.34229C26.6926 3.33445 26.6926 3.32619 26.6906 3.31835C26.686 3.3001 26.6791 3.28255 26.6699 3.26617C26.6342 3.20708 26.5899 3.1537 26.5386 3.10779C26.394 2.98506 26.2356 2.87998 26.0667 2.7947C25.6894 2.60563 25.2975 2.44795 24.8949 2.32324C24.4857 2.18941 24.0655 2.07768 23.6416 1.97332C22.7934 1.76583 21.9293 1.60499 21.0603 1.4595C20.6262 1.3889 20.1902 1.3226 19.7529 1.26244C19.3157 1.20228 18.8773 1.14334 18.4383 1.08809Z" fill="url(#paint13_linear_165_47114)"/>
</g>
</g>
</g>
<mask id="mask3_165_47114" style="mask-type:alpha" maskUnits="userSpaceOnUse" x="0" y="0" width="31" height="9">
<path d="M15.4918 0.222656C7.39091 0.222656 0.824219 2.14535 0.824219 4.51987C0.824219 6.89439 7.39152 8.81709 15.4918 8.81709C23.5921 8.81709 30.1594 6.89439 30.1594 4.51987C30.1594 2.14535 23.5927 0.222656 15.4918 0.222656ZM15.4918 5.70161C9.04612 5.70161 3.8245 4.658 3.8245 3.36883C3.8245 2.07967 9.04794 1.03606 15.4918 1.03606C21.9357 1.03606 27.1591 2.07967 27.1591 3.36883C27.1591 4.658 21.9375 5.70345 15.4918 5.70345V5.70161Z" fill="black"/>
</mask>
<g mask="url(#mask3_165_47114)">
<g filter="url(#filter4_f_165_47114)">
<g style="mix-blend-mode:screen">
<g style="mix-blend-mode:screen">
<path d="M7.6951 0.837891C7.20864 0.960668 6.7173 1.08345 6.2357 1.22587C5.7541 1.36829 5.27128 1.51685 4.80063 1.68813C4.32997 1.8594 3.86418 2.04295 3.41845 2.25843C2.97337 2.46436 2.54864 2.71246 2.14999 2.99939C1.95805 3.13809 1.77876 3.29381 1.61427 3.46472C1.46126 3.62338 1.33567 3.80682 1.24273 4.00739C1.23121 4.03041 1.22185 4.05445 1.21476 4.07922L1.18861 4.15289L1.17158 4.22532L1.16307 4.26093L1.1582 4.29715L1.14847 4.36897V4.4408V4.47702L1.15152 4.51262C1.15267 4.5361 1.15531 4.55947 1.15942 4.58261C1.1928 4.78108 1.27427 4.96813 1.39657 5.12713C1.65014 5.46968 2.03445 5.75452 2.44187 5.99455C2.86245 6.2336 3.30102 6.43887 3.75351 6.60844C4.20896 6.78401 4.6784 6.93319 5.1521 7.06517C5.62579 7.19716 6.1074 7.31564 6.59143 7.41877C7.56072 7.6232 8.54277 7.78219 9.52969 7.90313C10.5166 8.02406 11.5096 8.11185 12.5044 8.16587C13.4993 8.21989 14.4959 8.25243 15.4932 8.24997C16.4904 8.24752 17.4871 8.22419 18.4819 8.16649C19.4767 8.10878 20.4691 8.02345 21.4566 7.90374C22.4442 7.78403 23.4256 7.62442 24.3949 7.42061C24.8814 7.31748 25.3605 7.20084 25.8348 7.06763C26.3092 6.93441 26.7792 6.78708 27.2334 6.61274C27.6861 6.44306 28.1248 6.23781 28.5457 5.99885C28.7487 5.88222 28.943 5.7507 29.127 5.60535C29.3033 5.46955 29.4617 5.31151 29.5983 5.13511C29.7218 4.97685 29.8053 4.79059 29.8415 4.59243L29.8476 4.55744V4.52183C29.8501 4.49819 29.8511 4.4744 29.8506 4.45062V4.3788C29.8506 4.35486 29.8439 4.33091 29.8415 4.30697C29.8353 4.25823 29.8255 4.21001 29.8123 4.16271C29.8075 4.13877 29.7959 4.11544 29.7886 4.09088C29.781 4.06646 29.7721 4.04248 29.7619 4.01906C29.6715 3.81846 29.5481 3.63477 29.397 3.47577C29.2341 3.30423 29.0562 3.14788 28.8655 3.0086C28.6698 2.86351 28.4658 2.73027 28.2544 2.60957C28.0416 2.48679 27.8233 2.37138 27.5989 2.26518C27.152 2.04971 26.6868 1.86738 26.2173 1.69365C25.7479 1.51992 25.2687 1.36952 24.7823 1.22955C24.2958 1.08958 23.8124 0.960668 23.3229 0.837891C23.8239 0.899279 24.3225 0.98154 24.82 1.07362C25.3174 1.16571 25.8099 1.28541 26.3025 1.4174C26.7959 1.54768 27.2816 1.70653 27.757 1.89316C27.9958 1.98648 28.2319 2.08879 28.4654 2.20011C28.7012 2.31377 28.9303 2.44127 29.1513 2.58195C29.379 2.72603 29.5924 2.89193 29.7886 3.07735C29.9989 3.27265 30.1742 3.50319 30.3067 3.75877C30.4483 4.03942 30.5078 4.355 30.4782 4.66855C30.4417 4.97582 30.3317 5.26952 30.1577 5.52431C29.9976 5.76007 29.8073 5.97331 29.5916 6.15846C29.3865 6.33613 29.1688 6.49842 28.9403 6.64404C28.4948 6.92438 28.027 7.16688 27.5417 7.36905C26.5879 7.76394 25.6041 8.0805 24.5998 8.31566C23.6038 8.56122 22.5974 8.7374 21.588 8.88228C20.5786 9.02716 19.5637 9.12354 18.5476 9.19291C17.5315 9.26228 16.5147 9.28929 15.4974 9.29051C14.4801 9.29174 13.4628 9.25737 12.4467 9.19107C11.4306 9.12477 10.4169 9.02347 9.40625 8.87982C8.39562 8.73617 7.39045 8.55446 6.39502 8.31075C5.39093 8.07624 4.40729 7.76008 3.45372 7.36536C2.96831 7.16253 2.50049 6.9192 2.05513 6.63791C1.82678 6.49164 1.60932 6.32873 1.40448 6.15048C1.35218 6.10566 1.30232 6.05655 1.25185 6.00928C1.20138 5.96201 1.15273 5.90983 1.10652 5.8552C1.00934 5.7484 0.920877 5.63385 0.842001 5.51265C0.758117 5.38672 0.688174 5.25188 0.633428 5.11055C0.575881 4.96436 0.539628 4.81051 0.525797 4.65382C0.499591 4.34039 0.562898 4.02595 0.708222 3.74772C0.842991 3.49459 1.01918 3.26628 1.22935 3.07244C1.42651 2.88869 1.6405 2.72425 1.86845 2.58133C2.3096 2.30606 2.77591 2.07417 3.26096 1.88887C3.73641 1.70254 4.22205 1.5439 4.71549 1.41372C5.20622 1.28173 5.70059 1.16816 6.19678 1.07362C6.69298 0.979085 7.19343 0.899279 7.6951 0.837891Z" fill="#00FFFF"/>
</g>
</g>
</g>
</g>
<mask id="mask4_165_47114" style="mask-type:alpha" maskUnits="userSpaceOnUse" x="0" y="0" width="31" height="9">
<path d="M15.4918 0.222656C7.39091 0.222656 0.824219 2.14535 0.824219 4.51987C0.824219 6.89439 7.39152 8.81709 15.4918 8.81709C23.5921 8.81709 30.1594 6.89439 30.1594 4.51987C30.1594 2.14535 23.5927 0.222656 15.4918 0.222656ZM15.4918 5.70161C9.04612 5.70161 3.8245 4.658 3.8245 3.36883C3.8245 2.07967 9.04794 1.03606 15.4918 1.03606C21.9357 1.03606 27.1591 2.07967 27.1591 3.36883C27.1591 4.658 21.9375 5.70345 15.4918 5.70345V5.70161Z" fill="url(#paint14_linear_165_47114)"/>
</mask>
<g mask="url(#mask4_165_47114)">
<g filter="url(#filter5_f_165_47114)">
<path d="M7.64707 0.712891C7.15391 0.816638 6.66136 0.931435 6.1749 1.06035C5.68843 1.18927 5.20196 1.32985 4.72887 1.49007C4.25578 1.6503 3.78269 1.8271 3.33028 2.03459C2.87451 2.23523 2.43859 2.47901 2.02837 2.76266C1.82726 2.90269 1.6392 3.06091 1.4665 3.23536C1.29765 3.40295 1.15824 3.59828 1.05422 3.81303C0.956494 4.01916 0.918749 4.24908 0.945375 4.47602C0.959185 4.58832 0.989304 4.69795 1.03476 4.80139C1.07987 4.90807 1.13656 5.00937 1.20381 5.10342C1.34448 5.29668 1.50967 5.47046 1.69514 5.62031C1.88409 5.77495 2.08409 5.9153 2.2935 6.04021C2.7214 6.29095 3.1688 6.50611 3.63128 6.68357C4.09282 6.86773 4.56712 7.02182 5.04629 7.15994C5.52546 7.29807 6.0095 7.42085 6.49779 7.52828C7.47072 7.74436 8.46251 7.90766 9.45551 8.03412C11.4449 8.28323 13.4479 8.40461 15.4524 8.39754C17.457 8.40543 19.4601 8.28425 21.4494 8.03473C22.443 7.90889 23.4317 7.74682 24.4077 7.53073C24.8941 7.42269 25.378 7.29991 25.8592 7.1624C26.3383 7.02427 26.8127 6.86957 27.2748 6.68725C27.7372 6.51059 28.1846 6.29625 28.6126 6.04635C28.8223 5.92178 29.0227 5.78185 29.2122 5.62768C29.3979 5.47825 29.5638 5.30536 29.7059 5.11324C29.8406 4.92906 29.9288 4.71459 29.9631 4.4883C29.9919 4.26194 29.9562 4.03199 29.8604 3.8253C29.7577 3.60993 29.6196 3.41376 29.4517 3.24518C29.2799 3.07019 29.0924 2.91154 28.8917 2.77126C28.6895 2.62703 28.479 2.49521 28.2611 2.37653C28.0428 2.25375 27.8196 2.14386 27.5922 2.04134C27.1374 1.83324 26.6667 1.65766 26.1936 1.49498C25.7205 1.3323 25.2353 1.19234 24.7488 1.06526C24.2623 0.938188 23.7716 0.819707 23.2785 0.716574C23.7765 0.796379 24.2721 0.887235 24.7658 0.993437C25.2596 1.09964 25.7485 1.22426 26.2344 1.36668C26.7215 1.50715 27.2006 1.67459 27.6694 1.86823C27.9048 1.96399 28.1358 2.07142 28.3639 2.18684C28.5931 2.30248 28.8155 2.43162 29.0297 2.57359C29.2473 2.71751 29.451 2.88195 29.6378 3.0647C29.8319 3.25101 29.9933 3.46916 30.1152 3.70989C30.24 3.96351 30.2908 4.24775 30.2617 4.52943C30.226 4.80786 30.1233 5.07322 29.9625 5.30232C29.8097 5.52281 29.6283 5.72164 29.4232 5.89349C29.2235 6.06253 29.0117 6.21642 28.7895 6.35391C28.3501 6.62278 27.8897 6.85499 27.4128 7.04822C26.4671 7.42957 25.4924 7.73321 24.4983 7.95616C23.5095 8.18698 22.5098 8.36255 21.5059 8.5019C19.4976 8.76485 17.4745 8.89568 15.4494 8.89356C13.4242 8.89518 11.4011 8.76353 9.39287 8.49945C8.38893 8.35948 7.38985 8.18329 6.40049 7.95247C5.4059 7.72678 4.431 7.42027 3.48534 7.03594C3.00876 6.84254 2.54855 6.61034 2.10925 6.34163C1.88744 6.2035 1.67606 6.04899 1.47684 5.87937C1.42637 5.83701 1.37894 5.79097 1.33029 5.74616C1.28165 5.70134 1.23482 5.65346 1.18861 5.60251C1.09706 5.50345 1.01329 5.39733 0.938078 5.28513C0.860932 5.16978 0.796499 5.04627 0.745924 4.9168C0.69376 4.78669 0.660776 4.64956 0.648023 4.50979C0.62193 4.2279 0.675705 3.94432 0.803084 3.69209C0.92666 3.45236 1.08925 3.2353 1.28408 3.04996C1.47131 2.86929 1.67489 2.70671 1.89216 2.56438C2.32379 2.2871 2.78047 2.05175 3.25609 1.86148C3.72537 1.66869 4.20463 1.50167 4.69178 1.36116C5.17825 1.21914 5.66775 1.09514 6.1603 0.98914C6.65285 0.883142 7.14844 0.791059 7.64707 0.712891Z" fill="white"/>
</g>
</g>
<defs>
<filter id="filter0_f_165_47114" x="-11.3087" y="3.5809" width="53.5384" height="39.7972" filterUnits="userSpaceOnUse" color-interpolation-filters="sRGB">
<feFlood flood-opacity="0" result="BackgroundImageFix"/>
<feBlend mode="normal" in="SourceGraphic" in2="BackgroundImageFix" result="shape"/>
<feGaussianBlur stdDeviation="6.01131" result="effect1_foregroundBlur_165_47114"/>
</filter>
<filter id="filter1_f_165_47114" x="-18.5223" y="-3.63266" width="67.9655" height="54.2243" filterUnits="userSpaceOnUse" color-interpolation-filters="sRGB">
<feFlood flood-opacity="0" result="BackgroundImageFix"/>
<feBlend mode="normal" in="SourceGraphic" in2="BackgroundImageFix" result="shape"/>
<feGaussianBlur stdDeviation="9.61809" result="effect1_foregroundBlur_165_47114"/>
</filter>
<filter id="filter2_f_165_47114" x="-5.53236" y="-3.66713" width="42.031" height="18.8792" filterUnits="userSpaceOnUse" color-interpolation-filters="sRGB">
<feFlood flood-opacity="0" result="BackgroundImageFix"/>
<feBlend mode="normal" in="SourceGraphic" in2="BackgroundImageFix" result="shape"/>
<feGaussianBlur stdDeviation="3.84724" result="effect1_foregroundBlur_165_47114"/>
</filter>
<filter id="filter3_f_165_47114" x="-6.24016" y="-8.53606" width="43.3871" height="24.41" filterUnits="userSpaceOnUse" color-interpolation-filters="sRGB">
<feFlood flood-opacity="0" result="BackgroundImageFix"/>
<feBlend mode="normal" in="SourceGraphic" in2="BackgroundImageFix" result="shape"/>
<feGaussianBlur stdDeviation="4.80904" result="effect1_foregroundBlur_165_47114"/>
</filter>
<filter id="filter4_f_165_47114" x="-13.9071" y="-13.5892" width="58.8196" height="37.3074" filterUnits="userSpaceOnUse" color-interpolation-filters="sRGB">
<feFlood flood-opacity="0" result="BackgroundImageFix"/>
<feBlend mode="normal" in="SourceGraphic" in2="BackgroundImageFix" result="shape"/>
<feGaussianBlur stdDeviation="7.21357" result="effect1_foregroundBlur_165_47114"/>
</filter>
<filter id="filter5_f_165_47114" x="-8.97649" y="-8.9052" width="48.8641" height="27.4178" filterUnits="userSpaceOnUse" color-interpolation-filters="sRGB">
<feFlood flood-opacity="0" result="BackgroundImageFix"/>
<feBlend mode="normal" in="SourceGraphic" in2="BackgroundImageFix" result="shape"/>
<feGaussianBlur stdDeviation="4.80904" result="effect1_foregroundBlur_165_47114"/>
</filter>
<radialGradient id="paint0_radial_165_47114" cx="0" cy="0" r="1" gradientUnits="userSpaceOnUse" gradientTransform="translate(15.479 1.38867) rotate(90) scale(29.5894 29.3096)">
<stop stop-color="#FFDE43"/>
<stop offset="1" stop-color="#FFBC00"/>
</radialGradient>
<radialGradient id="paint1_radial_165_47114" cx="0" cy="0" r="1" gradientUnits="userSpaceOnUse" gradientTransform="translate(15.479 5.34825) rotate(90) scale(25.6298 25.3875)">
<stop stop-color="white" stop-opacity="0.5"/>
<stop offset="0.782278"/>
</radialGradient>
<radialGradient id="paint2_radial_165_47114" cx="0" cy="0" r="1" gradientUnits="userSpaceOnUse" gradientTransform="translate(15.479 5.34825) rotate(90) scale(25.6298 25.3875)">
<stop stop-color="white" stop-opacity="0.5"/>
<stop offset="0.782278"/>
</radialGradient>
<radialGradient id="paint3_radial_165_47114" cx="0" cy="0" r="1" gradientUnits="userSpaceOnUse" gradientTransform="translate(15.479 -1.83424) rotate(90) scale(32.8123 43.9544)">
<stop offset="0.0922635" stop-color="white"/>
<stop offset="0.670207" stop-color="white" stop-opacity="0"/>
</radialGradient>
<radialGradient id="paint4_radial_165_47114" cx="0" cy="0" r="1" gradientUnits="userSpaceOnUse" gradientTransform="translate(15.4673 21.5573) scale(6.41715 4.62449)">
<stop stop-color="#743C1C"/>
<stop offset="1" stop-color="#401C02"/>
</radialGradient>
<linearGradient id="paint5_linear_165_47114" x1="15.4673" y1="23.9846" x2="15.4673" y2="19.13" gradientUnits="userSpaceOnUse">
<stop offset="0.265625" stop-color="#FFDE43"/>
<stop offset="1" stop-color="#F79D14"/>
</linearGradient>
<radialGradient id="paint6_radial_165_47114" cx="0" cy="0" r="1" gradientUnits="userSpaceOnUse" gradientTransform="translate(10.8114 13.2923) scale(3.27898 2.74423)">
<stop stop-color="#743C1C"/>
<stop offset="1" stop-color="#401C02"/>
</radialGradient>
<linearGradient id="paint7_linear_165_47114" x1="10.8149" y1="16.1878" x2="10.8149" y2="10.3784" gradientUnits="userSpaceOnUse">
<stop stop-color="#FFDE43"/>
<stop offset="0.22" stop-color="#FED93F"/>
<stop offset="0.51" stop-color="#FCC934"/>
<stop offset="0.82" stop-color="#F9AF21"/>
<stop offset="1" stop-color="#F79D14"/>
</linearGradient>
<radialGradient id="paint8_radial_165_47114" cx="0" cy="0" r="1" gradientUnits="userSpaceOnUse" gradientTransform="translate(2985.25 3911.61) scale(214.143 248.736)">
<stop stop-color="#743C1C"/>
<stop offset="1" stop-color="#401C02"/>
</radialGradient>
<radialGradient id="paint9_radial_165_47114" cx="0" cy="0" r="1" gradientUnits="userSpaceOnUse" gradientTransform="translate(20.2005 13.2923) scale(3.27707 2.74423)">
<stop stop-color="#743C1C"/>
<stop offset="1" stop-color="#401C02"/>
</radialGradient>
<linearGradient id="paint10_linear_165_47114" x1="20.204" y1="16.1878" x2="20.204" y2="10.3784" gradientUnits="userSpaceOnUse">
<stop stop-color="#FFDE43"/>
<stop offset="0.22" stop-color="#FED93F"/>
<stop offset="0.51" stop-color="#FCC934"/>
<stop offset="0.82" stop-color="#F9AF21"/>
<stop offset="1" stop-color="#F79D14"/>
</linearGradient>
<linearGradient id="paint11_linear_165_47114" x1="15.4918" y1="8.8134" x2="15.4918" y2="0.224498" gradientUnits="userSpaceOnUse">
<stop stop-color="#00CFFE"/>
<stop offset="0.11" stop-color="#00C6FA"/>
<stop offset="0.28" stop-color="#00AEEF"/>
<stop offset="0.5" stop-color="#0086DE"/>
<stop offset="0.75" stop-color="#004FC5"/>
<stop offset="1" stop-color="#0014AB"/>
</linearGradient>
<linearGradient id="paint12_linear_165_47114" x1="15.4918" y1="8.8134" x2="15.4918" y2="0.224498" gradientUnits="userSpaceOnUse">
<stop stop-color="#00CFFE"/>
<stop offset="0.11" stop-color="#00C6FA"/>
<stop offset="0.28" stop-color="#00AEEF"/>
<stop offset="0.5" stop-color="#0086DE"/>
<stop offset="0.75" stop-color="#004FC5"/>
<stop offset="1" stop-color="#0014AB"/>
</linearGradient>
<linearGradient id="paint13_linear_165_47114" x1="15.4532" y1="6.25335" x2="15.4532" y2="0.504901" gradientUnits="userSpaceOnUse">
<stop stop-color="#002480"/>
<stop offset="1" stop-color="#002480"/>
</linearGradient>
<linearGradient id="paint14_linear_165_47114" x1="15.4918" y1="8.8134" x2="15.4918" y2="0.224498" gradientUnits="userSpaceOnUse">
<stop stop-color="#00CFFE"/>
<stop offset="0.11" stop-color="#00C6FA"/>
<stop offset="0.28" stop-color="#00AEEF"/>
<stop offset="0.5" stop-color="#0086DE"/>
<stop offset="0.75" stop-color="#004FC5"/>
<stop offset="1" stop-color="#0014AB"/>
</linearGradient>
</defs>
</svg>
