<svg width="275" height="150" viewBox="0 0 275 150" fill="none" xmlns="http://www.w3.org/2000/svg">
<path d="M1.59801 139V124.455H6.78267C7.9143 124.455 8.8518 124.661 9.59517 125.072C10.3385 125.484 10.8949 126.048 11.2642 126.763C11.6335 127.473 11.8182 128.273 11.8182 129.163C11.8182 130.058 11.6312 130.863 11.2571 131.578C10.8878 132.288 10.3291 132.852 9.58097 133.268C8.83759 133.68 7.90246 133.886 6.77557 133.886H3.21023V132.026H6.5767C7.29167 132.026 7.87169 131.902 8.31676 131.656C8.76184 131.405 9.08854 131.064 9.29688 130.634C9.50521 130.203 9.60938 129.713 9.60938 129.163C9.60938 128.614 9.50521 128.126 9.29688 127.7C9.08854 127.274 8.75947 126.94 8.30966 126.699C7.86458 126.457 7.27746 126.337 6.5483 126.337H3.79261V139H1.59801ZM17.2976 139.241C16.6063 139.241 15.9813 139.114 15.4226 138.858C14.8639 138.598 14.4212 138.221 14.0945 137.729C13.7725 137.236 13.6115 136.633 13.6115 135.918C13.6115 135.302 13.7299 134.795 13.9666 134.398C14.2034 134 14.523 133.685 14.9254 133.453C15.3279 133.221 15.7777 133.046 16.2749 132.928C16.772 132.809 17.2786 132.719 17.7947 132.658C18.4482 132.582 18.9785 132.52 19.3857 132.473C19.7929 132.421 20.0888 132.338 20.2734 132.224C20.4581 132.111 20.5504 131.926 20.5504 131.67V131.621C20.5504 131 20.3752 130.52 20.0249 130.179C19.6792 129.838 19.1631 129.668 18.4766 129.668C17.7616 129.668 17.1982 129.826 16.7862 130.143C16.379 130.456 16.0973 130.804 15.9411 131.188L13.9453 130.733C14.1821 130.07 14.5277 129.535 14.9822 129.128C15.4415 128.716 15.9695 128.418 16.5661 128.233C17.1626 128.044 17.79 127.949 18.4482 127.949C18.8838 127.949 19.3454 128.001 19.8331 128.105C20.3255 128.205 20.7848 128.389 21.2109 128.659C21.6418 128.929 21.9946 129.315 22.2692 129.817C22.5438 130.314 22.6811 130.96 22.6811 131.756V139H20.6072V137.509H20.522C20.3847 137.783 20.1787 138.053 19.9041 138.318C19.6295 138.583 19.2768 138.804 18.8459 138.979C18.415 139.154 17.8989 139.241 17.2976 139.241ZM17.7592 137.537C18.3464 137.537 18.8482 137.421 19.2649 137.189C19.6863 136.957 20.0059 136.654 20.2237 136.28C20.4463 135.901 20.5575 135.496 20.5575 135.065V133.659C20.4818 133.735 20.335 133.806 20.1172 133.872C19.9041 133.934 19.6603 133.988 19.3857 134.036C19.111 134.078 18.8435 134.118 18.5831 134.156C18.3227 134.189 18.1049 134.218 17.9297 134.241C17.5178 134.294 17.1413 134.381 16.8004 134.504C16.4643 134.627 16.1944 134.805 15.9908 135.037C15.7919 135.264 15.6925 135.567 15.6925 135.946C15.6925 136.472 15.8866 136.869 16.2749 137.139C16.6631 137.404 17.1579 137.537 17.7592 137.537ZM25.5096 139V128.091H27.5621V129.824H27.6758C27.8746 129.237 28.225 128.775 28.7269 128.439C29.2335 128.098 29.8065 127.928 30.4457 127.928C30.5782 127.928 30.7345 127.932 30.9144 127.942C31.0991 127.951 31.2435 127.963 31.3477 127.977V130.009C31.2624 129.985 31.1109 129.959 30.8931 129.93C30.6753 129.897 30.4575 129.881 30.2397 129.881C29.7378 129.881 29.2904 129.987 28.8974 130.2C28.5091 130.409 28.2013 130.7 27.9741 131.074C27.7468 131.443 27.6332 131.865 27.6332 132.338V139H25.5096ZM38.9222 128.091V129.795H32.9634V128.091H38.9222ZM34.5614 125.477H36.685V135.797C36.685 136.209 36.7466 136.519 36.8697 136.727C36.9928 136.931 37.1514 137.071 37.3455 137.146C37.5444 137.217 37.7598 137.253 37.9918 137.253C38.1623 137.253 38.3114 137.241 38.4393 137.217C38.5671 137.194 38.6665 137.175 38.7376 137.161L39.1211 138.915C38.998 138.962 38.8228 139.009 38.5955 139.057C38.3683 139.109 38.0842 139.137 37.7433 139.142C37.1845 139.152 36.6637 139.052 36.1808 138.844C35.6978 138.635 35.3072 138.313 35.0089 137.878C34.7106 137.442 34.5614 136.895 34.5614 136.237V125.477ZM43.3949 132.523V139H41.2713V128.091H43.3097V129.866H43.4446C43.6955 129.289 44.0885 128.825 44.6236 128.474C45.1634 128.124 45.8428 127.949 46.6619 127.949C47.4053 127.949 48.0563 128.105 48.6151 128.418C49.1738 128.725 49.607 129.185 49.9148 129.795C50.2225 130.406 50.3764 131.161 50.3764 132.061V139H48.2528V132.317C48.2528 131.526 48.0469 130.908 47.6349 130.463C47.223 130.013 46.6572 129.788 45.9375 129.788C45.4451 129.788 45.0071 129.895 44.6236 130.108C44.2448 130.321 43.9441 130.634 43.7216 131.045C43.5038 131.453 43.3949 131.945 43.3949 132.523ZM57.9261 139.22C56.8513 139.22 55.9257 138.991 55.1491 138.531C54.3774 138.067 53.7808 137.416 53.3594 136.578C52.9427 135.735 52.7344 134.748 52.7344 133.616C52.7344 132.499 52.9427 131.514 53.3594 130.662C53.7808 129.81 54.3679 129.144 55.1207 128.666C55.8783 128.188 56.7637 127.949 57.777 127.949C58.3925 127.949 58.9891 128.051 59.5668 128.254C60.1444 128.458 60.6629 128.777 61.1222 129.213C61.5814 129.649 61.9437 130.214 62.2088 130.911C62.474 131.602 62.6065 132.442 62.6065 133.432V134.185H53.9347V132.594H60.5256C60.5256 132.035 60.4119 131.54 60.1847 131.109C59.9574 130.674 59.6378 130.33 59.2259 130.08C58.8187 129.829 58.3404 129.703 57.7912 129.703C57.1946 129.703 56.6738 129.85 56.2287 130.143C55.7884 130.432 55.4474 130.811 55.206 131.28C54.9692 131.744 54.8509 132.248 54.8509 132.793V134.036C54.8509 134.765 54.9787 135.385 55.2344 135.896C55.4948 136.408 55.857 136.798 56.321 137.068C56.785 137.333 57.3272 137.466 57.9474 137.466C58.3499 137.466 58.7169 137.409 59.0483 137.295C59.3797 137.177 59.6662 137.002 59.9077 136.77C60.1491 136.538 60.3338 136.251 60.4616 135.911L62.4716 136.273C62.3106 136.865 62.0218 137.383 61.6051 137.828C61.1932 138.268 60.6747 138.612 60.0497 138.858C59.4295 139.099 58.7216 139.22 57.9261 139.22ZM64.9627 139V128.091H67.0153V129.824H67.1289C67.3278 129.237 67.6781 128.775 68.18 128.439C68.6867 128.098 69.2596 127.928 69.8988 127.928C70.0314 127.928 70.1876 127.932 70.3675 127.942C70.5522 127.951 70.6966 127.963 70.8008 127.977V130.009C70.7156 129.985 70.564 129.959 70.3462 129.93C70.1284 129.897 69.9106 129.881 69.6928 129.881C69.1909 129.881 68.7435 129.987 68.3505 130.2C67.9622 130.409 67.6545 130.7 67.4272 131.074C67.1999 131.443 67.0863 131.865 67.0863 132.338V139H64.9627ZM76.9496 139.22C75.8748 139.22 74.9491 138.991 74.1726 138.531C73.4008 138.067 72.8042 137.416 72.3828 136.578C71.9661 135.735 71.7578 134.748 71.7578 133.616C71.7578 132.499 71.9661 131.514 72.3828 130.662C72.8042 129.81 73.3913 129.144 74.1442 128.666C74.9018 128.188 75.7872 127.949 76.8004 127.949C77.416 127.949 78.0125 128.051 78.5902 128.254C79.1679 128.458 79.6863 128.777 80.1456 129.213C80.6049 129.649 80.9671 130.214 81.2322 130.911C81.4974 131.602 81.63 132.442 81.63 133.432V134.185H72.9581V132.594H79.549C79.549 132.035 79.4354 131.54 79.2081 131.109C78.9808 130.674 78.6612 130.33 78.2493 130.08C77.8421 129.829 77.3639 129.703 76.8146 129.703C76.218 129.703 75.6972 129.85 75.2521 130.143C74.8118 130.432 74.4709 130.811 74.2294 131.28C73.9927 131.744 73.8743 132.248 73.8743 132.793V134.036C73.8743 134.765 74.0021 135.385 74.2578 135.896C74.5182 136.408 74.8804 136.798 75.3445 137.068C75.8085 137.333 76.3506 137.466 76.9709 137.466C77.3733 137.466 77.7403 137.409 78.0717 137.295C78.4032 137.177 78.6896 137.002 78.9311 136.77C79.1726 136.538 79.3572 136.251 79.4851 135.911L81.495 136.273C81.334 136.865 81.0452 137.383 80.6286 137.828C80.2166 138.268 79.6982 138.612 79.0732 138.858C78.4529 139.099 77.745 139.22 76.9496 139.22ZM88.07 139.213C87.1893 139.213 86.4033 138.988 85.712 138.538C85.0254 138.084 84.4857 137.437 84.0927 136.599C83.7044 135.757 83.5103 134.746 83.5103 133.567C83.5103 132.388 83.7068 131.379 84.0998 130.541C84.4975 129.703 85.042 129.062 85.7333 128.616C86.4246 128.171 87.2082 127.949 88.0842 127.949C88.7612 127.949 89.3058 128.062 89.7177 128.29C90.1344 128.512 90.4563 128.773 90.6836 129.071C90.9156 129.369 91.0955 129.632 91.2234 129.859H91.3512V124.455H93.4748V139H91.4009V137.303H91.2234C91.0955 137.535 90.9109 137.8 90.6694 138.098C90.4326 138.396 90.1059 138.657 89.6893 138.879C89.2726 139.102 88.7328 139.213 88.07 139.213ZM88.5387 137.402C89.1495 137.402 89.6656 137.241 90.087 136.919C90.5131 136.592 90.8351 136.14 91.0529 135.562C91.2754 134.985 91.3867 134.312 91.3867 133.545C91.3867 132.788 91.2778 132.125 91.06 131.557C90.8422 130.989 90.5226 130.546 90.1012 130.229C89.6798 129.911 89.159 129.753 88.5387 129.753C87.8995 129.753 87.3668 129.919 86.9407 130.25C86.5146 130.581 86.1926 131.034 85.9748 131.607C85.7617 132.179 85.6552 132.826 85.6552 133.545C85.6552 134.275 85.7641 134.93 85.9819 135.513C86.1997 136.095 86.5217 136.557 86.9478 136.898C87.3787 137.234 87.909 137.402 88.5387 137.402ZM104.973 139.241C104.282 139.241 103.657 139.114 103.098 138.858C102.54 138.598 102.097 138.221 101.77 137.729C101.448 137.236 101.287 136.633 101.287 135.918C101.287 135.302 101.406 134.795 101.642 134.398C101.879 134 102.199 133.685 102.601 133.453C103.004 133.221 103.453 133.046 103.951 132.928C104.448 132.809 104.954 132.719 105.471 132.658C106.124 132.582 106.654 132.52 107.061 132.473C107.469 132.421 107.765 132.338 107.949 132.224C108.134 132.111 108.226 131.926 108.226 131.67V131.621C108.226 131 108.051 130.52 107.701 130.179C107.355 129.838 106.839 129.668 106.152 129.668C105.437 129.668 104.874 129.826 104.462 130.143C104.055 130.456 103.773 130.804 103.617 131.188L101.621 130.733C101.858 130.07 102.203 129.535 102.658 129.128C103.117 128.716 103.645 128.418 104.242 128.233C104.838 128.044 105.466 127.949 106.124 127.949C106.56 127.949 107.021 128.001 107.509 128.105C108.001 128.205 108.461 128.389 108.887 128.659C109.318 128.929 109.67 129.315 109.945 129.817C110.22 130.314 110.357 130.96 110.357 131.756V139H108.283V137.509H108.198C108.06 137.783 107.855 138.053 107.58 138.318C107.305 138.583 106.953 138.804 106.522 138.979C106.091 139.154 105.575 139.241 104.973 139.241ZM105.435 137.537C106.022 137.537 106.524 137.421 106.941 137.189C107.362 136.957 107.682 136.654 107.9 136.28C108.122 135.901 108.233 135.496 108.233 135.065V133.659C108.158 133.735 108.011 133.806 107.793 133.872C107.58 133.934 107.336 133.988 107.061 134.036C106.787 134.078 106.519 134.118 106.259 134.156C105.998 134.189 105.781 134.218 105.605 134.241C105.194 134.294 104.817 134.381 104.476 134.504C104.14 134.627 103.87 134.805 103.667 135.037C103.468 135.264 103.368 135.567 103.368 135.946C103.368 136.472 103.562 136.869 103.951 137.139C104.339 137.404 104.834 137.537 105.435 137.537ZM115.309 132.523V139H113.185V128.091H115.224V129.866H115.359C115.61 129.289 116.003 128.825 116.538 128.474C117.077 128.124 117.757 127.949 118.576 127.949C119.319 127.949 119.97 128.105 120.529 128.418C121.088 128.725 121.521 129.185 121.829 129.795C122.137 130.406 122.29 131.161 122.29 132.061V139H120.167V132.317C120.167 131.526 119.961 130.908 119.549 130.463C119.137 130.013 118.571 129.788 117.852 129.788C117.359 129.788 116.921 129.895 116.538 130.108C116.159 130.321 115.858 130.634 115.636 131.045C115.418 131.453 115.309 131.945 115.309 132.523ZM129.222 139.213C128.342 139.213 127.556 138.988 126.864 138.538C126.178 138.084 125.638 137.437 125.245 136.599C124.857 135.757 124.663 134.746 124.663 133.567C124.663 132.388 124.859 131.379 125.252 130.541C125.65 129.703 126.194 129.062 126.886 128.616C127.577 128.171 128.361 127.949 129.237 127.949C129.914 127.949 130.458 128.062 130.87 128.29C131.287 128.512 131.609 128.773 131.836 129.071C132.068 129.369 132.248 129.632 132.376 129.859H132.504V124.455H134.627V139H132.553V137.303H132.376C132.248 137.535 132.063 137.8 131.822 138.098C131.585 138.396 131.258 138.657 130.842 138.879C130.425 139.102 129.885 139.213 129.222 139.213ZM129.691 137.402C130.302 137.402 130.818 137.241 131.239 136.919C131.665 136.592 131.987 136.14 132.205 135.562C132.428 134.985 132.539 134.312 132.539 133.545C132.539 132.788 132.43 132.125 132.212 131.557C131.995 130.989 131.675 130.546 131.254 130.229C130.832 129.911 130.311 129.753 129.691 129.753C129.052 129.753 128.519 129.919 128.093 130.25C127.667 130.581 127.345 131.034 127.127 131.607C126.914 132.179 126.808 132.826 126.808 133.545C126.808 134.275 126.916 134.93 127.134 135.513C127.352 136.095 127.674 136.557 128.1 136.898C128.531 137.234 129.061 137.402 129.691 137.402ZM152.283 128.091L148.327 139H146.055L142.092 128.091H144.371L147.134 136.486H147.248L150.004 128.091H152.283ZM158.61 139.22C157.535 139.22 156.609 138.991 155.833 138.531C155.061 138.067 154.464 137.416 154.043 136.578C153.626 135.735 153.418 134.748 153.418 133.616C153.418 132.499 153.626 131.514 154.043 130.662C154.464 129.81 155.051 129.144 155.804 128.666C156.562 128.188 157.447 127.949 158.461 127.949C159.076 127.949 159.673 128.051 160.25 128.254C160.828 128.458 161.346 128.777 161.806 129.213C162.265 129.649 162.627 130.214 162.892 130.911C163.158 131.602 163.29 132.442 163.29 133.432V134.185H154.618V132.594H161.209C161.209 132.035 161.096 131.54 160.868 131.109C160.641 130.674 160.321 130.33 159.909 130.08C159.502 129.829 159.024 129.703 158.475 129.703C157.878 129.703 157.357 129.85 156.912 130.143C156.472 130.432 156.131 130.811 155.89 131.28C155.653 131.744 155.534 132.248 155.534 132.793V134.036C155.534 134.765 155.662 135.385 155.918 135.896C156.178 136.408 156.541 136.798 157.005 137.068C157.469 137.333 158.011 137.466 158.631 137.466C159.033 137.466 159.4 137.409 159.732 137.295C160.063 137.177 160.35 137.002 160.591 136.77C160.833 136.538 161.017 136.251 161.145 135.911L163.155 136.273C162.994 136.865 162.705 137.383 162.289 137.828C161.877 138.268 161.358 138.612 160.733 138.858C160.113 139.099 159.405 139.22 158.61 139.22ZM165.646 139V128.091H167.699V129.824H167.812C168.011 129.237 168.362 128.775 168.864 128.439C169.37 128.098 169.943 127.928 170.582 127.928C170.715 127.928 170.871 127.932 171.051 127.942C171.236 127.951 171.38 127.963 171.484 127.977V130.009C171.399 129.985 171.248 129.959 171.03 129.93C170.812 129.897 170.594 129.881 170.376 129.881C169.875 129.881 169.427 129.987 169.034 130.2C168.646 130.409 168.338 130.7 168.111 131.074C167.884 131.443 167.77 131.865 167.77 132.338V139H165.646ZM173.322 139V128.091H175.446V139H173.322ZM174.395 126.408C174.025 126.408 173.708 126.285 173.443 126.038C173.182 125.787 173.052 125.489 173.052 125.143C173.052 124.793 173.182 124.495 173.443 124.249C173.708 123.998 174.025 123.872 174.395 123.872C174.764 123.872 175.079 123.998 175.339 124.249C175.604 124.495 175.737 124.793 175.737 125.143C175.737 125.489 175.604 125.787 175.339 126.038C175.079 126.285 174.764 126.408 174.395 126.408ZM183.494 128.091V129.795H177.33V128.091H183.494ZM179.02 139V126.827C179.02 126.145 179.169 125.579 179.467 125.129C179.766 124.675 180.161 124.336 180.653 124.114C181.146 123.886 181.681 123.773 182.259 123.773C182.685 123.773 183.049 123.808 183.352 123.879C183.655 123.946 183.88 124.007 184.027 124.064L183.53 125.783C183.43 125.754 183.303 125.721 183.146 125.683C182.99 125.641 182.801 125.619 182.578 125.619C182.062 125.619 181.693 125.747 181.47 126.003C181.252 126.259 181.143 126.628 181.143 127.111V139H179.02ZM185.685 139V128.091H187.809V139H185.685ZM186.758 126.408C186.388 126.408 186.071 126.285 185.806 126.038C185.546 125.787 185.415 125.489 185.415 125.143C185.415 124.793 185.546 124.495 185.806 124.249C186.071 123.998 186.388 123.872 186.758 123.872C187.127 123.872 187.442 123.998 187.702 124.249C187.968 124.495 188.1 124.793 188.1 125.143C188.1 125.489 187.968 125.787 187.702 126.038C187.442 126.285 187.127 126.408 186.758 126.408ZM195.368 139.22C194.293 139.22 193.367 138.991 192.591 138.531C191.819 138.067 191.222 137.416 190.801 136.578C190.384 135.735 190.176 134.748 190.176 133.616C190.176 132.499 190.384 131.514 190.801 130.662C191.222 129.81 191.809 129.144 192.562 128.666C193.32 128.188 194.205 127.949 195.218 127.949C195.834 127.949 196.431 128.051 197.008 128.254C197.586 128.458 198.104 128.777 198.564 129.213C199.023 129.649 199.385 130.214 199.65 130.911C199.915 131.602 200.048 132.442 200.048 133.432V134.185H191.376V132.594H197.967C197.967 132.035 197.853 131.54 197.626 131.109C197.399 130.674 197.079 130.33 196.667 130.08C196.26 129.829 195.782 129.703 195.233 129.703C194.636 129.703 194.115 129.85 193.67 130.143C193.23 130.432 192.889 130.811 192.647 131.28C192.411 131.744 192.292 132.248 192.292 132.793V134.036C192.292 134.765 192.42 135.385 192.676 135.896C192.936 136.408 193.298 136.798 193.762 137.068C194.226 137.333 194.769 137.466 195.389 137.466C195.791 137.466 196.158 137.409 196.49 137.295C196.821 137.177 197.108 137.002 197.349 136.77C197.591 136.538 197.775 136.251 197.903 135.911L199.913 136.273C199.752 136.865 199.463 137.383 199.047 137.828C198.635 138.268 198.116 138.612 197.491 138.858C196.871 139.099 196.163 139.22 195.368 139.22ZM206.488 139.213C205.607 139.213 204.821 138.988 204.13 138.538C203.443 138.084 202.904 137.437 202.511 136.599C202.122 135.757 201.928 134.746 201.928 133.567C201.928 132.388 202.125 131.379 202.518 130.541C202.915 129.703 203.46 129.062 204.151 128.616C204.843 128.171 205.626 127.949 206.502 127.949C207.179 127.949 207.724 128.062 208.136 128.29C208.552 128.512 208.874 128.773 209.102 129.071C209.334 129.369 209.513 129.632 209.641 129.859H209.769V124.455H211.893V139H209.819V137.303H209.641C209.513 137.535 209.329 137.8 209.087 138.098C208.851 138.396 208.524 138.657 208.107 138.879C207.691 139.102 207.151 139.213 206.488 139.213ZM206.957 137.402C207.567 137.402 208.084 137.241 208.505 136.919C208.931 136.592 209.253 136.14 209.471 135.562C209.693 134.985 209.805 134.312 209.805 133.545C209.805 132.788 209.696 132.125 209.478 131.557C209.26 130.989 208.941 130.546 208.519 130.229C208.098 129.911 207.577 129.753 206.957 129.753C206.317 129.753 205.785 129.919 205.359 130.25C204.933 130.581 204.611 131.034 204.393 131.607C204.18 132.179 204.073 132.826 204.073 133.545C204.073 134.275 204.182 134.93 204.4 135.513C204.618 136.095 204.94 136.557 205.366 136.898C205.797 137.234 206.327 137.402 206.957 137.402ZM232.127 124.455V139H230.11L222.717 128.332H222.582V139H220.387V124.455H222.418L229.819 135.136H229.954V124.455H232.127ZM245.172 129.05C245.035 128.619 244.85 128.233 244.618 127.892C244.391 127.546 244.119 127.253 243.801 127.011C243.484 126.765 243.122 126.578 242.715 126.45C242.312 126.322 241.87 126.259 241.387 126.259C240.568 126.259 239.829 126.469 239.171 126.891C238.513 127.312 237.992 127.93 237.608 128.744C237.23 129.554 237.04 130.546 237.04 131.72C237.04 132.899 237.232 133.896 237.615 134.71C237.999 135.525 238.525 136.143 239.192 136.564C239.86 136.985 240.62 137.196 241.472 137.196C242.263 137.196 242.952 137.035 243.539 136.713C244.131 136.391 244.587 135.937 244.909 135.349C245.236 134.758 245.4 134.062 245.4 133.261L245.968 133.368H241.806V131.557H247.523V133.212C247.523 134.433 247.263 135.494 246.742 136.393C246.226 137.288 245.511 137.98 244.597 138.467C243.688 138.955 242.646 139.199 241.472 139.199C240.156 139.199 239 138.896 238.006 138.29C237.016 137.684 236.245 136.824 235.691 135.712C235.137 134.594 234.86 133.268 234.86 131.734C234.86 130.574 235.021 129.533 235.343 128.609C235.665 127.686 236.117 126.902 236.699 126.259C237.286 125.61 237.975 125.115 238.766 124.774C239.561 124.429 240.43 124.256 241.373 124.256C242.158 124.256 242.89 124.372 243.567 124.604C244.249 124.836 244.855 125.165 245.385 125.591C245.92 126.017 246.363 126.524 246.713 127.111C247.064 127.693 247.301 128.339 247.424 129.05H245.172ZM262.944 131.727C262.944 133.28 262.66 134.616 262.092 135.733C261.523 136.846 260.745 137.703 259.755 138.304C258.77 138.901 257.65 139.199 256.396 139.199C255.136 139.199 254.012 138.901 253.022 138.304C252.037 137.703 251.261 136.843 250.692 135.726C250.124 134.608 249.84 133.276 249.84 131.727C249.84 130.174 250.124 128.841 250.692 127.729C251.261 126.611 252.037 125.754 253.022 125.158C254.012 124.556 255.136 124.256 256.396 124.256C257.65 124.256 258.77 124.556 259.755 125.158C260.745 125.754 261.523 126.611 262.092 127.729C262.66 128.841 262.944 130.174 262.944 131.727ZM260.771 131.727C260.771 130.544 260.579 129.547 260.195 128.737C259.817 127.923 259.296 127.307 258.633 126.891C257.975 126.469 257.229 126.259 256.396 126.259C255.558 126.259 254.809 126.469 254.151 126.891C253.493 127.307 252.972 127.923 252.589 128.737C252.21 129.547 252.021 130.544 252.021 131.727C252.021 132.911 252.21 133.91 252.589 134.724C252.972 135.534 253.493 136.15 254.151 136.571C254.809 136.988 255.558 137.196 256.396 137.196C257.229 137.196 257.975 136.988 258.633 136.571C259.296 136.15 259.817 135.534 260.195 134.724C260.579 133.91 260.771 132.911 260.771 131.727ZM273.684 130.754L271.76 131.095C271.679 130.849 271.551 130.615 271.376 130.392C271.206 130.17 270.974 129.987 270.68 129.845C270.386 129.703 270.02 129.632 269.579 129.632C268.978 129.632 268.476 129.767 268.074 130.037C267.671 130.302 267.47 130.645 267.47 131.067C267.47 131.431 267.605 131.725 267.875 131.947C268.145 132.17 268.58 132.352 269.181 132.494L270.914 132.892C271.918 133.124 272.666 133.482 273.159 133.964C273.651 134.447 273.897 135.075 273.897 135.847C273.897 136.5 273.708 137.082 273.329 137.594C272.955 138.1 272.432 138.498 271.76 138.787C271.092 139.076 270.318 139.22 269.437 139.22C268.216 139.22 267.219 138.96 266.447 138.439C265.675 137.913 265.202 137.168 265.027 136.202L267.079 135.889C267.207 136.424 267.47 136.829 267.868 137.104C268.265 137.374 268.784 137.509 269.423 137.509C270.119 137.509 270.675 137.364 271.092 137.075C271.509 136.782 271.717 136.424 271.717 136.003C271.717 135.662 271.589 135.375 271.333 135.143C271.083 134.911 270.697 134.736 270.176 134.618L268.329 134.213C267.311 133.981 266.558 133.612 266.071 133.105C265.588 132.598 265.346 131.957 265.346 131.18C265.346 130.536 265.526 129.973 265.886 129.49C266.246 129.007 266.743 128.631 267.377 128.361C268.012 128.086 268.739 127.949 269.558 127.949C270.737 127.949 271.665 128.205 272.342 128.716C273.019 129.223 273.467 129.902 273.684 130.754Z" fill="#525252"/>
<path d="M37.88 51.176C37.88 71.528 52.088 77.96 69.464 77.96C85.688 77.96 98.552 72.008 98.552 58.664C98.552 46.664 90.2 45.224 81.56 44.072V40.232C90.2 38.792 97.592 36.872 97.592 26.696C97.592 14.312 85.688 8.36 69.464 8.36C52.088 8.36 38.84 14.792 38.84 32.264H54.2C54.2 24.488 57.464 21.8 69.464 21.8C79.352 21.8 82.232 24.104 82.232 28.616C82.232 33.032 79.64 35.432 73.88 35.432H64.472V48.872H73.88C79.64 48.872 83.192 51.368 83.192 56.744C83.192 62.216 79.352 64.52 69.464 64.52C57.464 64.52 53.24 61.832 53.24 51.176H37.88ZM139.824 8.36C119.28 8.36 107.184 22.472 107.184 43.112C107.184 63.848 119.28 77.96 139.824 77.96C160.272 77.96 172.368 63.848 172.368 43.112C172.368 22.472 160.272 8.36 139.824 8.36ZM139.824 21.8C143.568 21.8 146.832 22.664 149.424 24.392L123.6 51.944C122.928 49.352 122.544 46.472 122.544 43.112C122.544 29.192 128.976 21.8 139.824 21.8ZM139.824 64.52C136.08 64.52 132.816 63.656 130.128 61.832L155.952 34.28C156.624 36.872 157.008 39.848 157.008 43.112C157.008 57.128 150.672 64.52 139.824 64.52ZM220.06 77H237.532L221.116 52.136L228.604 48.68C232.828 46.664 234.652 43.688 234.652 39.08V28.52H219.292L219.484 37.256L197.308 47.432V6.44H181.948V77H197.308V63.272L207.964 58.28L220.06 77Z" fill="#061818"/>
</svg>
