<svg width="160" height="76" viewBox="0 0 160 76" fill="none" xmlns="http://www.w3.org/2000/svg">
<path d="M32.8843 31.5403C35.7717 33.6098 39.3089 34.8276 43.1293 34.8276V27.4562C42.4064 27.4565 41.6852 27.3808 40.9779 27.2305V33.0327C37.1577 33.0327 33.621 31.8151 30.7327 29.7457V44.7883C30.7327 52.3133 24.6488 58.4132 17.1442 58.4132C14.3442 58.4132 11.7416 57.5643 9.57959 56.1086C12.0471 58.6384 15.4883 60.2077 19.2953 60.2077C26.8003 60.2077 32.8845 54.1079 32.8845 46.5825L32.8843 31.5403ZM35.5384 24.1036C34.0629 22.4871 33.094 20.3981 32.8843 18.0887V17.1406H30.8454C31.3587 20.076 33.1091 22.5837 35.5384 24.1036ZM14.3262 50.3341C13.5017 49.2502 13.0562 47.9243 13.0582 46.5609C13.0582 43.1193 15.841 40.3287 19.2742 40.3287C19.914 40.3286 20.5499 40.4268 21.1597 40.6208V33.0848C20.4471 32.9869 19.728 32.9454 19.0091 32.9606V38.8262C18.3989 38.6323 17.7626 38.5337 17.1226 38.5343C13.6895 38.5343 10.9068 41.3245 10.9068 44.7667C10.9068 47.2005 12.2977 49.3076 14.3262 50.3341Z" fill="#05060F" fill-opacity="0.16"/>
<path d="M30.734 29.7456C33.6223 31.815 37.159 33.0326 40.9792 33.0326V27.2304C38.8467 26.7749 36.959 25.6577 35.5398 24.1036C33.1103 22.5835 31.36 20.0759 30.8467 17.1406H25.4912V46.5822C25.479 50.0145 22.701 52.7937 19.2752 52.7937C17.2564 52.7937 15.4629 51.8288 14.3271 50.3341C12.2987 49.3076 10.9078 47.2004 10.9078 44.7668C10.9078 41.325 13.6904 38.5345 17.1236 38.5345C17.7814 38.5345 18.4154 38.6371 19.0101 38.8263V32.9607C11.6374 33.1135 5.70801 39.1537 5.70801 46.5824C5.70801 50.2907 7.18457 53.6524 9.58105 56.1088C11.743 57.5643 14.3456 58.4133 17.1457 58.4133C24.6504 58.4133 30.7342 52.3132 30.7342 44.7883L30.734 29.7456Z" fill="#05060F" fill-opacity="0.32"/>
<path d="M40.9811 27.2319V25.6629C39.0583 25.6659 37.1732 25.1259 35.5418 24.1048C36.9859 25.6902 38.8876 26.7834 40.9811 27.2319ZM30.8487 17.1421C30.7997 16.8616 30.7621 16.5792 30.7361 16.2958V15.3477H23.3414V44.7895C23.3296 48.2213 20.5517 51.0005 17.1256 51.0005C16.1198 51.0005 15.17 50.7611 14.329 50.3357C15.4649 51.8302 17.2583 52.7949 19.2772 52.7949C22.7027 52.7949 25.4811 50.0161 25.4931 46.5838V17.1421H30.8487ZM19.0124 32.9621V31.292C18.3945 31.2073 17.7716 31.1648 17.1478 31.165C9.64257 31.1649 3.55859 37.2651 3.55859 44.7895C3.55859 49.507 5.9497 53.6644 9.58317 56.1099C7.18669 53.6538 5.71013 50.2918 5.71013 46.5836C5.71013 39.1551 11.6394 33.1149 19.0124 32.9621Z" fill="#05060F" fill-opacity="0.16"/>
<path d="M126.66 52.2451C132.03 52.2451 136.383 47.9132 136.383 42.5701C136.383 37.2272 132.03 32.8945 126.66 32.8945H125.195C130.565 32.8945 134.918 37.227 134.918 42.5701C134.918 47.9132 130.565 52.2451 125.195 52.2451H126.66Z" fill="#05060F" fill-opacity="0.16"/>
<path d="M125.062 32.8945H123.597C118.227 32.8945 113.873 37.227 113.873 42.5701C113.873 47.9132 118.227 52.2451 123.597 52.2451H125.062C119.69 52.2451 115.338 47.9132 115.338 42.5701C115.338 37.2272 119.69 32.8945 125.062 32.8945Z" fill="#05060F" fill-opacity="0.16"/>
<path d="M51.145 28.5215V33.4255H56.8712V52.1126H62.5998V33.558H67.2611L68.8593 28.5216L51.145 28.5215ZM98.0283 28.5215V33.4255H103.754V52.1126H109.483V33.558H114.144L115.742 28.5216L98.0283 28.5215ZM69.9259 31.3044C69.9259 29.7678 71.1759 28.5215 72.7206 28.5215C74.2664 28.5215 75.518 29.7678 75.518 31.3044C75.518 32.8413 74.2672 34.0876 72.7206 34.0876C71.1759 34.0869 69.9259 32.8413 69.9259 31.3044ZM69.9259 36.0762H75.518V52.1126H69.9259V36.0762ZM77.9159 28.5215V52.1124H83.5103V46.0165L85.242 44.4246L90.7021 52.2449H96.6952L88.8363 40.847L95.8956 33.9544H89.1031L83.5103 39.5207V28.5215H77.9159ZM138.251 28.5215V52.1124H143.845V46.0165L145.576 44.4246L151.037 52.2449H157.032L149.173 40.847L156.232 33.9544H149.44L143.845 39.5207V28.5215H138.251Z" fill="#05060F" fill-opacity="0.32"/>
<path d="M125.196 52.2451C130.567 52.2451 134.921 47.9132 134.921 42.5701C134.921 37.2272 130.567 32.8945 125.196 32.8945H125.064C119.694 32.8945 115.34 37.227 115.34 42.5701C115.34 47.9132 119.694 52.2451 125.064 52.2451H125.196ZM120.402 42.5701C120.402 39.971 122.52 37.8658 125.131 37.8658C127.742 37.8658 129.858 39.971 129.858 42.5701C129.858 45.1692 127.742 47.2757 125.131 47.2757C122.52 47.2752 120.402 45.1692 120.402 42.5701Z" fill="#05060F" fill-opacity="0.32"/>
</svg>
