<svg width="30" height="30" viewBox="0 0 30 30" fill="none" xmlns="http://www.w3.org/2000/svg">
<g clip-path="url(#clip0_68_52027)">
<path d="M10.1011 6.88161L13.7585 3.2229L13.7498 22.5201C13.7498 23.2104 14.3094 23.7701 14.9997 23.7701C15.6901 23.7701 16.2497 23.2104 16.2497 22.5201L16.2584 3.24417L19.8984 6.88536C20.395 7.36494 21.1863 7.35123 21.6659 6.85466C22.1337 6.37027 22.1337 5.6023 21.6659 5.11791L17.6522 1.0992C16.1882 -0.365736 13.8139 -0.366498 12.3489 1.0975C12.3484 1.09809 12.3478 1.09862 12.3472 1.0992L8.33356 5.11416C7.85398 5.61073 7.86769 6.40203 8.36427 6.88161C8.84865 7.34947 9.61663 7.34947 10.1011 6.88161Z" fill="#061818"/>
<path d="M28.7497 20C28.0594 20 27.4997 20.5596 27.4997 21.25V26.2499C27.4997 26.9402 26.9401 27.4998 26.2498 27.4998H3.75013C3.05979 27.4998 2.50017 26.9402 2.50017 26.2499V21.25C2.50017 20.5596 1.94055 20 1.25021 20C0.559864 20 0.000244141 20.5596 0.000244141 21.25V26.2499C0.000244141 28.3209 1.67916 29.9998 3.75019 29.9998H26.2498C28.3209 29.9998 29.9998 28.3209 29.9998 26.2499V21.25C29.9997 20.5596 29.44 20 28.7497 20Z" fill="#061818"/>
</g>
<defs>
<clipPath id="clip0_68_52027">
<rect width="30" height="30" fill="white"/>
</clipPath>
</defs>
</svg>
